G04 #@! TF.FileFunction,Legend,Top*
%FSLAX46Y46*%
G04 Gerber Fmt 4.6, Leading zero omitted, Abs format (unit mm)*
G04 Created by KiCad (PCBNEW 4.0.1-stable) date 2017/10/27 20:03:41*
%MOMM*%
G01*
G04 APERTURE LIST*
%ADD10C,0.100000*%
%ADD11C,0.150000*%
%ADD12C,0.120000*%
G04 APERTURE END LIST*
D10*
D11*
X146190000Y-64350000D02*
X144920000Y-64350000D01*
X146190000Y-55460000D02*
X146190000Y-60540000D01*
X144920000Y-61810000D02*
G75*
G03X146190000Y-60540000I0J1270000D01*
G01*
X144920000Y-61810000D02*
G75*
G03X143650000Y-63080000I0J-1270000D01*
G01*
X143650000Y-63080000D02*
G75*
G03X144920000Y-64350000I1270000J0D01*
G01*
X146190000Y-55460000D02*
G75*
G03X144920000Y-54190000I-1270000J0D01*
G01*
X143650000Y-52920000D02*
G75*
G03X144920000Y-54190000I1270000J0D01*
G01*
X144920000Y-51650000D02*
G75*
G03X143650000Y-52920000I0J-1270000D01*
G01*
X146190000Y-51650000D02*
X144920000Y-51650000D01*
X146190000Y-51650000D02*
X147460000Y-51650000D01*
X146190000Y-64350000D02*
X147460000Y-64350000D01*
X155080000Y-61810000D02*
X155080000Y-54190000D01*
X155080000Y-54190000D02*
X152540000Y-51650000D01*
X152540000Y-51650000D02*
X147460000Y-51650000D01*
X155080000Y-61810000D02*
X152540000Y-64350000D01*
X152540000Y-64350000D02*
X147460000Y-64350000D01*
X146190000Y-81850000D02*
X144920000Y-81850000D01*
X146190000Y-72960000D02*
X146190000Y-78040000D01*
X144920000Y-79310000D02*
G75*
G03X146190000Y-78040000I0J1270000D01*
G01*
X144920000Y-79310000D02*
G75*
G03X143650000Y-80580000I0J-1270000D01*
G01*
X143650000Y-80580000D02*
G75*
G03X144920000Y-81850000I1270000J0D01*
G01*
X146190000Y-72960000D02*
G75*
G03X144920000Y-71690000I-1270000J0D01*
G01*
X143650000Y-70420000D02*
G75*
G03X144920000Y-71690000I1270000J0D01*
G01*
X144920000Y-69150000D02*
G75*
G03X143650000Y-70420000I0J-1270000D01*
G01*
X146190000Y-69150000D02*
X144920000Y-69150000D01*
X146190000Y-69150000D02*
X147460000Y-69150000D01*
X146190000Y-81850000D02*
X147460000Y-81850000D01*
X155080000Y-79310000D02*
X155080000Y-71690000D01*
X155080000Y-71690000D02*
X152540000Y-69150000D01*
X152540000Y-69150000D02*
X147460000Y-69150000D01*
X155080000Y-79310000D02*
X152540000Y-81850000D01*
X152540000Y-81850000D02*
X147460000Y-81850000D01*
D12*
X152330000Y-92870000D02*
G75*
G02X147210000Y-92870000I-2560000J0D01*
G01*
X147210000Y-86710000D02*
X147210000Y-92870000D01*
X152330000Y-86710000D02*
X152330000Y-92870000D01*
X147210000Y-86710000D02*
X152330000Y-86710000D01*
X152730000Y-86710000D02*
X152730000Y-87830000D01*
X152730000Y-87830000D02*
X152330000Y-87830000D01*
X152330000Y-87830000D02*
X152330000Y-86710000D01*
X152330000Y-86710000D02*
X152730000Y-86710000D01*
X148500000Y-86580000D02*
X148500000Y-86710000D01*
X148500000Y-86710000D02*
X148500000Y-86710000D01*
X148500000Y-86710000D02*
X148500000Y-86580000D01*
X148500000Y-86580000D02*
X148500000Y-86580000D01*
X151040000Y-86580000D02*
X151040000Y-86710000D01*
X151040000Y-86710000D02*
X151040000Y-86710000D01*
X151040000Y-86710000D02*
X151040000Y-86580000D01*
X151040000Y-86580000D02*
X151040000Y-86580000D01*
D11*
X156278571Y-58785714D02*
X156326190Y-58642857D01*
X156373810Y-58595238D01*
X156469048Y-58547619D01*
X156611905Y-58547619D01*
X156707143Y-58595238D01*
X156754762Y-58642857D01*
X156802381Y-58738095D01*
X156802381Y-59119048D01*
X155802381Y-59119048D01*
X155802381Y-58785714D01*
X155850000Y-58690476D01*
X155897619Y-58642857D01*
X155992857Y-58595238D01*
X156088095Y-58595238D01*
X156183333Y-58642857D01*
X156230952Y-58690476D01*
X156278571Y-58785714D01*
X156278571Y-59119048D01*
X155802381Y-58261905D02*
X155802381Y-57690476D01*
X156802381Y-57976191D02*
X155802381Y-57976191D01*
X156802381Y-56833333D02*
X156802381Y-57404762D01*
X156802381Y-57119048D02*
X155802381Y-57119048D01*
X155945238Y-57214286D01*
X156040476Y-57309524D01*
X156088095Y-57404762D01*
X156278571Y-76285714D02*
X156326190Y-76142857D01*
X156373810Y-76095238D01*
X156469048Y-76047619D01*
X156611905Y-76047619D01*
X156707143Y-76095238D01*
X156754762Y-76142857D01*
X156802381Y-76238095D01*
X156802381Y-76619048D01*
X155802381Y-76619048D01*
X155802381Y-76285714D01*
X155850000Y-76190476D01*
X155897619Y-76142857D01*
X155992857Y-76095238D01*
X156088095Y-76095238D01*
X156183333Y-76142857D01*
X156230952Y-76190476D01*
X156278571Y-76285714D01*
X156278571Y-76619048D01*
X155802381Y-75761905D02*
X155802381Y-75190476D01*
X156802381Y-75476191D02*
X155802381Y-75476191D01*
X155897619Y-74904762D02*
X155850000Y-74857143D01*
X155802381Y-74761905D01*
X155802381Y-74523809D01*
X155850000Y-74428571D01*
X155897619Y-74380952D01*
X155992857Y-74333333D01*
X156088095Y-74333333D01*
X156230952Y-74380952D01*
X156802381Y-74952381D01*
X156802381Y-74333333D01*
X149031905Y-83992381D02*
X149031905Y-82992381D01*
X149270000Y-82992381D01*
X149412858Y-83040000D01*
X149508096Y-83135238D01*
X149555715Y-83230476D01*
X149603334Y-83420952D01*
X149603334Y-83563810D01*
X149555715Y-83754286D01*
X149508096Y-83849524D01*
X149412858Y-83944762D01*
X149270000Y-83992381D01*
X149031905Y-83992381D01*
X150555715Y-83992381D02*
X149984286Y-83992381D01*
X150270000Y-83992381D02*
X150270000Y-82992381D01*
X150174762Y-83135238D01*
X150079524Y-83230476D01*
X149984286Y-83278095D01*
X148166667Y-40324762D02*
X148309524Y-40372381D01*
X148547620Y-40372381D01*
X148642858Y-40324762D01*
X148690477Y-40277143D01*
X148738096Y-40181905D01*
X148738096Y-40086667D01*
X148690477Y-39991429D01*
X148642858Y-39943810D01*
X148547620Y-39896190D01*
X148357143Y-39848571D01*
X148261905Y-39800952D01*
X148214286Y-39753333D01*
X148166667Y-39658095D01*
X148166667Y-39562857D01*
X148214286Y-39467619D01*
X148261905Y-39420000D01*
X148357143Y-39372381D01*
X148595239Y-39372381D01*
X148738096Y-39420000D01*
X149071429Y-39372381D02*
X149309524Y-40372381D01*
X149500001Y-39658095D01*
X149690477Y-40372381D01*
X149928572Y-39372381D01*
X150833334Y-40372381D02*
X150261905Y-40372381D01*
X150547619Y-40372381D02*
X150547619Y-39372381D01*
X150452381Y-39515238D01*
X150357143Y-39610476D01*
X150261905Y-39658095D01*
M02*
