G04 #@! TF.FileFunction,Copper,L1,Top,Signal*
%FSLAX46Y46*%
G04 Gerber Fmt 4.6, Leading zero omitted, Abs format (unit mm)*
G04 Created by KiCad (PCBNEW 4.0.1-stable) date 2017/10/27 20:03:41*
%MOMM*%
G01*
G04 APERTURE LIST*
%ADD10C,0.100000*%
%ADD11C,3.810000*%
%ADD12R,4.060000X4.060000*%
%ADD13R,1.800000X1.800000*%
%ADD14C,1.800000*%
%ADD15R,3.000000X7.000000*%
%ADD16C,0.600000*%
%ADD17C,1.000000*%
%ADD18C,0.250000*%
G04 APERTURE END LIST*
D10*
D11*
X152540000Y-64350000D03*
X147460000Y-64350000D03*
X147460000Y-51650000D03*
X152540000Y-51650000D03*
D12*
X150000000Y-58000000D03*
D11*
X152540000Y-81850000D03*
X147460000Y-81850000D03*
X147460000Y-69150000D03*
X152540000Y-69150000D03*
D12*
X150000000Y-75500000D03*
D13*
X148500000Y-85500000D03*
D14*
X151040000Y-85500000D03*
D15*
X153310000Y-45000000D03*
X149627000Y-45000000D03*
X145817000Y-45000000D03*
D16*
X151000000Y-49500000D03*
D17*
X147460000Y-64350000D02*
X152540000Y-64350000D01*
X152540000Y-64350000D02*
X155000000Y-61890000D01*
X155000000Y-61890000D02*
X155000000Y-53000000D01*
X155000000Y-53000000D02*
X153650000Y-51650000D01*
X153650000Y-51650000D02*
X152540000Y-51650000D01*
X149627000Y-45000000D02*
X149627000Y-51650000D01*
X149500000Y-51500000D02*
X149500000Y-51650000D01*
X149500000Y-51523000D02*
X149500000Y-51500000D01*
X149627000Y-51650000D02*
X149500000Y-51523000D01*
X152540000Y-51650000D02*
X149500000Y-51650000D01*
X149500000Y-51650000D02*
X147460000Y-51650000D01*
X152540000Y-69150000D02*
X147460000Y-69150000D01*
X147460000Y-81850000D02*
X152540000Y-81850000D01*
X152540000Y-81850000D02*
X155000000Y-79390000D01*
X155000000Y-79390000D02*
X155000000Y-71610000D01*
X155000000Y-71610000D02*
X152540000Y-69150000D01*
X150000000Y-58000000D02*
X148000000Y-58000000D01*
X148000000Y-58000000D02*
X144500000Y-61500000D01*
X144500000Y-66190000D02*
X147460000Y-69150000D01*
X144500000Y-61500000D02*
X144500000Y-66190000D01*
X148500000Y-85500000D02*
X146500000Y-85500000D01*
X147000000Y-75500000D02*
X150000000Y-75500000D01*
X144500000Y-78000000D02*
X147000000Y-75500000D01*
X144500000Y-83500000D02*
X144500000Y-78000000D01*
X146500000Y-85500000D02*
X144500000Y-83500000D01*
D18*
X153310000Y-45000000D02*
X153310000Y-47190000D01*
X153310000Y-47190000D02*
X151000000Y-49500000D01*
M02*
