G04 #@! TF.FileFunction,Soldermask,Top*
%FSLAX46Y46*%
G04 Gerber Fmt 4.6, Leading zero omitted, Abs format (unit mm)*
G04 Created by KiCad (PCBNEW 4.0.1-stable) date 2016/10/28 19:13:38*
%MOMM*%
G01*
G04 APERTURE LIST*
%ADD10C,0.100000*%
%ADD11C,2.000000*%
%ADD12C,2.900000*%
%ADD13O,2.400000X2.900000*%
%ADD14O,2.900000X2.400000*%
%ADD15R,2.400000X0.900000*%
%ADD16R,1.900000X1.400000*%
G04 APERTURE END LIST*
D10*
D11*
X134250000Y-100750000D03*
X127750000Y-100750000D03*
X134250000Y-96250000D03*
X127750000Y-96250000D03*
X148750000Y-96250000D03*
X155250000Y-96250000D03*
X148750000Y-100750000D03*
X155250000Y-100750000D03*
D12*
X147960000Y-71800000D03*
X134960000Y-71800000D03*
D13*
X138206000Y-124176000D03*
X144206000Y-124176000D03*
X144206000Y-116176000D03*
X138206000Y-116176000D03*
D14*
X141206000Y-115176000D03*
D15*
X144254000Y-95895000D03*
X144254000Y-94625000D03*
X144254000Y-93355000D03*
X144254000Y-92085000D03*
X144254000Y-90815000D03*
X144254000Y-89545000D03*
X144254000Y-88275000D03*
X144254000Y-87005000D03*
X139174000Y-95895000D03*
X139174000Y-94625000D03*
X139174000Y-93355000D03*
X139174000Y-92085000D03*
X139174000Y-90815000D03*
X139174000Y-89545000D03*
X139174000Y-88275000D03*
X139174000Y-87005000D03*
D16*
X153906000Y-110068000D03*
X153906000Y-106868000D03*
X148318000Y-110068000D03*
X148318000Y-106868000D03*
D11*
X134804000Y-86842000D03*
X128304000Y-86842000D03*
X134804000Y-82342000D03*
X128304000Y-82342000D03*
X134804000Y-113004000D03*
X128304000Y-113004000D03*
X134804000Y-108504000D03*
X128304000Y-108504000D03*
X148116000Y-82342000D03*
X154616000Y-82342000D03*
X148116000Y-86842000D03*
X154616000Y-86842000D03*
X142730000Y-101102000D03*
X140190000Y-101102000D03*
M02*
