G04 #@! TF.FileFunction,Legend,Bot*
%FSLAX46Y46*%
G04 Gerber Fmt 4.6, Leading zero omitted, Abs format (unit mm)*
G04 Created by KiCad (PCBNEW 4.0.1-stable) date 2016/10/28 19:13:38*
%MOMM*%
G01*
G04 APERTURE LIST*
%ADD10C,0.100000*%
%ADD11C,0.300000*%
%ADD12C,0.150000*%
G04 APERTURE END LIST*
D10*
D11*
X153678571Y-107357143D02*
X152178571Y-107357143D01*
X152178571Y-107714286D01*
X152250000Y-107928571D01*
X152392857Y-108071429D01*
X152535714Y-108142857D01*
X152821429Y-108214286D01*
X153035714Y-108214286D01*
X153321429Y-108142857D01*
X153464286Y-108071429D01*
X153607143Y-107928571D01*
X153678571Y-107714286D01*
X153678571Y-107357143D01*
X153607143Y-109428571D02*
X153678571Y-109285714D01*
X153678571Y-109000000D01*
X153607143Y-108857143D01*
X153464286Y-108785714D01*
X152892857Y-108785714D01*
X152750000Y-108857143D01*
X152678571Y-109000000D01*
X152678571Y-109285714D01*
X152750000Y-109428571D01*
X152892857Y-109500000D01*
X153035714Y-109500000D01*
X153178571Y-108785714D01*
X152678571Y-110142857D02*
X153678571Y-110142857D01*
X152821429Y-110142857D02*
X152750000Y-110214285D01*
X152678571Y-110357143D01*
X152678571Y-110571428D01*
X152750000Y-110714285D01*
X152892857Y-110785714D01*
X153678571Y-110785714D01*
X153678571Y-111500000D02*
X152178571Y-111500000D01*
X153107143Y-111642857D02*
X153678571Y-112071428D01*
X152678571Y-112071428D02*
X153250000Y-111500000D01*
X153607143Y-113285714D02*
X153678571Y-113142857D01*
X153678571Y-112857143D01*
X153607143Y-112714286D01*
X153464286Y-112642857D01*
X152892857Y-112642857D01*
X152750000Y-112714286D01*
X152678571Y-112857143D01*
X152678571Y-113142857D01*
X152750000Y-113285714D01*
X152892857Y-113357143D01*
X153035714Y-113357143D01*
X153178571Y-112642857D01*
X152678571Y-114000000D02*
X153678571Y-114000000D01*
X152821429Y-114000000D02*
X152750000Y-114071428D01*
X152678571Y-114214286D01*
X152678571Y-114428571D01*
X152750000Y-114571428D01*
X152892857Y-114642857D01*
X153678571Y-114642857D01*
X150904762Y-107452380D02*
X148904762Y-107452380D01*
X148904762Y-107928571D01*
X149000000Y-108214285D01*
X149190476Y-108404761D01*
X149380952Y-108500000D01*
X149761905Y-108595238D01*
X150047619Y-108595238D01*
X150428571Y-108500000D01*
X150619048Y-108404761D01*
X150809524Y-108214285D01*
X150904762Y-107928571D01*
X150904762Y-107452380D01*
X150809524Y-109357142D02*
X150904762Y-109642857D01*
X150904762Y-110119047D01*
X150809524Y-110309523D01*
X150714286Y-110404761D01*
X150523810Y-110500000D01*
X150333333Y-110500000D01*
X150142857Y-110404761D01*
X150047619Y-110309523D01*
X149952381Y-110119047D01*
X149857143Y-109738095D01*
X149761905Y-109547619D01*
X149666667Y-109452380D01*
X149476190Y-109357142D01*
X149285714Y-109357142D01*
X149095238Y-109452380D01*
X149000000Y-109547619D01*
X148904762Y-109738095D01*
X148904762Y-110214285D01*
X149000000Y-110500000D01*
X150904762Y-111357142D02*
X148904762Y-111357142D01*
X148904762Y-112119047D01*
X149000000Y-112309523D01*
X149095238Y-112404762D01*
X149285714Y-112500000D01*
X149571429Y-112500000D01*
X149761905Y-112404762D01*
X149857143Y-112309523D01*
X149952381Y-112119047D01*
X149952381Y-111357142D01*
X150904762Y-114880952D02*
X149571429Y-114880952D01*
X149952381Y-114880952D02*
X149761905Y-114976191D01*
X149666667Y-115071429D01*
X149571429Y-115261905D01*
X149571429Y-115452381D01*
X150904762Y-116976190D02*
X149857143Y-116976190D01*
X149666667Y-116880952D01*
X149571429Y-116690476D01*
X149571429Y-116309524D01*
X149666667Y-116119047D01*
X150809524Y-116976190D02*
X150904762Y-116785714D01*
X150904762Y-116309524D01*
X150809524Y-116119047D01*
X150619048Y-116023809D01*
X150428571Y-116023809D01*
X150238095Y-116119047D01*
X150142857Y-116309524D01*
X150142857Y-116785714D01*
X150047619Y-116976190D01*
X150904762Y-118785714D02*
X148904762Y-118785714D01*
X150809524Y-118785714D02*
X150904762Y-118595238D01*
X150904762Y-118214286D01*
X150809524Y-118023810D01*
X150714286Y-117928571D01*
X150523810Y-117833333D01*
X149952381Y-117833333D01*
X149761905Y-117928571D01*
X149666667Y-118023810D01*
X149571429Y-118214286D01*
X149571429Y-118595238D01*
X149666667Y-118785714D01*
X150904762Y-119738095D02*
X149571429Y-119738095D01*
X148904762Y-119738095D02*
X149000000Y-119642857D01*
X149095238Y-119738095D01*
X149000000Y-119833334D01*
X148904762Y-119738095D01*
X149095238Y-119738095D01*
X150904762Y-120976191D02*
X150809524Y-120785715D01*
X150714286Y-120690476D01*
X150523810Y-120595238D01*
X149952381Y-120595238D01*
X149761905Y-120690476D01*
X149666667Y-120785715D01*
X149571429Y-120976191D01*
X149571429Y-121261905D01*
X149666667Y-121452381D01*
X149761905Y-121547619D01*
X149952381Y-121642857D01*
X150523810Y-121642857D01*
X150714286Y-121547619D01*
X150809524Y-121452381D01*
X150904762Y-121261905D01*
X150904762Y-120976191D01*
D12*
X141460000Y-67800000D02*
X158460000Y-67800000D01*
X158460000Y-67800000D02*
X158460000Y-127800000D01*
X158460000Y-127800000D02*
X124460000Y-127800000D01*
X124460000Y-127800000D02*
X124460000Y-67800000D01*
X124460000Y-67800000D02*
X141460000Y-67800000D01*
X137081320Y-76300000D02*
G75*
G03X137081320Y-76300000I-2121320J0D01*
G01*
X150196068Y-76300000D02*
G75*
G03X150196068Y-76300000I-2236068J0D01*
G01*
X136460000Y-76300000D02*
X133460000Y-76300000D01*
X134960000Y-77800000D02*
X134960000Y-74800000D01*
X147960000Y-77800000D02*
X147960000Y-74800000D01*
X142460000Y-71800000D02*
G75*
G03X142460000Y-71800000I-1000000J0D01*
G01*
X142730000Y-97800000D02*
G75*
G03X142730000Y-97800000I-1270000J0D01*
G01*
X136308571Y-97014286D02*
X136356190Y-97157143D01*
X136403810Y-97204762D01*
X136499048Y-97252381D01*
X136641905Y-97252381D01*
X136737143Y-97204762D01*
X136784762Y-97157143D01*
X136832381Y-97061905D01*
X136832381Y-96680952D01*
X135832381Y-96680952D01*
X135832381Y-97014286D01*
X135880000Y-97109524D01*
X135927619Y-97157143D01*
X136022857Y-97204762D01*
X136118095Y-97204762D01*
X136213333Y-97157143D01*
X136260952Y-97109524D01*
X136308571Y-97014286D01*
X136308571Y-96680952D01*
X135832381Y-97538095D02*
X135832381Y-98109524D01*
X136832381Y-97823809D02*
X135832381Y-97823809D01*
X136832381Y-98966667D02*
X136832381Y-98395238D01*
X136832381Y-98680952D02*
X135832381Y-98680952D01*
X135975238Y-98585714D01*
X136070476Y-98490476D01*
X136118095Y-98395238D01*
M02*
