G04 #@! TF.FileFunction,Copper,L1,Top,Signal*
%FSLAX46Y46*%
G04 Gerber Fmt 4.6, Leading zero omitted, Abs format (unit mm)*
G04 Created by KiCad (PCBNEW 4.0.2-stable) date 2017/10/31 17:28:08*
%MOMM*%
G01*
G04 APERTURE LIST*
%ADD10C,0.100000*%
%ADD11R,2.000000X2.000000*%
%ADD12C,2.000000*%
%ADD13C,1.600000*%
%ADD14R,5.000000X3.000000*%
%ADD15C,1.500000*%
%ADD16R,1.600000X1.600000*%
%ADD17C,0.600000*%
%ADD18C,0.250000*%
G04 APERTURE END LIST*
D10*
D11*
X221610000Y-29640000D03*
D12*
X272410000Y-29640000D03*
D13*
X265010000Y-27100000D03*
X265010000Y-32180000D03*
D12*
X231010000Y-34720000D03*
X231010000Y-24560000D03*
D14*
X278010000Y-32180000D03*
X278010000Y-27100000D03*
D13*
X245010000Y-24560000D03*
X245010000Y-34720000D03*
D15*
X254510000Y-29640000D03*
X256510000Y-29640000D03*
X258510000Y-29640000D03*
D16*
X237510000Y-32180000D03*
D13*
X237510000Y-29640000D03*
X237510000Y-27100000D03*
D17*
X272410000Y-32140000D03*
D18*
X221610000Y-29640000D02*
X222010000Y-29640000D01*
X222010000Y-29640000D02*
X229010000Y-36640000D01*
X229010000Y-36640000D02*
X255510000Y-36640000D01*
X255510000Y-36640000D02*
X256510000Y-35640000D01*
X256510000Y-35640000D02*
X256510000Y-29640000D01*
X278010000Y-32180000D02*
X272450000Y-32180000D01*
X272450000Y-32180000D02*
X272410000Y-32140000D01*
X237510000Y-29640000D02*
X236090000Y-29640000D01*
X236090000Y-29640000D02*
X231010000Y-34720000D01*
X265010000Y-27100000D02*
X251550000Y-27100000D01*
X249010000Y-29640000D02*
X237510000Y-29640000D01*
X251550000Y-27100000D02*
X249010000Y-29640000D01*
X265010000Y-27100000D02*
X278010000Y-27100000D01*
X237510000Y-27100000D02*
X237510000Y-24560000D01*
X231010000Y-24560000D02*
X237510000Y-24560000D01*
X237510000Y-24560000D02*
X245010000Y-24560000D01*
X245010000Y-34720000D02*
X249430000Y-34720000D01*
X249430000Y-34720000D02*
X254510000Y-29640000D01*
M02*
