G04 #@! TF.FileFunction,Legend,Bot*
%FSLAX46Y46*%
G04 Gerber Fmt 4.6, Leading zero omitted, Abs format (unit mm)*
G04 Created by KiCad (PCBNEW 4.0.2-stable) date 2016/06/28 0:10:47*
%MOMM*%
G01*
G04 APERTURE LIST*
%ADD10C,0.100000*%
%ADD11C,0.010000*%
%ADD12C,2.600000*%
%ADD13R,2.200000X2.200000*%
%ADD14C,2.200000*%
%ADD15R,2.000000X2.000000*%
%ADD16C,2.000000*%
%ADD17C,1.900000*%
%ADD18R,1.924000X1.924000*%
G04 APERTURE END LIST*
D10*
D11*
G36*
X143802036Y-130540111D02*
X143093568Y-129830723D01*
X142385100Y-129121334D01*
X140692421Y-129121334D01*
X141114486Y-129544988D01*
X141536551Y-129968643D01*
X140806775Y-130698418D01*
X140077000Y-131428194D01*
X140077000Y-129121334D01*
X139526666Y-129121334D01*
X139526666Y-134814853D01*
X143802036Y-130540111D01*
X143802036Y-130540111D01*
G37*
X143802036Y-130540111D02*
X143093568Y-129830723D01*
X142385100Y-129121334D01*
X140692421Y-129121334D01*
X141114486Y-129544988D01*
X141536551Y-129968643D01*
X140806775Y-130698418D01*
X140077000Y-131428194D01*
X140077000Y-129121334D01*
X139526666Y-129121334D01*
X139526666Y-134814853D01*
X143802036Y-130540111D01*
G36*
X149877166Y-132548553D02*
X149865606Y-133290277D01*
X149854046Y-134032000D01*
X146723333Y-134032000D01*
X146723333Y-132423334D01*
X147972166Y-132423334D01*
X148287539Y-132422664D01*
X148573663Y-132420769D01*
X148820102Y-132417822D01*
X149016422Y-132413994D01*
X149152187Y-132409458D01*
X149216964Y-132404385D01*
X149221000Y-132402727D01*
X149203300Y-132358646D01*
X149155431Y-132255510D01*
X149085236Y-132109914D01*
X149020945Y-131979394D01*
X148820891Y-131576667D01*
X146723333Y-131576667D01*
X146723333Y-129968000D01*
X147972166Y-129968000D01*
X148287539Y-129967331D01*
X148573663Y-129965436D01*
X148820102Y-129962489D01*
X149016422Y-129958661D01*
X149152187Y-129954124D01*
X149216964Y-129949052D01*
X149221000Y-129947394D01*
X149203300Y-129903313D01*
X149155431Y-129800176D01*
X149085236Y-129654580D01*
X149020945Y-129524060D01*
X148820891Y-129121334D01*
X145284000Y-129121334D01*
X145284000Y-134878667D01*
X151041132Y-134878667D01*
X149877166Y-132548553D01*
X149877166Y-132548553D01*
G37*
X149877166Y-132548553D02*
X149865606Y-133290277D01*
X149854046Y-134032000D01*
X146723333Y-134032000D01*
X146723333Y-132423334D01*
X147972166Y-132423334D01*
X148287539Y-132422664D01*
X148573663Y-132420769D01*
X148820102Y-132417822D01*
X149016422Y-132413994D01*
X149152187Y-132409458D01*
X149216964Y-132404385D01*
X149221000Y-132402727D01*
X149203300Y-132358646D01*
X149155431Y-132255510D01*
X149085236Y-132109914D01*
X149020945Y-131979394D01*
X148820891Y-131576667D01*
X146723333Y-131576667D01*
X146723333Y-129968000D01*
X147972166Y-129968000D01*
X148287539Y-129967331D01*
X148573663Y-129965436D01*
X148820102Y-129962489D01*
X149016422Y-129958661D01*
X149152187Y-129954124D01*
X149216964Y-129949052D01*
X149221000Y-129947394D01*
X149203300Y-129903313D01*
X149155431Y-129800176D01*
X149085236Y-129654580D01*
X149020945Y-129524060D01*
X148820891Y-129121334D01*
X145284000Y-129121334D01*
X145284000Y-134878667D01*
X151041132Y-134878667D01*
X149877166Y-132548553D01*
G36*
X154466132Y-132772584D02*
X154568379Y-132362910D01*
X154665192Y-131977323D01*
X154754529Y-131623791D01*
X154834351Y-131310283D01*
X154902616Y-131044765D01*
X154957284Y-130835207D01*
X154996313Y-130689577D01*
X155017664Y-130615841D01*
X155020272Y-130609015D01*
X155035893Y-130637688D01*
X155069708Y-130741268D01*
X155119731Y-130912432D01*
X155183979Y-131143860D01*
X155260469Y-131428230D01*
X155347215Y-131758222D01*
X155442234Y-132126513D01*
X155543541Y-132525784D01*
X155591024Y-132715099D01*
X156131737Y-134878667D01*
X157550198Y-134878667D01*
X156830478Y-132000000D01*
X156110758Y-129121334D01*
X153965596Y-129121334D01*
X153923710Y-129280084D01*
X153902899Y-129361403D01*
X153864751Y-129512898D01*
X153812264Y-129722555D01*
X153748441Y-129978361D01*
X153676283Y-130268305D01*
X153598788Y-130580374D01*
X153582678Y-130645334D01*
X153505390Y-130955366D01*
X153433368Y-131241087D01*
X153369456Y-131491467D01*
X153316496Y-131695476D01*
X153277333Y-131842081D01*
X153254808Y-131920253D01*
X153252109Y-131927813D01*
X153233176Y-131910729D01*
X153196532Y-131812653D01*
X153142661Y-131635283D01*
X153072049Y-131380316D01*
X152985179Y-131049448D01*
X152882537Y-130644377D01*
X152862138Y-130562563D01*
X152503589Y-129121334D01*
X151790775Y-129121334D01*
X151529758Y-129121926D01*
X151342043Y-129124514D01*
X151216266Y-129130318D01*
X151141065Y-129140557D01*
X151105079Y-129156450D01*
X151096944Y-129179216D01*
X151100318Y-129195417D01*
X151114221Y-129248460D01*
X151146801Y-129376550D01*
X151196276Y-129572574D01*
X151260862Y-129829423D01*
X151338777Y-130139986D01*
X151428235Y-130497152D01*
X151527455Y-130893811D01*
X151634651Y-131322850D01*
X151748042Y-131777160D01*
X151782506Y-131915334D01*
X151898089Y-132378663D01*
X152008524Y-132821073D01*
X152111956Y-133235153D01*
X152206531Y-133613493D01*
X152290394Y-133948680D01*
X152361690Y-134233303D01*
X152418566Y-134459952D01*
X152459166Y-134621215D01*
X152481636Y-134709681D01*
X152484299Y-134719917D01*
X152526263Y-134878667D01*
X153942032Y-134878667D01*
X154466132Y-132772584D01*
X154466132Y-132772584D01*
G37*
X154466132Y-132772584D02*
X154568379Y-132362910D01*
X154665192Y-131977323D01*
X154754529Y-131623791D01*
X154834351Y-131310283D01*
X154902616Y-131044765D01*
X154957284Y-130835207D01*
X154996313Y-130689577D01*
X155017664Y-130615841D01*
X155020272Y-130609015D01*
X155035893Y-130637688D01*
X155069708Y-130741268D01*
X155119731Y-130912432D01*
X155183979Y-131143860D01*
X155260469Y-131428230D01*
X155347215Y-131758222D01*
X155442234Y-132126513D01*
X155543541Y-132525784D01*
X155591024Y-132715099D01*
X156131737Y-134878667D01*
X157550198Y-134878667D01*
X156830478Y-132000000D01*
X156110758Y-129121334D01*
X153965596Y-129121334D01*
X153923710Y-129280084D01*
X153902899Y-129361403D01*
X153864751Y-129512898D01*
X153812264Y-129722555D01*
X153748441Y-129978361D01*
X153676283Y-130268305D01*
X153598788Y-130580374D01*
X153582678Y-130645334D01*
X153505390Y-130955366D01*
X153433368Y-131241087D01*
X153369456Y-131491467D01*
X153316496Y-131695476D01*
X153277333Y-131842081D01*
X153254808Y-131920253D01*
X153252109Y-131927813D01*
X153233176Y-131910729D01*
X153196532Y-131812653D01*
X153142661Y-131635283D01*
X153072049Y-131380316D01*
X152985179Y-131049448D01*
X152882537Y-130644377D01*
X152862138Y-130562563D01*
X152503589Y-129121334D01*
X151790775Y-129121334D01*
X151529758Y-129121926D01*
X151342043Y-129124514D01*
X151216266Y-129130318D01*
X151141065Y-129140557D01*
X151105079Y-129156450D01*
X151096944Y-129179216D01*
X151100318Y-129195417D01*
X151114221Y-129248460D01*
X151146801Y-129376550D01*
X151196276Y-129572574D01*
X151260862Y-129829423D01*
X151338777Y-130139986D01*
X151428235Y-130497152D01*
X151527455Y-130893811D01*
X151634651Y-131322850D01*
X151748042Y-131777160D01*
X151782506Y-131915334D01*
X151898089Y-132378663D01*
X152008524Y-132821073D01*
X152111956Y-133235153D01*
X152206531Y-133613493D01*
X152290394Y-133948680D01*
X152361690Y-134233303D01*
X152418566Y-134459952D01*
X152459166Y-134621215D01*
X152481636Y-134709681D01*
X152484299Y-134719917D01*
X152526263Y-134878667D01*
X153942032Y-134878667D01*
X154466132Y-132772584D01*
G36*
X160439333Y-129121334D02*
X159000000Y-129121334D01*
X159000000Y-134878667D01*
X160439333Y-134878667D01*
X160439333Y-129121334D01*
X160439333Y-129121334D01*
G37*
X160439333Y-129121334D02*
X159000000Y-129121334D01*
X159000000Y-134878667D01*
X160439333Y-134878667D01*
X160439333Y-129121334D01*
G36*
X161878815Y-131978529D02*
X163307412Y-130549931D01*
X164736009Y-129121334D01*
X163338699Y-129121334D01*
X161910183Y-130550314D01*
X160481666Y-131979294D01*
X161931810Y-133428981D01*
X163381953Y-134878667D01*
X164778039Y-134878667D01*
X161878815Y-131978529D01*
X161878815Y-131978529D01*
G37*
X161878815Y-131978529D02*
X163307412Y-130549931D01*
X164736009Y-129121334D01*
X163338699Y-129121334D01*
X161910183Y-130550314D01*
X160481666Y-131979294D01*
X161931810Y-133428981D01*
X163381953Y-134878667D01*
X164778039Y-134878667D01*
X161878815Y-131978529D01*
G36*
X170832166Y-132548553D02*
X170820606Y-133290277D01*
X170809046Y-134032000D01*
X167678333Y-134032000D01*
X167678333Y-132423334D01*
X168927166Y-132423334D01*
X169242539Y-132422664D01*
X169528663Y-132420769D01*
X169775102Y-132417822D01*
X169971422Y-132413994D01*
X170107187Y-132409458D01*
X170171964Y-132404385D01*
X170176000Y-132402727D01*
X170158300Y-132358646D01*
X170110431Y-132255510D01*
X170040236Y-132109914D01*
X169975945Y-131979394D01*
X169775891Y-131576667D01*
X167678333Y-131576667D01*
X167678333Y-129968000D01*
X168927166Y-129968000D01*
X169242539Y-129967331D01*
X169528663Y-129965436D01*
X169775102Y-129962489D01*
X169971422Y-129958661D01*
X170107187Y-129954124D01*
X170171964Y-129949052D01*
X170176000Y-129947394D01*
X170158300Y-129903313D01*
X170110431Y-129800176D01*
X170040236Y-129654580D01*
X169975945Y-129524060D01*
X169775891Y-129121334D01*
X166239000Y-129121334D01*
X166239000Y-134878667D01*
X171996132Y-134878667D01*
X170832166Y-132548553D01*
X170832166Y-132548553D01*
G37*
X170832166Y-132548553D02*
X170820606Y-133290277D01*
X170809046Y-134032000D01*
X167678333Y-134032000D01*
X167678333Y-132423334D01*
X168927166Y-132423334D01*
X169242539Y-132422664D01*
X169528663Y-132420769D01*
X169775102Y-132417822D01*
X169971422Y-132413994D01*
X170107187Y-132409458D01*
X170171964Y-132404385D01*
X170176000Y-132402727D01*
X170158300Y-132358646D01*
X170110431Y-132255510D01*
X170040236Y-132109914D01*
X169975945Y-131979394D01*
X169775891Y-131576667D01*
X167678333Y-131576667D01*
X167678333Y-129968000D01*
X168927166Y-129968000D01*
X169242539Y-129967331D01*
X169528663Y-129965436D01*
X169775102Y-129962489D01*
X169971422Y-129958661D01*
X170107187Y-129954124D01*
X170171964Y-129949052D01*
X170176000Y-129947394D01*
X170158300Y-129903313D01*
X170110431Y-129800176D01*
X170040236Y-129654580D01*
X169975945Y-129524060D01*
X169775891Y-129121334D01*
X166239000Y-129121334D01*
X166239000Y-134878667D01*
X171996132Y-134878667D01*
X170832166Y-132548553D01*
G36*
X177065406Y-129119927D02*
X175983409Y-129131214D01*
X174901412Y-129142500D01*
X174554078Y-130531434D01*
X174471086Y-130861279D01*
X174393817Y-131164514D01*
X174324813Y-131431460D01*
X174266616Y-131652435D01*
X174221768Y-131817761D01*
X174192812Y-131917756D01*
X174183099Y-131944013D01*
X174157800Y-131925823D01*
X174129452Y-131849179D01*
X174128700Y-131846246D01*
X174111015Y-131775948D01*
X174075553Y-131634589D01*
X174025087Y-131433241D01*
X173962393Y-131182977D01*
X173890243Y-130894870D01*
X173811413Y-130579992D01*
X173774788Y-130433667D01*
X173451629Y-129142500D01*
X172745148Y-129130894D01*
X172511432Y-129128908D01*
X172310501Y-129130741D01*
X172156187Y-129135977D01*
X172062325Y-129144200D01*
X172039920Y-129152060D01*
X172050164Y-129197607D01*
X172079357Y-129318557D01*
X172125832Y-129508192D01*
X172187924Y-129759798D01*
X172263967Y-130066658D01*
X172352294Y-130422056D01*
X172451240Y-130819275D01*
X172559138Y-131251599D01*
X172674323Y-131712313D01*
X172751646Y-132021167D01*
X173462119Y-134857500D01*
X174890881Y-134857500D01*
X175428676Y-132706626D01*
X175532008Y-132294256D01*
X175629426Y-131907232D01*
X175718966Y-131553232D01*
X175798665Y-131239933D01*
X175866560Y-130975013D01*
X175920690Y-130766150D01*
X175959090Y-130621021D01*
X175979799Y-130547305D01*
X175982689Y-130539533D01*
X175995703Y-130576217D01*
X176027130Y-130687602D01*
X176075031Y-130866208D01*
X176137468Y-131104551D01*
X176212502Y-131395149D01*
X176298195Y-131730520D01*
X176392609Y-132103181D01*
X176493805Y-132505650D01*
X176542662Y-132700990D01*
X177086414Y-134878667D01*
X178505198Y-134878667D01*
X177065406Y-129119927D01*
X177065406Y-129119927D01*
G37*
X177065406Y-129119927D02*
X175983409Y-129131214D01*
X174901412Y-129142500D01*
X174554078Y-130531434D01*
X174471086Y-130861279D01*
X174393817Y-131164514D01*
X174324813Y-131431460D01*
X174266616Y-131652435D01*
X174221768Y-131817761D01*
X174192812Y-131917756D01*
X174183099Y-131944013D01*
X174157800Y-131925823D01*
X174129452Y-131849179D01*
X174128700Y-131846246D01*
X174111015Y-131775948D01*
X174075553Y-131634589D01*
X174025087Y-131433241D01*
X173962393Y-131182977D01*
X173890243Y-130894870D01*
X173811413Y-130579992D01*
X173774788Y-130433667D01*
X173451629Y-129142500D01*
X172745148Y-129130894D01*
X172511432Y-129128908D01*
X172310501Y-129130741D01*
X172156187Y-129135977D01*
X172062325Y-129144200D01*
X172039920Y-129152060D01*
X172050164Y-129197607D01*
X172079357Y-129318557D01*
X172125832Y-129508192D01*
X172187924Y-129759798D01*
X172263967Y-130066658D01*
X172352294Y-130422056D01*
X172451240Y-130819275D01*
X172559138Y-131251599D01*
X172674323Y-131712313D01*
X172751646Y-132021167D01*
X173462119Y-134857500D01*
X174890881Y-134857500D01*
X175428676Y-132706626D01*
X175532008Y-132294256D01*
X175629426Y-131907232D01*
X175718966Y-131553232D01*
X175798665Y-131239933D01*
X175866560Y-130975013D01*
X175920690Y-130766150D01*
X175959090Y-130621021D01*
X175979799Y-130547305D01*
X175982689Y-130539533D01*
X175995703Y-130576217D01*
X176027130Y-130687602D01*
X176075031Y-130866208D01*
X176137468Y-131104551D01*
X176212502Y-131395149D01*
X176298195Y-131730520D01*
X176392609Y-132103181D01*
X176493805Y-132505650D01*
X176542662Y-132700990D01*
X177086414Y-134878667D01*
X178505198Y-134878667D01*
X177065406Y-129119927D01*
%LPC*%
D12*
X133500000Y-121000000D03*
X153500000Y-121000000D03*
D13*
X146500000Y-77000000D03*
D14*
X149500000Y-77000000D03*
X157000000Y-101730000D03*
D13*
X157000000Y-104270000D03*
D14*
X139000000Y-101730000D03*
D13*
X139000000Y-104270000D03*
D15*
X133000000Y-93540000D03*
D16*
X133000000Y-91000000D03*
X133000000Y-88460000D03*
D14*
X142920000Y-85000000D03*
D13*
X153080000Y-85000000D03*
D14*
X142920000Y-91000000D03*
D13*
X153080000Y-91000000D03*
D14*
X142920000Y-97000000D03*
D13*
X153080000Y-97000000D03*
D17*
X117000000Y-129000000D03*
X117000000Y-131000000D03*
X117000000Y-133000000D03*
D18*
X163000000Y-93540000D03*
D16*
X163000000Y-91000000D03*
X163000000Y-88460000D03*
M02*
