M48
;DRILL file {KiCad 4.0.1-stable} date 2017/05/09 18:16:29
;FORMAT={-:-/ absolute / metric / decimal}
FMAT,2
METRIC,TZ
T1C0.800
T2C0.850
T3C1.100
%
G90
G05
M71
T1
X133.985Y-90.805
X133.985Y-100.965
X137.795Y-83.225
X137.795Y-85.725
X137.795Y-90.805
X137.795Y-100.965
X141.605Y-90.805
X141.605Y-100.965
X142.875Y-107.315
X142.875Y-114.935
X144.145Y-83.185
X145.415Y-90.805
X145.415Y-100.965
X145.415Y-107.315
X145.415Y-114.935
X146.645Y-83.185
X147.955Y-107.315
X147.955Y-114.935
X149.225Y-90.805
X149.225Y-100.965
X150.495Y-107.315
X150.495Y-114.935
X150.495Y-122.555
X154.305Y-99.735
X154.305Y-102.235
X155.575Y-122.555
T2
X130.915Y-130.175
X150.915Y-130.175
T3
X131.445Y-105.895
X131.445Y-112.395
X135.945Y-105.895
X135.945Y-112.395
T0
M30
