G04 #@! TF.FileFunction,Legend,Bot*
%FSLAX46Y46*%
G04 Gerber Fmt 4.6, Leading zero omitted, Abs format (unit mm)*
G04 Created by KiCad (PCBNEW 4.0.1-stable) date 2017/05/09 18:16:20*
%MOMM*%
G01*
G04 APERTURE LIST*
%ADD10C,0.100000*%
%ADD11C,0.150000*%
%ADD12C,2.200000*%
%ADD13C,1.600000*%
%ADD14R,1.600000X1.600000*%
%ADD15C,1.800000*%
%ADD16R,1.800000X1.800000*%
%ADD17C,2.000000*%
%ADD18R,1.600000X2.400000*%
%ADD19O,1.600000X2.400000*%
G04 APERTURE END LIST*
D10*
D11*
X133715000Y-133275000D02*
X128915000Y-133275000D01*
X128915000Y-133275000D02*
X128915000Y-127075000D01*
X128915000Y-127075000D02*
X133715000Y-127075000D01*
X157447976Y-130175000D02*
G75*
G03X157447976Y-130175000I-12032976J0D01*
G01*
X155615490Y-130175000D02*
G75*
G03X155615490Y-130175000I-10200490J0D01*
G01*
X148665138Y-130175000D02*
G75*
G03X148665138Y-130175000I-3250138J0D01*
G01*
%LPC*%
D12*
X130915000Y-130175000D03*
X150915000Y-130175000D03*
D13*
X144145000Y-83185000D03*
X146645000Y-83185000D03*
D14*
X137795000Y-85725000D03*
D13*
X137795000Y-83225000D03*
D14*
X154305000Y-102235000D03*
D13*
X154305000Y-99735000D03*
D15*
X133985000Y-90805000D03*
D16*
X133985000Y-100965000D03*
D15*
X137795000Y-90805000D03*
D16*
X137795000Y-100965000D03*
D15*
X141605000Y-90805000D03*
D16*
X141605000Y-100965000D03*
D15*
X149225000Y-90805000D03*
D16*
X149225000Y-100965000D03*
D15*
X145415000Y-90805000D03*
D16*
X145415000Y-100965000D03*
D17*
X155575000Y-122555000D03*
X150495000Y-122555000D03*
X135945000Y-112395000D03*
X131445000Y-112395000D03*
X135945000Y-105895000D03*
X131445000Y-105895000D03*
D18*
X150495000Y-107315000D03*
D19*
X142875000Y-114935000D03*
X147955000Y-107315000D03*
X145415000Y-114935000D03*
X145415000Y-107315000D03*
X147955000Y-114935000D03*
X142875000Y-107315000D03*
X150495000Y-114935000D03*
M02*
