G04 #@! TF.FileFunction,Copper,L1,Top,Signal*
%FSLAX46Y46*%
G04 Gerber Fmt 4.6, Leading zero omitted, Abs format (unit mm)*
G04 Created by KiCad (PCBNEW 4.0.1-stable) date 2017/05/09 18:16:20*
%MOMM*%
G01*
G04 APERTURE LIST*
%ADD10C,0.100000*%
%ADD11C,2.200000*%
%ADD12C,1.600000*%
%ADD13R,1.600000X1.600000*%
%ADD14R,3.000000X5.000000*%
%ADD15C,1.800000*%
%ADD16R,1.800000X1.800000*%
%ADD17C,2.000000*%
%ADD18R,1.600000X2.400000*%
%ADD19O,1.600000X2.400000*%
%ADD20C,0.500000*%
%ADD21C,0.254000*%
G04 APERTURE END LIST*
D10*
D11*
X130915000Y-130175000D03*
X150915000Y-130175000D03*
D12*
X144145000Y-83185000D03*
X146645000Y-83185000D03*
D13*
X137795000Y-85725000D03*
D12*
X137795000Y-83225000D03*
D13*
X154305000Y-102235000D03*
D12*
X154305000Y-99735000D03*
D14*
X142875000Y-76835000D03*
X147955000Y-76835000D03*
D15*
X133985000Y-90805000D03*
D16*
X133985000Y-100965000D03*
D15*
X137795000Y-90805000D03*
D16*
X137795000Y-100965000D03*
D15*
X141605000Y-90805000D03*
D16*
X141605000Y-100965000D03*
D15*
X149225000Y-90805000D03*
D16*
X149225000Y-100965000D03*
D15*
X145415000Y-90805000D03*
D16*
X145415000Y-100965000D03*
D17*
X155575000Y-122555000D03*
X150495000Y-122555000D03*
X135945000Y-112395000D03*
X131445000Y-112395000D03*
X135945000Y-105895000D03*
X131445000Y-105895000D03*
D18*
X150495000Y-107315000D03*
D19*
X142875000Y-114935000D03*
X147955000Y-107315000D03*
X145415000Y-114935000D03*
X145415000Y-107315000D03*
X147955000Y-114935000D03*
X142875000Y-107315000D03*
X150495000Y-114935000D03*
D20*
X130915000Y-130175000D02*
X130915000Y-117425000D01*
X130915000Y-117425000D02*
X135945000Y-112395000D01*
X135945000Y-105895000D02*
X135945000Y-112395000D01*
X137795000Y-83225000D02*
X144105000Y-83225000D01*
X144105000Y-83225000D02*
X144145000Y-83185000D01*
X144145000Y-83185000D02*
X144145000Y-78105000D01*
X144145000Y-78105000D02*
X142875000Y-76835000D01*
X145415000Y-107315000D02*
X145415000Y-106045000D01*
X141605000Y-103505000D02*
X141605000Y-100965000D01*
X142875000Y-104775000D02*
X141605000Y-103505000D01*
X144145000Y-104775000D02*
X142875000Y-104775000D01*
X145415000Y-106045000D02*
X144145000Y-104775000D01*
X133985000Y-90805000D02*
X136525000Y-88265000D01*
X145415000Y-89535000D02*
X145415000Y-90805000D01*
X144145000Y-88265000D02*
X145415000Y-89535000D01*
X136525000Y-88265000D02*
X144145000Y-88265000D01*
X131445000Y-103505000D02*
X139065000Y-103505000D01*
X150495000Y-113665000D02*
X150495000Y-114935000D01*
X149225000Y-112395000D02*
X150495000Y-113665000D01*
X141605000Y-112395000D02*
X149225000Y-112395000D01*
X140335000Y-111125000D02*
X141605000Y-112395000D01*
X140335000Y-104775000D02*
X140335000Y-111125000D01*
X139065000Y-103505000D02*
X140335000Y-104775000D01*
X131445000Y-112395000D02*
X131445000Y-105895000D01*
X133985000Y-90805000D02*
X132715000Y-90805000D01*
X131445000Y-92075000D02*
X131445000Y-103505000D01*
X131445000Y-103505000D02*
X131445000Y-105895000D01*
X132715000Y-90805000D02*
X131445000Y-92075000D01*
X145415000Y-94615000D02*
X142875000Y-94615000D01*
X141605000Y-93345000D02*
X141605000Y-90805000D01*
X142875000Y-94615000D02*
X141605000Y-93345000D01*
X155575000Y-122555000D02*
X155575000Y-108585000D01*
X154305000Y-107315000D02*
X150495000Y-107315000D01*
X155575000Y-108585000D02*
X154305000Y-107315000D01*
X150495000Y-107315000D02*
X150495000Y-106045000D01*
X150495000Y-106045000D02*
X149225000Y-104775000D01*
X149225000Y-104775000D02*
X146685000Y-104775000D01*
X146685000Y-104775000D02*
X145415000Y-103505000D01*
X145415000Y-103505000D02*
X145415000Y-100965000D01*
X145415000Y-100965000D02*
X145415000Y-94615000D01*
X145415000Y-94615000D02*
X146685000Y-93345000D01*
X146685000Y-93345000D02*
X147955000Y-93345000D01*
X147955000Y-93345000D02*
X149225000Y-92075000D01*
X149225000Y-92075000D02*
X149225000Y-90805000D01*
D21*
G36*
X129443281Y-131156515D02*
X129930918Y-131645004D01*
X130568373Y-131909699D01*
X131258599Y-131910301D01*
X131896515Y-131646719D01*
X132385004Y-131159082D01*
X132649699Y-130521627D01*
X132650301Y-129831401D01*
X132386719Y-129193485D01*
X131899082Y-128704996D01*
X131800000Y-128663853D01*
X131800000Y-117791580D01*
X135578437Y-114013142D01*
X135618352Y-114029716D01*
X136268795Y-114030284D01*
X136869943Y-113781894D01*
X137330278Y-113322363D01*
X137579716Y-112721648D01*
X137580284Y-112071205D01*
X137331894Y-111470057D01*
X136872363Y-111009722D01*
X136830000Y-110992131D01*
X136830000Y-107298398D01*
X136869943Y-107281894D01*
X137330278Y-106822363D01*
X137579716Y-106221648D01*
X137580284Y-105571205D01*
X137331894Y-104970057D01*
X136872363Y-104509722D01*
X136584040Y-104390000D01*
X138698421Y-104390000D01*
X139450000Y-105141580D01*
X139450000Y-111124995D01*
X139449999Y-111125000D01*
X139517367Y-111463675D01*
X139709210Y-111750790D01*
X139709213Y-111750792D01*
X140979210Y-113020790D01*
X141266325Y-113212633D01*
X141266326Y-113212633D01*
X141605000Y-113280001D01*
X141605005Y-113280000D01*
X142166136Y-113280000D01*
X141860302Y-113484352D01*
X141549233Y-113949899D01*
X141440000Y-114499050D01*
X141440000Y-115370950D01*
X141549233Y-115920101D01*
X141860302Y-116385648D01*
X142325849Y-116696717D01*
X142875000Y-116805950D01*
X143424151Y-116696717D01*
X143889698Y-116385648D01*
X144145000Y-116003562D01*
X144400302Y-116385648D01*
X144865849Y-116696717D01*
X145415000Y-116805950D01*
X145964151Y-116696717D01*
X146429698Y-116385648D01*
X146685000Y-116003562D01*
X146940302Y-116385648D01*
X147405849Y-116696717D01*
X147955000Y-116805950D01*
X148504151Y-116696717D01*
X148969698Y-116385648D01*
X149225000Y-116003562D01*
X149480302Y-116385648D01*
X149945849Y-116696717D01*
X150495000Y-116805950D01*
X151044151Y-116696717D01*
X151509698Y-116385648D01*
X151820767Y-115920101D01*
X151930000Y-115370950D01*
X151930000Y-114499050D01*
X151820767Y-113949899D01*
X151509698Y-113484352D01*
X151318678Y-113356717D01*
X151312633Y-113326325D01*
X151120790Y-113039210D01*
X149850792Y-111769213D01*
X149850790Y-111769210D01*
X149563675Y-111577367D01*
X149480302Y-111560783D01*
X149225000Y-111509999D01*
X149224995Y-111510000D01*
X142525961Y-111510000D01*
X142525961Y-109106904D01*
X142748000Y-108984915D01*
X142748000Y-107442000D01*
X141440000Y-107442000D01*
X141440000Y-107842000D01*
X141597834Y-108381483D01*
X141950104Y-108819500D01*
X142443181Y-109089367D01*
X142525961Y-109106904D01*
X142525961Y-111510000D01*
X141971580Y-111510000D01*
X141220000Y-110758421D01*
X141220000Y-104775005D01*
X141220001Y-104775000D01*
X141163810Y-104492516D01*
X141152633Y-104436325D01*
X140960790Y-104149210D01*
X139690792Y-102879213D01*
X139690790Y-102879210D01*
X139403675Y-102687367D01*
X139230248Y-102652870D01*
X139065000Y-102619999D01*
X139064995Y-102620000D01*
X138080750Y-102620000D01*
X138080750Y-102500000D01*
X138821310Y-102500000D01*
X139054699Y-102403327D01*
X139233327Y-102224698D01*
X139330000Y-101991309D01*
X139330000Y-101250750D01*
X139171250Y-101092000D01*
X137922000Y-101092000D01*
X137922000Y-100838000D01*
X139171250Y-100838000D01*
X139330000Y-100679250D01*
X139330000Y-99938691D01*
X139233327Y-99705302D01*
X139054699Y-99526673D01*
X138821310Y-99430000D01*
X138098991Y-99430000D01*
X138098991Y-92340265D01*
X138663371Y-92107068D01*
X139095551Y-91675643D01*
X139329733Y-91111670D01*
X139330265Y-90501009D01*
X139097068Y-89936629D01*
X138665643Y-89504449D01*
X138101670Y-89270267D01*
X137491009Y-89269735D01*
X136926629Y-89502932D01*
X136494449Y-89934357D01*
X136260267Y-90498330D01*
X136259735Y-91108991D01*
X136492932Y-91673371D01*
X136924357Y-92105551D01*
X137488330Y-92339733D01*
X138098991Y-92340265D01*
X138098991Y-99430000D01*
X138080750Y-99430000D01*
X137922000Y-99588750D01*
X137922000Y-100838000D01*
X137922000Y-101092000D01*
X137922000Y-102341250D01*
X138080750Y-102500000D01*
X138080750Y-102620000D01*
X136768690Y-102620000D01*
X136768690Y-102500000D01*
X137509250Y-102500000D01*
X137668000Y-102341250D01*
X137668000Y-101092000D01*
X136418750Y-101092000D01*
X136418750Y-100838000D01*
X137668000Y-100838000D01*
X137668000Y-99588750D01*
X137509250Y-99430000D01*
X136768690Y-99430000D01*
X136535301Y-99526673D01*
X136356673Y-99705302D01*
X136260000Y-99938691D01*
X136260000Y-100679250D01*
X136418750Y-100838000D01*
X136418750Y-101092000D01*
X136260000Y-101250750D01*
X136260000Y-101991309D01*
X136356673Y-102224698D01*
X136535301Y-102403327D01*
X136768690Y-102500000D01*
X136768690Y-102620000D01*
X133085000Y-102620000D01*
X133085000Y-102512440D01*
X134885000Y-102512440D01*
X135120317Y-102468162D01*
X135336441Y-102329090D01*
X135481431Y-102116890D01*
X135532440Y-101865000D01*
X135532440Y-100065000D01*
X135488162Y-99829683D01*
X135349090Y-99613559D01*
X135136890Y-99468569D01*
X134885000Y-99417560D01*
X133085000Y-99417560D01*
X132849683Y-99461838D01*
X132633559Y-99600910D01*
X132488569Y-99813110D01*
X132437560Y-100065000D01*
X132437560Y-101865000D01*
X132481838Y-102100317D01*
X132620910Y-102316441D01*
X132833110Y-102461431D01*
X133085000Y-102512440D01*
X133085000Y-102620000D01*
X132330000Y-102620000D01*
X132330000Y-92441580D01*
X132890389Y-91881191D01*
X133114357Y-92105551D01*
X133678330Y-92339733D01*
X134288991Y-92340265D01*
X134853371Y-92107068D01*
X135285551Y-91675643D01*
X135519733Y-91111670D01*
X135520247Y-90521332D01*
X136891579Y-89150000D01*
X143778421Y-89150000D01*
X144338809Y-89710389D01*
X144114449Y-89934357D01*
X143880267Y-90498330D01*
X143879735Y-91108991D01*
X144112932Y-91673371D01*
X144544357Y-92105551D01*
X145108330Y-92339733D01*
X145718991Y-92340265D01*
X146283371Y-92107068D01*
X146715551Y-91675643D01*
X146949733Y-91111670D01*
X146950265Y-90501009D01*
X146717068Y-89936629D01*
X146428223Y-89647279D01*
X146428223Y-84631965D01*
X146998454Y-84604778D01*
X147399005Y-84438864D01*
X147473139Y-84192745D01*
X146645000Y-83364605D01*
X146645000Y-83005395D01*
X147473139Y-82177255D01*
X147399005Y-81931136D01*
X146861777Y-81738035D01*
X146328690Y-81763451D01*
X146328690Y-79970000D01*
X147669250Y-79970000D01*
X147828000Y-79811250D01*
X147828000Y-76962000D01*
X145978750Y-76962000D01*
X145820000Y-77120750D01*
X145820000Y-79461309D01*
X145916673Y-79694698D01*
X146095301Y-79873327D01*
X146328690Y-79970000D01*
X146328690Y-81763451D01*
X146291546Y-81765222D01*
X145890995Y-81931136D01*
X145816861Y-82177255D01*
X146645000Y-83005395D01*
X146645000Y-83364605D01*
X145816861Y-84192745D01*
X145890995Y-84438864D01*
X146428223Y-84631965D01*
X146428223Y-89647279D01*
X146295985Y-89514809D01*
X146243810Y-89252516D01*
X146232633Y-89196325D01*
X146040790Y-88909210D01*
X144770792Y-87639213D01*
X144770790Y-87639210D01*
X144483675Y-87447367D01*
X144431691Y-87437027D01*
X144145000Y-87379999D01*
X144144995Y-87380000D01*
X136525000Y-87380000D01*
X136186325Y-87447367D01*
X135899210Y-87639210D01*
X135899208Y-87639213D01*
X134268174Y-89270247D01*
X133681009Y-89269735D01*
X133116629Y-89502932D01*
X132694809Y-89924015D01*
X132376325Y-89987367D01*
X132330000Y-90018320D01*
X132089210Y-90179210D01*
X132089208Y-90179213D01*
X130819210Y-91449210D01*
X130627367Y-91736325D01*
X130616190Y-91792516D01*
X130559999Y-92075000D01*
X130560000Y-92075005D01*
X130560000Y-104491602D01*
X130520057Y-104508106D01*
X130059722Y-104967637D01*
X129810284Y-105568352D01*
X129809716Y-106218795D01*
X130058106Y-106819943D01*
X130517637Y-107280278D01*
X130560000Y-107297869D01*
X130560000Y-110991602D01*
X130520057Y-111008106D01*
X130059722Y-111467637D01*
X129810284Y-112068352D01*
X129809716Y-112718795D01*
X130058106Y-113319943D01*
X130517637Y-113780278D01*
X131118352Y-114029716D01*
X131768795Y-114030284D01*
X132369943Y-113781894D01*
X132830278Y-113322363D01*
X133079716Y-112721648D01*
X133080284Y-112071205D01*
X132831894Y-111470057D01*
X132372363Y-111009722D01*
X132330000Y-110992131D01*
X132330000Y-107298398D01*
X132369943Y-107281894D01*
X132830278Y-106822363D01*
X133079716Y-106221648D01*
X133080284Y-105571205D01*
X132831894Y-104970057D01*
X132372363Y-104509722D01*
X132330000Y-104492131D01*
X132330000Y-104390000D01*
X135305895Y-104390000D01*
X135020057Y-104508106D01*
X134559722Y-104967637D01*
X134310284Y-105568352D01*
X134309716Y-106218795D01*
X134558106Y-106819943D01*
X135017637Y-107280278D01*
X135060000Y-107297869D01*
X135060000Y-110991602D01*
X135020057Y-111008106D01*
X134559722Y-111467637D01*
X134310284Y-112068352D01*
X134309716Y-112718795D01*
X134327233Y-112761188D01*
X130289210Y-116799210D01*
X130097367Y-117086325D01*
X130086190Y-117142516D01*
X130029999Y-117425000D01*
X130030000Y-117425005D01*
X130030000Y-128663402D01*
X129933485Y-128703281D01*
X129444996Y-129190918D01*
X129330000Y-129467859D01*
X129330000Y-74020000D01*
X140821690Y-74020000D01*
X140778569Y-74083110D01*
X140727560Y-74335000D01*
X140727560Y-79335000D01*
X140771838Y-79570317D01*
X140910910Y-79786441D01*
X141123110Y-79931431D01*
X141375000Y-79982440D01*
X143260000Y-79982440D01*
X143260000Y-82040829D01*
X142960307Y-82340000D01*
X138939171Y-82340000D01*
X138608923Y-82009176D01*
X138081691Y-81790250D01*
X137510813Y-81789752D01*
X136983200Y-82007757D01*
X136579176Y-82411077D01*
X136360250Y-82938309D01*
X136359752Y-83509187D01*
X136577757Y-84036800D01*
X136846072Y-84305583D01*
X136759683Y-84321838D01*
X136543559Y-84460910D01*
X136398569Y-84673110D01*
X136347560Y-84925000D01*
X136347560Y-86525000D01*
X136391838Y-86760317D01*
X136530910Y-86976441D01*
X136743110Y-87121431D01*
X136995000Y-87172440D01*
X138595000Y-87172440D01*
X138830317Y-87128162D01*
X139046441Y-86989090D01*
X139191431Y-86776890D01*
X139242440Y-86525000D01*
X139242440Y-84925000D01*
X139198162Y-84689683D01*
X139059090Y-84473559D01*
X138846890Y-84328569D01*
X138741959Y-84307320D01*
X138939623Y-84110000D01*
X143040760Y-84110000D01*
X143331077Y-84400824D01*
X143858309Y-84619750D01*
X144429187Y-84620248D01*
X144956800Y-84402243D01*
X145360824Y-83998923D01*
X145388423Y-83932456D01*
X145391136Y-83939005D01*
X145637255Y-84013139D01*
X146465395Y-83185000D01*
X145637255Y-82356861D01*
X145391136Y-82430995D01*
X145388804Y-82437483D01*
X145362243Y-82373200D01*
X145030000Y-82040377D01*
X145030000Y-78105005D01*
X145030001Y-78105000D01*
X145022440Y-78066989D01*
X145022440Y-74335000D01*
X144978162Y-74099683D01*
X144926887Y-74020000D01*
X145898158Y-74020000D01*
X145820000Y-74208691D01*
X145820000Y-76549250D01*
X145978750Y-76708000D01*
X147828000Y-76708000D01*
X147828000Y-76688000D01*
X148082000Y-76688000D01*
X148082000Y-76708000D01*
X149931250Y-76708000D01*
X150090000Y-76549250D01*
X150090000Y-74208691D01*
X150011842Y-74020000D01*
X157960000Y-74020000D01*
X157960000Y-142650000D01*
X155898795Y-142650000D01*
X155898795Y-124190284D01*
X156499943Y-123941894D01*
X156960278Y-123482363D01*
X157209716Y-122881648D01*
X157210284Y-122231205D01*
X156961894Y-121630057D01*
X156502363Y-121169722D01*
X156460000Y-121152131D01*
X156460000Y-108585005D01*
X156460001Y-108585000D01*
X156403810Y-108302516D01*
X156392633Y-108246325D01*
X156200790Y-107959210D01*
X154930792Y-106689213D01*
X154930790Y-106689210D01*
X154643675Y-106497367D01*
X154305000Y-106429999D01*
X154304995Y-106430000D01*
X153505000Y-106430000D01*
X153505000Y-103682440D01*
X155105000Y-103682440D01*
X155340317Y-103638162D01*
X155556441Y-103499090D01*
X155701431Y-103286890D01*
X155752440Y-103035000D01*
X155752440Y-101435000D01*
X155708162Y-101199683D01*
X155569090Y-100983559D01*
X155356890Y-100838569D01*
X155312745Y-100829630D01*
X155312745Y-100563139D01*
X155558864Y-100489005D01*
X155751965Y-99951777D01*
X155724778Y-99381546D01*
X155558864Y-98980995D01*
X155312745Y-98906861D01*
X154484605Y-99735000D01*
X155312745Y-100563139D01*
X155312745Y-100829630D01*
X155118799Y-100790354D01*
X155133139Y-100742745D01*
X154305000Y-99914605D01*
X154305000Y-99555395D01*
X155133139Y-98727255D01*
X155059005Y-98481136D01*
X154521777Y-98288035D01*
X153951546Y-98315222D01*
X153550995Y-98481136D01*
X153476861Y-98727255D01*
X154305000Y-99555395D01*
X154305000Y-99914605D01*
X153476861Y-100742745D01*
X153491145Y-100790167D01*
X153297255Y-100826649D01*
X153297255Y-100563139D01*
X154125395Y-99735000D01*
X153297255Y-98906861D01*
X153051136Y-98980995D01*
X152858035Y-99518223D01*
X152885222Y-100088454D01*
X153051136Y-100489005D01*
X153297255Y-100563139D01*
X153297255Y-100826649D01*
X153269683Y-100831838D01*
X153053559Y-100970910D01*
X152908569Y-101183110D01*
X152857560Y-101435000D01*
X152857560Y-103035000D01*
X152901838Y-103270317D01*
X153040910Y-103486441D01*
X153253110Y-103631431D01*
X153505000Y-103682440D01*
X153505000Y-106430000D01*
X151942440Y-106430000D01*
X151942440Y-106115000D01*
X151898162Y-105879683D01*
X151759090Y-105663559D01*
X151546890Y-105518569D01*
X151295000Y-105467560D01*
X151153096Y-105467560D01*
X151120790Y-105419210D01*
X149850792Y-104149213D01*
X149850790Y-104149210D01*
X149563675Y-103957367D01*
X149480302Y-103940783D01*
X149225000Y-103889999D01*
X149224995Y-103890000D01*
X148325000Y-103890000D01*
X148325000Y-102512440D01*
X150125000Y-102512440D01*
X150360317Y-102468162D01*
X150576441Y-102329090D01*
X150721431Y-102116890D01*
X150772440Y-101865000D01*
X150772440Y-100065000D01*
X150728162Y-99829683D01*
X150589090Y-99613559D01*
X150376890Y-99468569D01*
X150125000Y-99417560D01*
X148325000Y-99417560D01*
X148089683Y-99461838D01*
X147873559Y-99600910D01*
X147728569Y-99813110D01*
X147677560Y-100065000D01*
X147677560Y-101865000D01*
X147721838Y-102100317D01*
X147860910Y-102316441D01*
X148073110Y-102461431D01*
X148325000Y-102512440D01*
X148325000Y-103890000D01*
X147051580Y-103890000D01*
X146300000Y-103138421D01*
X146300000Y-102512440D01*
X146315000Y-102512440D01*
X146550317Y-102468162D01*
X146766441Y-102329090D01*
X146911431Y-102116890D01*
X146962440Y-101865000D01*
X146962440Y-100065000D01*
X146918162Y-99829683D01*
X146779090Y-99613559D01*
X146566890Y-99468569D01*
X146315000Y-99417560D01*
X146300000Y-99417560D01*
X146300000Y-94981580D01*
X147051579Y-94230000D01*
X147954995Y-94230000D01*
X147955000Y-94230001D01*
X148089683Y-94203210D01*
X148293675Y-94162633D01*
X148504151Y-94021998D01*
X148580790Y-93970790D01*
X149850787Y-92700792D01*
X149850790Y-92700790D01*
X149931250Y-92580372D01*
X150042633Y-92413675D01*
X150106162Y-92094299D01*
X150525551Y-91675643D01*
X150759733Y-91111670D01*
X150760265Y-90501009D01*
X150527068Y-89936629D01*
X150095643Y-89504449D01*
X149531670Y-89270267D01*
X148921009Y-89269735D01*
X148356629Y-89502932D01*
X148240750Y-89618608D01*
X148240750Y-79970000D01*
X149581310Y-79970000D01*
X149814699Y-79873327D01*
X149993327Y-79694698D01*
X150090000Y-79461309D01*
X150090000Y-77120750D01*
X149931250Y-76962000D01*
X148082000Y-76962000D01*
X148082000Y-79811250D01*
X148240750Y-79970000D01*
X148240750Y-89618608D01*
X147924449Y-89934357D01*
X147690267Y-90498330D01*
X147689735Y-91108991D01*
X147922932Y-91673371D01*
X148148793Y-91899627D01*
X147652745Y-92395675D01*
X147652745Y-84013139D01*
X147898864Y-83939005D01*
X148091965Y-83401777D01*
X148064778Y-82831546D01*
X147898864Y-82430995D01*
X147652745Y-82356861D01*
X146824605Y-83185000D01*
X147652745Y-84013139D01*
X147652745Y-92395675D01*
X147588420Y-92460000D01*
X146685005Y-92460000D01*
X146685000Y-92459999D01*
X146346325Y-92527367D01*
X146283371Y-92569431D01*
X146059210Y-92719210D01*
X146059208Y-92719213D01*
X145048420Y-93730000D01*
X143241580Y-93730000D01*
X142490000Y-92978421D01*
X142490000Y-92090468D01*
X142905551Y-91675643D01*
X143139733Y-91111670D01*
X143140265Y-90501009D01*
X142907068Y-89936629D01*
X142475643Y-89504449D01*
X141911670Y-89270267D01*
X141301009Y-89269735D01*
X140736629Y-89502932D01*
X140304449Y-89934357D01*
X140070267Y-90498330D01*
X140069735Y-91108991D01*
X140302932Y-91673371D01*
X140720000Y-92091169D01*
X140720000Y-93344995D01*
X140719999Y-93345000D01*
X140778569Y-93639445D01*
X140787367Y-93683675D01*
X140979210Y-93970790D01*
X140979213Y-93970792D01*
X142249210Y-95240790D01*
X142536325Y-95432633D01*
X142536326Y-95432633D01*
X142875000Y-95500001D01*
X142875005Y-95500000D01*
X144530000Y-95500000D01*
X144530000Y-99417560D01*
X144515000Y-99417560D01*
X144279683Y-99461838D01*
X144063559Y-99600910D01*
X143918569Y-99813110D01*
X143867560Y-100065000D01*
X143867560Y-101865000D01*
X143911838Y-102100317D01*
X144050910Y-102316441D01*
X144263110Y-102461431D01*
X144515000Y-102512440D01*
X144530000Y-102512440D01*
X144530000Y-103504995D01*
X144529999Y-103505000D01*
X144597367Y-103843675D01*
X144789210Y-104130790D01*
X144789213Y-104130792D01*
X146059210Y-105400790D01*
X146346325Y-105592633D01*
X146346326Y-105592633D01*
X146685000Y-105660001D01*
X146685005Y-105660000D01*
X147246136Y-105660000D01*
X146940302Y-105864352D01*
X146685000Y-106246438D01*
X146429698Y-105864352D01*
X146238678Y-105736717D01*
X146232633Y-105706325D01*
X146040790Y-105419210D01*
X144770792Y-104149213D01*
X144770790Y-104149210D01*
X144483675Y-103957367D01*
X144431691Y-103947027D01*
X144145000Y-103889999D01*
X144144995Y-103890000D01*
X143241580Y-103890000D01*
X142490000Y-103138421D01*
X142490000Y-102512440D01*
X142505000Y-102512440D01*
X142740317Y-102468162D01*
X142956441Y-102329090D01*
X143101431Y-102116890D01*
X143152440Y-101865000D01*
X143152440Y-100065000D01*
X143108162Y-99829683D01*
X142969090Y-99613559D01*
X142756890Y-99468569D01*
X142505000Y-99417560D01*
X140705000Y-99417560D01*
X140469683Y-99461838D01*
X140253559Y-99600910D01*
X140108569Y-99813110D01*
X140057560Y-100065000D01*
X140057560Y-101865000D01*
X140101838Y-102100317D01*
X140240910Y-102316441D01*
X140453110Y-102461431D01*
X140705000Y-102512440D01*
X140720000Y-102512440D01*
X140720000Y-103504995D01*
X140719999Y-103505000D01*
X140778569Y-103799445D01*
X140787367Y-103843675D01*
X140979210Y-104130790D01*
X140979213Y-104130792D01*
X142249210Y-105400790D01*
X142454813Y-105538169D01*
X142443181Y-105540633D01*
X141950104Y-105810500D01*
X141597834Y-106248517D01*
X141440000Y-106788000D01*
X141440000Y-107188000D01*
X142748000Y-107188000D01*
X142748000Y-107168000D01*
X143002000Y-107168000D01*
X143002000Y-107188000D01*
X143022000Y-107188000D01*
X143022000Y-107442000D01*
X143002000Y-107442000D01*
X143002000Y-108984915D01*
X143224039Y-109106904D01*
X143306819Y-109089367D01*
X143799896Y-108819500D01*
X144147493Y-108387293D01*
X144400302Y-108765648D01*
X144865849Y-109076717D01*
X145415000Y-109185950D01*
X145964151Y-109076717D01*
X146429698Y-108765648D01*
X146685000Y-108383562D01*
X146940302Y-108765648D01*
X147405849Y-109076717D01*
X147955000Y-109185950D01*
X148504151Y-109076717D01*
X148969698Y-108765648D01*
X149067251Y-108619650D01*
X149091838Y-108750317D01*
X149230910Y-108966441D01*
X149443110Y-109111431D01*
X149695000Y-109162440D01*
X151295000Y-109162440D01*
X151530317Y-109118162D01*
X151746441Y-108979090D01*
X151891431Y-108766890D01*
X151942440Y-108515000D01*
X151942440Y-108200000D01*
X153938421Y-108200000D01*
X154690000Y-108951580D01*
X154690000Y-121151602D01*
X154650057Y-121168106D01*
X154189722Y-121627637D01*
X153940284Y-122228352D01*
X153939716Y-122878795D01*
X154188106Y-123479943D01*
X154647637Y-123940278D01*
X155248352Y-124189716D01*
X155898795Y-124190284D01*
X155898795Y-142650000D01*
X152139868Y-142650000D01*
X152139868Y-131220263D01*
X152417099Y-131109359D01*
X152660323Y-130463407D01*
X152637836Y-129773547D01*
X152417099Y-129240641D01*
X152139868Y-129129737D01*
X151094605Y-130175000D01*
X152139868Y-131220263D01*
X152139868Y-142650000D01*
X150626593Y-142650000D01*
X150626593Y-131920323D01*
X151316453Y-131897836D01*
X151849359Y-131677099D01*
X151960263Y-131399868D01*
X150915000Y-130354605D01*
X150915000Y-129995395D01*
X151960263Y-128950132D01*
X151849359Y-128672901D01*
X151647532Y-128596906D01*
X151647532Y-123527927D01*
X151914387Y-123429264D01*
X152140908Y-122819539D01*
X152116856Y-122169540D01*
X151914387Y-121680736D01*
X151647532Y-121582073D01*
X150674605Y-122555000D01*
X151647532Y-123527927D01*
X151647532Y-128596906D01*
X151203407Y-128429677D01*
X150513547Y-128452164D01*
X150230461Y-128569422D01*
X150230461Y-124200908D01*
X150880460Y-124176856D01*
X151369264Y-123974387D01*
X151467927Y-123707532D01*
X150495000Y-122734605D01*
X150495000Y-122375395D01*
X151467927Y-121402468D01*
X151369264Y-121135613D01*
X150759539Y-120909092D01*
X150109540Y-120933144D01*
X149620736Y-121135613D01*
X149522073Y-121402468D01*
X150495000Y-122375395D01*
X150495000Y-122734605D01*
X149522073Y-123707532D01*
X149620736Y-123974387D01*
X150230461Y-124200908D01*
X150230461Y-128569422D01*
X149980641Y-128672901D01*
X149869737Y-128950132D01*
X150915000Y-129995395D01*
X150915000Y-130354605D01*
X149869737Y-131399868D01*
X149980641Y-131677099D01*
X150626593Y-131920323D01*
X150626593Y-142650000D01*
X149690132Y-142650000D01*
X149690132Y-131220263D01*
X150735395Y-130175000D01*
X149690132Y-129129737D01*
X149412901Y-129240641D01*
X149342468Y-129427696D01*
X149342468Y-123527927D01*
X150315395Y-122555000D01*
X149342468Y-121582073D01*
X149075613Y-121680736D01*
X148849092Y-122290461D01*
X148873144Y-122940460D01*
X149075613Y-123429264D01*
X149342468Y-123527927D01*
X149342468Y-129427696D01*
X149169677Y-129886593D01*
X149192164Y-130576453D01*
X149412901Y-131109359D01*
X149690132Y-131220263D01*
X149690132Y-142650000D01*
X129330000Y-142650000D01*
X129330000Y-130882355D01*
X129443281Y-131156515D01*
X129443281Y-131156515D01*
G37*
X129443281Y-131156515D02*
X129930918Y-131645004D01*
X130568373Y-131909699D01*
X131258599Y-131910301D01*
X131896515Y-131646719D01*
X132385004Y-131159082D01*
X132649699Y-130521627D01*
X132650301Y-129831401D01*
X132386719Y-129193485D01*
X131899082Y-128704996D01*
X131800000Y-128663853D01*
X131800000Y-117791580D01*
X135578437Y-114013142D01*
X135618352Y-114029716D01*
X136268795Y-114030284D01*
X136869943Y-113781894D01*
X137330278Y-113322363D01*
X137579716Y-112721648D01*
X137580284Y-112071205D01*
X137331894Y-111470057D01*
X136872363Y-111009722D01*
X136830000Y-110992131D01*
X136830000Y-107298398D01*
X136869943Y-107281894D01*
X137330278Y-106822363D01*
X137579716Y-106221648D01*
X137580284Y-105571205D01*
X137331894Y-104970057D01*
X136872363Y-104509722D01*
X136584040Y-104390000D01*
X138698421Y-104390000D01*
X139450000Y-105141580D01*
X139450000Y-111124995D01*
X139449999Y-111125000D01*
X139517367Y-111463675D01*
X139709210Y-111750790D01*
X139709213Y-111750792D01*
X140979210Y-113020790D01*
X141266325Y-113212633D01*
X141266326Y-113212633D01*
X141605000Y-113280001D01*
X141605005Y-113280000D01*
X142166136Y-113280000D01*
X141860302Y-113484352D01*
X141549233Y-113949899D01*
X141440000Y-114499050D01*
X141440000Y-115370950D01*
X141549233Y-115920101D01*
X141860302Y-116385648D01*
X142325849Y-116696717D01*
X142875000Y-116805950D01*
X143424151Y-116696717D01*
X143889698Y-116385648D01*
X144145000Y-116003562D01*
X144400302Y-116385648D01*
X144865849Y-116696717D01*
X145415000Y-116805950D01*
X145964151Y-116696717D01*
X146429698Y-116385648D01*
X146685000Y-116003562D01*
X146940302Y-116385648D01*
X147405849Y-116696717D01*
X147955000Y-116805950D01*
X148504151Y-116696717D01*
X148969698Y-116385648D01*
X149225000Y-116003562D01*
X149480302Y-116385648D01*
X149945849Y-116696717D01*
X150495000Y-116805950D01*
X151044151Y-116696717D01*
X151509698Y-116385648D01*
X151820767Y-115920101D01*
X151930000Y-115370950D01*
X151930000Y-114499050D01*
X151820767Y-113949899D01*
X151509698Y-113484352D01*
X151318678Y-113356717D01*
X151312633Y-113326325D01*
X151120790Y-113039210D01*
X149850792Y-111769213D01*
X149850790Y-111769210D01*
X149563675Y-111577367D01*
X149480302Y-111560783D01*
X149225000Y-111509999D01*
X149224995Y-111510000D01*
X142525961Y-111510000D01*
X142525961Y-109106904D01*
X142748000Y-108984915D01*
X142748000Y-107442000D01*
X141440000Y-107442000D01*
X141440000Y-107842000D01*
X141597834Y-108381483D01*
X141950104Y-108819500D01*
X142443181Y-109089367D01*
X142525961Y-109106904D01*
X142525961Y-111510000D01*
X141971580Y-111510000D01*
X141220000Y-110758421D01*
X141220000Y-104775005D01*
X141220001Y-104775000D01*
X141163810Y-104492516D01*
X141152633Y-104436325D01*
X140960790Y-104149210D01*
X139690792Y-102879213D01*
X139690790Y-102879210D01*
X139403675Y-102687367D01*
X139230248Y-102652870D01*
X139065000Y-102619999D01*
X139064995Y-102620000D01*
X138080750Y-102620000D01*
X138080750Y-102500000D01*
X138821310Y-102500000D01*
X139054699Y-102403327D01*
X139233327Y-102224698D01*
X139330000Y-101991309D01*
X139330000Y-101250750D01*
X139171250Y-101092000D01*
X137922000Y-101092000D01*
X137922000Y-100838000D01*
X139171250Y-100838000D01*
X139330000Y-100679250D01*
X139330000Y-99938691D01*
X139233327Y-99705302D01*
X139054699Y-99526673D01*
X138821310Y-99430000D01*
X138098991Y-99430000D01*
X138098991Y-92340265D01*
X138663371Y-92107068D01*
X139095551Y-91675643D01*
X139329733Y-91111670D01*
X139330265Y-90501009D01*
X139097068Y-89936629D01*
X138665643Y-89504449D01*
X138101670Y-89270267D01*
X137491009Y-89269735D01*
X136926629Y-89502932D01*
X136494449Y-89934357D01*
X136260267Y-90498330D01*
X136259735Y-91108991D01*
X136492932Y-91673371D01*
X136924357Y-92105551D01*
X137488330Y-92339733D01*
X138098991Y-92340265D01*
X138098991Y-99430000D01*
X138080750Y-99430000D01*
X137922000Y-99588750D01*
X137922000Y-100838000D01*
X137922000Y-101092000D01*
X137922000Y-102341250D01*
X138080750Y-102500000D01*
X138080750Y-102620000D01*
X136768690Y-102620000D01*
X136768690Y-102500000D01*
X137509250Y-102500000D01*
X137668000Y-102341250D01*
X137668000Y-101092000D01*
X136418750Y-101092000D01*
X136418750Y-100838000D01*
X137668000Y-100838000D01*
X137668000Y-99588750D01*
X137509250Y-99430000D01*
X136768690Y-99430000D01*
X136535301Y-99526673D01*
X136356673Y-99705302D01*
X136260000Y-99938691D01*
X136260000Y-100679250D01*
X136418750Y-100838000D01*
X136418750Y-101092000D01*
X136260000Y-101250750D01*
X136260000Y-101991309D01*
X136356673Y-102224698D01*
X136535301Y-102403327D01*
X136768690Y-102500000D01*
X136768690Y-102620000D01*
X133085000Y-102620000D01*
X133085000Y-102512440D01*
X134885000Y-102512440D01*
X135120317Y-102468162D01*
X135336441Y-102329090D01*
X135481431Y-102116890D01*
X135532440Y-101865000D01*
X135532440Y-100065000D01*
X135488162Y-99829683D01*
X135349090Y-99613559D01*
X135136890Y-99468569D01*
X134885000Y-99417560D01*
X133085000Y-99417560D01*
X132849683Y-99461838D01*
X132633559Y-99600910D01*
X132488569Y-99813110D01*
X132437560Y-100065000D01*
X132437560Y-101865000D01*
X132481838Y-102100317D01*
X132620910Y-102316441D01*
X132833110Y-102461431D01*
X133085000Y-102512440D01*
X133085000Y-102620000D01*
X132330000Y-102620000D01*
X132330000Y-92441580D01*
X132890389Y-91881191D01*
X133114357Y-92105551D01*
X133678330Y-92339733D01*
X134288991Y-92340265D01*
X134853371Y-92107068D01*
X135285551Y-91675643D01*
X135519733Y-91111670D01*
X135520247Y-90521332D01*
X136891579Y-89150000D01*
X143778421Y-89150000D01*
X144338809Y-89710389D01*
X144114449Y-89934357D01*
X143880267Y-90498330D01*
X143879735Y-91108991D01*
X144112932Y-91673371D01*
X144544357Y-92105551D01*
X145108330Y-92339733D01*
X145718991Y-92340265D01*
X146283371Y-92107068D01*
X146715551Y-91675643D01*
X146949733Y-91111670D01*
X146950265Y-90501009D01*
X146717068Y-89936629D01*
X146428223Y-89647279D01*
X146428223Y-84631965D01*
X146998454Y-84604778D01*
X147399005Y-84438864D01*
X147473139Y-84192745D01*
X146645000Y-83364605D01*
X146645000Y-83005395D01*
X147473139Y-82177255D01*
X147399005Y-81931136D01*
X146861777Y-81738035D01*
X146328690Y-81763451D01*
X146328690Y-79970000D01*
X147669250Y-79970000D01*
X147828000Y-79811250D01*
X147828000Y-76962000D01*
X145978750Y-76962000D01*
X145820000Y-77120750D01*
X145820000Y-79461309D01*
X145916673Y-79694698D01*
X146095301Y-79873327D01*
X146328690Y-79970000D01*
X146328690Y-81763451D01*
X146291546Y-81765222D01*
X145890995Y-81931136D01*
X145816861Y-82177255D01*
X146645000Y-83005395D01*
X146645000Y-83364605D01*
X145816861Y-84192745D01*
X145890995Y-84438864D01*
X146428223Y-84631965D01*
X146428223Y-89647279D01*
X146295985Y-89514809D01*
X146243810Y-89252516D01*
X146232633Y-89196325D01*
X146040790Y-88909210D01*
X144770792Y-87639213D01*
X144770790Y-87639210D01*
X144483675Y-87447367D01*
X144431691Y-87437027D01*
X144145000Y-87379999D01*
X144144995Y-87380000D01*
X136525000Y-87380000D01*
X136186325Y-87447367D01*
X135899210Y-87639210D01*
X135899208Y-87639213D01*
X134268174Y-89270247D01*
X133681009Y-89269735D01*
X133116629Y-89502932D01*
X132694809Y-89924015D01*
X132376325Y-89987367D01*
X132330000Y-90018320D01*
X132089210Y-90179210D01*
X132089208Y-90179213D01*
X130819210Y-91449210D01*
X130627367Y-91736325D01*
X130616190Y-91792516D01*
X130559999Y-92075000D01*
X130560000Y-92075005D01*
X130560000Y-104491602D01*
X130520057Y-104508106D01*
X130059722Y-104967637D01*
X129810284Y-105568352D01*
X129809716Y-106218795D01*
X130058106Y-106819943D01*
X130517637Y-107280278D01*
X130560000Y-107297869D01*
X130560000Y-110991602D01*
X130520057Y-111008106D01*
X130059722Y-111467637D01*
X129810284Y-112068352D01*
X129809716Y-112718795D01*
X130058106Y-113319943D01*
X130517637Y-113780278D01*
X131118352Y-114029716D01*
X131768795Y-114030284D01*
X132369943Y-113781894D01*
X132830278Y-113322363D01*
X133079716Y-112721648D01*
X133080284Y-112071205D01*
X132831894Y-111470057D01*
X132372363Y-111009722D01*
X132330000Y-110992131D01*
X132330000Y-107298398D01*
X132369943Y-107281894D01*
X132830278Y-106822363D01*
X133079716Y-106221648D01*
X133080284Y-105571205D01*
X132831894Y-104970057D01*
X132372363Y-104509722D01*
X132330000Y-104492131D01*
X132330000Y-104390000D01*
X135305895Y-104390000D01*
X135020057Y-104508106D01*
X134559722Y-104967637D01*
X134310284Y-105568352D01*
X134309716Y-106218795D01*
X134558106Y-106819943D01*
X135017637Y-107280278D01*
X135060000Y-107297869D01*
X135060000Y-110991602D01*
X135020057Y-111008106D01*
X134559722Y-111467637D01*
X134310284Y-112068352D01*
X134309716Y-112718795D01*
X134327233Y-112761188D01*
X130289210Y-116799210D01*
X130097367Y-117086325D01*
X130086190Y-117142516D01*
X130029999Y-117425000D01*
X130030000Y-117425005D01*
X130030000Y-128663402D01*
X129933485Y-128703281D01*
X129444996Y-129190918D01*
X129330000Y-129467859D01*
X129330000Y-74020000D01*
X140821690Y-74020000D01*
X140778569Y-74083110D01*
X140727560Y-74335000D01*
X140727560Y-79335000D01*
X140771838Y-79570317D01*
X140910910Y-79786441D01*
X141123110Y-79931431D01*
X141375000Y-79982440D01*
X143260000Y-79982440D01*
X143260000Y-82040829D01*
X142960307Y-82340000D01*
X138939171Y-82340000D01*
X138608923Y-82009176D01*
X138081691Y-81790250D01*
X137510813Y-81789752D01*
X136983200Y-82007757D01*
X136579176Y-82411077D01*
X136360250Y-82938309D01*
X136359752Y-83509187D01*
X136577757Y-84036800D01*
X136846072Y-84305583D01*
X136759683Y-84321838D01*
X136543559Y-84460910D01*
X136398569Y-84673110D01*
X136347560Y-84925000D01*
X136347560Y-86525000D01*
X136391838Y-86760317D01*
X136530910Y-86976441D01*
X136743110Y-87121431D01*
X136995000Y-87172440D01*
X138595000Y-87172440D01*
X138830317Y-87128162D01*
X139046441Y-86989090D01*
X139191431Y-86776890D01*
X139242440Y-86525000D01*
X139242440Y-84925000D01*
X139198162Y-84689683D01*
X139059090Y-84473559D01*
X138846890Y-84328569D01*
X138741959Y-84307320D01*
X138939623Y-84110000D01*
X143040760Y-84110000D01*
X143331077Y-84400824D01*
X143858309Y-84619750D01*
X144429187Y-84620248D01*
X144956800Y-84402243D01*
X145360824Y-83998923D01*
X145388423Y-83932456D01*
X145391136Y-83939005D01*
X145637255Y-84013139D01*
X146465395Y-83185000D01*
X145637255Y-82356861D01*
X145391136Y-82430995D01*
X145388804Y-82437483D01*
X145362243Y-82373200D01*
X145030000Y-82040377D01*
X145030000Y-78105005D01*
X145030001Y-78105000D01*
X145022440Y-78066989D01*
X145022440Y-74335000D01*
X144978162Y-74099683D01*
X144926887Y-74020000D01*
X145898158Y-74020000D01*
X145820000Y-74208691D01*
X145820000Y-76549250D01*
X145978750Y-76708000D01*
X147828000Y-76708000D01*
X147828000Y-76688000D01*
X148082000Y-76688000D01*
X148082000Y-76708000D01*
X149931250Y-76708000D01*
X150090000Y-76549250D01*
X150090000Y-74208691D01*
X150011842Y-74020000D01*
X157960000Y-74020000D01*
X157960000Y-142650000D01*
X155898795Y-142650000D01*
X155898795Y-124190284D01*
X156499943Y-123941894D01*
X156960278Y-123482363D01*
X157209716Y-122881648D01*
X157210284Y-122231205D01*
X156961894Y-121630057D01*
X156502363Y-121169722D01*
X156460000Y-121152131D01*
X156460000Y-108585005D01*
X156460001Y-108585000D01*
X156403810Y-108302516D01*
X156392633Y-108246325D01*
X156200790Y-107959210D01*
X154930792Y-106689213D01*
X154930790Y-106689210D01*
X154643675Y-106497367D01*
X154305000Y-106429999D01*
X154304995Y-106430000D01*
X153505000Y-106430000D01*
X153505000Y-103682440D01*
X155105000Y-103682440D01*
X155340317Y-103638162D01*
X155556441Y-103499090D01*
X155701431Y-103286890D01*
X155752440Y-103035000D01*
X155752440Y-101435000D01*
X155708162Y-101199683D01*
X155569090Y-100983559D01*
X155356890Y-100838569D01*
X155312745Y-100829630D01*
X155312745Y-100563139D01*
X155558864Y-100489005D01*
X155751965Y-99951777D01*
X155724778Y-99381546D01*
X155558864Y-98980995D01*
X155312745Y-98906861D01*
X154484605Y-99735000D01*
X155312745Y-100563139D01*
X155312745Y-100829630D01*
X155118799Y-100790354D01*
X155133139Y-100742745D01*
X154305000Y-99914605D01*
X154305000Y-99555395D01*
X155133139Y-98727255D01*
X155059005Y-98481136D01*
X154521777Y-98288035D01*
X153951546Y-98315222D01*
X153550995Y-98481136D01*
X153476861Y-98727255D01*
X154305000Y-99555395D01*
X154305000Y-99914605D01*
X153476861Y-100742745D01*
X153491145Y-100790167D01*
X153297255Y-100826649D01*
X153297255Y-100563139D01*
X154125395Y-99735000D01*
X153297255Y-98906861D01*
X153051136Y-98980995D01*
X152858035Y-99518223D01*
X152885222Y-100088454D01*
X153051136Y-100489005D01*
X153297255Y-100563139D01*
X153297255Y-100826649D01*
X153269683Y-100831838D01*
X153053559Y-100970910D01*
X152908569Y-101183110D01*
X152857560Y-101435000D01*
X152857560Y-103035000D01*
X152901838Y-103270317D01*
X153040910Y-103486441D01*
X153253110Y-103631431D01*
X153505000Y-103682440D01*
X153505000Y-106430000D01*
X151942440Y-106430000D01*
X151942440Y-106115000D01*
X151898162Y-105879683D01*
X151759090Y-105663559D01*
X151546890Y-105518569D01*
X151295000Y-105467560D01*
X151153096Y-105467560D01*
X151120790Y-105419210D01*
X149850792Y-104149213D01*
X149850790Y-104149210D01*
X149563675Y-103957367D01*
X149480302Y-103940783D01*
X149225000Y-103889999D01*
X149224995Y-103890000D01*
X148325000Y-103890000D01*
X148325000Y-102512440D01*
X150125000Y-102512440D01*
X150360317Y-102468162D01*
X150576441Y-102329090D01*
X150721431Y-102116890D01*
X150772440Y-101865000D01*
X150772440Y-100065000D01*
X150728162Y-99829683D01*
X150589090Y-99613559D01*
X150376890Y-99468569D01*
X150125000Y-99417560D01*
X148325000Y-99417560D01*
X148089683Y-99461838D01*
X147873559Y-99600910D01*
X147728569Y-99813110D01*
X147677560Y-100065000D01*
X147677560Y-101865000D01*
X147721838Y-102100317D01*
X147860910Y-102316441D01*
X148073110Y-102461431D01*
X148325000Y-102512440D01*
X148325000Y-103890000D01*
X147051580Y-103890000D01*
X146300000Y-103138421D01*
X146300000Y-102512440D01*
X146315000Y-102512440D01*
X146550317Y-102468162D01*
X146766441Y-102329090D01*
X146911431Y-102116890D01*
X146962440Y-101865000D01*
X146962440Y-100065000D01*
X146918162Y-99829683D01*
X146779090Y-99613559D01*
X146566890Y-99468569D01*
X146315000Y-99417560D01*
X146300000Y-99417560D01*
X146300000Y-94981580D01*
X147051579Y-94230000D01*
X147954995Y-94230000D01*
X147955000Y-94230001D01*
X148089683Y-94203210D01*
X148293675Y-94162633D01*
X148504151Y-94021998D01*
X148580790Y-93970790D01*
X149850787Y-92700792D01*
X149850790Y-92700790D01*
X149931250Y-92580372D01*
X150042633Y-92413675D01*
X150106162Y-92094299D01*
X150525551Y-91675643D01*
X150759733Y-91111670D01*
X150760265Y-90501009D01*
X150527068Y-89936629D01*
X150095643Y-89504449D01*
X149531670Y-89270267D01*
X148921009Y-89269735D01*
X148356629Y-89502932D01*
X148240750Y-89618608D01*
X148240750Y-79970000D01*
X149581310Y-79970000D01*
X149814699Y-79873327D01*
X149993327Y-79694698D01*
X150090000Y-79461309D01*
X150090000Y-77120750D01*
X149931250Y-76962000D01*
X148082000Y-76962000D01*
X148082000Y-79811250D01*
X148240750Y-79970000D01*
X148240750Y-89618608D01*
X147924449Y-89934357D01*
X147690267Y-90498330D01*
X147689735Y-91108991D01*
X147922932Y-91673371D01*
X148148793Y-91899627D01*
X147652745Y-92395675D01*
X147652745Y-84013139D01*
X147898864Y-83939005D01*
X148091965Y-83401777D01*
X148064778Y-82831546D01*
X147898864Y-82430995D01*
X147652745Y-82356861D01*
X146824605Y-83185000D01*
X147652745Y-84013139D01*
X147652745Y-92395675D01*
X147588420Y-92460000D01*
X146685005Y-92460000D01*
X146685000Y-92459999D01*
X146346325Y-92527367D01*
X146283371Y-92569431D01*
X146059210Y-92719210D01*
X146059208Y-92719213D01*
X145048420Y-93730000D01*
X143241580Y-93730000D01*
X142490000Y-92978421D01*
X142490000Y-92090468D01*
X142905551Y-91675643D01*
X143139733Y-91111670D01*
X143140265Y-90501009D01*
X142907068Y-89936629D01*
X142475643Y-89504449D01*
X141911670Y-89270267D01*
X141301009Y-89269735D01*
X140736629Y-89502932D01*
X140304449Y-89934357D01*
X140070267Y-90498330D01*
X140069735Y-91108991D01*
X140302932Y-91673371D01*
X140720000Y-92091169D01*
X140720000Y-93344995D01*
X140719999Y-93345000D01*
X140778569Y-93639445D01*
X140787367Y-93683675D01*
X140979210Y-93970790D01*
X140979213Y-93970792D01*
X142249210Y-95240790D01*
X142536325Y-95432633D01*
X142536326Y-95432633D01*
X142875000Y-95500001D01*
X142875005Y-95500000D01*
X144530000Y-95500000D01*
X144530000Y-99417560D01*
X144515000Y-99417560D01*
X144279683Y-99461838D01*
X144063559Y-99600910D01*
X143918569Y-99813110D01*
X143867560Y-100065000D01*
X143867560Y-101865000D01*
X143911838Y-102100317D01*
X144050910Y-102316441D01*
X144263110Y-102461431D01*
X144515000Y-102512440D01*
X144530000Y-102512440D01*
X144530000Y-103504995D01*
X144529999Y-103505000D01*
X144597367Y-103843675D01*
X144789210Y-104130790D01*
X144789213Y-104130792D01*
X146059210Y-105400790D01*
X146346325Y-105592633D01*
X146346326Y-105592633D01*
X146685000Y-105660001D01*
X146685005Y-105660000D01*
X147246136Y-105660000D01*
X146940302Y-105864352D01*
X146685000Y-106246438D01*
X146429698Y-105864352D01*
X146238678Y-105736717D01*
X146232633Y-105706325D01*
X146040790Y-105419210D01*
X144770792Y-104149213D01*
X144770790Y-104149210D01*
X144483675Y-103957367D01*
X144431691Y-103947027D01*
X144145000Y-103889999D01*
X144144995Y-103890000D01*
X143241580Y-103890000D01*
X142490000Y-103138421D01*
X142490000Y-102512440D01*
X142505000Y-102512440D01*
X142740317Y-102468162D01*
X142956441Y-102329090D01*
X143101431Y-102116890D01*
X143152440Y-101865000D01*
X143152440Y-100065000D01*
X143108162Y-99829683D01*
X142969090Y-99613559D01*
X142756890Y-99468569D01*
X142505000Y-99417560D01*
X140705000Y-99417560D01*
X140469683Y-99461838D01*
X140253559Y-99600910D01*
X140108569Y-99813110D01*
X140057560Y-100065000D01*
X140057560Y-101865000D01*
X140101838Y-102100317D01*
X140240910Y-102316441D01*
X140453110Y-102461431D01*
X140705000Y-102512440D01*
X140720000Y-102512440D01*
X140720000Y-103504995D01*
X140719999Y-103505000D01*
X140778569Y-103799445D01*
X140787367Y-103843675D01*
X140979210Y-104130790D01*
X140979213Y-104130792D01*
X142249210Y-105400790D01*
X142454813Y-105538169D01*
X142443181Y-105540633D01*
X141950104Y-105810500D01*
X141597834Y-106248517D01*
X141440000Y-106788000D01*
X141440000Y-107188000D01*
X142748000Y-107188000D01*
X142748000Y-107168000D01*
X143002000Y-107168000D01*
X143002000Y-107188000D01*
X143022000Y-107188000D01*
X143022000Y-107442000D01*
X143002000Y-107442000D01*
X143002000Y-108984915D01*
X143224039Y-109106904D01*
X143306819Y-109089367D01*
X143799896Y-108819500D01*
X144147493Y-108387293D01*
X144400302Y-108765648D01*
X144865849Y-109076717D01*
X145415000Y-109185950D01*
X145964151Y-109076717D01*
X146429698Y-108765648D01*
X146685000Y-108383562D01*
X146940302Y-108765648D01*
X147405849Y-109076717D01*
X147955000Y-109185950D01*
X148504151Y-109076717D01*
X148969698Y-108765648D01*
X149067251Y-108619650D01*
X149091838Y-108750317D01*
X149230910Y-108966441D01*
X149443110Y-109111431D01*
X149695000Y-109162440D01*
X151295000Y-109162440D01*
X151530317Y-109118162D01*
X151746441Y-108979090D01*
X151891431Y-108766890D01*
X151942440Y-108515000D01*
X151942440Y-108200000D01*
X153938421Y-108200000D01*
X154690000Y-108951580D01*
X154690000Y-121151602D01*
X154650057Y-121168106D01*
X154189722Y-121627637D01*
X153940284Y-122228352D01*
X153939716Y-122878795D01*
X154188106Y-123479943D01*
X154647637Y-123940278D01*
X155248352Y-124189716D01*
X155898795Y-124190284D01*
X155898795Y-142650000D01*
X152139868Y-142650000D01*
X152139868Y-131220263D01*
X152417099Y-131109359D01*
X152660323Y-130463407D01*
X152637836Y-129773547D01*
X152417099Y-129240641D01*
X152139868Y-129129737D01*
X151094605Y-130175000D01*
X152139868Y-131220263D01*
X152139868Y-142650000D01*
X150626593Y-142650000D01*
X150626593Y-131920323D01*
X151316453Y-131897836D01*
X151849359Y-131677099D01*
X151960263Y-131399868D01*
X150915000Y-130354605D01*
X150915000Y-129995395D01*
X151960263Y-128950132D01*
X151849359Y-128672901D01*
X151647532Y-128596906D01*
X151647532Y-123527927D01*
X151914387Y-123429264D01*
X152140908Y-122819539D01*
X152116856Y-122169540D01*
X151914387Y-121680736D01*
X151647532Y-121582073D01*
X150674605Y-122555000D01*
X151647532Y-123527927D01*
X151647532Y-128596906D01*
X151203407Y-128429677D01*
X150513547Y-128452164D01*
X150230461Y-128569422D01*
X150230461Y-124200908D01*
X150880460Y-124176856D01*
X151369264Y-123974387D01*
X151467927Y-123707532D01*
X150495000Y-122734605D01*
X150495000Y-122375395D01*
X151467927Y-121402468D01*
X151369264Y-121135613D01*
X150759539Y-120909092D01*
X150109540Y-120933144D01*
X149620736Y-121135613D01*
X149522073Y-121402468D01*
X150495000Y-122375395D01*
X150495000Y-122734605D01*
X149522073Y-123707532D01*
X149620736Y-123974387D01*
X150230461Y-124200908D01*
X150230461Y-128569422D01*
X149980641Y-128672901D01*
X149869737Y-128950132D01*
X150915000Y-129995395D01*
X150915000Y-130354605D01*
X149869737Y-131399868D01*
X149980641Y-131677099D01*
X150626593Y-131920323D01*
X150626593Y-142650000D01*
X149690132Y-142650000D01*
X149690132Y-131220263D01*
X150735395Y-130175000D01*
X149690132Y-129129737D01*
X149412901Y-129240641D01*
X149342468Y-129427696D01*
X149342468Y-123527927D01*
X150315395Y-122555000D01*
X149342468Y-121582073D01*
X149075613Y-121680736D01*
X148849092Y-122290461D01*
X148873144Y-122940460D01*
X149075613Y-123429264D01*
X149342468Y-123527927D01*
X149342468Y-129427696D01*
X149169677Y-129886593D01*
X149192164Y-130576453D01*
X149412901Y-131109359D01*
X149690132Y-131220263D01*
X149690132Y-142650000D01*
X129330000Y-142650000D01*
X129330000Y-130882355D01*
X129443281Y-131156515D01*
M02*
