G04 #@! TF.FileFunction,Legend,Top*
%FSLAX46Y46*%
G04 Gerber Fmt 4.6, Leading zero omitted, Abs format (unit mm)*
G04 Created by KiCad (PCBNEW 4.0.1-stable) date 2017/10/27 20:21:07*
%MOMM*%
G01*
G04 APERTURE LIST*
%ADD10C,0.100000*%
%ADD11C,0.150000*%
G04 APERTURE END LIST*
D10*
D11*
X151000000Y-119000000D02*
X151000000Y-119500000D01*
X151000000Y-113000000D02*
X151000000Y-112500000D01*
X149000000Y-119000000D02*
X149000000Y-113000000D01*
X149000000Y-113000000D02*
X153000000Y-113000000D01*
X153000000Y-113000000D02*
X153000000Y-119000000D01*
X153000000Y-119000000D02*
X149500000Y-119000000D01*
X149500000Y-119000000D02*
X149000000Y-119000000D01*
X151000000Y-118540000D02*
X151000000Y-113460000D01*
X149730000Y-114730000D02*
X152270000Y-114730000D01*
X149730000Y-117270000D02*
X152270000Y-117270000D01*
X152270000Y-117270000D02*
X151000000Y-114730000D01*
X151000000Y-114730000D02*
X149730000Y-117270000D01*
X164500000Y-117000000D02*
X165000000Y-117000000D01*
X164500000Y-115000000D02*
X165000000Y-115000000D01*
X165000000Y-119000000D02*
G75*
G03X166000000Y-118000000I0J1000000D01*
G01*
X166000000Y-118000000D02*
G75*
G03X165000000Y-117000000I-1000000J0D01*
G01*
X165000000Y-117000000D02*
G75*
G03X166000000Y-116000000I0J1000000D01*
G01*
X166000000Y-116000000D02*
G75*
G03X165000000Y-115000000I-1000000J0D01*
G01*
X165000000Y-115000000D02*
G75*
G03X166000000Y-114000000I0J1000000D01*
G01*
X166000000Y-114000000D02*
G75*
G03X165000000Y-113000000I-1000000J0D01*
G01*
X165000000Y-119500000D02*
X165000000Y-119000000D01*
X165000000Y-112500000D02*
X165000000Y-113000000D01*
X171500000Y-116000000D02*
X171500000Y-113500000D01*
X171500000Y-113500000D02*
X181500000Y-113500000D01*
X181500000Y-113500000D02*
X181500000Y-118500000D01*
X181500000Y-118500000D02*
X171500000Y-118500000D01*
X171500000Y-118500000D02*
X171500000Y-116000000D01*
X156500000Y-120000000D02*
X155500000Y-119000000D01*
X155500000Y-119000000D02*
X155500000Y-113000000D01*
X155500000Y-113000000D02*
X156500000Y-112000000D01*
X156500000Y-112000000D02*
X159500000Y-112000000D01*
X159500000Y-112000000D02*
X159500000Y-120000000D01*
X159500000Y-120000000D02*
X156500000Y-120000000D01*
X182857143Y-116166666D02*
X182904762Y-116214285D01*
X182952381Y-116357142D01*
X182952381Y-116452380D01*
X182904762Y-116595238D01*
X182809524Y-116690476D01*
X182714286Y-116738095D01*
X182523810Y-116785714D01*
X182380952Y-116785714D01*
X182190476Y-116738095D01*
X182095238Y-116690476D01*
X182000000Y-116595238D01*
X181952381Y-116452380D01*
X181952381Y-116357142D01*
X182000000Y-116214285D01*
X182047619Y-116166666D01*
X182952381Y-115214285D02*
X182952381Y-115785714D01*
X182952381Y-115500000D02*
X181952381Y-115500000D01*
X182095238Y-115595238D01*
X182190476Y-115690476D01*
X182238095Y-115785714D01*
X154452381Y-116738095D02*
X153452381Y-116738095D01*
X153452381Y-116500000D01*
X153500000Y-116357142D01*
X153595238Y-116261904D01*
X153690476Y-116214285D01*
X153880952Y-116166666D01*
X154023810Y-116166666D01*
X154214286Y-116214285D01*
X154309524Y-116261904D01*
X154404762Y-116357142D01*
X154452381Y-116500000D01*
X154452381Y-116738095D01*
X154452381Y-115214285D02*
X154452381Y-115785714D01*
X154452381Y-115500000D02*
X153452381Y-115500000D01*
X153595238Y-115595238D01*
X153690476Y-115690476D01*
X153738095Y-115785714D01*
X202508572Y-113567143D02*
X203651429Y-113567143D01*
X203080000Y-114138571D02*
X203080000Y-112995714D01*
X161952381Y-116166666D02*
X161952381Y-116642857D01*
X160952381Y-116642857D01*
X161952381Y-115309523D02*
X161952381Y-115880952D01*
X161952381Y-115595238D02*
X160952381Y-115595238D01*
X161095238Y-115690476D01*
X161190476Y-115785714D01*
X161238095Y-115880952D01*
X175166667Y-119904762D02*
X175309524Y-119952381D01*
X175547620Y-119952381D01*
X175642858Y-119904762D01*
X175690477Y-119857143D01*
X175738096Y-119761905D01*
X175738096Y-119666667D01*
X175690477Y-119571429D01*
X175642858Y-119523810D01*
X175547620Y-119476190D01*
X175357143Y-119428571D01*
X175261905Y-119380952D01*
X175214286Y-119333333D01*
X175166667Y-119238095D01*
X175166667Y-119142857D01*
X175214286Y-119047619D01*
X175261905Y-119000000D01*
X175357143Y-118952381D01*
X175595239Y-118952381D01*
X175738096Y-119000000D01*
X176071429Y-118952381D02*
X176309524Y-119952381D01*
X176500001Y-119238095D01*
X176690477Y-119952381D01*
X176928572Y-118952381D01*
X177833334Y-119952381D02*
X177261905Y-119952381D01*
X177547619Y-119952381D02*
X177547619Y-118952381D01*
X177452381Y-119095238D01*
X177357143Y-119190476D01*
X177261905Y-119238095D01*
X156952381Y-111333333D02*
X156952381Y-110714285D01*
X157333333Y-111047619D01*
X157333333Y-110904761D01*
X157380952Y-110809523D01*
X157428571Y-110761904D01*
X157523810Y-110714285D01*
X157761905Y-110714285D01*
X157857143Y-110761904D01*
X157904762Y-110809523D01*
X157952381Y-110904761D01*
X157952381Y-111190476D01*
X157904762Y-111285714D01*
X157857143Y-111333333D01*
X157952381Y-120714285D02*
X157952381Y-121285714D01*
X157952381Y-121000000D02*
X156952381Y-121000000D01*
X157095238Y-121095238D01*
X157190476Y-121190476D01*
X157238095Y-121285714D01*
M02*
