G04 #@! TF.FileFunction,Copper,L1,Top,Signal*
%FSLAX46Y46*%
G04 Gerber Fmt 4.6, Leading zero omitted, Abs format (unit mm)*
G04 Created by KiCad (PCBNEW 4.0.1-stable) date 2017/10/27 20:21:07*
%MOMM*%
G01*
G04 APERTURE LIST*
%ADD10C,0.100000*%
%ADD11R,2.000000X2.000000*%
%ADD12C,2.000000*%
%ADD13C,1.600000*%
%ADD14R,5.000000X3.000000*%
%ADD15C,1.500000*%
%ADD16R,1.600000X1.600000*%
%ADD17C,0.600000*%
%ADD18C,0.250000*%
G04 APERTURE END LIST*
D10*
D11*
X141600000Y-116000000D03*
D12*
X192400000Y-116000000D03*
D13*
X185000000Y-113460000D03*
X185000000Y-118540000D03*
D12*
X151000000Y-121080000D03*
X151000000Y-110920000D03*
D14*
X198000000Y-118540000D03*
X198000000Y-113460000D03*
D13*
X165000000Y-110920000D03*
X165000000Y-121080000D03*
D15*
X174500000Y-116000000D03*
X176500000Y-116000000D03*
X178500000Y-116000000D03*
D16*
X157500000Y-118540000D03*
D13*
X157500000Y-116000000D03*
X157500000Y-113460000D03*
D17*
X192400000Y-118500000D03*
D18*
X141600000Y-116000000D02*
X142000000Y-116000000D01*
X142000000Y-116000000D02*
X149000000Y-123000000D01*
X149000000Y-123000000D02*
X175500000Y-123000000D01*
X175500000Y-123000000D02*
X176500000Y-122000000D01*
X176500000Y-122000000D02*
X176500000Y-116000000D01*
X198000000Y-118540000D02*
X192440000Y-118540000D01*
X192440000Y-118540000D02*
X192400000Y-118500000D01*
X157500000Y-116000000D02*
X156080000Y-116000000D01*
X156080000Y-116000000D02*
X151000000Y-121080000D01*
X185000000Y-113460000D02*
X171540000Y-113460000D01*
X169000000Y-116000000D02*
X157500000Y-116000000D01*
X171540000Y-113460000D02*
X169000000Y-116000000D01*
X185000000Y-113460000D02*
X198000000Y-113460000D01*
X157500000Y-113460000D02*
X157500000Y-110920000D01*
X151000000Y-110920000D02*
X157500000Y-110920000D01*
X157500000Y-110920000D02*
X165000000Y-110920000D01*
X165000000Y-121080000D02*
X169420000Y-121080000D01*
X169420000Y-121080000D02*
X174500000Y-116000000D01*
M02*
