G04 #@! TF.FileFunction,Legend,Bot*
%FSLAX46Y46*%
G04 Gerber Fmt 4.6, Leading zero omitted, Abs format (unit mm)*
G04 Created by KiCad (PCBNEW 4.0.1-stable) date 2017/10/27 20:21:07*
%MOMM*%
G01*
G04 APERTURE LIST*
%ADD10C,0.100000*%
%ADD11C,0.150000*%
G04 APERTURE END LIST*
D10*
D11*
X163190000Y-117270000D02*
X161920000Y-117270000D01*
X161920000Y-117270000D02*
X161920000Y-114730000D01*
X161920000Y-114730000D02*
X163190000Y-114730000D01*
X163190000Y-114730000D02*
X163190000Y-113460000D01*
X163190000Y-113460000D02*
X170810000Y-113460000D01*
X170810000Y-113460000D02*
X170810000Y-118540000D01*
X170810000Y-118540000D02*
X163190000Y-118540000D01*
X163190000Y-118540000D02*
X163190000Y-117270000D01*
X190061553Y-116000000D02*
G75*
G03X190061553Y-116000000I-2061553J0D01*
G01*
X147802776Y-116000000D02*
G75*
G03X147802776Y-116000000I-1802776J0D01*
G01*
X187000000Y-116000000D02*
X189000000Y-116000000D01*
X146000000Y-117000000D02*
X146000000Y-115000000D01*
X145000000Y-116000000D02*
X147000000Y-116000000D01*
X138500000Y-124500000D02*
X138500000Y-107500000D01*
X138500000Y-107500000D02*
X195500000Y-107500000D01*
X195500000Y-107500000D02*
X195500000Y-124500000D01*
X195500000Y-124500000D02*
X138500000Y-124500000D01*
X168861904Y-116283333D02*
X168052381Y-116283333D01*
X169023809Y-116769048D02*
X168457143Y-115069048D01*
X167890476Y-116769048D01*
X167404761Y-116283333D02*
X166595238Y-116283333D01*
X167566666Y-116769048D02*
X167000000Y-115069048D01*
X166433333Y-116769048D01*
X165947618Y-116283333D02*
X165138095Y-116283333D01*
X166109523Y-116769048D02*
X165542857Y-115069048D01*
X164976190Y-116769048D01*
M02*
