<?xml version="1.0" standalone="no"?>
 <!DOCTYPE svg PUBLIC "-//W3C//DTD SVG 1.1//EN" 
 "http://www.w3.org/Graphics/SVG/1.1/DTD/svg11.dtd"> 
<svg xmlns="http://www.w3.org/2000/svg" version="1.1" 
    width="4.26974cm" height="7.76224cm" viewBox="0 0 16810 30560 ">
<title>SVG Picture created as MetalDetector-brd.svg date 2017/05/24 18:48:14 </title>
  <desc>Picture generated by PCBNEW </desc>
<g style="fill:#000000; fill-opacity:1;stroke:#000000; stroke-opacity:1;
stroke-linecap:round; stroke-linejoin:round; "
 transform="translate(0 0) scale(1 1)">
</g>
<g style="fill:#000000; fill-opacity:0.0; 
stroke:#000000; stroke-width:-0.000393701; stroke-opacity:1; 
stroke-linecap:round; stroke-linejoin:round;">
</g>
<g style="fill:#000000; fill-opacity:1.0; 
stroke:#000000; stroke-width:0; stroke-opacity:1; 
stroke-linecap:round; stroke-linejoin:round;">
<circle cx="5224.41" cy="22748.7" r="433.071" /> 
</g>
<g style="fill:#000000; fill-opacity:1.0; 
stroke:#000000; stroke-width:39.3701; stroke-opacity:1; 
stroke-linecap:round; stroke-linejoin:round;">
</g>
<g style="fill:#000000; fill-opacity:1.0; 
stroke:#000000; stroke-width:0; stroke-opacity:1; 
stroke-linecap:round; stroke-linejoin:round;">
<circle cx="13098.4" cy="22748.7" r="433.071" /> 
</g>
<g style="fill:#000000; fill-opacity:1.0; 
stroke:#000000; stroke-width:39.3701; stroke-opacity:1; 
stroke-linecap:round; stroke-linejoin:round;">
</g>
<g style="fill:#000000; fill-opacity:1.0; 
stroke:#000000; stroke-width:0; stroke-opacity:1; 
stroke-linecap:round; stroke-linejoin:round;">
<circle cx="10433.1" cy="4248.69" r="314.961" /> 
</g>
<g style="fill:#000000; fill-opacity:1.0; 
stroke:#000000; stroke-width:39.3701; stroke-opacity:1; 
stroke-linecap:round; stroke-linejoin:round;">
</g>
<g style="fill:#000000; fill-opacity:1.0; 
stroke:#000000; stroke-width:0; stroke-opacity:1; 
stroke-linecap:round; stroke-linejoin:round;">
<circle cx="11417.3" cy="4248.69" r="314.961" /> 
</g>
<g style="fill:#000000; fill-opacity:1.0; 
stroke:#000000; stroke-width:39.3701; stroke-opacity:1; 
stroke-linecap:round; stroke-linejoin:round;">
</g>
<g style="fill:#000000; fill-opacity:1.0; 
stroke:#000000; stroke-width:0; stroke-opacity:1; 
stroke-linecap:round; stroke-linejoin:round;">
<polyline style="fill-rule:evenodd;"
points="8248,5563
7618,5563
7618,4933
8248,4933
8248,5563
" /> 
<circle cx="7933.07" cy="4264.44" r="314.961" /> 
</g>
<g style="fill:#000000; fill-opacity:1.0; 
stroke:#000000; stroke-width:39.3701; stroke-opacity:1; 
stroke-linecap:round; stroke-linejoin:round;">
</g>
<g style="fill:#000000; fill-opacity:1.0; 
stroke:#000000; stroke-width:0; stroke-opacity:1; 
stroke-linecap:round; stroke-linejoin:round;">
<polyline style="fill-rule:evenodd;"
points="14748,12063
14118,12063
14118,11433
14748,11433
14748,12063
" /> 
<circle cx="14433.1" cy="10764.4" r="314.961" /> 
</g>
<g style="fill:#000000; fill-opacity:1.0; 
stroke:#000000; stroke-width:39.3701; stroke-opacity:1; 
stroke-linecap:round; stroke-linejoin:round;">
</g>
<g style="fill:#000000; fill-opacity:1.0; 
stroke:#000000; stroke-width:0; stroke-opacity:1; 
stroke-linecap:round; stroke-linejoin:round;">
<polyline style="fill-rule:evenodd;"
points="10523,2732
9342,2732
9342,764
10523,764
10523,2732
" /> 
<polyline style="fill-rule:evenodd;"
points="12523,2732
11342,2732
11342,764
12523,764
12523,2732
" /> 
<circle cx="6433.07" cy="7248.69" r="354.331" /> 
</g>
<g style="fill:#000000; fill-opacity:1.0; 
stroke:#000000; stroke-width:39.3701; stroke-opacity:1; 
stroke-linecap:round; stroke-linejoin:round;">
</g>
<g style="fill:#000000; fill-opacity:1.0; 
stroke:#000000; stroke-width:0; stroke-opacity:1; 
stroke-linecap:round; stroke-linejoin:round;">
<polyline style="fill-rule:evenodd;"
points="6078,10894
6787,10894
6787,11603
6078,11603
6078,10894
" /> 
<circle cx="7933.07" cy="7248.69" r="354.331" /> 
</g>
<g style="fill:#000000; fill-opacity:1.0; 
stroke:#000000; stroke-width:39.3701; stroke-opacity:1; 
stroke-linecap:round; stroke-linejoin:round;">
</g>
<g style="fill:#000000; fill-opacity:1.0; 
stroke:#000000; stroke-width:0; stroke-opacity:1; 
stroke-linecap:round; stroke-linejoin:round;">
<polyline style="fill-rule:evenodd;"
points="7578,10894
8287,10894
8287,11603
7578,11603
7578,10894
" /> 
<circle cx="9433.07" cy="7248.69" r="354.331" /> 
</g>
<g style="fill:#000000; fill-opacity:1.0; 
stroke:#000000; stroke-width:39.3701; stroke-opacity:1; 
stroke-linecap:round; stroke-linejoin:round;">
</g>
<g style="fill:#000000; fill-opacity:1.0; 
stroke:#000000; stroke-width:0; stroke-opacity:1; 
stroke-linecap:round; stroke-linejoin:round;">
<polyline style="fill-rule:evenodd;"
points="9078,10894
9787,10894
9787,11603
9078,11603
9078,10894
" /> 
<circle cx="12433.1" cy="7248.69" r="354.331" /> 
</g>
<g style="fill:#000000; fill-opacity:1.0; 
stroke:#000000; stroke-width:39.3701; stroke-opacity:1; 
stroke-linecap:round; stroke-linejoin:round;">
</g>
<g style="fill:#000000; fill-opacity:1.0; 
stroke:#000000; stroke-width:0; stroke-opacity:1; 
stroke-linecap:round; stroke-linejoin:round;">
<polyline style="fill-rule:evenodd;"
points="12078,10894
12787,10894
12787,11603
12078,11603
12078,10894
" /> 
<circle cx="10933.1" cy="7248.69" r="354.331" /> 
</g>
<g style="fill:#000000; fill-opacity:1.0; 
stroke:#000000; stroke-width:39.3701; stroke-opacity:1; 
stroke-linecap:round; stroke-linejoin:round;">
</g>
<g style="fill:#000000; fill-opacity:1.0; 
stroke:#000000; stroke-width:0; stroke-opacity:1; 
stroke-linecap:round; stroke-linejoin:round;">
<polyline style="fill-rule:evenodd;"
points="10578,10894
11287,10894
11287,11603
10578,11603
10578,10894
" /> 
<circle cx="14933.1" cy="19748.7" r="393.701" /> 
</g>
<g style="fill:#000000; fill-opacity:1.0; 
stroke:#000000; stroke-width:39.3701; stroke-opacity:1; 
stroke-linecap:round; stroke-linejoin:round;">
</g>
<g style="fill:#000000; fill-opacity:1.0; 
stroke:#000000; stroke-width:0; stroke-opacity:1; 
stroke-linecap:round; stroke-linejoin:round;">
<circle cx="12933.1" cy="19748.7" r="393.701" /> 
</g>
<g style="fill:#000000; fill-opacity:1.0; 
stroke:#000000; stroke-width:39.3701; stroke-opacity:1; 
stroke-linecap:round; stroke-linejoin:round;">
</g>
<g style="fill:#000000; fill-opacity:1.0; 
stroke:#000000; stroke-width:0; stroke-opacity:1; 
stroke-linecap:round; stroke-linejoin:round;">
<circle cx="7204.72" cy="15748.7" r="393.701" /> 
</g>
<g style="fill:#000000; fill-opacity:1.0; 
stroke:#000000; stroke-width:39.3701; stroke-opacity:1; 
stroke-linecap:round; stroke-linejoin:round;">
</g>
<g style="fill:#000000; fill-opacity:1.0; 
stroke:#000000; stroke-width:0; stroke-opacity:1; 
stroke-linecap:round; stroke-linejoin:round;">
<circle cx="5433.07" cy="15748.7" r="393.701" /> 
</g>
<g style="fill:#000000; fill-opacity:1.0; 
stroke:#000000; stroke-width:39.3701; stroke-opacity:1; 
stroke-linecap:round; stroke-linejoin:round;">
</g>
<g style="fill:#000000; fill-opacity:1.0; 
stroke:#000000; stroke-width:0; stroke-opacity:1; 
stroke-linecap:round; stroke-linejoin:round;">
<circle cx="7204.72" cy="13189.6" r="393.701" /> 
</g>
<g style="fill:#000000; fill-opacity:1.0; 
stroke:#000000; stroke-width:39.3701; stroke-opacity:1; 
stroke-linecap:round; stroke-linejoin:round;">
</g>
<g style="fill:#000000; fill-opacity:1.0; 
stroke:#000000; stroke-width:0; stroke-opacity:1; 
stroke-linecap:round; stroke-linejoin:round;">
<circle cx="5433.07" cy="13189.6" r="393.701" /> 
</g>
<g style="fill:#000000; fill-opacity:1.0; 
stroke:#000000; stroke-width:39.3701; stroke-opacity:1; 
stroke-linecap:round; stroke-linejoin:round;">
</g>
<g style="fill:#000000; fill-opacity:1.0; 
stroke:#000000; stroke-width:0; stroke-opacity:1; 
stroke-linecap:round; stroke-linejoin:round;">
<polyline style="fill-rule:evenodd;"
points="12618,13276
13248,13276
13248,14221
12618,14221
12618,13276
" /> 
</g>
<g style="fill:#000000; fill-opacity:1.0; 
stroke:#000000; stroke-width:629.921; stroke-opacity:1; 
stroke-linecap:round; stroke-linejoin:round;">
</g>
<g style="fill:#000000; fill-opacity:0.0; 
stroke:#000000; stroke-width:629.921; stroke-opacity:1; 
stroke-linecap:round; stroke-linejoin:round;">
<path d="M9933 16591
L9933 16906
" />
<path d="M11933 13591
L11933 13906
" />
<path d="M10933 16591
L10933 16906
" />
<path d="M10933 13591
L10933 13906
" />
<path d="M11933 16591
L11933 16906
" />
<path d="M9933 13591
L9933 13906
" />
<path d="M12933 16591
L12933 16906
" />
</g>
<g style="fill:#000000; fill-opacity:1.0; 
stroke:#000000; stroke-width:3.93701; stroke-opacity:1; 
stroke-linecap:round; stroke-linejoin:round;">
<polyline style="fill-rule:evenodd;"
points="5555,26189
6155,26789
5729,27216
5474,27214
5385,27213
5314,27211
5266,27208
5246,27206
5248,27204
5272,27188
5313,27151
5364,27099
5391,27069
5506,26940
5336,26769
5271,26706
5216,26653
5175,26616
5153,26599
5151,26598
5147,26615
5143,26663
5140,26735
5138,26826
5137,26907
5137,27216
4955,27216
4955,25589
5555,26189
" /> 
<polyline style="fill-rule:evenodd;"
points="7502,25580
7655,25581
7792,25583
7910,25585
8005,25587
8074,25590
8112,25593
8119,25594
8111,25615
8090,25662
8057,25731
8015,25817
7967,25914
7966,25917
7813,26225
7811,26030
7810,25835
6954,25835
6959,26048
6964,26262
7296,26267
7402,26269
7493,26271
7565,26274
7612,26277
7628,26280
7621,26299
7601,26342
7573,26400
7570,26407
7511,26525
6955,26525
6955,26962
7292,26962
7398,26962
7490,26964
7563,26965
7611,26968
7628,26971
7621,26990
7601,27033
7573,27091
7570,27098
7511,27216
6555,27216
6555,25580
7337,25580
7502,25580
" /> 
<polyline style="fill-rule:evenodd;"
points="8916,25642
8925,25675
8941,25738
8963,25827
8990,25937
9021,26062
9054,26198
9067,26251
9100,26386
9131,26509
9158,26616
9181,26701
9198,26762
9208,26794
9210,26798
9217,26782
9230,26736
9248,26669
9268,26587
9291,26497
9313,26405
9333,26319
9349,26246
9360,26191
9364,26162
9364,26162
9370,26132
9374,26125
9383,26103
9397,26054
9415,25986
9434,25906
9454,25823
9471,25744
9484,25678
9491,25632
9491,25616
9497,25599
9538,25588
9615,25583
9728,25584
9731,25584
9897,25589
9835,25840
9813,25930
9795,26008
9783,26067
9777,26099
9777,26103
9772,26130
9767,26144
9760,26168
9746,26223
9725,26303
9700,26405
9670,26524
9639,26655
9630,26689
9505,27207
8928,27207
8912,27130
8899,27083
8884,27056
8879,27053
8869,27042
8871,27038
8870,27018
8860,26969
8846,26899
8827,26815
8806,26724
8784,26633
8763,26548
8744,26478
8730,26429
8726,26416
8718,26424
8704,26461
8685,26523
8663,26606
8646,26671
8623,26767
8604,26851
8591,26915
8584,26955
8584,26964
8579,26982
8576,26983
8564,27003
8548,27047
8535,27098
8508,27207
8323,27212
8246,27214
8184,27213
8146,27210
8137,27207
8141,27186
8153,27137
8170,27067
8191,26984
8192,26979
8213,26895
8229,26824
8240,26773
8244,26749
8243,26749
8247,26721
8252,26707
8261,26678
8276,26623
8295,26550
8316,26466
8338,26378
8358,26296
8374,26225
8385,26174
8389,26149
8389,26149
8392,26121
8397,26107
8406,26080
8421,26025
8440,25950
8463,25861
8469,25835
8530,25589
8714,25584
8899,25579
8916,25642
" /> 
<polyline style="fill-rule:evenodd;"
points="10683,27216
10301,27216
10301,25580
10683,25580
10683,27216
" /> 
<polyline style="fill-rule:evenodd;"
points="11483,25989
11074,26398
11892,27218
11689,27215
11486,27212
11091,26803
10696,26394
11510,25580
11891,25580
11483,25989
" /> 
<polyline style="fill-rule:evenodd;"
points="13668,25909
13510,26239
13500,25835
12646,25835
12646,26271
13338,26271
13273,26398
13209,26525
12646,26525
12646,26744
12647,26828
12650,26896
12654,26943
12660,26960
12660,26960
12692,26958
12750,26957
12826,26957
12915,26958
13011,26960
13105,26962
13192,26965
13265,26968
13317,26971
13343,26974
13344,26976
13326,26998
13298,27043
13267,27102
13266,27103
13209,27216
12264,27216
12264,25580
13825,25580
13668,25909
" /> 
<polyline style="fill-rule:evenodd;"
points="14506,25580
14563,25583
14597,25593
14616,25615
14628,25653
14638,25711
14638,25712
14649,25756
14662,25779
14665,25780
14672,25795
14670,25816
14670,25846
14682,25853
14695,25863
14692,25870
14694,25890
14703,25940
14719,26013
14739,26104
14762,26206
14788,26313
14813,26419
14838,26518
14860,26605
14879,26674
14892,26717
14895,26725
14903,26767
14902,26780
14905,26796
14915,26789
14930,26760
14946,26712
14959,26657
14966,26609
14965,26581
14965,26581
14966,26561
14969,26559
14977,26540
14992,26491
15013,26415
15038,26318
15067,26204
15098,26077
15100,26066
15217,25580
15605,25580
15506,25985
15478,26103
15452,26212
15431,26306
15415,26378
15406,26424
15404,26435
15398,26473
15391,26489
15384,26509
15370,26558
15351,26631
15329,26720
15313,26789
15288,26893
15265,26989
15245,27070
15231,27128
15226,27148
15208,27216
14635,27216
14592,27035
14573,26959
14556,26899
14543,26861
14538,26853
14528,26838
14526,26821
14522,26787
14510,26730
14494,26660
14476,26586
14457,26517
14441,26462
14430,26432
14428,26429
14420,26441
14405,26484
14384,26553
14359,26643
14331,26750
14316,26811
14217,27207
14032,27212
13950,27213
13889,27211
13853,27205
13846,27201
13850,27180
13862,27127
13881,27048
13905,26947
13934,26827
13966,26692
13992,26589
14026,26447
14057,26317
14083,26202
14104,26106
14119,26034
14126,25990
14127,25978
14127,25963
14131,25962
14141,25945
14156,25900
14175,25834
14190,25771
14234,25580
14421,25580
14506,25580
" /> 
<polyline style="fill-rule:evenodd;"
points="13501,26262
13492,26271
13483,26262
13492,26253
13501,26262
" /> 
</g>
<g style="fill:#000000; fill-opacity:1.0; 
stroke:#000000; stroke-width:47.2441; stroke-opacity:1; 
stroke-linecap:round; stroke-linejoin:round;">
</g>
<g style="fill:#000000; fill-opacity:0.0; 
stroke:#000000; stroke-width:47.2441; stroke-opacity:1; 
stroke-linecap:round; stroke-linejoin:round;">
<path d="M9917 3732
L11933 3732
" />
<path d="M9917 4764
L11933 4764
" />
<path d="M9917 3732
L9917 4764
" />
<path d="M11933 3732
L11933 4764
" />
<path d="M7546.69 3812.91 A1019.69 1019.69 0.0 0 0 7547.24 5700.43 " />
<path d="M8318.9 5700.43 A1019.69 1019.69 0.0 0 0 8319.45 3812.91 " />
<path d="M8319.45 3812.91 A1019.69 1019.69 0.0 0 0 7547.24 3812.69 " />
<path d="M7933 6114
L7933 5642
" />
<path d="M7677 5878
L8188 5878
" />
<path d="M14046.7 10312.9 A1019.69 1019.69 0.0 0 0 14047.2 12200.4 " />
<path d="M14818.9 12200.4 A1019.69 1019.69 0.0 0 0 14819.4 10312.9 " />
<path d="M14819.4 10312.9 A1019.69 1019.69 0.0 0 0 14047.2 10312.7 " />
<path d="M14433 12614
L14433 12142
" />
<path d="M14177 12378
L14688 12378
" />
</g>
<g style="fill:#000000; fill-opacity:0.0; 
stroke:#000000; stroke-width:59.0551; stroke-opacity:1; 
stroke-linecap:round; stroke-linejoin:round;">
<path d="M6433 10429
L6433 10626
" />
<path d="M6433 8067
L6433 7870
" />
<path d="M6039 10429
L6039 8067
" />
<path d="M6039 8067
L6826 8067
" />
<path d="M6826 10429
L6039 10429
" />
<path d="M6826 8067
L6826 10429
" />
<path d="M7933 10429
L7933 10626
" />
<path d="M7933 8067
L7933 7870
" />
<path d="M7539 10429
L7539 8067
" />
<path d="M7539 8067
L8326 8067
" />
<path d="M8326 10429
L7539 10429
" />
<path d="M8326 8067
L8326 10429
" />
<path d="M9433 10429
L9433 10626
" />
<path d="M9433 8067
L9433 7870
" />
<path d="M9039 10429
L9039 8067
" />
<path d="M9039 8067
L9826 8067
" />
<path d="M9826 10429
L9039 10429
" />
<path d="M9826 8067
L9826 10429
" />
<path d="M12433 10429
L12433 10626
" />
<path d="M12433 8067
L12433 7870
" />
<path d="M12039 10429
L12039 8067
" />
<path d="M12039 8067
L12826 8067
" />
<path d="M12826 10429
L12039 10429
" />
<path d="M12826 8067
L12826 10429
" />
<path d="M10933 10429
L10933 10626
" />
<path d="M10933 8067
L10933 7870
" />
<path d="M10539 10429
L10539 8067
" />
<path d="M10539 8067
L11326 8067
" />
<path d="M11326 10429
L10539 10429
" />
<path d="M11326 8067
L11326 10429
" />
<circle cx="13933.1" cy="19748.7" r="2121.32" /> 
</g>
<g style="fill:#000000; fill-opacity:0.0; 
stroke:#000000; stroke-width:47.2441; stroke-opacity:1; 
stroke-linecap:round; stroke-linejoin:round;">
<path d="M7598 15354
L7598 13583
" />
<path d="M6023 15847
L6614 15847
" />
<path d="M5039 13583
L5039 15354
" />
<path d="M6614 13091
L6023 13091
" />
<path d="M13480 14854
L13480 14315
" />
<path d="M13480 14315
L9385 14315
" />
<path d="M9385 14315
L9385 16181
" />
<path d="M9385 16181
L13480 16181
" />
<path d="M13480 16181
L13480 15642
" />
<path d="M13480.3 14855 A393.701 393.701 0.0 0 0 13480.3 15642.4 " />
</g>
<g style="fill:#000000; fill-opacity:0.0; 
stroke:#000000; stroke-width:59.0551; stroke-opacity:1; 
stroke-linecap:round; stroke-linejoin:round;">
<path d="M10859 3479
L10840 3498
L10784 3517
L10747 3517
L10690 3498
L10653 3461
L10634 3423
L10615 3348
L10615 3292
L10634 3217
L10653 3179
L10690 3142
L10747 3123
L10784 3123
L10840 3142
L10859 3161
" />
<path d="M11234 3517
L11009 3517
" />
<path d="M11122 3517
L11122 3123
L11084 3179
L11047 3217
L11009 3236
" />
<path d="M6672 5019
L6690 5037
L6709 5094
L6709 5131
L6690 5187
L6653 5225
L6615 5244
L6540 5262
L6484 5262
L6409 5244
L6372 5225
L6334 5187
L6315 5131
L6315 5094
L6334 5037
L6353 5019
" />
<path d="M6709 4850
L6315 4850
L6315 4700
L6334 4662
L6353 4644
L6390 4625
L6447 4625
L6484 4644
L6503 4662
L6522 4700
L6522 4850
" />
<path d="M6709 4250
L6709 4475
" />
<path d="M6709 4362
L6315 4362
L6372 4400
L6409 4437
L6428 4475
" />
<path d="M13172 11519
L13190 11537
L13209 11594
L13209 11631
L13190 11687
L13153 11725
L13115 11744
L13040 11762
L12984 11762
L12909 11744
L12872 11725
L12834 11687
L12815 11631
L12815 11594
L12834 11537
L12853 11519
" />
<path d="M13209 11350
L12815 11350
L12815 11200
L12834 11162
L12853 11144
L12890 11125
L12947 11125
L12984 11144
L13003 11162
L13022 11200
L13022 11350
" />
<path d="M12853 10975
L12834 10956
L12815 10919
L12815 10825
L12834 10787
L12853 10769
L12890 10750
L12928 10750
L12984 10769
L13209 10994
L13209 10750
" />
<path d="M11975 3973
L11975 3523
" />
<path d="M12200 3748
L11750 3748
" />
<path d="M5823 9314
L5636 9445
" />
<path d="M5823 9539
L5430 9539
L5430 9389
L5448 9351
L5467 9333
L5505 9314
L5561 9314
L5598 9333
L5617 9351
L5636 9389
L5636 9539
" />
<path d="M5823 8939
L5823 9164
" />
<path d="M5823 9051
L5430 9051
L5486 9089
L5523 9126
L5542 9164
" />
<path d="M6661 9670
L6661 9895
" />
<path d="M6661 9782
L6267 9782
L6323 9820
L6361 9857
L6379 9895
" />
<path d="M6267 9426
L6267 9389
L6286 9351
L6304 9333
L6342 9314
L6417 9295
L6511 9295
L6586 9314
L6623 9333
L6642 9351
L6661 9389
L6661 9426
L6642 9464
L6623 9483
L6586 9501
L6511 9520
L6417 9520
L6342 9501
L6304 9483
L6286 9464
L6267 9426
" />
<path d="M6267 9051
L6267 9014
L6286 8976
L6304 8958
L6342 8939
L6417 8920
L6511 8920
L6586 8939
L6623 8958
L6642 8976
L6661 9014
L6661 9051
L6642 9089
L6623 9108
L6586 9126
L6511 9145
L6417 9145
L6342 9126
L6304 9108
L6286 9089
L6267 9051
" />
<path d="M6661 8751
L6267 8751
" />
<path d="M6511 8714
L6661 8601
" />
<path d="M6398 8601
L6548 8751
" />
<path d="M7323 9314
L7136 9445
" />
<path d="M7323 9539
L6930 9539
L6930 9389
L6948 9351
L6967 9333
L7005 9314
L7061 9314
L7098 9333
L7117 9351
L7136 9389
L7136 9539
" />
<path d="M6967 9164
L6948 9145
L6930 9108
L6930 9014
L6948 8976
L6967 8958
L7005 8939
L7042 8939
L7098 8958
L7323 9183
L7323 8939
" />
<path d="M8111 9670
L8111 9895
" />
<path d="M8111 9782
L7717 9782
L7773 9820
L7811 9857
L7829 9895
" />
<path d="M7717 9426
L7717 9389
L7736 9351
L7754 9333
L7792 9314
L7867 9295
L7961 9295
L8036 9314
L8073 9333
L8092 9351
L8111 9389
L8111 9426
L8092 9464
L8073 9483
L8036 9501
L7961 9520
L7867 9520
L7792 9501
L7754 9483
L7736 9464
L7717 9426
" />
<path d="M7717 9051
L7717 9014
L7736 8976
L7754 8958
L7792 8939
L7867 8920
L7961 8920
L8036 8939
L8073 8958
L8092 8976
L8111 9014
L8111 9051
L8092 9089
L8073 9108
L8036 9126
L7961 9145
L7867 9145
L7792 9126
L7754 9108
L7736 9089
L7717 9051
" />
<path d="M8111 8751
L7717 8751
" />
<path d="M7961 8714
L8111 8601
" />
<path d="M7848 8601
L7998 8751
" />
<path d="M8823 9314
L8636 9445
" />
<path d="M8823 9539
L8430 9539
L8430 9389
L8448 9351
L8467 9333
L8505 9314
L8561 9314
L8598 9333
L8617 9351
L8636 9389
L8636 9539
" />
<path d="M8430 9183
L8430 8939
L8580 9070
L8580 9014
L8598 8976
L8617 8958
L8655 8939
L8748 8939
L8786 8958
L8805 8976
L8823 9014
L8823 9126
L8805 9164
L8786 9183
" />
<path d="M9611 9670
L9611 9895
" />
<path d="M9611 9782
L9217 9782
L9273 9820
L9311 9857
L9329 9895
" />
<path d="M9217 9426
L9217 9389
L9236 9351
L9254 9333
L9292 9314
L9367 9295
L9461 9295
L9536 9314
L9573 9333
L9592 9351
L9611 9389
L9611 9426
L9592 9464
L9573 9483
L9536 9501
L9461 9520
L9367 9520
L9292 9501
L9254 9483
L9236 9464
L9217 9426
" />
<path d="M9217 9051
L9217 9014
L9236 8976
L9254 8958
L9292 8939
L9367 8920
L9461 8920
L9536 8939
L9573 8958
L9592 8976
L9611 9014
L9611 9051
L9592 9089
L9573 9108
L9536 9126
L9461 9145
L9367 9145
L9292 9126
L9254 9108
L9236 9089
L9217 9051
" />
<path d="M9611 8751
L9217 8751
" />
<path d="M9461 8714
L9611 8601
" />
<path d="M9348 8601
L9498 8751
" />
<path d="M11823 9314
L11636 9445
" />
<path d="M11823 9539
L11430 9539
L11430 9389
L11448 9351
L11467 9333
L11505 9314
L11561 9314
L11598 9333
L11617 9351
L11636 9389
L11636 9539
" />
<path d="M11561 8976
L11823 8976
" />
<path d="M11411 9070
L11692 9164
L11692 8920
" />
<path d="M12611 9483
L12611 9708
" />
<path d="M12611 9595
L12217 9595
L12273 9633
L12311 9670
L12329 9708
" />
<path d="M12217 9239
L12217 9201
L12236 9164
L12254 9145
L12292 9126
L12367 9108
L12461 9108
L12536 9126
L12573 9145
L12592 9164
L12611 9201
L12611 9239
L12592 9276
L12573 9295
L12536 9314
L12461 9333
L12367 9333
L12292 9314
L12254 9295
L12236 9276
L12217 9239
" />
<path d="M12611 8939
L12217 8939
" />
<path d="M12461 8901
L12611 8789
" />
<path d="M12348 8789
L12498 8939
" />
<path d="M10323 9314
L10136 9445
" />
<path d="M10323 9539
L9930 9539
L9930 9389
L9948 9351
L9967 9333
L10005 9314
L10061 9314
L10098 9333
L10117 9351
L10136 9389
L10136 9539
" />
<path d="M9930 8958
L9930 9145
L10117 9164
L10098 9145
L10080 9108
L10080 9014
L10098 8976
L10117 8958
L10155 8939
L10248 8939
L10286 8958
L10305 8976
L10323 9014
L10323 9108
L10305 9145
L10286 9164
" />
<path d="M11111 9670
L11111 9895
" />
<path d="M11111 9782
L10717 9782
L10773 9820
L10811 9857
L10829 9895
" />
<path d="M10717 9426
L10717 9389
L10736 9351
L10754 9333
L10792 9314
L10867 9295
L10961 9295
L11036 9314
L11073 9333
L11092 9351
L11111 9389
L11111 9426
L11092 9464
L11073 9483
L11036 9501
L10961 9520
L10867 9520
L10792 9501
L10754 9483
L10736 9464
L10717 9426
" />
<path d="M10717 9051
L10717 9014
L10736 8976
L10754 8958
L10792 8939
L10867 8920
L10961 8920
L11036 8939
L11073 8958
L11092 8976
L11111 9014
L11111 9051
L11092 9089
L11073 9108
L11036 9126
L10961 9145
L10867 9145
L10792 9126
L10754 9108
L10736 9089
L10717 9051
" />
<path d="M11111 8751
L10717 8751
" />
<path d="M10961 8714
L11111 8601
" />
<path d="M10848 8601
L10998 8751
" />
<path d="M13436 17408
L13492 17426
L13586 17426
L13623 17408
L13642 17389
L13661 17351
L13661 17314
L13642 17276
L13623 17258
L13586 17239
L13511 17220
L13473 17201
L13455 17183
L13436 17145
L13436 17108
L13455 17070
L13473 17051
L13511 17033
L13604 17033
L13661 17051
" />
<path d="M13829 17426
L13829 17033
L13979 17033
L14017 17051
L14036 17070
L14054 17108
L14054 17164
L14036 17201
L14017 17220
L13979 17239
L13829 17239
" />
<path d="M14429 17426
L14204 17426
" />
<path d="M14317 17426
L14317 17033
L14279 17089
L14242 17126
L14204 17145
" />
<path d="M4805 14994
L4823 14937
L4823 14844
L4805 14806
L4786 14787
L4748 14769
L4711 14769
L4673 14787
L4655 14806
L4636 14844
L4617 14919
L4598 14956
L4580 14975
L4542 14994
L4505 14994
L4467 14975
L4448 14956
L4430 14919
L4430 14825
L4448 14769
" />
<path d="M4430 14637
L4823 14544
L4542 14469
L4823 14394
L4430 14300
" />
<path d="M4823 13944
L4823 14169
" />
<path d="M4823 14056
L4430 14056
L4486 14094
L4523 14131
L4542 14169
" />
<path d="M13658 15548
L13977 15548
L14014 15529
L14033 15511
L14052 15473
L14052 15398
L14033 15361
L14014 15342
L13977 15323
L13658 15323
" />
<path d="M14052 14929
L14052 15154
" />
<path d="M14052 15042
L13658 15042
L13714 15079
L13752 15117
L13770 15154
" />
</g>
<g style="fill:#000000; fill-opacity:0.0; 
stroke:#000000; stroke-width:39.3701; stroke-opacity:1; 
stroke-linecap:round; stroke-linejoin:round;">
<path d="M16141 370
L4330 370
" />
<path d="M16141 27929
L16141 370
" />
<path d="M4330 27929
L16141 27929
" />
<path d="M4330 27536
L4330 27929
" />
<path d="M4330 370
L4330 27536
" />
</g> 
</svg>
