M48
;DRILL file {KiCad 4.0.1-stable} date 2017/05/09 19:12:44
;FORMAT={-:-/ absolute / metric / decimal}
FMAT,2
METRIC,TZ
T1C0.800
T2C1.000
T3C1.100
%
G90
G05
M71
T1
X106.Y-121.
X110.Y-80.92
X110.Y-91.08
X119.Y-80.92
X119.Y-91.08
X128.Y-80.92
X128.Y-91.08
X137.Y-80.92
X137.Y-91.08
X146.Y-80.92
X146.Y-91.08
X155.Y-80.92
X155.Y-91.08
X164.Y-80.92
X164.Y-91.08
X173.Y-80.92
X173.Y-91.08
X180.92Y-102.
X180.92Y-112.
X183.Y-69.46
X183.Y-74.54
X184.Y-80.92
X184.Y-91.08
X184.92Y-107.
X187.38Y-69.38
X187.38Y-71.92
X187.38Y-74.46
X187.38Y-77.
X191.08Y-102.
X191.08Y-112.
X195.Y-69.38
X195.Y-71.92
X195.Y-74.46
X195.Y-77.
X195.Y-82.46
X195.Y-87.54
X195.08Y-107.
X196.Y-121.
X200.Y-69.
X200.Y-72.46
X200.Y-77.54
X200.Y-121.
T2
X194.46Y-96.
X199.54Y-93.46
X199.54Y-98.54
T3
X178.Y-76.5
X178.Y-89.5
T0
M30
