G04 #@! TF.FileFunction,Legend,Bot*
%FSLAX46Y46*%
G04 Gerber Fmt 4.6, Leading zero omitted, Abs format (unit mm)*
G04 Created by KiCad (PCBNEW 4.0.1-stable) date 2017/05/09 19:12:36*
%MOMM*%
G01*
G04 APERTURE LIST*
%ADD10C,0.100000*%
%ADD11C,0.150000*%
%ADD12C,3.000000*%
%ADD13R,3.000000X3.000000*%
%ADD14C,1.600000*%
%ADD15R,2.200000X2.200000*%
%ADD16C,2.500000*%
%ADD17C,2.000000*%
%ADD18R,2.400000X1.600000*%
%ADD19O,2.400000X1.600000*%
G04 APERTURE END LIST*
D10*
X181000000Y-83000000D02*
X181000000Y-99000000D01*
X181000000Y-99000000D02*
X126000000Y-99000000D01*
X126000000Y-99000000D02*
X123000000Y-99000000D01*
X123000000Y-99000000D02*
X123000000Y-67000000D01*
X123000000Y-67000000D02*
X181000000Y-67000000D01*
X181000000Y-67000000D02*
X181000000Y-83000000D01*
X153600000Y-83000000D02*
G75*
G03X153600000Y-83000000I-1600000J0D01*
G01*
D11*
X152785714Y-80228571D02*
X152642857Y-80276190D01*
X152595238Y-80323810D01*
X152547619Y-80419048D01*
X152547619Y-80561905D01*
X152595238Y-80657143D01*
X152642857Y-80704762D01*
X152738095Y-80752381D01*
X153119048Y-80752381D01*
X153119048Y-79752381D01*
X152785714Y-79752381D01*
X152690476Y-79800000D01*
X152642857Y-79847619D01*
X152595238Y-79942857D01*
X152595238Y-80038095D01*
X152642857Y-80133333D01*
X152690476Y-80180952D01*
X152785714Y-80228571D01*
X153119048Y-80228571D01*
X152261905Y-79752381D02*
X151690476Y-79752381D01*
X151976191Y-80752381D02*
X151976191Y-79752381D01*
X150833333Y-80752381D02*
X151404762Y-80752381D01*
X151119048Y-80752381D02*
X151119048Y-79752381D01*
X151214286Y-79895238D01*
X151309524Y-79990476D01*
X151404762Y-80038095D01*
%LPC*%
D12*
X178000000Y-76500000D03*
D13*
X178000000Y-89500000D03*
D14*
X183000000Y-74540000D03*
X183000000Y-69460000D03*
X200000000Y-72460000D03*
X200000000Y-77540000D03*
D15*
X200000000Y-69000000D03*
X196000000Y-121000000D03*
X106000000Y-121000000D03*
D16*
X180920000Y-112000000D03*
X191080000Y-112000000D03*
X184920000Y-107000000D03*
X195080000Y-107000000D03*
X180920000Y-102000000D03*
X191080000Y-102000000D03*
X194460000Y-96000000D03*
X199540000Y-93460000D03*
X199540000Y-98540000D03*
D17*
X195000000Y-82460000D03*
X195000000Y-87540000D03*
D18*
X195000000Y-77000000D03*
D19*
X187380000Y-69380000D03*
X195000000Y-74460000D03*
X187380000Y-71920000D03*
X195000000Y-71920000D03*
X187380000Y-74460000D03*
X195000000Y-69380000D03*
X187380000Y-77000000D03*
D16*
X173000000Y-91080000D03*
X173000000Y-80920000D03*
X184000000Y-80920000D03*
X184000000Y-91080000D03*
X164000000Y-80920000D03*
X164000000Y-91080000D03*
X155000000Y-80920000D03*
X155000000Y-91080000D03*
X146000000Y-80920000D03*
X146000000Y-91080000D03*
X137000000Y-80920000D03*
X137000000Y-91080000D03*
X128000000Y-80920000D03*
X128000000Y-91080000D03*
X119000000Y-80920000D03*
X119000000Y-91080000D03*
X110000000Y-80920000D03*
X110000000Y-91080000D03*
D15*
X200000000Y-121000000D03*
M02*
