G04 #@! TF.FileFunction,Copper,L2,Bot,Signal*
%FSLAX46Y46*%
G04 Gerber Fmt 4.6, Leading zero omitted, Abs format (unit mm)*
G04 Created by KiCad (PCBNEW 4.0.2-stable) date 2017/04/14 20:47:14*
%MOMM*%
G01*
G04 APERTURE LIST*
%ADD10C,0.100000*%
%ADD11C,2.500000*%
%ADD12C,1.600000*%
%ADD13C,1.800000*%
%ADD14R,1.800000X1.800000*%
%ADD15C,2.000000*%
%ADD16R,2.200000X2.200000*%
%ADD17R,2.400000X1.600000*%
%ADD18O,2.400000X1.600000*%
%ADD19C,0.500000*%
%ADD20C,0.254000*%
G04 APERTURE END LIST*
D10*
D11*
X121701000Y-92052000D03*
X121701000Y-105052000D03*
D12*
X202057000Y-92456000D03*
X202057000Y-97536000D03*
X200533000Y-84455000D03*
X205613000Y-84455000D03*
D13*
X188468000Y-110490000D03*
D14*
X198628000Y-110490000D03*
D13*
X198628000Y-106553000D03*
D14*
X188468000Y-106553000D03*
D13*
X188468000Y-102616000D03*
D14*
X198628000Y-102616000D03*
D11*
X207264000Y-109728000D03*
X204724000Y-104648000D03*
X209804000Y-104648000D03*
D15*
X210947000Y-91821000D03*
X210947000Y-96901000D03*
D16*
X210820000Y-84455000D03*
D17*
X197612000Y-97409000D03*
D18*
X189992000Y-89789000D03*
X197612000Y-94869000D03*
X189992000Y-92329000D03*
X197612000Y-92329000D03*
X189992000Y-94869000D03*
X197612000Y-89789000D03*
X189992000Y-97409000D03*
D16*
X208750000Y-120750000D03*
X119250000Y-120750000D03*
X212250000Y-120750000D03*
X127250000Y-118250000D03*
X127250000Y-123250000D03*
X135250000Y-118250000D03*
X135250000Y-123250000D03*
D19*
X188468000Y-106553000D02*
X136202000Y-106553000D01*
X136202000Y-106553000D02*
X121701000Y-92052000D01*
X188468000Y-110490000D02*
X127139000Y-110490000D01*
X127139000Y-110490000D02*
X121701000Y-105052000D01*
X188468000Y-110490000D02*
X189992000Y-108966000D01*
X189992000Y-108966000D02*
X189992000Y-97409000D01*
X189992000Y-97409000D02*
X190392000Y-97409000D01*
X191692000Y-96109000D02*
X191692000Y-95309000D01*
X190392000Y-97409000D02*
X191692000Y-96109000D01*
X191692000Y-95309000D02*
X197212000Y-89789000D01*
X197212000Y-89789000D02*
X197612000Y-89789000D01*
X198628000Y-110490000D02*
X201760000Y-110490000D01*
X207202000Y-107250000D02*
X209804000Y-104648000D01*
X205000000Y-107250000D02*
X207202000Y-107250000D01*
X201760000Y-110490000D02*
X205000000Y-107250000D01*
X198628000Y-106553000D02*
X202819000Y-106553000D01*
X202819000Y-106553000D02*
X204724000Y-104648000D01*
X188468000Y-102616000D02*
X188468000Y-99468000D01*
X188711000Y-89789000D02*
X189992000Y-89789000D01*
X187250000Y-91250000D02*
X188711000Y-89789000D01*
X187250000Y-98250000D02*
X187250000Y-91250000D01*
X188468000Y-99468000D02*
X187250000Y-98250000D01*
D20*
G36*
X216315000Y-115315000D02*
X214000000Y-115315000D01*
X213737862Y-115367143D01*
X213515632Y-115515632D01*
X213443891Y-115623000D01*
X117685000Y-115623000D01*
X117685000Y-105425305D01*
X119815674Y-105425305D01*
X120102043Y-106118372D01*
X120631839Y-106649093D01*
X121324405Y-106936672D01*
X122074305Y-106937326D01*
X122258598Y-106861178D01*
X126513208Y-111115787D01*
X126513210Y-111115790D01*
X126800325Y-111307633D01*
X127139000Y-111375000D01*
X187182532Y-111375000D01*
X187597357Y-111790551D01*
X188161330Y-112024733D01*
X188771991Y-112025265D01*
X189336371Y-111792068D01*
X189768551Y-111360643D01*
X190002733Y-110796670D01*
X190003247Y-110206332D01*
X190617787Y-109591792D01*
X190617790Y-109591790D01*
X190618986Y-109590000D01*
X197080560Y-109590000D01*
X197080560Y-111390000D01*
X197124838Y-111625317D01*
X197263910Y-111841441D01*
X197476110Y-111986431D01*
X197728000Y-112037440D01*
X199528000Y-112037440D01*
X199763317Y-111993162D01*
X199979441Y-111854090D01*
X200124431Y-111641890D01*
X200175440Y-111390000D01*
X200175440Y-111375000D01*
X201759995Y-111375000D01*
X201760000Y-111375001D01*
X202042484Y-111318810D01*
X202098675Y-111307633D01*
X202385790Y-111115790D01*
X202385791Y-111115789D01*
X205366579Y-108135000D01*
X206191661Y-108135000D01*
X205666907Y-108658839D01*
X205379328Y-109351405D01*
X205378674Y-110101305D01*
X205665043Y-110794372D01*
X206194839Y-111325093D01*
X206887405Y-111612672D01*
X207637305Y-111613326D01*
X208330372Y-111326957D01*
X208861093Y-110797161D01*
X209148672Y-110104595D01*
X209149326Y-109354695D01*
X208862957Y-108661628D01*
X208333161Y-108130907D01*
X207786007Y-107903708D01*
X207827790Y-107875790D01*
X207827791Y-107875789D01*
X209246165Y-106457414D01*
X209427405Y-106532672D01*
X210177305Y-106533326D01*
X210870372Y-106246957D01*
X211401093Y-105717161D01*
X211688672Y-105024595D01*
X211689326Y-104274695D01*
X211402957Y-103581628D01*
X210873161Y-103050907D01*
X210180595Y-102763328D01*
X209430695Y-102762674D01*
X208737628Y-103049043D01*
X208206907Y-103578839D01*
X207919328Y-104271405D01*
X207918674Y-105021305D01*
X207994822Y-105205598D01*
X206835420Y-106365000D01*
X205504686Y-106365000D01*
X205790372Y-106246957D01*
X206321093Y-105717161D01*
X206608672Y-105024595D01*
X206609326Y-104274695D01*
X206322957Y-103581628D01*
X205793161Y-103050907D01*
X205100595Y-102763328D01*
X204350695Y-102762674D01*
X203657628Y-103049043D01*
X203126907Y-103578839D01*
X202839328Y-104271405D01*
X202838674Y-105021305D01*
X202914822Y-105205598D01*
X202452420Y-105668000D01*
X199913468Y-105668000D01*
X199498643Y-105252449D01*
X198934670Y-105018267D01*
X198324009Y-105017735D01*
X197759629Y-105250932D01*
X197327449Y-105682357D01*
X197093267Y-106246330D01*
X197092735Y-106856991D01*
X197325932Y-107421371D01*
X197757357Y-107853551D01*
X198321330Y-108087733D01*
X198931991Y-108088265D01*
X199496371Y-107855068D01*
X199914169Y-107438000D01*
X202818995Y-107438000D01*
X202819000Y-107438001D01*
X203101484Y-107381810D01*
X203157675Y-107370633D01*
X203444790Y-107178790D01*
X204166165Y-106457415D01*
X204347405Y-106532672D01*
X204510994Y-106532815D01*
X204374210Y-106624210D01*
X204374208Y-106624213D01*
X201393420Y-109605000D01*
X200175440Y-109605000D01*
X200175440Y-109590000D01*
X200131162Y-109354683D01*
X199992090Y-109138559D01*
X199779890Y-108993569D01*
X199528000Y-108942560D01*
X197728000Y-108942560D01*
X197492683Y-108986838D01*
X197276559Y-109125910D01*
X197131569Y-109338110D01*
X197080560Y-109590000D01*
X190618986Y-109590000D01*
X190809633Y-109304675D01*
X190877000Y-108966000D01*
X190877000Y-101716000D01*
X197080560Y-101716000D01*
X197080560Y-103516000D01*
X197124838Y-103751317D01*
X197263910Y-103967441D01*
X197476110Y-104112431D01*
X197728000Y-104163440D01*
X199528000Y-104163440D01*
X199763317Y-104119162D01*
X199979441Y-103980090D01*
X200124431Y-103767890D01*
X200175440Y-103516000D01*
X200175440Y-101716000D01*
X200131162Y-101480683D01*
X199992090Y-101264559D01*
X199779890Y-101119569D01*
X199528000Y-101068560D01*
X197728000Y-101068560D01*
X197492683Y-101112838D01*
X197276559Y-101251910D01*
X197131569Y-101464110D01*
X197080560Y-101716000D01*
X190877000Y-101716000D01*
X190877000Y-98754678D01*
X190977101Y-98734767D01*
X191442648Y-98423698D01*
X191753717Y-97958151D01*
X191806110Y-97694750D01*
X195777000Y-97694750D01*
X195777000Y-98335310D01*
X195873673Y-98568699D01*
X196052302Y-98747327D01*
X196285691Y-98844000D01*
X197326250Y-98844000D01*
X197485000Y-98685250D01*
X197485000Y-97536000D01*
X197739000Y-97536000D01*
X197739000Y-98685250D01*
X197897750Y-98844000D01*
X198938309Y-98844000D01*
X199171698Y-98747327D01*
X199350327Y-98568699D01*
X199360663Y-98543745D01*
X201228861Y-98543745D01*
X201302995Y-98789864D01*
X201840223Y-98982965D01*
X202410454Y-98955778D01*
X202811005Y-98789864D01*
X202885139Y-98543745D01*
X202057000Y-97715605D01*
X201228861Y-98543745D01*
X199360663Y-98543745D01*
X199447000Y-98335310D01*
X199447000Y-97694750D01*
X199288250Y-97536000D01*
X197739000Y-97536000D01*
X197485000Y-97536000D01*
X195935750Y-97536000D01*
X195777000Y-97694750D01*
X191806110Y-97694750D01*
X191862950Y-97409000D01*
X191845093Y-97319223D01*
X200610035Y-97319223D01*
X200637222Y-97889454D01*
X200803136Y-98290005D01*
X201049255Y-98364139D01*
X201877395Y-97536000D01*
X202236605Y-97536000D01*
X203064745Y-98364139D01*
X203310864Y-98290005D01*
X203395861Y-98053532D01*
X209974073Y-98053532D01*
X210072736Y-98320387D01*
X210682461Y-98546908D01*
X211332460Y-98522856D01*
X211821264Y-98320387D01*
X211919927Y-98053532D01*
X210947000Y-97080605D01*
X209974073Y-98053532D01*
X203395861Y-98053532D01*
X203503965Y-97752777D01*
X203476778Y-97182546D01*
X203310864Y-96781995D01*
X203064745Y-96707861D01*
X202236605Y-97536000D01*
X201877395Y-97536000D01*
X201049255Y-96707861D01*
X200803136Y-96781995D01*
X200610035Y-97319223D01*
X191845093Y-97319223D01*
X191826554Y-97226025D01*
X192317787Y-96734792D01*
X192317790Y-96734790D01*
X192509633Y-96447675D01*
X192542561Y-96282136D01*
X192577001Y-96109000D01*
X192577000Y-96108995D01*
X192577000Y-95675580D01*
X195771334Y-92481246D01*
X195850283Y-92878151D01*
X196161352Y-93343698D01*
X196543438Y-93599000D01*
X196161352Y-93854302D01*
X195850283Y-94319849D01*
X195741050Y-94869000D01*
X195850283Y-95418151D01*
X196161352Y-95883698D01*
X196296498Y-95974000D01*
X196285691Y-95974000D01*
X196052302Y-96070673D01*
X195873673Y-96249301D01*
X195777000Y-96482690D01*
X195777000Y-97123250D01*
X195935750Y-97282000D01*
X197485000Y-97282000D01*
X197485000Y-97262000D01*
X197739000Y-97262000D01*
X197739000Y-97282000D01*
X199288250Y-97282000D01*
X199447000Y-97123250D01*
X199447000Y-96528255D01*
X201228861Y-96528255D01*
X202057000Y-97356395D01*
X202776933Y-96636461D01*
X209301092Y-96636461D01*
X209325144Y-97286460D01*
X209527613Y-97775264D01*
X209794468Y-97873927D01*
X210767395Y-96901000D01*
X211126605Y-96901000D01*
X212099532Y-97873927D01*
X212366387Y-97775264D01*
X212592908Y-97165539D01*
X212568856Y-96515540D01*
X212366387Y-96026736D01*
X212099532Y-95928073D01*
X211126605Y-96901000D01*
X210767395Y-96901000D01*
X209794468Y-95928073D01*
X209527613Y-96026736D01*
X209301092Y-96636461D01*
X202776933Y-96636461D01*
X202885139Y-96528255D01*
X202811005Y-96282136D01*
X202273777Y-96089035D01*
X201703546Y-96116222D01*
X201302995Y-96282136D01*
X201228861Y-96528255D01*
X199447000Y-96528255D01*
X199447000Y-96482690D01*
X199350327Y-96249301D01*
X199171698Y-96070673D01*
X198938309Y-95974000D01*
X198927502Y-95974000D01*
X199062648Y-95883698D01*
X199153005Y-95748468D01*
X209974073Y-95748468D01*
X210947000Y-96721395D01*
X211919927Y-95748468D01*
X211821264Y-95481613D01*
X211211539Y-95255092D01*
X210561540Y-95279144D01*
X210072736Y-95481613D01*
X209974073Y-95748468D01*
X199153005Y-95748468D01*
X199373717Y-95418151D01*
X199482950Y-94869000D01*
X199373717Y-94319849D01*
X199062648Y-93854302D01*
X198680562Y-93599000D01*
X199062648Y-93343698D01*
X199373717Y-92878151D01*
X199401159Y-92740187D01*
X200621752Y-92740187D01*
X200839757Y-93267800D01*
X201243077Y-93671824D01*
X201770309Y-93890750D01*
X202341187Y-93891248D01*
X202868800Y-93673243D01*
X203272824Y-93269923D01*
X203491750Y-92742691D01*
X203492248Y-92171813D01*
X203481085Y-92144795D01*
X209311716Y-92144795D01*
X209560106Y-92745943D01*
X210019637Y-93206278D01*
X210620352Y-93455716D01*
X211270795Y-93456284D01*
X211871943Y-93207894D01*
X212332278Y-92748363D01*
X212581716Y-92147648D01*
X212582284Y-91497205D01*
X212333894Y-90896057D01*
X211874363Y-90435722D01*
X211273648Y-90186284D01*
X210623205Y-90185716D01*
X210022057Y-90434106D01*
X209561722Y-90893637D01*
X209312284Y-91494352D01*
X209311716Y-92144795D01*
X203481085Y-92144795D01*
X203274243Y-91644200D01*
X202870923Y-91240176D01*
X202343691Y-91021250D01*
X201772813Y-91020752D01*
X201245200Y-91238757D01*
X200841176Y-91642077D01*
X200622250Y-92169309D01*
X200621752Y-92740187D01*
X199401159Y-92740187D01*
X199482950Y-92329000D01*
X199373717Y-91779849D01*
X199062648Y-91314302D01*
X198680562Y-91059000D01*
X199062648Y-90803698D01*
X199373717Y-90338151D01*
X199482950Y-89789000D01*
X199373717Y-89239849D01*
X199062648Y-88774302D01*
X198597101Y-88463233D01*
X198047950Y-88354000D01*
X197176050Y-88354000D01*
X196626899Y-88463233D01*
X196161352Y-88774302D01*
X195850283Y-89239849D01*
X195741050Y-89789000D01*
X195777446Y-89971975D01*
X191623882Y-94125538D01*
X191442648Y-93854302D01*
X191060562Y-93599000D01*
X191442648Y-93343698D01*
X191753717Y-92878151D01*
X191862950Y-92329000D01*
X191753717Y-91779849D01*
X191442648Y-91314302D01*
X191060562Y-91059000D01*
X191442648Y-90803698D01*
X191753717Y-90338151D01*
X191862950Y-89789000D01*
X191753717Y-89239849D01*
X191442648Y-88774302D01*
X190977101Y-88463233D01*
X190427950Y-88354000D01*
X189556050Y-88354000D01*
X189006899Y-88463233D01*
X188541352Y-88774302D01*
X188415403Y-88962798D01*
X188372325Y-88971367D01*
X188085210Y-89163210D01*
X188085208Y-89163213D01*
X186624210Y-90624210D01*
X186432367Y-90911325D01*
X186432367Y-90911326D01*
X186364999Y-91250000D01*
X186365000Y-91250005D01*
X186365000Y-98249995D01*
X186364999Y-98250000D01*
X186419275Y-98522856D01*
X186432367Y-98588675D01*
X186601773Y-98842210D01*
X186624210Y-98875790D01*
X187583000Y-99834579D01*
X187583000Y-101330532D01*
X187167449Y-101745357D01*
X186933267Y-102309330D01*
X186932735Y-102919991D01*
X187165932Y-103484371D01*
X187597357Y-103916551D01*
X188161330Y-104150733D01*
X188771991Y-104151265D01*
X189107000Y-104012842D01*
X189107000Y-105018000D01*
X188753750Y-105018000D01*
X188595000Y-105176750D01*
X188595000Y-106426000D01*
X188615000Y-106426000D01*
X188615000Y-106680000D01*
X188595000Y-106680000D01*
X188595000Y-107929250D01*
X188753750Y-108088000D01*
X189107000Y-108088000D01*
X189107000Y-108599421D01*
X188751174Y-108955247D01*
X188164009Y-108954735D01*
X187599629Y-109187932D01*
X187181831Y-109605000D01*
X127505579Y-109605000D01*
X124739330Y-106838750D01*
X186933000Y-106838750D01*
X186933000Y-107579310D01*
X187029673Y-107812699D01*
X187208302Y-107991327D01*
X187441691Y-108088000D01*
X188182250Y-108088000D01*
X188341000Y-107929250D01*
X188341000Y-106680000D01*
X187091750Y-106680000D01*
X186933000Y-106838750D01*
X124739330Y-106838750D01*
X123510415Y-105609835D01*
X123544939Y-105526690D01*
X186933000Y-105526690D01*
X186933000Y-106267250D01*
X187091750Y-106426000D01*
X188341000Y-106426000D01*
X188341000Y-105176750D01*
X188182250Y-105018000D01*
X187441691Y-105018000D01*
X187208302Y-105114673D01*
X187029673Y-105293301D01*
X186933000Y-105526690D01*
X123544939Y-105526690D01*
X123585672Y-105428595D01*
X123586326Y-104678695D01*
X123299957Y-103985628D01*
X122770161Y-103454907D01*
X122077595Y-103167328D01*
X121327695Y-103166674D01*
X120634628Y-103453043D01*
X120103907Y-103982839D01*
X119816328Y-104675405D01*
X119815674Y-105425305D01*
X117685000Y-105425305D01*
X117685000Y-93385320D01*
X120547285Y-93385320D01*
X120676533Y-93678123D01*
X121376806Y-93946388D01*
X122126435Y-93926250D01*
X122725467Y-93678123D01*
X122854715Y-93385320D01*
X121701000Y-92231605D01*
X120547285Y-93385320D01*
X117685000Y-93385320D01*
X117685000Y-91727806D01*
X119806612Y-91727806D01*
X119826750Y-92477435D01*
X120074877Y-93076467D01*
X120367680Y-93205715D01*
X121521395Y-92052000D01*
X121880605Y-92052000D01*
X123034320Y-93205715D01*
X123327123Y-93076467D01*
X123595388Y-92376194D01*
X123575250Y-91626565D01*
X123327123Y-91027533D01*
X123034320Y-90898285D01*
X121880605Y-92052000D01*
X121521395Y-92052000D01*
X120367680Y-90898285D01*
X120074877Y-91027533D01*
X119806612Y-91727806D01*
X117685000Y-91727806D01*
X117685000Y-90718680D01*
X120547285Y-90718680D01*
X121701000Y-91872395D01*
X122854715Y-90718680D01*
X122725467Y-90425877D01*
X122025194Y-90157612D01*
X121275565Y-90177750D01*
X120676533Y-90425877D01*
X120547285Y-90718680D01*
X117685000Y-90718680D01*
X117685000Y-84739187D01*
X199097752Y-84739187D01*
X199315757Y-85266800D01*
X199719077Y-85670824D01*
X200246309Y-85889750D01*
X200817187Y-85890248D01*
X201344800Y-85672243D01*
X201748824Y-85268923D01*
X201967750Y-84741691D01*
X201967752Y-84739187D01*
X204177752Y-84739187D01*
X204395757Y-85266800D01*
X204799077Y-85670824D01*
X205326309Y-85889750D01*
X205897187Y-85890248D01*
X206424800Y-85672243D01*
X206828824Y-85268923D01*
X207047750Y-84741691D01*
X207048248Y-84170813D01*
X206830243Y-83643200D01*
X206542546Y-83355000D01*
X209072560Y-83355000D01*
X209072560Y-85555000D01*
X209116838Y-85790317D01*
X209255910Y-86006441D01*
X209468110Y-86151431D01*
X209720000Y-86202440D01*
X211920000Y-86202440D01*
X212155317Y-86158162D01*
X212371441Y-86019090D01*
X212516431Y-85806890D01*
X212567440Y-85555000D01*
X212567440Y-83355000D01*
X212523162Y-83119683D01*
X212384090Y-82903559D01*
X212171890Y-82758569D01*
X211920000Y-82707560D01*
X209720000Y-82707560D01*
X209484683Y-82751838D01*
X209268559Y-82890910D01*
X209123569Y-83103110D01*
X209072560Y-83355000D01*
X206542546Y-83355000D01*
X206426923Y-83239176D01*
X205899691Y-83020250D01*
X205328813Y-83019752D01*
X204801200Y-83237757D01*
X204397176Y-83641077D01*
X204178250Y-84168309D01*
X204177752Y-84739187D01*
X201967752Y-84739187D01*
X201968248Y-84170813D01*
X201750243Y-83643200D01*
X201346923Y-83239176D01*
X200819691Y-83020250D01*
X200248813Y-83019752D01*
X199721200Y-83237757D01*
X199317176Y-83641077D01*
X199098250Y-84168309D01*
X199097752Y-84739187D01*
X117685000Y-84739187D01*
X117685000Y-81685000D01*
X216315000Y-81685000D01*
X216315000Y-115315000D01*
X216315000Y-115315000D01*
G37*
X216315000Y-115315000D02*
X214000000Y-115315000D01*
X213737862Y-115367143D01*
X213515632Y-115515632D01*
X213443891Y-115623000D01*
X117685000Y-115623000D01*
X117685000Y-105425305D01*
X119815674Y-105425305D01*
X120102043Y-106118372D01*
X120631839Y-106649093D01*
X121324405Y-106936672D01*
X122074305Y-106937326D01*
X122258598Y-106861178D01*
X126513208Y-111115787D01*
X126513210Y-111115790D01*
X126800325Y-111307633D01*
X127139000Y-111375000D01*
X187182532Y-111375000D01*
X187597357Y-111790551D01*
X188161330Y-112024733D01*
X188771991Y-112025265D01*
X189336371Y-111792068D01*
X189768551Y-111360643D01*
X190002733Y-110796670D01*
X190003247Y-110206332D01*
X190617787Y-109591792D01*
X190617790Y-109591790D01*
X190618986Y-109590000D01*
X197080560Y-109590000D01*
X197080560Y-111390000D01*
X197124838Y-111625317D01*
X197263910Y-111841441D01*
X197476110Y-111986431D01*
X197728000Y-112037440D01*
X199528000Y-112037440D01*
X199763317Y-111993162D01*
X199979441Y-111854090D01*
X200124431Y-111641890D01*
X200175440Y-111390000D01*
X200175440Y-111375000D01*
X201759995Y-111375000D01*
X201760000Y-111375001D01*
X202042484Y-111318810D01*
X202098675Y-111307633D01*
X202385790Y-111115790D01*
X202385791Y-111115789D01*
X205366579Y-108135000D01*
X206191661Y-108135000D01*
X205666907Y-108658839D01*
X205379328Y-109351405D01*
X205378674Y-110101305D01*
X205665043Y-110794372D01*
X206194839Y-111325093D01*
X206887405Y-111612672D01*
X207637305Y-111613326D01*
X208330372Y-111326957D01*
X208861093Y-110797161D01*
X209148672Y-110104595D01*
X209149326Y-109354695D01*
X208862957Y-108661628D01*
X208333161Y-108130907D01*
X207786007Y-107903708D01*
X207827790Y-107875790D01*
X207827791Y-107875789D01*
X209246165Y-106457414D01*
X209427405Y-106532672D01*
X210177305Y-106533326D01*
X210870372Y-106246957D01*
X211401093Y-105717161D01*
X211688672Y-105024595D01*
X211689326Y-104274695D01*
X211402957Y-103581628D01*
X210873161Y-103050907D01*
X210180595Y-102763328D01*
X209430695Y-102762674D01*
X208737628Y-103049043D01*
X208206907Y-103578839D01*
X207919328Y-104271405D01*
X207918674Y-105021305D01*
X207994822Y-105205598D01*
X206835420Y-106365000D01*
X205504686Y-106365000D01*
X205790372Y-106246957D01*
X206321093Y-105717161D01*
X206608672Y-105024595D01*
X206609326Y-104274695D01*
X206322957Y-103581628D01*
X205793161Y-103050907D01*
X205100595Y-102763328D01*
X204350695Y-102762674D01*
X203657628Y-103049043D01*
X203126907Y-103578839D01*
X202839328Y-104271405D01*
X202838674Y-105021305D01*
X202914822Y-105205598D01*
X202452420Y-105668000D01*
X199913468Y-105668000D01*
X199498643Y-105252449D01*
X198934670Y-105018267D01*
X198324009Y-105017735D01*
X197759629Y-105250932D01*
X197327449Y-105682357D01*
X197093267Y-106246330D01*
X197092735Y-106856991D01*
X197325932Y-107421371D01*
X197757357Y-107853551D01*
X198321330Y-108087733D01*
X198931991Y-108088265D01*
X199496371Y-107855068D01*
X199914169Y-107438000D01*
X202818995Y-107438000D01*
X202819000Y-107438001D01*
X203101484Y-107381810D01*
X203157675Y-107370633D01*
X203444790Y-107178790D01*
X204166165Y-106457415D01*
X204347405Y-106532672D01*
X204510994Y-106532815D01*
X204374210Y-106624210D01*
X204374208Y-106624213D01*
X201393420Y-109605000D01*
X200175440Y-109605000D01*
X200175440Y-109590000D01*
X200131162Y-109354683D01*
X199992090Y-109138559D01*
X199779890Y-108993569D01*
X199528000Y-108942560D01*
X197728000Y-108942560D01*
X197492683Y-108986838D01*
X197276559Y-109125910D01*
X197131569Y-109338110D01*
X197080560Y-109590000D01*
X190618986Y-109590000D01*
X190809633Y-109304675D01*
X190877000Y-108966000D01*
X190877000Y-101716000D01*
X197080560Y-101716000D01*
X197080560Y-103516000D01*
X197124838Y-103751317D01*
X197263910Y-103967441D01*
X197476110Y-104112431D01*
X197728000Y-104163440D01*
X199528000Y-104163440D01*
X199763317Y-104119162D01*
X199979441Y-103980090D01*
X200124431Y-103767890D01*
X200175440Y-103516000D01*
X200175440Y-101716000D01*
X200131162Y-101480683D01*
X199992090Y-101264559D01*
X199779890Y-101119569D01*
X199528000Y-101068560D01*
X197728000Y-101068560D01*
X197492683Y-101112838D01*
X197276559Y-101251910D01*
X197131569Y-101464110D01*
X197080560Y-101716000D01*
X190877000Y-101716000D01*
X190877000Y-98754678D01*
X190977101Y-98734767D01*
X191442648Y-98423698D01*
X191753717Y-97958151D01*
X191806110Y-97694750D01*
X195777000Y-97694750D01*
X195777000Y-98335310D01*
X195873673Y-98568699D01*
X196052302Y-98747327D01*
X196285691Y-98844000D01*
X197326250Y-98844000D01*
X197485000Y-98685250D01*
X197485000Y-97536000D01*
X197739000Y-97536000D01*
X197739000Y-98685250D01*
X197897750Y-98844000D01*
X198938309Y-98844000D01*
X199171698Y-98747327D01*
X199350327Y-98568699D01*
X199360663Y-98543745D01*
X201228861Y-98543745D01*
X201302995Y-98789864D01*
X201840223Y-98982965D01*
X202410454Y-98955778D01*
X202811005Y-98789864D01*
X202885139Y-98543745D01*
X202057000Y-97715605D01*
X201228861Y-98543745D01*
X199360663Y-98543745D01*
X199447000Y-98335310D01*
X199447000Y-97694750D01*
X199288250Y-97536000D01*
X197739000Y-97536000D01*
X197485000Y-97536000D01*
X195935750Y-97536000D01*
X195777000Y-97694750D01*
X191806110Y-97694750D01*
X191862950Y-97409000D01*
X191845093Y-97319223D01*
X200610035Y-97319223D01*
X200637222Y-97889454D01*
X200803136Y-98290005D01*
X201049255Y-98364139D01*
X201877395Y-97536000D01*
X202236605Y-97536000D01*
X203064745Y-98364139D01*
X203310864Y-98290005D01*
X203395861Y-98053532D01*
X209974073Y-98053532D01*
X210072736Y-98320387D01*
X210682461Y-98546908D01*
X211332460Y-98522856D01*
X211821264Y-98320387D01*
X211919927Y-98053532D01*
X210947000Y-97080605D01*
X209974073Y-98053532D01*
X203395861Y-98053532D01*
X203503965Y-97752777D01*
X203476778Y-97182546D01*
X203310864Y-96781995D01*
X203064745Y-96707861D01*
X202236605Y-97536000D01*
X201877395Y-97536000D01*
X201049255Y-96707861D01*
X200803136Y-96781995D01*
X200610035Y-97319223D01*
X191845093Y-97319223D01*
X191826554Y-97226025D01*
X192317787Y-96734792D01*
X192317790Y-96734790D01*
X192509633Y-96447675D01*
X192542561Y-96282136D01*
X192577001Y-96109000D01*
X192577000Y-96108995D01*
X192577000Y-95675580D01*
X195771334Y-92481246D01*
X195850283Y-92878151D01*
X196161352Y-93343698D01*
X196543438Y-93599000D01*
X196161352Y-93854302D01*
X195850283Y-94319849D01*
X195741050Y-94869000D01*
X195850283Y-95418151D01*
X196161352Y-95883698D01*
X196296498Y-95974000D01*
X196285691Y-95974000D01*
X196052302Y-96070673D01*
X195873673Y-96249301D01*
X195777000Y-96482690D01*
X195777000Y-97123250D01*
X195935750Y-97282000D01*
X197485000Y-97282000D01*
X197485000Y-97262000D01*
X197739000Y-97262000D01*
X197739000Y-97282000D01*
X199288250Y-97282000D01*
X199447000Y-97123250D01*
X199447000Y-96528255D01*
X201228861Y-96528255D01*
X202057000Y-97356395D01*
X202776933Y-96636461D01*
X209301092Y-96636461D01*
X209325144Y-97286460D01*
X209527613Y-97775264D01*
X209794468Y-97873927D01*
X210767395Y-96901000D01*
X211126605Y-96901000D01*
X212099532Y-97873927D01*
X212366387Y-97775264D01*
X212592908Y-97165539D01*
X212568856Y-96515540D01*
X212366387Y-96026736D01*
X212099532Y-95928073D01*
X211126605Y-96901000D01*
X210767395Y-96901000D01*
X209794468Y-95928073D01*
X209527613Y-96026736D01*
X209301092Y-96636461D01*
X202776933Y-96636461D01*
X202885139Y-96528255D01*
X202811005Y-96282136D01*
X202273777Y-96089035D01*
X201703546Y-96116222D01*
X201302995Y-96282136D01*
X201228861Y-96528255D01*
X199447000Y-96528255D01*
X199447000Y-96482690D01*
X199350327Y-96249301D01*
X199171698Y-96070673D01*
X198938309Y-95974000D01*
X198927502Y-95974000D01*
X199062648Y-95883698D01*
X199153005Y-95748468D01*
X209974073Y-95748468D01*
X210947000Y-96721395D01*
X211919927Y-95748468D01*
X211821264Y-95481613D01*
X211211539Y-95255092D01*
X210561540Y-95279144D01*
X210072736Y-95481613D01*
X209974073Y-95748468D01*
X199153005Y-95748468D01*
X199373717Y-95418151D01*
X199482950Y-94869000D01*
X199373717Y-94319849D01*
X199062648Y-93854302D01*
X198680562Y-93599000D01*
X199062648Y-93343698D01*
X199373717Y-92878151D01*
X199401159Y-92740187D01*
X200621752Y-92740187D01*
X200839757Y-93267800D01*
X201243077Y-93671824D01*
X201770309Y-93890750D01*
X202341187Y-93891248D01*
X202868800Y-93673243D01*
X203272824Y-93269923D01*
X203491750Y-92742691D01*
X203492248Y-92171813D01*
X203481085Y-92144795D01*
X209311716Y-92144795D01*
X209560106Y-92745943D01*
X210019637Y-93206278D01*
X210620352Y-93455716D01*
X211270795Y-93456284D01*
X211871943Y-93207894D01*
X212332278Y-92748363D01*
X212581716Y-92147648D01*
X212582284Y-91497205D01*
X212333894Y-90896057D01*
X211874363Y-90435722D01*
X211273648Y-90186284D01*
X210623205Y-90185716D01*
X210022057Y-90434106D01*
X209561722Y-90893637D01*
X209312284Y-91494352D01*
X209311716Y-92144795D01*
X203481085Y-92144795D01*
X203274243Y-91644200D01*
X202870923Y-91240176D01*
X202343691Y-91021250D01*
X201772813Y-91020752D01*
X201245200Y-91238757D01*
X200841176Y-91642077D01*
X200622250Y-92169309D01*
X200621752Y-92740187D01*
X199401159Y-92740187D01*
X199482950Y-92329000D01*
X199373717Y-91779849D01*
X199062648Y-91314302D01*
X198680562Y-91059000D01*
X199062648Y-90803698D01*
X199373717Y-90338151D01*
X199482950Y-89789000D01*
X199373717Y-89239849D01*
X199062648Y-88774302D01*
X198597101Y-88463233D01*
X198047950Y-88354000D01*
X197176050Y-88354000D01*
X196626899Y-88463233D01*
X196161352Y-88774302D01*
X195850283Y-89239849D01*
X195741050Y-89789000D01*
X195777446Y-89971975D01*
X191623882Y-94125538D01*
X191442648Y-93854302D01*
X191060562Y-93599000D01*
X191442648Y-93343698D01*
X191753717Y-92878151D01*
X191862950Y-92329000D01*
X191753717Y-91779849D01*
X191442648Y-91314302D01*
X191060562Y-91059000D01*
X191442648Y-90803698D01*
X191753717Y-90338151D01*
X191862950Y-89789000D01*
X191753717Y-89239849D01*
X191442648Y-88774302D01*
X190977101Y-88463233D01*
X190427950Y-88354000D01*
X189556050Y-88354000D01*
X189006899Y-88463233D01*
X188541352Y-88774302D01*
X188415403Y-88962798D01*
X188372325Y-88971367D01*
X188085210Y-89163210D01*
X188085208Y-89163213D01*
X186624210Y-90624210D01*
X186432367Y-90911325D01*
X186432367Y-90911326D01*
X186364999Y-91250000D01*
X186365000Y-91250005D01*
X186365000Y-98249995D01*
X186364999Y-98250000D01*
X186419275Y-98522856D01*
X186432367Y-98588675D01*
X186601773Y-98842210D01*
X186624210Y-98875790D01*
X187583000Y-99834579D01*
X187583000Y-101330532D01*
X187167449Y-101745357D01*
X186933267Y-102309330D01*
X186932735Y-102919991D01*
X187165932Y-103484371D01*
X187597357Y-103916551D01*
X188161330Y-104150733D01*
X188771991Y-104151265D01*
X189107000Y-104012842D01*
X189107000Y-105018000D01*
X188753750Y-105018000D01*
X188595000Y-105176750D01*
X188595000Y-106426000D01*
X188615000Y-106426000D01*
X188615000Y-106680000D01*
X188595000Y-106680000D01*
X188595000Y-107929250D01*
X188753750Y-108088000D01*
X189107000Y-108088000D01*
X189107000Y-108599421D01*
X188751174Y-108955247D01*
X188164009Y-108954735D01*
X187599629Y-109187932D01*
X187181831Y-109605000D01*
X127505579Y-109605000D01*
X124739330Y-106838750D01*
X186933000Y-106838750D01*
X186933000Y-107579310D01*
X187029673Y-107812699D01*
X187208302Y-107991327D01*
X187441691Y-108088000D01*
X188182250Y-108088000D01*
X188341000Y-107929250D01*
X188341000Y-106680000D01*
X187091750Y-106680000D01*
X186933000Y-106838750D01*
X124739330Y-106838750D01*
X123510415Y-105609835D01*
X123544939Y-105526690D01*
X186933000Y-105526690D01*
X186933000Y-106267250D01*
X187091750Y-106426000D01*
X188341000Y-106426000D01*
X188341000Y-105176750D01*
X188182250Y-105018000D01*
X187441691Y-105018000D01*
X187208302Y-105114673D01*
X187029673Y-105293301D01*
X186933000Y-105526690D01*
X123544939Y-105526690D01*
X123585672Y-105428595D01*
X123586326Y-104678695D01*
X123299957Y-103985628D01*
X122770161Y-103454907D01*
X122077595Y-103167328D01*
X121327695Y-103166674D01*
X120634628Y-103453043D01*
X120103907Y-103982839D01*
X119816328Y-104675405D01*
X119815674Y-105425305D01*
X117685000Y-105425305D01*
X117685000Y-93385320D01*
X120547285Y-93385320D01*
X120676533Y-93678123D01*
X121376806Y-93946388D01*
X122126435Y-93926250D01*
X122725467Y-93678123D01*
X122854715Y-93385320D01*
X121701000Y-92231605D01*
X120547285Y-93385320D01*
X117685000Y-93385320D01*
X117685000Y-91727806D01*
X119806612Y-91727806D01*
X119826750Y-92477435D01*
X120074877Y-93076467D01*
X120367680Y-93205715D01*
X121521395Y-92052000D01*
X121880605Y-92052000D01*
X123034320Y-93205715D01*
X123327123Y-93076467D01*
X123595388Y-92376194D01*
X123575250Y-91626565D01*
X123327123Y-91027533D01*
X123034320Y-90898285D01*
X121880605Y-92052000D01*
X121521395Y-92052000D01*
X120367680Y-90898285D01*
X120074877Y-91027533D01*
X119806612Y-91727806D01*
X117685000Y-91727806D01*
X117685000Y-90718680D01*
X120547285Y-90718680D01*
X121701000Y-91872395D01*
X122854715Y-90718680D01*
X122725467Y-90425877D01*
X122025194Y-90157612D01*
X121275565Y-90177750D01*
X120676533Y-90425877D01*
X120547285Y-90718680D01*
X117685000Y-90718680D01*
X117685000Y-84739187D01*
X199097752Y-84739187D01*
X199315757Y-85266800D01*
X199719077Y-85670824D01*
X200246309Y-85889750D01*
X200817187Y-85890248D01*
X201344800Y-85672243D01*
X201748824Y-85268923D01*
X201967750Y-84741691D01*
X201967752Y-84739187D01*
X204177752Y-84739187D01*
X204395757Y-85266800D01*
X204799077Y-85670824D01*
X205326309Y-85889750D01*
X205897187Y-85890248D01*
X206424800Y-85672243D01*
X206828824Y-85268923D01*
X207047750Y-84741691D01*
X207048248Y-84170813D01*
X206830243Y-83643200D01*
X206542546Y-83355000D01*
X209072560Y-83355000D01*
X209072560Y-85555000D01*
X209116838Y-85790317D01*
X209255910Y-86006441D01*
X209468110Y-86151431D01*
X209720000Y-86202440D01*
X211920000Y-86202440D01*
X212155317Y-86158162D01*
X212371441Y-86019090D01*
X212516431Y-85806890D01*
X212567440Y-85555000D01*
X212567440Y-83355000D01*
X212523162Y-83119683D01*
X212384090Y-82903559D01*
X212171890Y-82758569D01*
X211920000Y-82707560D01*
X209720000Y-82707560D01*
X209484683Y-82751838D01*
X209268559Y-82890910D01*
X209123569Y-83103110D01*
X209072560Y-83355000D01*
X206542546Y-83355000D01*
X206426923Y-83239176D01*
X205899691Y-83020250D01*
X205328813Y-83019752D01*
X204801200Y-83237757D01*
X204397176Y-83641077D01*
X204178250Y-84168309D01*
X204177752Y-84739187D01*
X201967752Y-84739187D01*
X201968248Y-84170813D01*
X201750243Y-83643200D01*
X201346923Y-83239176D01*
X200819691Y-83020250D01*
X200248813Y-83019752D01*
X199721200Y-83237757D01*
X199317176Y-83641077D01*
X199098250Y-84168309D01*
X199097752Y-84739187D01*
X117685000Y-84739187D01*
X117685000Y-81685000D01*
X216315000Y-81685000D01*
X216315000Y-115315000D01*
M02*
