M48
;DRILL file {KiCad 4.0.2-stable} date 2017/04/14 20:47:19
;FORMAT={-:-/ absolute / metric / decimal}
FMAT,2
METRIC,TZ
T1C0.800
T2C1.000
%
G90
G05
M71
T1
X119.25Y-120.75
X127.25Y-118.25
X127.25Y-123.25
X135.25Y-118.25
X135.25Y-123.25
X188.468Y-102.616
X188.468Y-106.553
X188.468Y-110.49
X189.992Y-89.789
X189.992Y-92.329
X189.992Y-94.869
X189.992Y-97.409
X197.612Y-89.789
X197.612Y-92.329
X197.612Y-94.869
X197.612Y-97.409
X198.628Y-102.616
X198.628Y-106.553
X198.628Y-110.49
X200.533Y-84.455
X202.057Y-92.456
X202.057Y-97.536
X205.613Y-84.455
X208.75Y-120.75
X210.82Y-84.455
X210.947Y-91.821
X210.947Y-96.901
X212.25Y-120.75
T2
X121.701Y-92.052
X121.701Y-105.052
X204.724Y-104.648
X207.264Y-109.728
X209.804Y-104.648
T0
M30
