G04 #@! TF.FileFunction,Copper,L1,Top,Plane*
%FSLAX46Y46*%
G04 Gerber Fmt 4.6, Leading zero omitted, Abs format (unit mm)*
G04 Created by KiCad (PCBNEW 4.0.2-stable) date 2017/04/14 20:47:14*
%MOMM*%
G01*
G04 APERTURE LIST*
%ADD10C,0.100000*%
%ADD11C,2.500000*%
%ADD12C,1.600000*%
%ADD13C,1.800000*%
%ADD14R,1.800000X1.800000*%
%ADD15R,1.200000X0.900000*%
%ADD16C,2.000000*%
%ADD17R,2.200000X2.200000*%
%ADD18R,2.400000X1.600000*%
%ADD19O,2.400000X1.600000*%
%ADD20R,5.000000X15.000000*%
%ADD21C,0.500000*%
%ADD22C,1.500000*%
%ADD23C,0.254000*%
G04 APERTURE END LIST*
D10*
D11*
X121701000Y-92052000D03*
X121701000Y-105052000D03*
D12*
X202057000Y-92456000D03*
X202057000Y-97536000D03*
X200533000Y-84455000D03*
X205613000Y-84455000D03*
D13*
X188468000Y-110490000D03*
D14*
X198628000Y-110490000D03*
D13*
X198628000Y-106553000D03*
D14*
X188468000Y-106553000D03*
D13*
X188468000Y-102616000D03*
D14*
X198628000Y-102616000D03*
D15*
X178900000Y-91480000D03*
X176700000Y-91480000D03*
X171280000Y-91480000D03*
X169080000Y-91480000D03*
X163660000Y-91480000D03*
X161460000Y-91480000D03*
X156040000Y-91480000D03*
X153840000Y-91480000D03*
X148420000Y-91480000D03*
X146220000Y-91480000D03*
X140800000Y-91480000D03*
X138600000Y-91480000D03*
X133180000Y-91480000D03*
X130980000Y-91480000D03*
D11*
X207264000Y-109728000D03*
X204724000Y-104648000D03*
X209804000Y-104648000D03*
D16*
X210947000Y-91821000D03*
X210947000Y-96901000D03*
D17*
X210820000Y-84455000D03*
D18*
X197612000Y-97409000D03*
D19*
X189992000Y-89789000D03*
X197612000Y-94869000D03*
X189992000Y-92329000D03*
X197612000Y-92329000D03*
X189992000Y-94869000D03*
X197612000Y-89789000D03*
X189992000Y-97409000D03*
D20*
X151130000Y-102275000D03*
X143510000Y-102275000D03*
X158750000Y-102275000D03*
X166370000Y-102275000D03*
X135890000Y-102275000D03*
X128270000Y-102275000D03*
X173990000Y-102275000D03*
X181610000Y-102275000D03*
D15*
X182669000Y-91480000D03*
X184869000Y-91480000D03*
X182669000Y-86360000D03*
X184869000Y-86360000D03*
D17*
X208750000Y-120750000D03*
X119250000Y-120750000D03*
X212250000Y-120750000D03*
X127250000Y-118250000D03*
X127250000Y-123250000D03*
X135250000Y-118250000D03*
X135250000Y-123250000D03*
D21*
X197612000Y-97409000D02*
X195912000Y-97409000D01*
X195912000Y-97409000D02*
X188468000Y-104853000D01*
X188468000Y-104853000D02*
X188468000Y-105153000D01*
X188468000Y-105153000D02*
X188468000Y-106553000D01*
X202057000Y-97536000D02*
X197739000Y-97536000D01*
X197739000Y-97536000D02*
X197612000Y-97409000D01*
X210947000Y-96901000D02*
X202692000Y-96901000D01*
X202692000Y-96901000D02*
X202057000Y-97536000D01*
X197612000Y-94869000D02*
X197239781Y-94869000D01*
X197239781Y-94869000D02*
X188730781Y-86360000D01*
X188730781Y-86360000D02*
X185969000Y-86360000D01*
X185969000Y-86360000D02*
X184869000Y-86360000D01*
X197612000Y-94869000D02*
X199644000Y-94869000D01*
X199644000Y-94869000D02*
X202057000Y-92456000D01*
X184869000Y-86360000D02*
X184869000Y-87310000D01*
X184869000Y-87310000D02*
X189888000Y-92329000D01*
X189888000Y-92329000D02*
X189992000Y-92329000D01*
X210820000Y-84455000D02*
X209220000Y-84455000D01*
X209220000Y-84455000D02*
X207969999Y-83204999D01*
X207969999Y-83204999D02*
X201783001Y-83204999D01*
X201783001Y-83204999D02*
X201332999Y-83655001D01*
X201332999Y-83655001D02*
X200533000Y-84455000D01*
X197612000Y-92329000D02*
X199312000Y-92329000D01*
X199312000Y-92329000D02*
X200533000Y-91108000D01*
X200533000Y-91108000D02*
X200533000Y-85586370D01*
X200533000Y-85586370D02*
X200533000Y-84455000D01*
X205613000Y-84455000D02*
X210947000Y-89789000D01*
X210947000Y-89789000D02*
X210947000Y-91821000D01*
X151130000Y-91480000D02*
X153840000Y-91480000D01*
X149520000Y-91480000D02*
X151130000Y-91480000D01*
X151130000Y-91480000D02*
X151130000Y-102275000D01*
X148420000Y-91480000D02*
X149520000Y-91480000D01*
X143510000Y-102275000D02*
X143510000Y-94275000D01*
X143510000Y-94275000D02*
X143510000Y-91480000D01*
X140800000Y-91480000D02*
X143510000Y-91480000D01*
X143510000Y-91480000D02*
X146220000Y-91480000D01*
X156040000Y-91480000D02*
X158750000Y-91480000D01*
X158750000Y-91480000D02*
X161460000Y-91480000D01*
X158750000Y-102275000D02*
X158750000Y-94275000D01*
X158750000Y-94275000D02*
X158750000Y-91480000D01*
X163660000Y-91480000D02*
X166370000Y-91480000D01*
X166370000Y-91480000D02*
X169080000Y-91480000D01*
X166370000Y-94275000D02*
X166370000Y-91480000D01*
X166370000Y-102275000D02*
X166370000Y-94275000D01*
X133330000Y-91480000D02*
X135890000Y-91480000D01*
X135890000Y-91480000D02*
X138600000Y-91480000D01*
X135890000Y-94275000D02*
X135890000Y-91480000D01*
X135890000Y-102275000D02*
X135890000Y-94275000D01*
X133180000Y-91480000D02*
X133330000Y-91480000D01*
X130980000Y-91480000D02*
X129880000Y-91480000D01*
X128270000Y-94275000D02*
X128270000Y-102275000D01*
X129880000Y-91480000D02*
X128270000Y-93090000D01*
X128270000Y-93090000D02*
X128270000Y-94275000D01*
X172380000Y-91480000D02*
X173990000Y-91480000D01*
X173990000Y-91480000D02*
X176700000Y-91480000D01*
X173990000Y-102275000D02*
X173990000Y-94275000D01*
X173990000Y-94275000D02*
X173990000Y-91480000D01*
X171280000Y-91480000D02*
X172380000Y-91480000D01*
X178900000Y-91480000D02*
X182669000Y-91480000D01*
X178900000Y-91480000D02*
X179050000Y-91480000D01*
X179050000Y-91480000D02*
X181610000Y-94040000D01*
X181610000Y-94040000D02*
X181610000Y-94275000D01*
X181610000Y-94275000D02*
X181610000Y-102275000D01*
X190392000Y-89789000D02*
X189992000Y-89789000D01*
X198628000Y-102616000D02*
X198628000Y-104016000D01*
X198628000Y-104016000D02*
X204340000Y-109728000D01*
X204340000Y-109728000D02*
X205496234Y-109728000D01*
X205496234Y-109728000D02*
X207264000Y-109728000D01*
X182669000Y-86360000D02*
X182669000Y-87669000D01*
X184869000Y-89869000D02*
X184869000Y-91480000D01*
X182669000Y-87669000D02*
X184869000Y-89869000D01*
X189992000Y-94869000D02*
X190392000Y-94869000D01*
D22*
X119250000Y-120750000D02*
X208750000Y-120750000D01*
D23*
G36*
X216315000Y-115315000D02*
X214000000Y-115315000D01*
X213737862Y-115367143D01*
X213515632Y-115515632D01*
X213443891Y-115623000D01*
X117685000Y-115623000D01*
X117685000Y-110793991D01*
X186932735Y-110793991D01*
X187165932Y-111358371D01*
X187597357Y-111790551D01*
X188161330Y-112024733D01*
X188771991Y-112025265D01*
X189336371Y-111792068D01*
X189768551Y-111360643D01*
X190002733Y-110796670D01*
X190003265Y-110186009D01*
X189770068Y-109621629D01*
X189738495Y-109590000D01*
X197080560Y-109590000D01*
X197080560Y-111390000D01*
X197124838Y-111625317D01*
X197263910Y-111841441D01*
X197476110Y-111986431D01*
X197728000Y-112037440D01*
X199528000Y-112037440D01*
X199763317Y-111993162D01*
X199979441Y-111854090D01*
X200124431Y-111641890D01*
X200175440Y-111390000D01*
X200175440Y-109590000D01*
X200131162Y-109354683D01*
X199992090Y-109138559D01*
X199779890Y-108993569D01*
X199528000Y-108942560D01*
X197728000Y-108942560D01*
X197492683Y-108986838D01*
X197276559Y-109125910D01*
X197131569Y-109338110D01*
X197080560Y-109590000D01*
X189738495Y-109590000D01*
X189338643Y-109189449D01*
X188774670Y-108955267D01*
X188164009Y-108954735D01*
X187599629Y-109187932D01*
X187167449Y-109619357D01*
X186933267Y-110183330D01*
X186932735Y-110793991D01*
X117685000Y-110793991D01*
X117685000Y-105425305D01*
X119815674Y-105425305D01*
X120102043Y-106118372D01*
X120631839Y-106649093D01*
X121324405Y-106936672D01*
X122074305Y-106937326D01*
X122767372Y-106650957D01*
X123298093Y-106121161D01*
X123585672Y-105428595D01*
X123586326Y-104678695D01*
X123299957Y-103985628D01*
X122770161Y-103454907D01*
X122077595Y-103167328D01*
X121327695Y-103166674D01*
X120634628Y-103453043D01*
X120103907Y-103982839D01*
X119816328Y-104675405D01*
X119815674Y-105425305D01*
X117685000Y-105425305D01*
X117685000Y-94775000D01*
X125122560Y-94775000D01*
X125122560Y-109775000D01*
X125166838Y-110010317D01*
X125305910Y-110226441D01*
X125518110Y-110371431D01*
X125770000Y-110422440D01*
X130770000Y-110422440D01*
X131005317Y-110378162D01*
X131221441Y-110239090D01*
X131366431Y-110026890D01*
X131417440Y-109775000D01*
X131417440Y-94775000D01*
X131373162Y-94539683D01*
X131234090Y-94323559D01*
X131021890Y-94178569D01*
X130770000Y-94127560D01*
X129155000Y-94127560D01*
X129155000Y-93456580D01*
X130102587Y-92508992D01*
X130128110Y-92526431D01*
X130380000Y-92577440D01*
X131580000Y-92577440D01*
X131815317Y-92533162D01*
X132031441Y-92394090D01*
X132079134Y-92324289D01*
X132115910Y-92381441D01*
X132328110Y-92526431D01*
X132580000Y-92577440D01*
X133780000Y-92577440D01*
X134015317Y-92533162D01*
X134231441Y-92394090D01*
X134251317Y-92365000D01*
X135005000Y-92365000D01*
X135005000Y-94127560D01*
X133390000Y-94127560D01*
X133154683Y-94171838D01*
X132938559Y-94310910D01*
X132793569Y-94523110D01*
X132742560Y-94775000D01*
X132742560Y-109775000D01*
X132786838Y-110010317D01*
X132925910Y-110226441D01*
X133138110Y-110371431D01*
X133390000Y-110422440D01*
X138390000Y-110422440D01*
X138625317Y-110378162D01*
X138841441Y-110239090D01*
X138986431Y-110026890D01*
X139037440Y-109775000D01*
X139037440Y-94775000D01*
X138993162Y-94539683D01*
X138854090Y-94323559D01*
X138641890Y-94178569D01*
X138390000Y-94127560D01*
X136775000Y-94127560D01*
X136775000Y-92365000D01*
X137525331Y-92365000D01*
X137535910Y-92381441D01*
X137748110Y-92526431D01*
X138000000Y-92577440D01*
X139200000Y-92577440D01*
X139435317Y-92533162D01*
X139651441Y-92394090D01*
X139699134Y-92324289D01*
X139735910Y-92381441D01*
X139948110Y-92526431D01*
X140200000Y-92577440D01*
X141400000Y-92577440D01*
X141635317Y-92533162D01*
X141851441Y-92394090D01*
X141871317Y-92365000D01*
X142625000Y-92365000D01*
X142625000Y-94127560D01*
X141010000Y-94127560D01*
X140774683Y-94171838D01*
X140558559Y-94310910D01*
X140413569Y-94523110D01*
X140362560Y-94775000D01*
X140362560Y-109775000D01*
X140406838Y-110010317D01*
X140545910Y-110226441D01*
X140758110Y-110371431D01*
X141010000Y-110422440D01*
X146010000Y-110422440D01*
X146245317Y-110378162D01*
X146461441Y-110239090D01*
X146606431Y-110026890D01*
X146657440Y-109775000D01*
X146657440Y-94775000D01*
X146613162Y-94539683D01*
X146474090Y-94323559D01*
X146261890Y-94178569D01*
X146010000Y-94127560D01*
X144395000Y-94127560D01*
X144395000Y-92365000D01*
X145145331Y-92365000D01*
X145155910Y-92381441D01*
X145368110Y-92526431D01*
X145620000Y-92577440D01*
X146820000Y-92577440D01*
X147055317Y-92533162D01*
X147271441Y-92394090D01*
X147319134Y-92324289D01*
X147355910Y-92381441D01*
X147568110Y-92526431D01*
X147820000Y-92577440D01*
X149020000Y-92577440D01*
X149255317Y-92533162D01*
X149471441Y-92394090D01*
X149491317Y-92365000D01*
X150245000Y-92365000D01*
X150245000Y-94127560D01*
X148630000Y-94127560D01*
X148394683Y-94171838D01*
X148178559Y-94310910D01*
X148033569Y-94523110D01*
X147982560Y-94775000D01*
X147982560Y-109775000D01*
X148026838Y-110010317D01*
X148165910Y-110226441D01*
X148378110Y-110371431D01*
X148630000Y-110422440D01*
X153630000Y-110422440D01*
X153865317Y-110378162D01*
X154081441Y-110239090D01*
X154226431Y-110026890D01*
X154277440Y-109775000D01*
X154277440Y-94775000D01*
X154233162Y-94539683D01*
X154094090Y-94323559D01*
X153881890Y-94178569D01*
X153630000Y-94127560D01*
X152015000Y-94127560D01*
X152015000Y-92365000D01*
X152765331Y-92365000D01*
X152775910Y-92381441D01*
X152988110Y-92526431D01*
X153240000Y-92577440D01*
X154440000Y-92577440D01*
X154675317Y-92533162D01*
X154891441Y-92394090D01*
X154939134Y-92324289D01*
X154975910Y-92381441D01*
X155188110Y-92526431D01*
X155440000Y-92577440D01*
X156640000Y-92577440D01*
X156875317Y-92533162D01*
X157091441Y-92394090D01*
X157111317Y-92365000D01*
X157865000Y-92365000D01*
X157865000Y-94127560D01*
X156250000Y-94127560D01*
X156014683Y-94171838D01*
X155798559Y-94310910D01*
X155653569Y-94523110D01*
X155602560Y-94775000D01*
X155602560Y-109775000D01*
X155646838Y-110010317D01*
X155785910Y-110226441D01*
X155998110Y-110371431D01*
X156250000Y-110422440D01*
X161250000Y-110422440D01*
X161485317Y-110378162D01*
X161701441Y-110239090D01*
X161846431Y-110026890D01*
X161897440Y-109775000D01*
X161897440Y-94775000D01*
X161853162Y-94539683D01*
X161714090Y-94323559D01*
X161501890Y-94178569D01*
X161250000Y-94127560D01*
X159635000Y-94127560D01*
X159635000Y-92365000D01*
X160385331Y-92365000D01*
X160395910Y-92381441D01*
X160608110Y-92526431D01*
X160860000Y-92577440D01*
X162060000Y-92577440D01*
X162295317Y-92533162D01*
X162511441Y-92394090D01*
X162559134Y-92324289D01*
X162595910Y-92381441D01*
X162808110Y-92526431D01*
X163060000Y-92577440D01*
X164260000Y-92577440D01*
X164495317Y-92533162D01*
X164711441Y-92394090D01*
X164731317Y-92365000D01*
X165485000Y-92365000D01*
X165485000Y-94127560D01*
X163870000Y-94127560D01*
X163634683Y-94171838D01*
X163418559Y-94310910D01*
X163273569Y-94523110D01*
X163222560Y-94775000D01*
X163222560Y-109775000D01*
X163266838Y-110010317D01*
X163405910Y-110226441D01*
X163618110Y-110371431D01*
X163870000Y-110422440D01*
X168870000Y-110422440D01*
X169105317Y-110378162D01*
X169321441Y-110239090D01*
X169466431Y-110026890D01*
X169517440Y-109775000D01*
X169517440Y-94775000D01*
X169473162Y-94539683D01*
X169334090Y-94323559D01*
X169121890Y-94178569D01*
X168870000Y-94127560D01*
X167255000Y-94127560D01*
X167255000Y-92365000D01*
X168005331Y-92365000D01*
X168015910Y-92381441D01*
X168228110Y-92526431D01*
X168480000Y-92577440D01*
X169680000Y-92577440D01*
X169915317Y-92533162D01*
X170131441Y-92394090D01*
X170179134Y-92324289D01*
X170215910Y-92381441D01*
X170428110Y-92526431D01*
X170680000Y-92577440D01*
X171880000Y-92577440D01*
X172115317Y-92533162D01*
X172331441Y-92394090D01*
X172351317Y-92365000D01*
X173105000Y-92365000D01*
X173105000Y-94127560D01*
X171490000Y-94127560D01*
X171254683Y-94171838D01*
X171038559Y-94310910D01*
X170893569Y-94523110D01*
X170842560Y-94775000D01*
X170842560Y-109775000D01*
X170886838Y-110010317D01*
X171025910Y-110226441D01*
X171238110Y-110371431D01*
X171490000Y-110422440D01*
X176490000Y-110422440D01*
X176725317Y-110378162D01*
X176941441Y-110239090D01*
X177086431Y-110026890D01*
X177137440Y-109775000D01*
X177137440Y-94775000D01*
X177093162Y-94539683D01*
X176954090Y-94323559D01*
X176741890Y-94178569D01*
X176490000Y-94127560D01*
X174875000Y-94127560D01*
X174875000Y-92365000D01*
X175625331Y-92365000D01*
X175635910Y-92381441D01*
X175848110Y-92526431D01*
X176100000Y-92577440D01*
X177300000Y-92577440D01*
X177535317Y-92533162D01*
X177751441Y-92394090D01*
X177799134Y-92324289D01*
X177835910Y-92381441D01*
X178048110Y-92526431D01*
X178300000Y-92577440D01*
X178895860Y-92577440D01*
X180445981Y-94127560D01*
X179110000Y-94127560D01*
X178874683Y-94171838D01*
X178658559Y-94310910D01*
X178513569Y-94523110D01*
X178462560Y-94775000D01*
X178462560Y-109775000D01*
X178506838Y-110010317D01*
X178645910Y-110226441D01*
X178858110Y-110371431D01*
X179110000Y-110422440D01*
X184110000Y-110422440D01*
X184345317Y-110378162D01*
X184561441Y-110239090D01*
X184706431Y-110026890D01*
X184757440Y-109775000D01*
X184757440Y-106838750D01*
X186933000Y-106838750D01*
X186933000Y-107579310D01*
X187029673Y-107812699D01*
X187208302Y-107991327D01*
X187441691Y-108088000D01*
X188182250Y-108088000D01*
X188341000Y-107929250D01*
X188341000Y-106680000D01*
X188595000Y-106680000D01*
X188595000Y-107929250D01*
X188753750Y-108088000D01*
X189494309Y-108088000D01*
X189727698Y-107991327D01*
X189906327Y-107812699D01*
X190003000Y-107579310D01*
X190003000Y-106838750D01*
X189844250Y-106680000D01*
X188595000Y-106680000D01*
X188341000Y-106680000D01*
X187091750Y-106680000D01*
X186933000Y-106838750D01*
X184757440Y-106838750D01*
X184757440Y-105526690D01*
X186933000Y-105526690D01*
X186933000Y-106267250D01*
X187091750Y-106426000D01*
X188341000Y-106426000D01*
X188341000Y-105176750D01*
X188595000Y-105176750D01*
X188595000Y-106426000D01*
X189844250Y-106426000D01*
X190003000Y-106267250D01*
X190003000Y-105526690D01*
X189906327Y-105293301D01*
X189727698Y-105114673D01*
X189494309Y-105018000D01*
X188753750Y-105018000D01*
X188595000Y-105176750D01*
X188341000Y-105176750D01*
X188182250Y-105018000D01*
X187441691Y-105018000D01*
X187208302Y-105114673D01*
X187029673Y-105293301D01*
X186933000Y-105526690D01*
X184757440Y-105526690D01*
X184757440Y-102919991D01*
X186932735Y-102919991D01*
X187165932Y-103484371D01*
X187597357Y-103916551D01*
X188161330Y-104150733D01*
X188771991Y-104151265D01*
X189336371Y-103918068D01*
X189768551Y-103486643D01*
X190002733Y-102922670D01*
X190003265Y-102312009D01*
X189770068Y-101747629D01*
X189738495Y-101716000D01*
X197080560Y-101716000D01*
X197080560Y-103516000D01*
X197124838Y-103751317D01*
X197263910Y-103967441D01*
X197476110Y-104112431D01*
X197728000Y-104163440D01*
X197772327Y-104163440D01*
X197793803Y-104271405D01*
X197810367Y-104354675D01*
X198002210Y-104641790D01*
X198378202Y-105017782D01*
X198324009Y-105017735D01*
X197759629Y-105250932D01*
X197327449Y-105682357D01*
X197093267Y-106246330D01*
X197092735Y-106856991D01*
X197325932Y-107421371D01*
X197757357Y-107853551D01*
X198321330Y-108087733D01*
X198931991Y-108088265D01*
X199496371Y-107855068D01*
X199928551Y-107423643D01*
X200162733Y-106859670D01*
X200162783Y-106802363D01*
X203714208Y-110353787D01*
X203714210Y-110353790D01*
X204001325Y-110545633D01*
X204057516Y-110556810D01*
X204340000Y-110613001D01*
X204340005Y-110613000D01*
X205590102Y-110613000D01*
X205665043Y-110794372D01*
X206194839Y-111325093D01*
X206887405Y-111612672D01*
X207637305Y-111613326D01*
X208330372Y-111326957D01*
X208861093Y-110797161D01*
X209148672Y-110104595D01*
X209149326Y-109354695D01*
X208862957Y-108661628D01*
X208333161Y-108130907D01*
X207640595Y-107843328D01*
X206890695Y-107842674D01*
X206197628Y-108129043D01*
X205666907Y-108658839D01*
X205590437Y-108843000D01*
X204706579Y-108843000D01*
X200884885Y-105021305D01*
X202838674Y-105021305D01*
X203125043Y-105714372D01*
X203654839Y-106245093D01*
X204347405Y-106532672D01*
X205097305Y-106533326D01*
X205790372Y-106246957D01*
X206321093Y-105717161D01*
X206608672Y-105024595D01*
X206608674Y-105021305D01*
X207918674Y-105021305D01*
X208205043Y-105714372D01*
X208734839Y-106245093D01*
X209427405Y-106532672D01*
X210177305Y-106533326D01*
X210870372Y-106246957D01*
X211401093Y-105717161D01*
X211688672Y-105024595D01*
X211689326Y-104274695D01*
X211402957Y-103581628D01*
X210873161Y-103050907D01*
X210180595Y-102763328D01*
X209430695Y-102762674D01*
X208737628Y-103049043D01*
X208206907Y-103578839D01*
X207919328Y-104271405D01*
X207918674Y-105021305D01*
X206608674Y-105021305D01*
X206609326Y-104274695D01*
X206322957Y-103581628D01*
X205793161Y-103050907D01*
X205100595Y-102763328D01*
X204350695Y-102762674D01*
X203657628Y-103049043D01*
X203126907Y-103578839D01*
X202839328Y-104271405D01*
X202838674Y-105021305D01*
X200884885Y-105021305D01*
X199896829Y-104033249D01*
X199979441Y-103980090D01*
X200124431Y-103767890D01*
X200175440Y-103516000D01*
X200175440Y-101716000D01*
X200131162Y-101480683D01*
X199992090Y-101264559D01*
X199779890Y-101119569D01*
X199528000Y-101068560D01*
X197728000Y-101068560D01*
X197492683Y-101112838D01*
X197276559Y-101251910D01*
X197131569Y-101464110D01*
X197080560Y-101716000D01*
X189738495Y-101716000D01*
X189338643Y-101315449D01*
X188774670Y-101081267D01*
X188164009Y-101080735D01*
X187599629Y-101313932D01*
X187167449Y-101745357D01*
X186933267Y-102309330D01*
X186932735Y-102919991D01*
X184757440Y-102919991D01*
X184757440Y-94775000D01*
X184713162Y-94539683D01*
X184574090Y-94323559D01*
X184361890Y-94178569D01*
X184110000Y-94127560D01*
X182495000Y-94127560D01*
X182495000Y-94040005D01*
X182495001Y-94040000D01*
X182427633Y-93701326D01*
X182427633Y-93701325D01*
X182235790Y-93414210D01*
X182235787Y-93414208D01*
X181186579Y-92365000D01*
X181594331Y-92365000D01*
X181604910Y-92381441D01*
X181817110Y-92526431D01*
X182069000Y-92577440D01*
X183269000Y-92577440D01*
X183504317Y-92533162D01*
X183720441Y-92394090D01*
X183768134Y-92324289D01*
X183804910Y-92381441D01*
X184017110Y-92526431D01*
X184269000Y-92577440D01*
X185469000Y-92577440D01*
X185704317Y-92533162D01*
X185920441Y-92394090D01*
X186065431Y-92181890D01*
X186116440Y-91930000D01*
X186116440Y-91030000D01*
X186072162Y-90794683D01*
X185933090Y-90578559D01*
X185754000Y-90456192D01*
X185754000Y-89869005D01*
X185754001Y-89869000D01*
X185686633Y-89530326D01*
X185686633Y-89530325D01*
X185494790Y-89243210D01*
X185494787Y-89243208D01*
X183601930Y-87350350D01*
X183720441Y-87274090D01*
X183768134Y-87204289D01*
X183804910Y-87261441D01*
X184000990Y-87395417D01*
X184040190Y-87592484D01*
X184051367Y-87648675D01*
X184064948Y-87669000D01*
X184243210Y-87935790D01*
X188206556Y-91899135D01*
X188121050Y-92329000D01*
X188230283Y-92878151D01*
X188541352Y-93343698D01*
X188923438Y-93599000D01*
X188541352Y-93854302D01*
X188230283Y-94319849D01*
X188121050Y-94869000D01*
X188230283Y-95418151D01*
X188541352Y-95883698D01*
X188923438Y-96139000D01*
X188541352Y-96394302D01*
X188230283Y-96859849D01*
X188121050Y-97409000D01*
X188230283Y-97958151D01*
X188541352Y-98423698D01*
X189006899Y-98734767D01*
X189556050Y-98844000D01*
X190427950Y-98844000D01*
X190977101Y-98734767D01*
X191442648Y-98423698D01*
X191753717Y-97958151D01*
X191806110Y-97694750D01*
X195777000Y-97694750D01*
X195777000Y-98335310D01*
X195873673Y-98568699D01*
X196052302Y-98747327D01*
X196285691Y-98844000D01*
X197326250Y-98844000D01*
X197485000Y-98685250D01*
X197485000Y-97536000D01*
X197739000Y-97536000D01*
X197739000Y-98685250D01*
X197897750Y-98844000D01*
X198938309Y-98844000D01*
X199171698Y-98747327D01*
X199350327Y-98568699D01*
X199360663Y-98543745D01*
X201228861Y-98543745D01*
X201302995Y-98789864D01*
X201840223Y-98982965D01*
X202410454Y-98955778D01*
X202811005Y-98789864D01*
X202885139Y-98543745D01*
X202057000Y-97715605D01*
X201228861Y-98543745D01*
X199360663Y-98543745D01*
X199447000Y-98335310D01*
X199447000Y-97694750D01*
X199288250Y-97536000D01*
X197739000Y-97536000D01*
X197485000Y-97536000D01*
X195935750Y-97536000D01*
X195777000Y-97694750D01*
X191806110Y-97694750D01*
X191862950Y-97409000D01*
X191845093Y-97319223D01*
X200610035Y-97319223D01*
X200637222Y-97889454D01*
X200803136Y-98290005D01*
X201049255Y-98364139D01*
X201877395Y-97536000D01*
X202236605Y-97536000D01*
X203064745Y-98364139D01*
X203310864Y-98290005D01*
X203395861Y-98053532D01*
X209974073Y-98053532D01*
X210072736Y-98320387D01*
X210682461Y-98546908D01*
X211332460Y-98522856D01*
X211821264Y-98320387D01*
X211919927Y-98053532D01*
X210947000Y-97080605D01*
X209974073Y-98053532D01*
X203395861Y-98053532D01*
X203503965Y-97752777D01*
X203476778Y-97182546D01*
X203310864Y-96781995D01*
X203064745Y-96707861D01*
X202236605Y-97536000D01*
X201877395Y-97536000D01*
X201049255Y-96707861D01*
X200803136Y-96781995D01*
X200610035Y-97319223D01*
X191845093Y-97319223D01*
X191753717Y-96859849D01*
X191442648Y-96394302D01*
X191060562Y-96139000D01*
X191442648Y-95883698D01*
X191753717Y-95418151D01*
X191862950Y-94869000D01*
X191753717Y-94319849D01*
X191442648Y-93854302D01*
X191060562Y-93599000D01*
X191442648Y-93343698D01*
X191753717Y-92878151D01*
X191862950Y-92329000D01*
X191753717Y-91779849D01*
X191442648Y-91314302D01*
X191060562Y-91059000D01*
X191442648Y-90803698D01*
X191635010Y-90515808D01*
X195782055Y-94662853D01*
X195741050Y-94869000D01*
X195850283Y-95418151D01*
X196161352Y-95883698D01*
X196296498Y-95974000D01*
X196285691Y-95974000D01*
X196052302Y-96070673D01*
X195873673Y-96249301D01*
X195777000Y-96482690D01*
X195777000Y-97123250D01*
X195935750Y-97282000D01*
X197485000Y-97282000D01*
X197485000Y-97262000D01*
X197739000Y-97262000D01*
X197739000Y-97282000D01*
X199288250Y-97282000D01*
X199447000Y-97123250D01*
X199447000Y-96528255D01*
X201228861Y-96528255D01*
X202057000Y-97356395D01*
X202776933Y-96636461D01*
X209301092Y-96636461D01*
X209325144Y-97286460D01*
X209527613Y-97775264D01*
X209794468Y-97873927D01*
X210767395Y-96901000D01*
X211126605Y-96901000D01*
X212099532Y-97873927D01*
X212366387Y-97775264D01*
X212592908Y-97165539D01*
X212568856Y-96515540D01*
X212366387Y-96026736D01*
X212099532Y-95928073D01*
X211126605Y-96901000D01*
X210767395Y-96901000D01*
X209794468Y-95928073D01*
X209527613Y-96026736D01*
X209301092Y-96636461D01*
X202776933Y-96636461D01*
X202885139Y-96528255D01*
X202811005Y-96282136D01*
X202273777Y-96089035D01*
X201703546Y-96116222D01*
X201302995Y-96282136D01*
X201228861Y-96528255D01*
X199447000Y-96528255D01*
X199447000Y-96482690D01*
X199350327Y-96249301D01*
X199171698Y-96070673D01*
X198938309Y-95974000D01*
X198927502Y-95974000D01*
X199062648Y-95883698D01*
X199149310Y-95754000D01*
X199643995Y-95754000D01*
X199644000Y-95754001D01*
X199671815Y-95748468D01*
X209974073Y-95748468D01*
X210947000Y-96721395D01*
X211919927Y-95748468D01*
X211821264Y-95481613D01*
X211211539Y-95255092D01*
X210561540Y-95279144D01*
X210072736Y-95481613D01*
X209974073Y-95748468D01*
X199671815Y-95748468D01*
X199926484Y-95697810D01*
X199982675Y-95686633D01*
X200269790Y-95494790D01*
X200269791Y-95494789D01*
X201873739Y-93890840D01*
X202341187Y-93891248D01*
X202868800Y-93673243D01*
X203272824Y-93269923D01*
X203491750Y-92742691D01*
X203492248Y-92171813D01*
X203274243Y-91644200D01*
X202870923Y-91240176D01*
X202343691Y-91021250D01*
X201772813Y-91020752D01*
X201405137Y-91172673D01*
X201418001Y-91108000D01*
X201418000Y-91107995D01*
X201418000Y-85599171D01*
X201748824Y-85268923D01*
X201967750Y-84741691D01*
X201968160Y-84271420D01*
X202149581Y-84089999D01*
X204210767Y-84089999D01*
X204178250Y-84168309D01*
X204177752Y-84739187D01*
X204395757Y-85266800D01*
X204799077Y-85670824D01*
X205326309Y-85889750D01*
X205796580Y-85890160D01*
X210062000Y-90155579D01*
X210062000Y-90417602D01*
X210022057Y-90434106D01*
X209561722Y-90893637D01*
X209312284Y-91494352D01*
X209311716Y-92144795D01*
X209560106Y-92745943D01*
X210019637Y-93206278D01*
X210620352Y-93455716D01*
X211270795Y-93456284D01*
X211871943Y-93207894D01*
X212332278Y-92748363D01*
X212581716Y-92147648D01*
X212582284Y-91497205D01*
X212333894Y-90896057D01*
X211874363Y-90435722D01*
X211832000Y-90418131D01*
X211832000Y-89789005D01*
X211832001Y-89789000D01*
X211764633Y-89450325D01*
X211572790Y-89163210D01*
X211572787Y-89163208D01*
X207047840Y-84638260D01*
X207048248Y-84170813D01*
X207014856Y-84089999D01*
X207603419Y-84089999D01*
X208594208Y-85080787D01*
X208594210Y-85080790D01*
X208881325Y-85272633D01*
X209072560Y-85310672D01*
X209072560Y-85555000D01*
X209116838Y-85790317D01*
X209255910Y-86006441D01*
X209468110Y-86151431D01*
X209720000Y-86202440D01*
X211920000Y-86202440D01*
X212155317Y-86158162D01*
X212371441Y-86019090D01*
X212516431Y-85806890D01*
X212567440Y-85555000D01*
X212567440Y-83355000D01*
X212523162Y-83119683D01*
X212384090Y-82903559D01*
X212171890Y-82758569D01*
X211920000Y-82707560D01*
X209720000Y-82707560D01*
X209484683Y-82751838D01*
X209268559Y-82890910D01*
X209123569Y-83103110D01*
X209122916Y-83106336D01*
X208595789Y-82579209D01*
X208308674Y-82387366D01*
X208252483Y-82376189D01*
X207969999Y-82319998D01*
X207969994Y-82319999D01*
X201783006Y-82319999D01*
X201783001Y-82319998D01*
X201500517Y-82376189D01*
X201444326Y-82387366D01*
X201157211Y-82579209D01*
X201157209Y-82579212D01*
X200716260Y-83020160D01*
X200248813Y-83019752D01*
X199721200Y-83237757D01*
X199317176Y-83641077D01*
X199098250Y-84168309D01*
X199097752Y-84739187D01*
X199315757Y-85266800D01*
X199648000Y-85599623D01*
X199648000Y-90741421D01*
X199067643Y-91321777D01*
X199062648Y-91314302D01*
X198680562Y-91059000D01*
X199062648Y-90803698D01*
X199373717Y-90338151D01*
X199482950Y-89789000D01*
X199373717Y-89239849D01*
X199062648Y-88774302D01*
X198597101Y-88463233D01*
X198047950Y-88354000D01*
X197176050Y-88354000D01*
X196626899Y-88463233D01*
X196161352Y-88774302D01*
X195850283Y-89239849D01*
X195741050Y-89789000D01*
X195850283Y-90338151D01*
X196161352Y-90803698D01*
X196543438Y-91059000D01*
X196161352Y-91314302D01*
X195850283Y-91779849D01*
X195775943Y-92153582D01*
X189356571Y-85734210D01*
X189263830Y-85672243D01*
X189069456Y-85542367D01*
X189013265Y-85531190D01*
X188730781Y-85474999D01*
X188730776Y-85475000D01*
X185943669Y-85475000D01*
X185933090Y-85458559D01*
X185720890Y-85313569D01*
X185469000Y-85262560D01*
X184269000Y-85262560D01*
X184033683Y-85306838D01*
X183817559Y-85445910D01*
X183769866Y-85515711D01*
X183733090Y-85458559D01*
X183520890Y-85313569D01*
X183269000Y-85262560D01*
X182069000Y-85262560D01*
X181833683Y-85306838D01*
X181617559Y-85445910D01*
X181472569Y-85658110D01*
X181421560Y-85910000D01*
X181421560Y-86810000D01*
X181465838Y-87045317D01*
X181604910Y-87261441D01*
X181784000Y-87383808D01*
X181784000Y-87668995D01*
X181783999Y-87669000D01*
X181837068Y-87935790D01*
X181851367Y-88007675D01*
X181931520Y-88127633D01*
X182043210Y-88294790D01*
X183984000Y-90235579D01*
X183984000Y-90458808D01*
X183817559Y-90565910D01*
X183769866Y-90635711D01*
X183733090Y-90578559D01*
X183520890Y-90433569D01*
X183269000Y-90382560D01*
X182069000Y-90382560D01*
X181833683Y-90426838D01*
X181617559Y-90565910D01*
X181597683Y-90595000D01*
X179974669Y-90595000D01*
X179964090Y-90578559D01*
X179751890Y-90433569D01*
X179500000Y-90382560D01*
X178300000Y-90382560D01*
X178064683Y-90426838D01*
X177848559Y-90565910D01*
X177800866Y-90635711D01*
X177764090Y-90578559D01*
X177551890Y-90433569D01*
X177300000Y-90382560D01*
X176100000Y-90382560D01*
X175864683Y-90426838D01*
X175648559Y-90565910D01*
X175628683Y-90595000D01*
X172354669Y-90595000D01*
X172344090Y-90578559D01*
X172131890Y-90433569D01*
X171880000Y-90382560D01*
X170680000Y-90382560D01*
X170444683Y-90426838D01*
X170228559Y-90565910D01*
X170180866Y-90635711D01*
X170144090Y-90578559D01*
X169931890Y-90433569D01*
X169680000Y-90382560D01*
X168480000Y-90382560D01*
X168244683Y-90426838D01*
X168028559Y-90565910D01*
X168008683Y-90595000D01*
X164734669Y-90595000D01*
X164724090Y-90578559D01*
X164511890Y-90433569D01*
X164260000Y-90382560D01*
X163060000Y-90382560D01*
X162824683Y-90426838D01*
X162608559Y-90565910D01*
X162560866Y-90635711D01*
X162524090Y-90578559D01*
X162311890Y-90433569D01*
X162060000Y-90382560D01*
X160860000Y-90382560D01*
X160624683Y-90426838D01*
X160408559Y-90565910D01*
X160388683Y-90595000D01*
X157114669Y-90595000D01*
X157104090Y-90578559D01*
X156891890Y-90433569D01*
X156640000Y-90382560D01*
X155440000Y-90382560D01*
X155204683Y-90426838D01*
X154988559Y-90565910D01*
X154940866Y-90635711D01*
X154904090Y-90578559D01*
X154691890Y-90433569D01*
X154440000Y-90382560D01*
X153240000Y-90382560D01*
X153004683Y-90426838D01*
X152788559Y-90565910D01*
X152768683Y-90595000D01*
X149494669Y-90595000D01*
X149484090Y-90578559D01*
X149271890Y-90433569D01*
X149020000Y-90382560D01*
X147820000Y-90382560D01*
X147584683Y-90426838D01*
X147368559Y-90565910D01*
X147320866Y-90635711D01*
X147284090Y-90578559D01*
X147071890Y-90433569D01*
X146820000Y-90382560D01*
X145620000Y-90382560D01*
X145384683Y-90426838D01*
X145168559Y-90565910D01*
X145148683Y-90595000D01*
X141874669Y-90595000D01*
X141864090Y-90578559D01*
X141651890Y-90433569D01*
X141400000Y-90382560D01*
X140200000Y-90382560D01*
X139964683Y-90426838D01*
X139748559Y-90565910D01*
X139700866Y-90635711D01*
X139664090Y-90578559D01*
X139451890Y-90433569D01*
X139200000Y-90382560D01*
X138000000Y-90382560D01*
X137764683Y-90426838D01*
X137548559Y-90565910D01*
X137528683Y-90595000D01*
X134254669Y-90595000D01*
X134244090Y-90578559D01*
X134031890Y-90433569D01*
X133780000Y-90382560D01*
X132580000Y-90382560D01*
X132344683Y-90426838D01*
X132128559Y-90565910D01*
X132080866Y-90635711D01*
X132044090Y-90578559D01*
X131831890Y-90433569D01*
X131580000Y-90382560D01*
X130380000Y-90382560D01*
X130144683Y-90426838D01*
X129928559Y-90565910D01*
X129908683Y-90595000D01*
X129880005Y-90595000D01*
X129880000Y-90594999D01*
X129597516Y-90651190D01*
X129541325Y-90662367D01*
X129254210Y-90854210D01*
X129254208Y-90854213D01*
X127644210Y-92464210D01*
X127452367Y-92751325D01*
X127452367Y-92751326D01*
X127384999Y-93090000D01*
X127385000Y-93090005D01*
X127385000Y-94127560D01*
X125770000Y-94127560D01*
X125534683Y-94171838D01*
X125318559Y-94310910D01*
X125173569Y-94523110D01*
X125122560Y-94775000D01*
X117685000Y-94775000D01*
X117685000Y-93385320D01*
X120547285Y-93385320D01*
X120676533Y-93678123D01*
X121376806Y-93946388D01*
X122126435Y-93926250D01*
X122725467Y-93678123D01*
X122854715Y-93385320D01*
X121701000Y-92231605D01*
X120547285Y-93385320D01*
X117685000Y-93385320D01*
X117685000Y-91727806D01*
X119806612Y-91727806D01*
X119826750Y-92477435D01*
X120074877Y-93076467D01*
X120367680Y-93205715D01*
X121521395Y-92052000D01*
X121880605Y-92052000D01*
X123034320Y-93205715D01*
X123327123Y-93076467D01*
X123595388Y-92376194D01*
X123575250Y-91626565D01*
X123327123Y-91027533D01*
X123034320Y-90898285D01*
X121880605Y-92052000D01*
X121521395Y-92052000D01*
X120367680Y-90898285D01*
X120074877Y-91027533D01*
X119806612Y-91727806D01*
X117685000Y-91727806D01*
X117685000Y-90718680D01*
X120547285Y-90718680D01*
X121701000Y-91872395D01*
X122854715Y-90718680D01*
X122725467Y-90425877D01*
X122025194Y-90157612D01*
X121275565Y-90177750D01*
X120676533Y-90425877D01*
X120547285Y-90718680D01*
X117685000Y-90718680D01*
X117685000Y-81685000D01*
X216315000Y-81685000D01*
X216315000Y-115315000D01*
X216315000Y-115315000D01*
G37*
X216315000Y-115315000D02*
X214000000Y-115315000D01*
X213737862Y-115367143D01*
X213515632Y-115515632D01*
X213443891Y-115623000D01*
X117685000Y-115623000D01*
X117685000Y-110793991D01*
X186932735Y-110793991D01*
X187165932Y-111358371D01*
X187597357Y-111790551D01*
X188161330Y-112024733D01*
X188771991Y-112025265D01*
X189336371Y-111792068D01*
X189768551Y-111360643D01*
X190002733Y-110796670D01*
X190003265Y-110186009D01*
X189770068Y-109621629D01*
X189738495Y-109590000D01*
X197080560Y-109590000D01*
X197080560Y-111390000D01*
X197124838Y-111625317D01*
X197263910Y-111841441D01*
X197476110Y-111986431D01*
X197728000Y-112037440D01*
X199528000Y-112037440D01*
X199763317Y-111993162D01*
X199979441Y-111854090D01*
X200124431Y-111641890D01*
X200175440Y-111390000D01*
X200175440Y-109590000D01*
X200131162Y-109354683D01*
X199992090Y-109138559D01*
X199779890Y-108993569D01*
X199528000Y-108942560D01*
X197728000Y-108942560D01*
X197492683Y-108986838D01*
X197276559Y-109125910D01*
X197131569Y-109338110D01*
X197080560Y-109590000D01*
X189738495Y-109590000D01*
X189338643Y-109189449D01*
X188774670Y-108955267D01*
X188164009Y-108954735D01*
X187599629Y-109187932D01*
X187167449Y-109619357D01*
X186933267Y-110183330D01*
X186932735Y-110793991D01*
X117685000Y-110793991D01*
X117685000Y-105425305D01*
X119815674Y-105425305D01*
X120102043Y-106118372D01*
X120631839Y-106649093D01*
X121324405Y-106936672D01*
X122074305Y-106937326D01*
X122767372Y-106650957D01*
X123298093Y-106121161D01*
X123585672Y-105428595D01*
X123586326Y-104678695D01*
X123299957Y-103985628D01*
X122770161Y-103454907D01*
X122077595Y-103167328D01*
X121327695Y-103166674D01*
X120634628Y-103453043D01*
X120103907Y-103982839D01*
X119816328Y-104675405D01*
X119815674Y-105425305D01*
X117685000Y-105425305D01*
X117685000Y-94775000D01*
X125122560Y-94775000D01*
X125122560Y-109775000D01*
X125166838Y-110010317D01*
X125305910Y-110226441D01*
X125518110Y-110371431D01*
X125770000Y-110422440D01*
X130770000Y-110422440D01*
X131005317Y-110378162D01*
X131221441Y-110239090D01*
X131366431Y-110026890D01*
X131417440Y-109775000D01*
X131417440Y-94775000D01*
X131373162Y-94539683D01*
X131234090Y-94323559D01*
X131021890Y-94178569D01*
X130770000Y-94127560D01*
X129155000Y-94127560D01*
X129155000Y-93456580D01*
X130102587Y-92508992D01*
X130128110Y-92526431D01*
X130380000Y-92577440D01*
X131580000Y-92577440D01*
X131815317Y-92533162D01*
X132031441Y-92394090D01*
X132079134Y-92324289D01*
X132115910Y-92381441D01*
X132328110Y-92526431D01*
X132580000Y-92577440D01*
X133780000Y-92577440D01*
X134015317Y-92533162D01*
X134231441Y-92394090D01*
X134251317Y-92365000D01*
X135005000Y-92365000D01*
X135005000Y-94127560D01*
X133390000Y-94127560D01*
X133154683Y-94171838D01*
X132938559Y-94310910D01*
X132793569Y-94523110D01*
X132742560Y-94775000D01*
X132742560Y-109775000D01*
X132786838Y-110010317D01*
X132925910Y-110226441D01*
X133138110Y-110371431D01*
X133390000Y-110422440D01*
X138390000Y-110422440D01*
X138625317Y-110378162D01*
X138841441Y-110239090D01*
X138986431Y-110026890D01*
X139037440Y-109775000D01*
X139037440Y-94775000D01*
X138993162Y-94539683D01*
X138854090Y-94323559D01*
X138641890Y-94178569D01*
X138390000Y-94127560D01*
X136775000Y-94127560D01*
X136775000Y-92365000D01*
X137525331Y-92365000D01*
X137535910Y-92381441D01*
X137748110Y-92526431D01*
X138000000Y-92577440D01*
X139200000Y-92577440D01*
X139435317Y-92533162D01*
X139651441Y-92394090D01*
X139699134Y-92324289D01*
X139735910Y-92381441D01*
X139948110Y-92526431D01*
X140200000Y-92577440D01*
X141400000Y-92577440D01*
X141635317Y-92533162D01*
X141851441Y-92394090D01*
X141871317Y-92365000D01*
X142625000Y-92365000D01*
X142625000Y-94127560D01*
X141010000Y-94127560D01*
X140774683Y-94171838D01*
X140558559Y-94310910D01*
X140413569Y-94523110D01*
X140362560Y-94775000D01*
X140362560Y-109775000D01*
X140406838Y-110010317D01*
X140545910Y-110226441D01*
X140758110Y-110371431D01*
X141010000Y-110422440D01*
X146010000Y-110422440D01*
X146245317Y-110378162D01*
X146461441Y-110239090D01*
X146606431Y-110026890D01*
X146657440Y-109775000D01*
X146657440Y-94775000D01*
X146613162Y-94539683D01*
X146474090Y-94323559D01*
X146261890Y-94178569D01*
X146010000Y-94127560D01*
X144395000Y-94127560D01*
X144395000Y-92365000D01*
X145145331Y-92365000D01*
X145155910Y-92381441D01*
X145368110Y-92526431D01*
X145620000Y-92577440D01*
X146820000Y-92577440D01*
X147055317Y-92533162D01*
X147271441Y-92394090D01*
X147319134Y-92324289D01*
X147355910Y-92381441D01*
X147568110Y-92526431D01*
X147820000Y-92577440D01*
X149020000Y-92577440D01*
X149255317Y-92533162D01*
X149471441Y-92394090D01*
X149491317Y-92365000D01*
X150245000Y-92365000D01*
X150245000Y-94127560D01*
X148630000Y-94127560D01*
X148394683Y-94171838D01*
X148178559Y-94310910D01*
X148033569Y-94523110D01*
X147982560Y-94775000D01*
X147982560Y-109775000D01*
X148026838Y-110010317D01*
X148165910Y-110226441D01*
X148378110Y-110371431D01*
X148630000Y-110422440D01*
X153630000Y-110422440D01*
X153865317Y-110378162D01*
X154081441Y-110239090D01*
X154226431Y-110026890D01*
X154277440Y-109775000D01*
X154277440Y-94775000D01*
X154233162Y-94539683D01*
X154094090Y-94323559D01*
X153881890Y-94178569D01*
X153630000Y-94127560D01*
X152015000Y-94127560D01*
X152015000Y-92365000D01*
X152765331Y-92365000D01*
X152775910Y-92381441D01*
X152988110Y-92526431D01*
X153240000Y-92577440D01*
X154440000Y-92577440D01*
X154675317Y-92533162D01*
X154891441Y-92394090D01*
X154939134Y-92324289D01*
X154975910Y-92381441D01*
X155188110Y-92526431D01*
X155440000Y-92577440D01*
X156640000Y-92577440D01*
X156875317Y-92533162D01*
X157091441Y-92394090D01*
X157111317Y-92365000D01*
X157865000Y-92365000D01*
X157865000Y-94127560D01*
X156250000Y-94127560D01*
X156014683Y-94171838D01*
X155798559Y-94310910D01*
X155653569Y-94523110D01*
X155602560Y-94775000D01*
X155602560Y-109775000D01*
X155646838Y-110010317D01*
X155785910Y-110226441D01*
X155998110Y-110371431D01*
X156250000Y-110422440D01*
X161250000Y-110422440D01*
X161485317Y-110378162D01*
X161701441Y-110239090D01*
X161846431Y-110026890D01*
X161897440Y-109775000D01*
X161897440Y-94775000D01*
X161853162Y-94539683D01*
X161714090Y-94323559D01*
X161501890Y-94178569D01*
X161250000Y-94127560D01*
X159635000Y-94127560D01*
X159635000Y-92365000D01*
X160385331Y-92365000D01*
X160395910Y-92381441D01*
X160608110Y-92526431D01*
X160860000Y-92577440D01*
X162060000Y-92577440D01*
X162295317Y-92533162D01*
X162511441Y-92394090D01*
X162559134Y-92324289D01*
X162595910Y-92381441D01*
X162808110Y-92526431D01*
X163060000Y-92577440D01*
X164260000Y-92577440D01*
X164495317Y-92533162D01*
X164711441Y-92394090D01*
X164731317Y-92365000D01*
X165485000Y-92365000D01*
X165485000Y-94127560D01*
X163870000Y-94127560D01*
X163634683Y-94171838D01*
X163418559Y-94310910D01*
X163273569Y-94523110D01*
X163222560Y-94775000D01*
X163222560Y-109775000D01*
X163266838Y-110010317D01*
X163405910Y-110226441D01*
X163618110Y-110371431D01*
X163870000Y-110422440D01*
X168870000Y-110422440D01*
X169105317Y-110378162D01*
X169321441Y-110239090D01*
X169466431Y-110026890D01*
X169517440Y-109775000D01*
X169517440Y-94775000D01*
X169473162Y-94539683D01*
X169334090Y-94323559D01*
X169121890Y-94178569D01*
X168870000Y-94127560D01*
X167255000Y-94127560D01*
X167255000Y-92365000D01*
X168005331Y-92365000D01*
X168015910Y-92381441D01*
X168228110Y-92526431D01*
X168480000Y-92577440D01*
X169680000Y-92577440D01*
X169915317Y-92533162D01*
X170131441Y-92394090D01*
X170179134Y-92324289D01*
X170215910Y-92381441D01*
X170428110Y-92526431D01*
X170680000Y-92577440D01*
X171880000Y-92577440D01*
X172115317Y-92533162D01*
X172331441Y-92394090D01*
X172351317Y-92365000D01*
X173105000Y-92365000D01*
X173105000Y-94127560D01*
X171490000Y-94127560D01*
X171254683Y-94171838D01*
X171038559Y-94310910D01*
X170893569Y-94523110D01*
X170842560Y-94775000D01*
X170842560Y-109775000D01*
X170886838Y-110010317D01*
X171025910Y-110226441D01*
X171238110Y-110371431D01*
X171490000Y-110422440D01*
X176490000Y-110422440D01*
X176725317Y-110378162D01*
X176941441Y-110239090D01*
X177086431Y-110026890D01*
X177137440Y-109775000D01*
X177137440Y-94775000D01*
X177093162Y-94539683D01*
X176954090Y-94323559D01*
X176741890Y-94178569D01*
X176490000Y-94127560D01*
X174875000Y-94127560D01*
X174875000Y-92365000D01*
X175625331Y-92365000D01*
X175635910Y-92381441D01*
X175848110Y-92526431D01*
X176100000Y-92577440D01*
X177300000Y-92577440D01*
X177535317Y-92533162D01*
X177751441Y-92394090D01*
X177799134Y-92324289D01*
X177835910Y-92381441D01*
X178048110Y-92526431D01*
X178300000Y-92577440D01*
X178895860Y-92577440D01*
X180445981Y-94127560D01*
X179110000Y-94127560D01*
X178874683Y-94171838D01*
X178658559Y-94310910D01*
X178513569Y-94523110D01*
X178462560Y-94775000D01*
X178462560Y-109775000D01*
X178506838Y-110010317D01*
X178645910Y-110226441D01*
X178858110Y-110371431D01*
X179110000Y-110422440D01*
X184110000Y-110422440D01*
X184345317Y-110378162D01*
X184561441Y-110239090D01*
X184706431Y-110026890D01*
X184757440Y-109775000D01*
X184757440Y-106838750D01*
X186933000Y-106838750D01*
X186933000Y-107579310D01*
X187029673Y-107812699D01*
X187208302Y-107991327D01*
X187441691Y-108088000D01*
X188182250Y-108088000D01*
X188341000Y-107929250D01*
X188341000Y-106680000D01*
X188595000Y-106680000D01*
X188595000Y-107929250D01*
X188753750Y-108088000D01*
X189494309Y-108088000D01*
X189727698Y-107991327D01*
X189906327Y-107812699D01*
X190003000Y-107579310D01*
X190003000Y-106838750D01*
X189844250Y-106680000D01*
X188595000Y-106680000D01*
X188341000Y-106680000D01*
X187091750Y-106680000D01*
X186933000Y-106838750D01*
X184757440Y-106838750D01*
X184757440Y-105526690D01*
X186933000Y-105526690D01*
X186933000Y-106267250D01*
X187091750Y-106426000D01*
X188341000Y-106426000D01*
X188341000Y-105176750D01*
X188595000Y-105176750D01*
X188595000Y-106426000D01*
X189844250Y-106426000D01*
X190003000Y-106267250D01*
X190003000Y-105526690D01*
X189906327Y-105293301D01*
X189727698Y-105114673D01*
X189494309Y-105018000D01*
X188753750Y-105018000D01*
X188595000Y-105176750D01*
X188341000Y-105176750D01*
X188182250Y-105018000D01*
X187441691Y-105018000D01*
X187208302Y-105114673D01*
X187029673Y-105293301D01*
X186933000Y-105526690D01*
X184757440Y-105526690D01*
X184757440Y-102919991D01*
X186932735Y-102919991D01*
X187165932Y-103484371D01*
X187597357Y-103916551D01*
X188161330Y-104150733D01*
X188771991Y-104151265D01*
X189336371Y-103918068D01*
X189768551Y-103486643D01*
X190002733Y-102922670D01*
X190003265Y-102312009D01*
X189770068Y-101747629D01*
X189738495Y-101716000D01*
X197080560Y-101716000D01*
X197080560Y-103516000D01*
X197124838Y-103751317D01*
X197263910Y-103967441D01*
X197476110Y-104112431D01*
X197728000Y-104163440D01*
X197772327Y-104163440D01*
X197793803Y-104271405D01*
X197810367Y-104354675D01*
X198002210Y-104641790D01*
X198378202Y-105017782D01*
X198324009Y-105017735D01*
X197759629Y-105250932D01*
X197327449Y-105682357D01*
X197093267Y-106246330D01*
X197092735Y-106856991D01*
X197325932Y-107421371D01*
X197757357Y-107853551D01*
X198321330Y-108087733D01*
X198931991Y-108088265D01*
X199496371Y-107855068D01*
X199928551Y-107423643D01*
X200162733Y-106859670D01*
X200162783Y-106802363D01*
X203714208Y-110353787D01*
X203714210Y-110353790D01*
X204001325Y-110545633D01*
X204057516Y-110556810D01*
X204340000Y-110613001D01*
X204340005Y-110613000D01*
X205590102Y-110613000D01*
X205665043Y-110794372D01*
X206194839Y-111325093D01*
X206887405Y-111612672D01*
X207637305Y-111613326D01*
X208330372Y-111326957D01*
X208861093Y-110797161D01*
X209148672Y-110104595D01*
X209149326Y-109354695D01*
X208862957Y-108661628D01*
X208333161Y-108130907D01*
X207640595Y-107843328D01*
X206890695Y-107842674D01*
X206197628Y-108129043D01*
X205666907Y-108658839D01*
X205590437Y-108843000D01*
X204706579Y-108843000D01*
X200884885Y-105021305D01*
X202838674Y-105021305D01*
X203125043Y-105714372D01*
X203654839Y-106245093D01*
X204347405Y-106532672D01*
X205097305Y-106533326D01*
X205790372Y-106246957D01*
X206321093Y-105717161D01*
X206608672Y-105024595D01*
X206608674Y-105021305D01*
X207918674Y-105021305D01*
X208205043Y-105714372D01*
X208734839Y-106245093D01*
X209427405Y-106532672D01*
X210177305Y-106533326D01*
X210870372Y-106246957D01*
X211401093Y-105717161D01*
X211688672Y-105024595D01*
X211689326Y-104274695D01*
X211402957Y-103581628D01*
X210873161Y-103050907D01*
X210180595Y-102763328D01*
X209430695Y-102762674D01*
X208737628Y-103049043D01*
X208206907Y-103578839D01*
X207919328Y-104271405D01*
X207918674Y-105021305D01*
X206608674Y-105021305D01*
X206609326Y-104274695D01*
X206322957Y-103581628D01*
X205793161Y-103050907D01*
X205100595Y-102763328D01*
X204350695Y-102762674D01*
X203657628Y-103049043D01*
X203126907Y-103578839D01*
X202839328Y-104271405D01*
X202838674Y-105021305D01*
X200884885Y-105021305D01*
X199896829Y-104033249D01*
X199979441Y-103980090D01*
X200124431Y-103767890D01*
X200175440Y-103516000D01*
X200175440Y-101716000D01*
X200131162Y-101480683D01*
X199992090Y-101264559D01*
X199779890Y-101119569D01*
X199528000Y-101068560D01*
X197728000Y-101068560D01*
X197492683Y-101112838D01*
X197276559Y-101251910D01*
X197131569Y-101464110D01*
X197080560Y-101716000D01*
X189738495Y-101716000D01*
X189338643Y-101315449D01*
X188774670Y-101081267D01*
X188164009Y-101080735D01*
X187599629Y-101313932D01*
X187167449Y-101745357D01*
X186933267Y-102309330D01*
X186932735Y-102919991D01*
X184757440Y-102919991D01*
X184757440Y-94775000D01*
X184713162Y-94539683D01*
X184574090Y-94323559D01*
X184361890Y-94178569D01*
X184110000Y-94127560D01*
X182495000Y-94127560D01*
X182495000Y-94040005D01*
X182495001Y-94040000D01*
X182427633Y-93701326D01*
X182427633Y-93701325D01*
X182235790Y-93414210D01*
X182235787Y-93414208D01*
X181186579Y-92365000D01*
X181594331Y-92365000D01*
X181604910Y-92381441D01*
X181817110Y-92526431D01*
X182069000Y-92577440D01*
X183269000Y-92577440D01*
X183504317Y-92533162D01*
X183720441Y-92394090D01*
X183768134Y-92324289D01*
X183804910Y-92381441D01*
X184017110Y-92526431D01*
X184269000Y-92577440D01*
X185469000Y-92577440D01*
X185704317Y-92533162D01*
X185920441Y-92394090D01*
X186065431Y-92181890D01*
X186116440Y-91930000D01*
X186116440Y-91030000D01*
X186072162Y-90794683D01*
X185933090Y-90578559D01*
X185754000Y-90456192D01*
X185754000Y-89869005D01*
X185754001Y-89869000D01*
X185686633Y-89530326D01*
X185686633Y-89530325D01*
X185494790Y-89243210D01*
X185494787Y-89243208D01*
X183601930Y-87350350D01*
X183720441Y-87274090D01*
X183768134Y-87204289D01*
X183804910Y-87261441D01*
X184000990Y-87395417D01*
X184040190Y-87592484D01*
X184051367Y-87648675D01*
X184064948Y-87669000D01*
X184243210Y-87935790D01*
X188206556Y-91899135D01*
X188121050Y-92329000D01*
X188230283Y-92878151D01*
X188541352Y-93343698D01*
X188923438Y-93599000D01*
X188541352Y-93854302D01*
X188230283Y-94319849D01*
X188121050Y-94869000D01*
X188230283Y-95418151D01*
X188541352Y-95883698D01*
X188923438Y-96139000D01*
X188541352Y-96394302D01*
X188230283Y-96859849D01*
X188121050Y-97409000D01*
X188230283Y-97958151D01*
X188541352Y-98423698D01*
X189006899Y-98734767D01*
X189556050Y-98844000D01*
X190427950Y-98844000D01*
X190977101Y-98734767D01*
X191442648Y-98423698D01*
X191753717Y-97958151D01*
X191806110Y-97694750D01*
X195777000Y-97694750D01*
X195777000Y-98335310D01*
X195873673Y-98568699D01*
X196052302Y-98747327D01*
X196285691Y-98844000D01*
X197326250Y-98844000D01*
X197485000Y-98685250D01*
X197485000Y-97536000D01*
X197739000Y-97536000D01*
X197739000Y-98685250D01*
X197897750Y-98844000D01*
X198938309Y-98844000D01*
X199171698Y-98747327D01*
X199350327Y-98568699D01*
X199360663Y-98543745D01*
X201228861Y-98543745D01*
X201302995Y-98789864D01*
X201840223Y-98982965D01*
X202410454Y-98955778D01*
X202811005Y-98789864D01*
X202885139Y-98543745D01*
X202057000Y-97715605D01*
X201228861Y-98543745D01*
X199360663Y-98543745D01*
X199447000Y-98335310D01*
X199447000Y-97694750D01*
X199288250Y-97536000D01*
X197739000Y-97536000D01*
X197485000Y-97536000D01*
X195935750Y-97536000D01*
X195777000Y-97694750D01*
X191806110Y-97694750D01*
X191862950Y-97409000D01*
X191845093Y-97319223D01*
X200610035Y-97319223D01*
X200637222Y-97889454D01*
X200803136Y-98290005D01*
X201049255Y-98364139D01*
X201877395Y-97536000D01*
X202236605Y-97536000D01*
X203064745Y-98364139D01*
X203310864Y-98290005D01*
X203395861Y-98053532D01*
X209974073Y-98053532D01*
X210072736Y-98320387D01*
X210682461Y-98546908D01*
X211332460Y-98522856D01*
X211821264Y-98320387D01*
X211919927Y-98053532D01*
X210947000Y-97080605D01*
X209974073Y-98053532D01*
X203395861Y-98053532D01*
X203503965Y-97752777D01*
X203476778Y-97182546D01*
X203310864Y-96781995D01*
X203064745Y-96707861D01*
X202236605Y-97536000D01*
X201877395Y-97536000D01*
X201049255Y-96707861D01*
X200803136Y-96781995D01*
X200610035Y-97319223D01*
X191845093Y-97319223D01*
X191753717Y-96859849D01*
X191442648Y-96394302D01*
X191060562Y-96139000D01*
X191442648Y-95883698D01*
X191753717Y-95418151D01*
X191862950Y-94869000D01*
X191753717Y-94319849D01*
X191442648Y-93854302D01*
X191060562Y-93599000D01*
X191442648Y-93343698D01*
X191753717Y-92878151D01*
X191862950Y-92329000D01*
X191753717Y-91779849D01*
X191442648Y-91314302D01*
X191060562Y-91059000D01*
X191442648Y-90803698D01*
X191635010Y-90515808D01*
X195782055Y-94662853D01*
X195741050Y-94869000D01*
X195850283Y-95418151D01*
X196161352Y-95883698D01*
X196296498Y-95974000D01*
X196285691Y-95974000D01*
X196052302Y-96070673D01*
X195873673Y-96249301D01*
X195777000Y-96482690D01*
X195777000Y-97123250D01*
X195935750Y-97282000D01*
X197485000Y-97282000D01*
X197485000Y-97262000D01*
X197739000Y-97262000D01*
X197739000Y-97282000D01*
X199288250Y-97282000D01*
X199447000Y-97123250D01*
X199447000Y-96528255D01*
X201228861Y-96528255D01*
X202057000Y-97356395D01*
X202776933Y-96636461D01*
X209301092Y-96636461D01*
X209325144Y-97286460D01*
X209527613Y-97775264D01*
X209794468Y-97873927D01*
X210767395Y-96901000D01*
X211126605Y-96901000D01*
X212099532Y-97873927D01*
X212366387Y-97775264D01*
X212592908Y-97165539D01*
X212568856Y-96515540D01*
X212366387Y-96026736D01*
X212099532Y-95928073D01*
X211126605Y-96901000D01*
X210767395Y-96901000D01*
X209794468Y-95928073D01*
X209527613Y-96026736D01*
X209301092Y-96636461D01*
X202776933Y-96636461D01*
X202885139Y-96528255D01*
X202811005Y-96282136D01*
X202273777Y-96089035D01*
X201703546Y-96116222D01*
X201302995Y-96282136D01*
X201228861Y-96528255D01*
X199447000Y-96528255D01*
X199447000Y-96482690D01*
X199350327Y-96249301D01*
X199171698Y-96070673D01*
X198938309Y-95974000D01*
X198927502Y-95974000D01*
X199062648Y-95883698D01*
X199149310Y-95754000D01*
X199643995Y-95754000D01*
X199644000Y-95754001D01*
X199671815Y-95748468D01*
X209974073Y-95748468D01*
X210947000Y-96721395D01*
X211919927Y-95748468D01*
X211821264Y-95481613D01*
X211211539Y-95255092D01*
X210561540Y-95279144D01*
X210072736Y-95481613D01*
X209974073Y-95748468D01*
X199671815Y-95748468D01*
X199926484Y-95697810D01*
X199982675Y-95686633D01*
X200269790Y-95494790D01*
X200269791Y-95494789D01*
X201873739Y-93890840D01*
X202341187Y-93891248D01*
X202868800Y-93673243D01*
X203272824Y-93269923D01*
X203491750Y-92742691D01*
X203492248Y-92171813D01*
X203274243Y-91644200D01*
X202870923Y-91240176D01*
X202343691Y-91021250D01*
X201772813Y-91020752D01*
X201405137Y-91172673D01*
X201418001Y-91108000D01*
X201418000Y-91107995D01*
X201418000Y-85599171D01*
X201748824Y-85268923D01*
X201967750Y-84741691D01*
X201968160Y-84271420D01*
X202149581Y-84089999D01*
X204210767Y-84089999D01*
X204178250Y-84168309D01*
X204177752Y-84739187D01*
X204395757Y-85266800D01*
X204799077Y-85670824D01*
X205326309Y-85889750D01*
X205796580Y-85890160D01*
X210062000Y-90155579D01*
X210062000Y-90417602D01*
X210022057Y-90434106D01*
X209561722Y-90893637D01*
X209312284Y-91494352D01*
X209311716Y-92144795D01*
X209560106Y-92745943D01*
X210019637Y-93206278D01*
X210620352Y-93455716D01*
X211270795Y-93456284D01*
X211871943Y-93207894D01*
X212332278Y-92748363D01*
X212581716Y-92147648D01*
X212582284Y-91497205D01*
X212333894Y-90896057D01*
X211874363Y-90435722D01*
X211832000Y-90418131D01*
X211832000Y-89789005D01*
X211832001Y-89789000D01*
X211764633Y-89450325D01*
X211572790Y-89163210D01*
X211572787Y-89163208D01*
X207047840Y-84638260D01*
X207048248Y-84170813D01*
X207014856Y-84089999D01*
X207603419Y-84089999D01*
X208594208Y-85080787D01*
X208594210Y-85080790D01*
X208881325Y-85272633D01*
X209072560Y-85310672D01*
X209072560Y-85555000D01*
X209116838Y-85790317D01*
X209255910Y-86006441D01*
X209468110Y-86151431D01*
X209720000Y-86202440D01*
X211920000Y-86202440D01*
X212155317Y-86158162D01*
X212371441Y-86019090D01*
X212516431Y-85806890D01*
X212567440Y-85555000D01*
X212567440Y-83355000D01*
X212523162Y-83119683D01*
X212384090Y-82903559D01*
X212171890Y-82758569D01*
X211920000Y-82707560D01*
X209720000Y-82707560D01*
X209484683Y-82751838D01*
X209268559Y-82890910D01*
X209123569Y-83103110D01*
X209122916Y-83106336D01*
X208595789Y-82579209D01*
X208308674Y-82387366D01*
X208252483Y-82376189D01*
X207969999Y-82319998D01*
X207969994Y-82319999D01*
X201783006Y-82319999D01*
X201783001Y-82319998D01*
X201500517Y-82376189D01*
X201444326Y-82387366D01*
X201157211Y-82579209D01*
X201157209Y-82579212D01*
X200716260Y-83020160D01*
X200248813Y-83019752D01*
X199721200Y-83237757D01*
X199317176Y-83641077D01*
X199098250Y-84168309D01*
X199097752Y-84739187D01*
X199315757Y-85266800D01*
X199648000Y-85599623D01*
X199648000Y-90741421D01*
X199067643Y-91321777D01*
X199062648Y-91314302D01*
X198680562Y-91059000D01*
X199062648Y-90803698D01*
X199373717Y-90338151D01*
X199482950Y-89789000D01*
X199373717Y-89239849D01*
X199062648Y-88774302D01*
X198597101Y-88463233D01*
X198047950Y-88354000D01*
X197176050Y-88354000D01*
X196626899Y-88463233D01*
X196161352Y-88774302D01*
X195850283Y-89239849D01*
X195741050Y-89789000D01*
X195850283Y-90338151D01*
X196161352Y-90803698D01*
X196543438Y-91059000D01*
X196161352Y-91314302D01*
X195850283Y-91779849D01*
X195775943Y-92153582D01*
X189356571Y-85734210D01*
X189263830Y-85672243D01*
X189069456Y-85542367D01*
X189013265Y-85531190D01*
X188730781Y-85474999D01*
X188730776Y-85475000D01*
X185943669Y-85475000D01*
X185933090Y-85458559D01*
X185720890Y-85313569D01*
X185469000Y-85262560D01*
X184269000Y-85262560D01*
X184033683Y-85306838D01*
X183817559Y-85445910D01*
X183769866Y-85515711D01*
X183733090Y-85458559D01*
X183520890Y-85313569D01*
X183269000Y-85262560D01*
X182069000Y-85262560D01*
X181833683Y-85306838D01*
X181617559Y-85445910D01*
X181472569Y-85658110D01*
X181421560Y-85910000D01*
X181421560Y-86810000D01*
X181465838Y-87045317D01*
X181604910Y-87261441D01*
X181784000Y-87383808D01*
X181784000Y-87668995D01*
X181783999Y-87669000D01*
X181837068Y-87935790D01*
X181851367Y-88007675D01*
X181931520Y-88127633D01*
X182043210Y-88294790D01*
X183984000Y-90235579D01*
X183984000Y-90458808D01*
X183817559Y-90565910D01*
X183769866Y-90635711D01*
X183733090Y-90578559D01*
X183520890Y-90433569D01*
X183269000Y-90382560D01*
X182069000Y-90382560D01*
X181833683Y-90426838D01*
X181617559Y-90565910D01*
X181597683Y-90595000D01*
X179974669Y-90595000D01*
X179964090Y-90578559D01*
X179751890Y-90433569D01*
X179500000Y-90382560D01*
X178300000Y-90382560D01*
X178064683Y-90426838D01*
X177848559Y-90565910D01*
X177800866Y-90635711D01*
X177764090Y-90578559D01*
X177551890Y-90433569D01*
X177300000Y-90382560D01*
X176100000Y-90382560D01*
X175864683Y-90426838D01*
X175648559Y-90565910D01*
X175628683Y-90595000D01*
X172354669Y-90595000D01*
X172344090Y-90578559D01*
X172131890Y-90433569D01*
X171880000Y-90382560D01*
X170680000Y-90382560D01*
X170444683Y-90426838D01*
X170228559Y-90565910D01*
X170180866Y-90635711D01*
X170144090Y-90578559D01*
X169931890Y-90433569D01*
X169680000Y-90382560D01*
X168480000Y-90382560D01*
X168244683Y-90426838D01*
X168028559Y-90565910D01*
X168008683Y-90595000D01*
X164734669Y-90595000D01*
X164724090Y-90578559D01*
X164511890Y-90433569D01*
X164260000Y-90382560D01*
X163060000Y-90382560D01*
X162824683Y-90426838D01*
X162608559Y-90565910D01*
X162560866Y-90635711D01*
X162524090Y-90578559D01*
X162311890Y-90433569D01*
X162060000Y-90382560D01*
X160860000Y-90382560D01*
X160624683Y-90426838D01*
X160408559Y-90565910D01*
X160388683Y-90595000D01*
X157114669Y-90595000D01*
X157104090Y-90578559D01*
X156891890Y-90433569D01*
X156640000Y-90382560D01*
X155440000Y-90382560D01*
X155204683Y-90426838D01*
X154988559Y-90565910D01*
X154940866Y-90635711D01*
X154904090Y-90578559D01*
X154691890Y-90433569D01*
X154440000Y-90382560D01*
X153240000Y-90382560D01*
X153004683Y-90426838D01*
X152788559Y-90565910D01*
X152768683Y-90595000D01*
X149494669Y-90595000D01*
X149484090Y-90578559D01*
X149271890Y-90433569D01*
X149020000Y-90382560D01*
X147820000Y-90382560D01*
X147584683Y-90426838D01*
X147368559Y-90565910D01*
X147320866Y-90635711D01*
X147284090Y-90578559D01*
X147071890Y-90433569D01*
X146820000Y-90382560D01*
X145620000Y-90382560D01*
X145384683Y-90426838D01*
X145168559Y-90565910D01*
X145148683Y-90595000D01*
X141874669Y-90595000D01*
X141864090Y-90578559D01*
X141651890Y-90433569D01*
X141400000Y-90382560D01*
X140200000Y-90382560D01*
X139964683Y-90426838D01*
X139748559Y-90565910D01*
X139700866Y-90635711D01*
X139664090Y-90578559D01*
X139451890Y-90433569D01*
X139200000Y-90382560D01*
X138000000Y-90382560D01*
X137764683Y-90426838D01*
X137548559Y-90565910D01*
X137528683Y-90595000D01*
X134254669Y-90595000D01*
X134244090Y-90578559D01*
X134031890Y-90433569D01*
X133780000Y-90382560D01*
X132580000Y-90382560D01*
X132344683Y-90426838D01*
X132128559Y-90565910D01*
X132080866Y-90635711D01*
X132044090Y-90578559D01*
X131831890Y-90433569D01*
X131580000Y-90382560D01*
X130380000Y-90382560D01*
X130144683Y-90426838D01*
X129928559Y-90565910D01*
X129908683Y-90595000D01*
X129880005Y-90595000D01*
X129880000Y-90594999D01*
X129597516Y-90651190D01*
X129541325Y-90662367D01*
X129254210Y-90854210D01*
X129254208Y-90854213D01*
X127644210Y-92464210D01*
X127452367Y-92751325D01*
X127452367Y-92751326D01*
X127384999Y-93090000D01*
X127385000Y-93090005D01*
X127385000Y-94127560D01*
X125770000Y-94127560D01*
X125534683Y-94171838D01*
X125318559Y-94310910D01*
X125173569Y-94523110D01*
X125122560Y-94775000D01*
X117685000Y-94775000D01*
X117685000Y-93385320D01*
X120547285Y-93385320D01*
X120676533Y-93678123D01*
X121376806Y-93946388D01*
X122126435Y-93926250D01*
X122725467Y-93678123D01*
X122854715Y-93385320D01*
X121701000Y-92231605D01*
X120547285Y-93385320D01*
X117685000Y-93385320D01*
X117685000Y-91727806D01*
X119806612Y-91727806D01*
X119826750Y-92477435D01*
X120074877Y-93076467D01*
X120367680Y-93205715D01*
X121521395Y-92052000D01*
X121880605Y-92052000D01*
X123034320Y-93205715D01*
X123327123Y-93076467D01*
X123595388Y-92376194D01*
X123575250Y-91626565D01*
X123327123Y-91027533D01*
X123034320Y-90898285D01*
X121880605Y-92052000D01*
X121521395Y-92052000D01*
X120367680Y-90898285D01*
X120074877Y-91027533D01*
X119806612Y-91727806D01*
X117685000Y-91727806D01*
X117685000Y-90718680D01*
X120547285Y-90718680D01*
X121701000Y-91872395D01*
X122854715Y-90718680D01*
X122725467Y-90425877D01*
X122025194Y-90157612D01*
X121275565Y-90177750D01*
X120676533Y-90425877D01*
X120547285Y-90718680D01*
X117685000Y-90718680D01*
X117685000Y-81685000D01*
X216315000Y-81685000D01*
X216315000Y-115315000D01*
M02*
