G04 #@! TF.FileFunction,Legend,Top*
%FSLAX46Y46*%
G04 Gerber Fmt 4.6, Leading zero omitted, Abs format (unit mm)*
G04 Created by KiCad (PCBNEW 4.0.2-stable) date 2017/04/14 20:47:14*
%MOMM*%
G01*
G04 APERTURE LIST*
%ADD10C,0.100000*%
%ADD11C,0.200000*%
%ADD12C,0.300000*%
%ADD13C,0.150000*%
%ADD14C,0.120000*%
%ADD15C,0.010000*%
%ADD16C,2.500000*%
%ADD17C,1.600000*%
%ADD18C,1.800000*%
%ADD19R,1.800000X1.800000*%
%ADD20R,1.200000X0.900000*%
%ADD21C,2.000000*%
%ADD22R,2.200000X2.200000*%
%ADD23R,2.400000X1.600000*%
%ADD24O,2.400000X1.600000*%
%ADD25R,5.000000X15.000000*%
G04 APERTURE END LIST*
D10*
D11*
X117000000Y-116000000D02*
X214000000Y-116000000D01*
D12*
X152000000Y-87357143D02*
X152214286Y-87428571D01*
X152571429Y-87428571D01*
X152714286Y-87357143D01*
X152785715Y-87285714D01*
X152857143Y-87142857D01*
X152857143Y-87000000D01*
X152785715Y-86857143D01*
X152714286Y-86785714D01*
X152571429Y-86714286D01*
X152285715Y-86642857D01*
X152142857Y-86571429D01*
X152071429Y-86500000D01*
X152000000Y-86357143D01*
X152000000Y-86214286D01*
X152071429Y-86071429D01*
X152142857Y-86000000D01*
X152285715Y-85928571D01*
X152642857Y-85928571D01*
X152857143Y-86000000D01*
X153285714Y-86428571D02*
X153857143Y-86428571D01*
X153500000Y-85928571D02*
X153500000Y-87214286D01*
X153571428Y-87357143D01*
X153714286Y-87428571D01*
X153857143Y-87428571D01*
X154214286Y-86428571D02*
X154571429Y-87428571D01*
X154928571Y-86428571D02*
X154571429Y-87428571D01*
X154428571Y-87785714D01*
X154357143Y-87857143D01*
X154214286Y-87928571D01*
X155714286Y-87428571D02*
X155571428Y-87357143D01*
X155500000Y-87214286D01*
X155500000Y-85928571D01*
X156928571Y-86428571D02*
X156928571Y-87428571D01*
X156285714Y-86428571D02*
X156285714Y-87214286D01*
X156357142Y-87357143D01*
X156500000Y-87428571D01*
X156714285Y-87428571D01*
X156857142Y-87357143D01*
X156928571Y-87285714D01*
X157571428Y-87357143D02*
X157714285Y-87428571D01*
X158000000Y-87428571D01*
X158142857Y-87357143D01*
X158214285Y-87214286D01*
X158214285Y-87142857D01*
X158142857Y-87000000D01*
X158000000Y-86928571D01*
X157785714Y-86928571D01*
X157642857Y-86857143D01*
X157571428Y-86714286D01*
X157571428Y-86642857D01*
X157642857Y-86500000D01*
X157785714Y-86428571D01*
X158000000Y-86428571D01*
X158142857Y-86500000D01*
X160000000Y-86428571D02*
X160000000Y-87928571D01*
X160000000Y-86500000D02*
X160142857Y-86428571D01*
X160428571Y-86428571D01*
X160571428Y-86500000D01*
X160642857Y-86571429D01*
X160714286Y-86714286D01*
X160714286Y-87142857D01*
X160642857Y-87285714D01*
X160571428Y-87357143D01*
X160428571Y-87428571D01*
X160142857Y-87428571D01*
X160000000Y-87357143D01*
X161357143Y-87428571D02*
X161357143Y-86428571D01*
X161357143Y-85928571D02*
X161285714Y-86000000D01*
X161357143Y-86071429D01*
X161428571Y-86000000D01*
X161357143Y-85928571D01*
X161357143Y-86071429D01*
X162714286Y-87428571D02*
X162714286Y-86642857D01*
X162642857Y-86500000D01*
X162500000Y-86428571D01*
X162214286Y-86428571D01*
X162071429Y-86500000D01*
X162714286Y-87357143D02*
X162571429Y-87428571D01*
X162214286Y-87428571D01*
X162071429Y-87357143D01*
X162000000Y-87214286D01*
X162000000Y-87071429D01*
X162071429Y-86928571D01*
X162214286Y-86857143D01*
X162571429Y-86857143D01*
X162714286Y-86785714D01*
X163428572Y-86428571D02*
X163428572Y-87428571D01*
X163428572Y-86571429D02*
X163500000Y-86500000D01*
X163642858Y-86428571D01*
X163857143Y-86428571D01*
X164000000Y-86500000D01*
X164071429Y-86642857D01*
X164071429Y-87428571D01*
X165000001Y-87428571D02*
X164857143Y-87357143D01*
X164785715Y-87285714D01*
X164714286Y-87142857D01*
X164714286Y-86714286D01*
X164785715Y-86571429D01*
X164857143Y-86500000D01*
X165000001Y-86428571D01*
X165214286Y-86428571D01*
X165357143Y-86500000D01*
X165428572Y-86571429D01*
X165500001Y-86714286D01*
X165500001Y-87142857D01*
X165428572Y-87285714D01*
X165357143Y-87357143D01*
X165214286Y-87428571D01*
X165000001Y-87428571D01*
D13*
X201607142Y-114047619D02*
X201654761Y-114000000D01*
X201749999Y-113952381D01*
X201988095Y-113952381D01*
X202083333Y-114000000D01*
X202130952Y-114047619D01*
X202178571Y-114142857D01*
X202178571Y-114238095D01*
X202130952Y-114380952D01*
X201559523Y-114952381D01*
X202178571Y-114952381D01*
X202797618Y-113952381D02*
X202892857Y-113952381D01*
X202988095Y-114000000D01*
X203035714Y-114047619D01*
X203083333Y-114142857D01*
X203130952Y-114333333D01*
X203130952Y-114571429D01*
X203083333Y-114761905D01*
X203035714Y-114857143D01*
X202988095Y-114904762D01*
X202892857Y-114952381D01*
X202797618Y-114952381D01*
X202702380Y-114904762D01*
X202654761Y-114857143D01*
X202607142Y-114761905D01*
X202559523Y-114571429D01*
X202559523Y-114333333D01*
X202607142Y-114142857D01*
X202654761Y-114047619D01*
X202702380Y-114000000D01*
X202797618Y-113952381D01*
X204083333Y-114952381D02*
X203511904Y-114952381D01*
X203797618Y-114952381D02*
X203797618Y-113952381D01*
X203702380Y-114095238D01*
X203607142Y-114190476D01*
X203511904Y-114238095D01*
X204416666Y-113952381D02*
X205083333Y-113952381D01*
X204654761Y-114952381D01*
X206178571Y-113904762D02*
X205321428Y-115190476D01*
X206464285Y-114666667D02*
X206940476Y-114666667D01*
X206369047Y-114952381D02*
X206702380Y-113952381D01*
X207035714Y-114952381D01*
X207369047Y-114285714D02*
X207369047Y-115285714D01*
X207369047Y-114333333D02*
X207464285Y-114285714D01*
X207654762Y-114285714D01*
X207750000Y-114333333D01*
X207797619Y-114380952D01*
X207845238Y-114476190D01*
X207845238Y-114761905D01*
X207797619Y-114857143D01*
X207750000Y-114904762D01*
X207654762Y-114952381D01*
X207464285Y-114952381D01*
X207369047Y-114904762D01*
X208273809Y-114952381D02*
X208273809Y-114285714D01*
X208273809Y-114476190D02*
X208321428Y-114380952D01*
X208369047Y-114333333D01*
X208464285Y-114285714D01*
X208559524Y-114285714D01*
X209654762Y-114952381D02*
X209654762Y-114285714D01*
X209654762Y-114476190D02*
X209702381Y-114380952D01*
X209750000Y-114333333D01*
X209845238Y-114285714D01*
X209940477Y-114285714D01*
X210654763Y-114904762D02*
X210559525Y-114952381D01*
X210369048Y-114952381D01*
X210273810Y-114904762D01*
X210226191Y-114809524D01*
X210226191Y-114428571D01*
X210273810Y-114333333D01*
X210369048Y-114285714D01*
X210559525Y-114285714D01*
X210654763Y-114333333D01*
X210702382Y-114428571D01*
X210702382Y-114523810D01*
X210226191Y-114619048D01*
X211035715Y-114285714D02*
X211273810Y-114952381D01*
X211511906Y-114285714D01*
X211892858Y-114857143D02*
X211940477Y-114904762D01*
X211892858Y-114952381D01*
X211845239Y-114904762D01*
X211892858Y-114857143D01*
X211892858Y-114952381D01*
X212559524Y-113952381D02*
X212654763Y-113952381D01*
X212750001Y-114000000D01*
X212797620Y-114047619D01*
X212845239Y-114142857D01*
X212892858Y-114333333D01*
X212892858Y-114571429D01*
X212845239Y-114761905D01*
X212797620Y-114857143D01*
X212750001Y-114904762D01*
X212654763Y-114952381D01*
X212559524Y-114952381D01*
X212464286Y-114904762D01*
X212416667Y-114857143D01*
X212369048Y-114761905D01*
X212321429Y-114571429D01*
X212321429Y-114333333D01*
X212369048Y-114142857D01*
X212416667Y-114047619D01*
X212464286Y-114000000D01*
X212559524Y-113952381D01*
X213654763Y-114428571D02*
X213797620Y-114476190D01*
X213845239Y-114523810D01*
X213892858Y-114619048D01*
X213892858Y-114761905D01*
X213845239Y-114857143D01*
X213797620Y-114904762D01*
X213702382Y-114952381D01*
X213321429Y-114952381D01*
X213321429Y-113952381D01*
X213654763Y-113952381D01*
X213750001Y-114000000D01*
X213797620Y-114047619D01*
X213845239Y-114142857D01*
X213845239Y-114238095D01*
X213797620Y-114333333D01*
X213750001Y-114380952D01*
X213654763Y-114428571D01*
X213321429Y-114428571D01*
X196548000Y-110490000D02*
X197048000Y-110490000D01*
X190548000Y-110490000D02*
X190048000Y-110490000D01*
X196548000Y-111490000D02*
X190548000Y-111490000D01*
X190548000Y-111490000D02*
X190548000Y-109490000D01*
X196548000Y-109490000D02*
X196548000Y-111490000D01*
X190548000Y-109490000D02*
X196548000Y-109490000D01*
X190548000Y-106553000D02*
X190048000Y-106553000D01*
X196548000Y-106553000D02*
X197048000Y-106553000D01*
X190548000Y-105553000D02*
X196548000Y-105553000D01*
X196548000Y-105553000D02*
X196548000Y-107553000D01*
X190548000Y-107553000D02*
X190548000Y-105553000D01*
X196548000Y-107553000D02*
X190548000Y-107553000D01*
X196548000Y-102616000D02*
X197048000Y-102616000D01*
X190548000Y-102616000D02*
X190048000Y-102616000D01*
X196548000Y-103616000D02*
X190548000Y-103616000D01*
X190548000Y-103616000D02*
X190548000Y-101616000D01*
X196548000Y-101616000D02*
X196548000Y-103616000D01*
X190548000Y-101616000D02*
X196548000Y-101616000D01*
D14*
X177300000Y-90800000D02*
X178300000Y-90800000D01*
X178300000Y-92160000D02*
X177300000Y-92160000D01*
X169680000Y-90800000D02*
X170680000Y-90800000D01*
X170680000Y-92160000D02*
X169680000Y-92160000D01*
X162060000Y-90800000D02*
X163060000Y-90800000D01*
X163060000Y-92160000D02*
X162060000Y-92160000D01*
X154440000Y-90800000D02*
X155440000Y-90800000D01*
X155440000Y-92160000D02*
X154440000Y-92160000D01*
X146820000Y-90800000D02*
X147820000Y-90800000D01*
X147820000Y-92160000D02*
X146820000Y-92160000D01*
X139200000Y-90800000D02*
X140200000Y-90800000D01*
X140200000Y-92160000D02*
X139200000Y-92160000D01*
X131580000Y-90800000D02*
X132580000Y-90800000D01*
X132580000Y-92160000D02*
X131580000Y-92160000D01*
D13*
X211328000Y-103124000D02*
X203200000Y-103124000D01*
X203200000Y-103124000D02*
X203200000Y-107188000D01*
X203200000Y-107188000D02*
X205232000Y-111252000D01*
X205232000Y-111252000D02*
X209296000Y-111252000D01*
X209296000Y-111252000D02*
X211328000Y-107188000D01*
X211328000Y-107188000D02*
X211328000Y-103124000D01*
X216335154Y-94361000D02*
G75*
G03X216335154Y-94361000I-5388154J0D01*
G01*
D14*
X194802000Y-98799000D02*
X196172000Y-98799000D01*
X196172000Y-98799000D02*
X196172000Y-88399000D01*
X196172000Y-88399000D02*
X191432000Y-88399000D01*
X191432000Y-88399000D02*
X191432000Y-98799000D01*
X191432000Y-98799000D02*
X192802000Y-98799000D01*
X192802000Y-98799000D02*
G75*
G02X194802000Y-98799000I1000000J0D01*
G01*
D10*
X177800000Y-99100000D02*
X177800000Y-94020000D01*
X170180000Y-99100000D02*
X170180000Y-94020000D01*
X162560000Y-99100000D02*
X162560000Y-94020000D01*
X154940000Y-99100000D02*
X154940000Y-94020000D01*
X147320000Y-99100000D02*
X147320000Y-94020000D01*
X139700000Y-99100000D02*
X139700000Y-94020000D01*
X132080000Y-99100000D02*
X132080000Y-94020000D01*
X185420000Y-99100000D02*
X185420000Y-94020000D01*
X185420000Y-94020000D02*
X124460000Y-94020000D01*
X124460000Y-94020000D02*
X124460000Y-99100000D01*
X124460000Y-99100000D02*
X124460000Y-110530000D01*
X124460000Y-110530000D02*
X132080000Y-110530000D01*
X132080000Y-110530000D02*
X139700000Y-110530000D01*
X139700000Y-110530000D02*
X185420000Y-110530000D01*
X185420000Y-110530000D02*
X185420000Y-99100000D01*
X177800000Y-99100000D02*
X177800000Y-110530000D01*
X170180000Y-99100000D02*
X170180000Y-110530000D01*
X162560000Y-99100000D02*
X162560000Y-110530000D01*
X154940000Y-110530000D02*
X154940000Y-99100000D01*
X147320000Y-99100000D02*
X147320000Y-110530000D01*
X139700000Y-99100000D02*
X139700000Y-110530000D01*
X132080000Y-99100000D02*
X132080000Y-110530000D01*
D14*
X184269000Y-92160000D02*
X183269000Y-92160000D01*
X183269000Y-90800000D02*
X184269000Y-90800000D01*
X184269000Y-87040000D02*
X183269000Y-87040000D01*
X183269000Y-85680000D02*
X184269000Y-85680000D01*
D15*
G36*
X122541997Y-84908177D02*
X124228554Y-86594729D01*
X123635475Y-87187824D01*
X123042396Y-87780920D01*
X121645406Y-87780920D01*
X122013684Y-87412615D01*
X122381963Y-87044310D01*
X121887941Y-86550288D01*
X121393920Y-86056266D01*
X121393920Y-87780920D01*
X120855440Y-87780920D01*
X120855440Y-83221626D01*
X122541997Y-84908177D01*
X122541997Y-84908177D01*
G37*
X122541997Y-84908177D02*
X124228554Y-86594729D01*
X123635475Y-87187824D01*
X123042396Y-87780920D01*
X121645406Y-87780920D01*
X122013684Y-87412615D01*
X122381963Y-87044310D01*
X121887941Y-86550288D01*
X121393920Y-86056266D01*
X121393920Y-87780920D01*
X120855440Y-87780920D01*
X120855440Y-83221626D01*
X122541997Y-84908177D01*
G36*
X127679665Y-83224167D02*
X127826186Y-83224190D01*
X127969796Y-83224228D01*
X128110169Y-83224280D01*
X128246978Y-83224345D01*
X128379897Y-83224424D01*
X128508600Y-83224516D01*
X128632760Y-83224619D01*
X128752050Y-83224735D01*
X128866144Y-83224861D01*
X128974716Y-83224998D01*
X129077439Y-83225145D01*
X129173986Y-83225302D01*
X129264032Y-83225468D01*
X129347249Y-83225643D01*
X129423312Y-83225826D01*
X129491893Y-83226017D01*
X129552667Y-83226214D01*
X129605307Y-83226419D01*
X129649486Y-83226629D01*
X129684877Y-83226845D01*
X129711156Y-83227066D01*
X129727994Y-83227292D01*
X129735066Y-83227522D01*
X129735280Y-83227569D01*
X129733093Y-83232388D01*
X129726704Y-83245810D01*
X129716370Y-83267308D01*
X129702347Y-83296355D01*
X129684892Y-83332425D01*
X129664261Y-83374991D01*
X129640711Y-83423527D01*
X129614499Y-83477505D01*
X129585882Y-83536399D01*
X129555116Y-83599683D01*
X129522457Y-83666830D01*
X129488162Y-83737313D01*
X129452489Y-83810605D01*
X129415693Y-83886180D01*
X129378032Y-83963511D01*
X129339761Y-84042072D01*
X129301138Y-84121336D01*
X129262419Y-84200776D01*
X129223861Y-84279865D01*
X129185721Y-84358078D01*
X129148254Y-84434886D01*
X129111719Y-84509765D01*
X129076371Y-84582186D01*
X129042466Y-84651623D01*
X129010263Y-84717551D01*
X128980017Y-84779441D01*
X128951985Y-84836767D01*
X128926424Y-84889004D01*
X128903590Y-84935623D01*
X128883740Y-84976098D01*
X128867130Y-85009904D01*
X128854018Y-85036512D01*
X128844660Y-85055397D01*
X128840793Y-85063120D01*
X128806172Y-85131700D01*
X128805640Y-83930280D01*
X126438360Y-83930280D01*
X126438360Y-85139320D01*
X128368750Y-85139320D01*
X128189686Y-85497491D01*
X128010621Y-85855663D01*
X127241000Y-85855599D01*
X127153113Y-85855592D01*
X127067843Y-85855586D01*
X126985760Y-85855580D01*
X126907432Y-85855575D01*
X126833428Y-85855570D01*
X126764315Y-85855567D01*
X126700663Y-85855564D01*
X126643039Y-85855562D01*
X126592013Y-85855560D01*
X126512027Y-85855560D01*
X126484204Y-85855561D01*
X126465252Y-85855563D01*
X126455740Y-85855566D01*
X126454870Y-85855567D01*
X126438360Y-85855600D01*
X126438360Y-87064640D01*
X128368750Y-87064640D01*
X128189702Y-87422780D01*
X128010653Y-87780920D01*
X125325840Y-87780920D01*
X125325840Y-83224160D01*
X127530560Y-83224160D01*
X127679665Y-83224167D01*
X127679665Y-83224167D01*
G37*
X127679665Y-83224167D02*
X127826186Y-83224190D01*
X127969796Y-83224228D01*
X128110169Y-83224280D01*
X128246978Y-83224345D01*
X128379897Y-83224424D01*
X128508600Y-83224516D01*
X128632760Y-83224619D01*
X128752050Y-83224735D01*
X128866144Y-83224861D01*
X128974716Y-83224998D01*
X129077439Y-83225145D01*
X129173986Y-83225302D01*
X129264032Y-83225468D01*
X129347249Y-83225643D01*
X129423312Y-83225826D01*
X129491893Y-83226017D01*
X129552667Y-83226214D01*
X129605307Y-83226419D01*
X129649486Y-83226629D01*
X129684877Y-83226845D01*
X129711156Y-83227066D01*
X129727994Y-83227292D01*
X129735066Y-83227522D01*
X129735280Y-83227569D01*
X129733093Y-83232388D01*
X129726704Y-83245810D01*
X129716370Y-83267308D01*
X129702347Y-83296355D01*
X129684892Y-83332425D01*
X129664261Y-83374991D01*
X129640711Y-83423527D01*
X129614499Y-83477505D01*
X129585882Y-83536399D01*
X129555116Y-83599683D01*
X129522457Y-83666830D01*
X129488162Y-83737313D01*
X129452489Y-83810605D01*
X129415693Y-83886180D01*
X129378032Y-83963511D01*
X129339761Y-84042072D01*
X129301138Y-84121336D01*
X129262419Y-84200776D01*
X129223861Y-84279865D01*
X129185721Y-84358078D01*
X129148254Y-84434886D01*
X129111719Y-84509765D01*
X129076371Y-84582186D01*
X129042466Y-84651623D01*
X129010263Y-84717551D01*
X128980017Y-84779441D01*
X128951985Y-84836767D01*
X128926424Y-84889004D01*
X128903590Y-84935623D01*
X128883740Y-84976098D01*
X128867130Y-85009904D01*
X128854018Y-85036512D01*
X128844660Y-85055397D01*
X128840793Y-85063120D01*
X128806172Y-85131700D01*
X128805640Y-83930280D01*
X126438360Y-83930280D01*
X126438360Y-85139320D01*
X128368750Y-85139320D01*
X128189686Y-85497491D01*
X128010621Y-85855663D01*
X127241000Y-85855599D01*
X127153113Y-85855592D01*
X127067843Y-85855586D01*
X126985760Y-85855580D01*
X126907432Y-85855575D01*
X126833428Y-85855570D01*
X126764315Y-85855567D01*
X126700663Y-85855564D01*
X126643039Y-85855562D01*
X126592013Y-85855560D01*
X126512027Y-85855560D01*
X126484204Y-85855561D01*
X126465252Y-85855563D01*
X126455740Y-85855566D01*
X126454870Y-85855567D01*
X126438360Y-85855600D01*
X126438360Y-87064640D01*
X128368750Y-87064640D01*
X128189702Y-87422780D01*
X128010653Y-87780920D01*
X125325840Y-87780920D01*
X125325840Y-83224160D01*
X127530560Y-83224160D01*
X127679665Y-83224167D01*
G36*
X132310718Y-84921253D02*
X132352629Y-85090946D01*
X132392458Y-85252062D01*
X132430187Y-85404527D01*
X132465797Y-85548272D01*
X132499271Y-85683223D01*
X132530591Y-85809310D01*
X132559739Y-85926460D01*
X132586697Y-86034602D01*
X132611447Y-86133664D01*
X132633971Y-86223575D01*
X132654252Y-86304263D01*
X132672270Y-86375656D01*
X132688009Y-86437682D01*
X132701449Y-86490270D01*
X132712575Y-86533348D01*
X132721366Y-86566844D01*
X132727806Y-86590687D01*
X132731876Y-86604805D01*
X132733558Y-86609127D01*
X132733574Y-86609099D01*
X132735053Y-86603505D01*
X132738834Y-86588397D01*
X132744828Y-86564140D01*
X132752947Y-86531094D01*
X132763103Y-86489621D01*
X132775208Y-86440085D01*
X132789174Y-86382847D01*
X132804913Y-86318270D01*
X132822336Y-86246716D01*
X132841356Y-86168547D01*
X132861884Y-86084125D01*
X132883833Y-85993813D01*
X132907114Y-85897973D01*
X132931640Y-85796966D01*
X132957322Y-85691156D01*
X132984072Y-85580905D01*
X133011802Y-85466574D01*
X133040424Y-85348527D01*
X133069850Y-85227124D01*
X133099992Y-85102730D01*
X133130761Y-84975705D01*
X133141578Y-84931040D01*
X133172569Y-84803077D01*
X133202967Y-84677566D01*
X133232686Y-84554872D01*
X133261637Y-84435361D01*
X133289731Y-84319396D01*
X133316880Y-84207344D01*
X133342995Y-84099569D01*
X133367988Y-83996436D01*
X133391770Y-83898311D01*
X133414253Y-83805557D01*
X133435349Y-83718542D01*
X133454968Y-83637628D01*
X133473022Y-83563182D01*
X133489423Y-83495569D01*
X133504082Y-83435153D01*
X133516911Y-83382300D01*
X133527822Y-83337374D01*
X133536725Y-83300741D01*
X133543532Y-83272766D01*
X133548155Y-83253814D01*
X133550506Y-83244249D01*
X133550769Y-83243210D01*
X133555831Y-83224160D01*
X134671145Y-83224160D01*
X134151535Y-85374269D01*
X134116147Y-85520703D01*
X134081234Y-85665167D01*
X134046880Y-85807319D01*
X134013167Y-85946817D01*
X133980178Y-86083317D01*
X133947995Y-86216478D01*
X133916702Y-86345957D01*
X133886382Y-86471412D01*
X133857116Y-86592499D01*
X133828988Y-86708877D01*
X133802081Y-86820203D01*
X133776478Y-86926135D01*
X133752260Y-87026330D01*
X133729512Y-87120445D01*
X133708315Y-87208138D01*
X133688753Y-87289067D01*
X133670908Y-87362888D01*
X133654863Y-87429261D01*
X133640701Y-87487841D01*
X133628505Y-87538287D01*
X133618357Y-87580256D01*
X133610341Y-87613405D01*
X133604538Y-87637393D01*
X133601033Y-87651876D01*
X133600845Y-87652650D01*
X133569765Y-87780920D01*
X131935397Y-87780920D01*
X131930844Y-87764410D01*
X131929167Y-87757996D01*
X131925076Y-87742192D01*
X131918687Y-87717444D01*
X131910115Y-87684201D01*
X131899476Y-87642912D01*
X131886885Y-87594026D01*
X131872458Y-87537990D01*
X131856309Y-87475254D01*
X131838555Y-87406266D01*
X131819311Y-87331474D01*
X131798693Y-87251328D01*
X131776815Y-87166274D01*
X131753793Y-87076763D01*
X131729742Y-86983242D01*
X131704779Y-86886161D01*
X131679018Y-86785967D01*
X131652575Y-86683108D01*
X131642456Y-86643749D01*
X131610878Y-86520915D01*
X131581727Y-86407552D01*
X131554904Y-86303288D01*
X131530309Y-86207754D01*
X131507843Y-86120577D01*
X131487408Y-86041388D01*
X131468903Y-85969816D01*
X131452230Y-85905490D01*
X131437289Y-85848039D01*
X131423982Y-85797093D01*
X131412208Y-85752281D01*
X131401869Y-85713233D01*
X131392865Y-85679577D01*
X131385097Y-85650944D01*
X131378467Y-85626962D01*
X131372874Y-85607260D01*
X131368220Y-85591468D01*
X131364404Y-85579216D01*
X131361329Y-85570132D01*
X131358895Y-85563846D01*
X131357002Y-85559988D01*
X131355551Y-85558186D01*
X131354443Y-85558070D01*
X131353580Y-85559269D01*
X131352860Y-85561413D01*
X131352781Y-85561709D01*
X131350967Y-85568740D01*
X131346761Y-85585145D01*
X131340283Y-85610451D01*
X131331654Y-85644188D01*
X131320995Y-85685883D01*
X131308426Y-85735065D01*
X131294066Y-85791263D01*
X131278037Y-85854004D01*
X131260460Y-85922819D01*
X131241454Y-85997235D01*
X131221139Y-86076781D01*
X131199637Y-86160985D01*
X131177068Y-86249376D01*
X131153552Y-86341483D01*
X131129210Y-86436833D01*
X131104162Y-86534956D01*
X131086956Y-86602360D01*
X131061267Y-86702996D01*
X131036072Y-86801686D01*
X131011500Y-86897921D01*
X130987681Y-86991196D01*
X130964744Y-87081001D01*
X130942820Y-87166830D01*
X130922038Y-87248176D01*
X130902528Y-87324531D01*
X130884419Y-87395388D01*
X130867841Y-87460239D01*
X130852924Y-87518577D01*
X130839797Y-87569896D01*
X130828590Y-87613687D01*
X130819432Y-87649443D01*
X130812454Y-87676657D01*
X130807785Y-87694822D01*
X130806212Y-87700910D01*
X130785452Y-87780920D01*
X130247666Y-87780920D01*
X130174679Y-87780905D01*
X130104611Y-87780862D01*
X130038123Y-87780792D01*
X129975876Y-87780698D01*
X129918531Y-87780582D01*
X129866748Y-87780445D01*
X129821190Y-87780290D01*
X129782516Y-87780118D01*
X129751388Y-87779932D01*
X129728467Y-87779733D01*
X129714414Y-87779524D01*
X129709880Y-87779316D01*
X129711087Y-87772510D01*
X129714661Y-87756143D01*
X129720529Y-87730516D01*
X129728620Y-87695929D01*
X129738861Y-87652685D01*
X129751181Y-87601085D01*
X129765508Y-87541429D01*
X129781770Y-87474020D01*
X129799894Y-87399158D01*
X129819809Y-87317145D01*
X129841442Y-87228282D01*
X129844183Y-87217040D01*
X129852995Y-87180886D01*
X129864097Y-87135322D01*
X129877377Y-87080808D01*
X129892723Y-87017804D01*
X129910023Y-86946772D01*
X129929164Y-86868171D01*
X129950035Y-86782464D01*
X129972522Y-86690110D01*
X129996514Y-86591571D01*
X130021899Y-86487308D01*
X130048565Y-86377780D01*
X130076399Y-86263450D01*
X130105289Y-86144777D01*
X130135123Y-86022223D01*
X130165789Y-85896248D01*
X130197174Y-85767314D01*
X130229167Y-85635880D01*
X130261655Y-85502409D01*
X130294526Y-85367360D01*
X130327668Y-85231194D01*
X130360969Y-85094373D01*
X130379703Y-85017400D01*
X130815523Y-83226700D01*
X131353631Y-83225414D01*
X131891740Y-83224129D01*
X132310718Y-84921253D01*
X132310718Y-84921253D01*
G37*
X132310718Y-84921253D02*
X132352629Y-85090946D01*
X132392458Y-85252062D01*
X132430187Y-85404527D01*
X132465797Y-85548272D01*
X132499271Y-85683223D01*
X132530591Y-85809310D01*
X132559739Y-85926460D01*
X132586697Y-86034602D01*
X132611447Y-86133664D01*
X132633971Y-86223575D01*
X132654252Y-86304263D01*
X132672270Y-86375656D01*
X132688009Y-86437682D01*
X132701449Y-86490270D01*
X132712575Y-86533348D01*
X132721366Y-86566844D01*
X132727806Y-86590687D01*
X132731876Y-86604805D01*
X132733558Y-86609127D01*
X132733574Y-86609099D01*
X132735053Y-86603505D01*
X132738834Y-86588397D01*
X132744828Y-86564140D01*
X132752947Y-86531094D01*
X132763103Y-86489621D01*
X132775208Y-86440085D01*
X132789174Y-86382847D01*
X132804913Y-86318270D01*
X132822336Y-86246716D01*
X132841356Y-86168547D01*
X132861884Y-86084125D01*
X132883833Y-85993813D01*
X132907114Y-85897973D01*
X132931640Y-85796966D01*
X132957322Y-85691156D01*
X132984072Y-85580905D01*
X133011802Y-85466574D01*
X133040424Y-85348527D01*
X133069850Y-85227124D01*
X133099992Y-85102730D01*
X133130761Y-84975705D01*
X133141578Y-84931040D01*
X133172569Y-84803077D01*
X133202967Y-84677566D01*
X133232686Y-84554872D01*
X133261637Y-84435361D01*
X133289731Y-84319396D01*
X133316880Y-84207344D01*
X133342995Y-84099569D01*
X133367988Y-83996436D01*
X133391770Y-83898311D01*
X133414253Y-83805557D01*
X133435349Y-83718542D01*
X133454968Y-83637628D01*
X133473022Y-83563182D01*
X133489423Y-83495569D01*
X133504082Y-83435153D01*
X133516911Y-83382300D01*
X133527822Y-83337374D01*
X133536725Y-83300741D01*
X133543532Y-83272766D01*
X133548155Y-83253814D01*
X133550506Y-83244249D01*
X133550769Y-83243210D01*
X133555831Y-83224160D01*
X134671145Y-83224160D01*
X134151535Y-85374269D01*
X134116147Y-85520703D01*
X134081234Y-85665167D01*
X134046880Y-85807319D01*
X134013167Y-85946817D01*
X133980178Y-86083317D01*
X133947995Y-86216478D01*
X133916702Y-86345957D01*
X133886382Y-86471412D01*
X133857116Y-86592499D01*
X133828988Y-86708877D01*
X133802081Y-86820203D01*
X133776478Y-86926135D01*
X133752260Y-87026330D01*
X133729512Y-87120445D01*
X133708315Y-87208138D01*
X133688753Y-87289067D01*
X133670908Y-87362888D01*
X133654863Y-87429261D01*
X133640701Y-87487841D01*
X133628505Y-87538287D01*
X133618357Y-87580256D01*
X133610341Y-87613405D01*
X133604538Y-87637393D01*
X133601033Y-87651876D01*
X133600845Y-87652650D01*
X133569765Y-87780920D01*
X131935397Y-87780920D01*
X131930844Y-87764410D01*
X131929167Y-87757996D01*
X131925076Y-87742192D01*
X131918687Y-87717444D01*
X131910115Y-87684201D01*
X131899476Y-87642912D01*
X131886885Y-87594026D01*
X131872458Y-87537990D01*
X131856309Y-87475254D01*
X131838555Y-87406266D01*
X131819311Y-87331474D01*
X131798693Y-87251328D01*
X131776815Y-87166274D01*
X131753793Y-87076763D01*
X131729742Y-86983242D01*
X131704779Y-86886161D01*
X131679018Y-86785967D01*
X131652575Y-86683108D01*
X131642456Y-86643749D01*
X131610878Y-86520915D01*
X131581727Y-86407552D01*
X131554904Y-86303288D01*
X131530309Y-86207754D01*
X131507843Y-86120577D01*
X131487408Y-86041388D01*
X131468903Y-85969816D01*
X131452230Y-85905490D01*
X131437289Y-85848039D01*
X131423982Y-85797093D01*
X131412208Y-85752281D01*
X131401869Y-85713233D01*
X131392865Y-85679577D01*
X131385097Y-85650944D01*
X131378467Y-85626962D01*
X131372874Y-85607260D01*
X131368220Y-85591468D01*
X131364404Y-85579216D01*
X131361329Y-85570132D01*
X131358895Y-85563846D01*
X131357002Y-85559988D01*
X131355551Y-85558186D01*
X131354443Y-85558070D01*
X131353580Y-85559269D01*
X131352860Y-85561413D01*
X131352781Y-85561709D01*
X131350967Y-85568740D01*
X131346761Y-85585145D01*
X131340283Y-85610451D01*
X131331654Y-85644188D01*
X131320995Y-85685883D01*
X131308426Y-85735065D01*
X131294066Y-85791263D01*
X131278037Y-85854004D01*
X131260460Y-85922819D01*
X131241454Y-85997235D01*
X131221139Y-86076781D01*
X131199637Y-86160985D01*
X131177068Y-86249376D01*
X131153552Y-86341483D01*
X131129210Y-86436833D01*
X131104162Y-86534956D01*
X131086956Y-86602360D01*
X131061267Y-86702996D01*
X131036072Y-86801686D01*
X131011500Y-86897921D01*
X130987681Y-86991196D01*
X130964744Y-87081001D01*
X130942820Y-87166830D01*
X130922038Y-87248176D01*
X130902528Y-87324531D01*
X130884419Y-87395388D01*
X130867841Y-87460239D01*
X130852924Y-87518577D01*
X130839797Y-87569896D01*
X130828590Y-87613687D01*
X130819432Y-87649443D01*
X130812454Y-87676657D01*
X130807785Y-87694822D01*
X130806212Y-87700910D01*
X130785452Y-87780920D01*
X130247666Y-87780920D01*
X130174679Y-87780905D01*
X130104611Y-87780862D01*
X130038123Y-87780792D01*
X129975876Y-87780698D01*
X129918531Y-87780582D01*
X129866748Y-87780445D01*
X129821190Y-87780290D01*
X129782516Y-87780118D01*
X129751388Y-87779932D01*
X129728467Y-87779733D01*
X129714414Y-87779524D01*
X129709880Y-87779316D01*
X129711087Y-87772510D01*
X129714661Y-87756143D01*
X129720529Y-87730516D01*
X129728620Y-87695929D01*
X129738861Y-87652685D01*
X129751181Y-87601085D01*
X129765508Y-87541429D01*
X129781770Y-87474020D01*
X129799894Y-87399158D01*
X129819809Y-87317145D01*
X129841442Y-87228282D01*
X129844183Y-87217040D01*
X129852995Y-87180886D01*
X129864097Y-87135322D01*
X129877377Y-87080808D01*
X129892723Y-87017804D01*
X129910023Y-86946772D01*
X129929164Y-86868171D01*
X129950035Y-86782464D01*
X129972522Y-86690110D01*
X129996514Y-86591571D01*
X130021899Y-86487308D01*
X130048565Y-86377780D01*
X130076399Y-86263450D01*
X130105289Y-86144777D01*
X130135123Y-86022223D01*
X130165789Y-85896248D01*
X130197174Y-85767314D01*
X130229167Y-85635880D01*
X130261655Y-85502409D01*
X130294526Y-85367360D01*
X130327668Y-85231194D01*
X130360969Y-85094373D01*
X130379703Y-85017400D01*
X130815523Y-83226700D01*
X131353631Y-83225414D01*
X131891740Y-83224129D01*
X132310718Y-84921253D01*
G36*
X136862520Y-85497451D02*
X137999174Y-84360805D01*
X139135828Y-83224160D01*
X140222931Y-83224160D01*
X139085019Y-84362080D01*
X137947108Y-85500000D01*
X139087560Y-86640460D01*
X140228011Y-87780920D01*
X139145988Y-87780920D01*
X136862520Y-85497468D01*
X136862520Y-87780920D01*
X135760160Y-87780920D01*
X135760160Y-83224160D01*
X136862520Y-83224160D01*
X136862520Y-85497451D01*
X136862520Y-85497451D01*
G37*
X136862520Y-85497451D02*
X137999174Y-84360805D01*
X139135828Y-83224160D01*
X140222931Y-83224160D01*
X139085019Y-84362080D01*
X137947108Y-85500000D01*
X139087560Y-86640460D01*
X140228011Y-87780920D01*
X139145988Y-87780920D01*
X136862520Y-85497468D01*
X136862520Y-87780920D01*
X135760160Y-87780920D01*
X135760160Y-83224160D01*
X136862520Y-83224160D01*
X136862520Y-85497451D01*
G36*
X143580065Y-83224167D02*
X143726586Y-83224190D01*
X143870196Y-83224228D01*
X144010569Y-83224280D01*
X144147378Y-83224345D01*
X144280297Y-83224424D01*
X144409000Y-83224516D01*
X144533160Y-83224619D01*
X144652450Y-83224735D01*
X144766544Y-83224861D01*
X144875116Y-83224998D01*
X144977839Y-83225145D01*
X145074386Y-83225302D01*
X145164432Y-83225468D01*
X145247649Y-83225643D01*
X145323712Y-83225826D01*
X145392293Y-83226017D01*
X145453067Y-83226214D01*
X145505707Y-83226419D01*
X145549886Y-83226629D01*
X145585277Y-83226845D01*
X145611556Y-83227066D01*
X145628394Y-83227292D01*
X145635466Y-83227522D01*
X145635680Y-83227569D01*
X145633493Y-83232388D01*
X145627104Y-83245810D01*
X145616770Y-83267308D01*
X145602747Y-83296355D01*
X145585292Y-83332425D01*
X145564661Y-83374991D01*
X145541111Y-83423527D01*
X145514899Y-83477505D01*
X145486282Y-83536399D01*
X145455516Y-83599683D01*
X145422857Y-83666830D01*
X145388562Y-83737313D01*
X145352889Y-83810605D01*
X145316093Y-83886180D01*
X145278432Y-83963511D01*
X145240161Y-84042072D01*
X145201538Y-84121336D01*
X145162819Y-84200776D01*
X145124261Y-84279865D01*
X145086121Y-84358078D01*
X145048654Y-84434886D01*
X145012119Y-84509765D01*
X144976771Y-84582186D01*
X144942866Y-84651623D01*
X144910663Y-84717551D01*
X144880417Y-84779441D01*
X144852385Y-84836767D01*
X144826824Y-84889004D01*
X144803990Y-84935623D01*
X144784140Y-84976098D01*
X144767530Y-85009904D01*
X144754418Y-85036512D01*
X144745060Y-85055397D01*
X144741193Y-85063120D01*
X144706572Y-85131700D01*
X144706040Y-83930280D01*
X142338760Y-83930280D01*
X142338760Y-85139320D01*
X144269150Y-85139320D01*
X144090086Y-85497491D01*
X143911021Y-85855663D01*
X143141400Y-85855599D01*
X143053513Y-85855592D01*
X142968243Y-85855586D01*
X142886160Y-85855580D01*
X142807832Y-85855575D01*
X142733828Y-85855570D01*
X142664715Y-85855567D01*
X142601063Y-85855564D01*
X142543439Y-85855562D01*
X142492413Y-85855560D01*
X142412427Y-85855560D01*
X142384604Y-85855561D01*
X142365652Y-85855563D01*
X142356140Y-85855566D01*
X142355270Y-85855567D01*
X142338760Y-85855600D01*
X142338760Y-87064640D01*
X144269150Y-87064640D01*
X144090102Y-87422780D01*
X143911053Y-87780920D01*
X141226240Y-87780920D01*
X141226240Y-83224160D01*
X143430960Y-83224160D01*
X143580065Y-83224167D01*
X143580065Y-83224167D01*
G37*
X143580065Y-83224167D02*
X143726586Y-83224190D01*
X143870196Y-83224228D01*
X144010569Y-83224280D01*
X144147378Y-83224345D01*
X144280297Y-83224424D01*
X144409000Y-83224516D01*
X144533160Y-83224619D01*
X144652450Y-83224735D01*
X144766544Y-83224861D01*
X144875116Y-83224998D01*
X144977839Y-83225145D01*
X145074386Y-83225302D01*
X145164432Y-83225468D01*
X145247649Y-83225643D01*
X145323712Y-83225826D01*
X145392293Y-83226017D01*
X145453067Y-83226214D01*
X145505707Y-83226419D01*
X145549886Y-83226629D01*
X145585277Y-83226845D01*
X145611556Y-83227066D01*
X145628394Y-83227292D01*
X145635466Y-83227522D01*
X145635680Y-83227569D01*
X145633493Y-83232388D01*
X145627104Y-83245810D01*
X145616770Y-83267308D01*
X145602747Y-83296355D01*
X145585292Y-83332425D01*
X145564661Y-83374991D01*
X145541111Y-83423527D01*
X145514899Y-83477505D01*
X145486282Y-83536399D01*
X145455516Y-83599683D01*
X145422857Y-83666830D01*
X145388562Y-83737313D01*
X145352889Y-83810605D01*
X145316093Y-83886180D01*
X145278432Y-83963511D01*
X145240161Y-84042072D01*
X145201538Y-84121336D01*
X145162819Y-84200776D01*
X145124261Y-84279865D01*
X145086121Y-84358078D01*
X145048654Y-84434886D01*
X145012119Y-84509765D01*
X144976771Y-84582186D01*
X144942866Y-84651623D01*
X144910663Y-84717551D01*
X144880417Y-84779441D01*
X144852385Y-84836767D01*
X144826824Y-84889004D01*
X144803990Y-84935623D01*
X144784140Y-84976098D01*
X144767530Y-85009904D01*
X144754418Y-85036512D01*
X144745060Y-85055397D01*
X144741193Y-85063120D01*
X144706572Y-85131700D01*
X144706040Y-83930280D01*
X142338760Y-83930280D01*
X142338760Y-85139320D01*
X144269150Y-85139320D01*
X144090086Y-85497491D01*
X143911021Y-85855663D01*
X143141400Y-85855599D01*
X143053513Y-85855592D01*
X142968243Y-85855586D01*
X142886160Y-85855580D01*
X142807832Y-85855575D01*
X142733828Y-85855570D01*
X142664715Y-85855567D01*
X142601063Y-85855564D01*
X142543439Y-85855562D01*
X142492413Y-85855560D01*
X142412427Y-85855560D01*
X142384604Y-85855561D01*
X142365652Y-85855563D01*
X142356140Y-85855566D01*
X142355270Y-85855567D01*
X142338760Y-85855600D01*
X142338760Y-87064640D01*
X144269150Y-87064640D01*
X144090102Y-87422780D01*
X143911053Y-87780920D01*
X141226240Y-87780920D01*
X141226240Y-83224160D01*
X143430960Y-83224160D01*
X143580065Y-83224167D01*
G36*
X148236518Y-84921253D02*
X148278429Y-85090946D01*
X148318258Y-85252062D01*
X148355987Y-85404527D01*
X148391597Y-85548272D01*
X148425071Y-85683223D01*
X148456391Y-85809310D01*
X148485539Y-85926460D01*
X148512497Y-86034602D01*
X148537247Y-86133664D01*
X148559771Y-86223575D01*
X148580052Y-86304263D01*
X148598070Y-86375656D01*
X148613809Y-86437682D01*
X148627249Y-86490270D01*
X148638375Y-86533348D01*
X148647166Y-86566844D01*
X148653606Y-86590687D01*
X148657676Y-86604805D01*
X148659358Y-86609127D01*
X148659374Y-86609099D01*
X148660853Y-86603505D01*
X148664634Y-86588397D01*
X148670628Y-86564140D01*
X148678747Y-86531094D01*
X148688903Y-86489621D01*
X148701008Y-86440085D01*
X148714974Y-86382847D01*
X148730713Y-86318270D01*
X148748136Y-86246716D01*
X148767156Y-86168547D01*
X148787684Y-86084125D01*
X148809633Y-85993813D01*
X148832914Y-85897973D01*
X148857440Y-85796966D01*
X148883122Y-85691156D01*
X148909872Y-85580905D01*
X148937602Y-85466574D01*
X148966224Y-85348527D01*
X148995650Y-85227124D01*
X149025792Y-85102730D01*
X149056561Y-84975705D01*
X149067378Y-84931040D01*
X149098369Y-84803077D01*
X149128767Y-84677566D01*
X149158486Y-84554872D01*
X149187437Y-84435361D01*
X149215531Y-84319396D01*
X149242680Y-84207344D01*
X149268795Y-84099569D01*
X149293788Y-83996436D01*
X149317570Y-83898311D01*
X149340053Y-83805557D01*
X149361149Y-83718542D01*
X149380768Y-83637628D01*
X149398822Y-83563182D01*
X149415223Y-83495569D01*
X149429882Y-83435153D01*
X149442711Y-83382300D01*
X149453622Y-83337374D01*
X149462525Y-83300741D01*
X149469332Y-83272766D01*
X149473955Y-83253814D01*
X149476306Y-83244249D01*
X149476569Y-83243210D01*
X149481631Y-83224160D01*
X150596945Y-83224160D01*
X150077335Y-85374269D01*
X150041947Y-85520703D01*
X150007034Y-85665167D01*
X149972680Y-85807319D01*
X149938967Y-85946817D01*
X149905978Y-86083317D01*
X149873795Y-86216478D01*
X149842502Y-86345957D01*
X149812182Y-86471412D01*
X149782916Y-86592499D01*
X149754788Y-86708877D01*
X149727881Y-86820203D01*
X149702278Y-86926135D01*
X149678060Y-87026330D01*
X149655312Y-87120445D01*
X149634115Y-87208138D01*
X149614553Y-87289067D01*
X149596708Y-87362888D01*
X149580663Y-87429261D01*
X149566501Y-87487841D01*
X149554305Y-87538287D01*
X149544157Y-87580256D01*
X149536141Y-87613405D01*
X149530338Y-87637393D01*
X149526833Y-87651876D01*
X149526645Y-87652650D01*
X149495565Y-87780920D01*
X147861197Y-87780920D01*
X147856644Y-87764410D01*
X147854967Y-87757996D01*
X147850876Y-87742192D01*
X147844487Y-87717444D01*
X147835915Y-87684201D01*
X147825276Y-87642912D01*
X147812685Y-87594026D01*
X147798258Y-87537990D01*
X147782109Y-87475254D01*
X147764355Y-87406266D01*
X147745111Y-87331474D01*
X147724493Y-87251328D01*
X147702615Y-87166274D01*
X147679593Y-87076763D01*
X147655542Y-86983242D01*
X147630579Y-86886161D01*
X147604818Y-86785967D01*
X147578375Y-86683108D01*
X147568256Y-86643749D01*
X147536678Y-86520915D01*
X147507527Y-86407552D01*
X147480704Y-86303288D01*
X147456109Y-86207754D01*
X147433643Y-86120577D01*
X147413208Y-86041388D01*
X147394703Y-85969816D01*
X147378030Y-85905490D01*
X147363089Y-85848039D01*
X147349782Y-85797093D01*
X147338008Y-85752281D01*
X147327669Y-85713233D01*
X147318665Y-85679577D01*
X147310897Y-85650944D01*
X147304267Y-85626962D01*
X147298674Y-85607260D01*
X147294020Y-85591468D01*
X147290204Y-85579216D01*
X147287129Y-85570132D01*
X147284695Y-85563846D01*
X147282802Y-85559988D01*
X147281351Y-85558186D01*
X147280243Y-85558070D01*
X147279380Y-85559269D01*
X147278660Y-85561413D01*
X147278581Y-85561709D01*
X147276767Y-85568740D01*
X147272561Y-85585145D01*
X147266083Y-85610451D01*
X147257454Y-85644188D01*
X147246795Y-85685883D01*
X147234226Y-85735065D01*
X147219866Y-85791263D01*
X147203837Y-85854004D01*
X147186260Y-85922819D01*
X147167254Y-85997235D01*
X147146939Y-86076781D01*
X147125437Y-86160985D01*
X147102868Y-86249376D01*
X147079352Y-86341483D01*
X147055010Y-86436833D01*
X147029962Y-86534956D01*
X147012756Y-86602360D01*
X146987067Y-86702996D01*
X146961872Y-86801686D01*
X146937300Y-86897921D01*
X146913481Y-86991196D01*
X146890544Y-87081001D01*
X146868620Y-87166830D01*
X146847838Y-87248176D01*
X146828328Y-87324531D01*
X146810219Y-87395388D01*
X146793641Y-87460239D01*
X146778724Y-87518577D01*
X146765597Y-87569896D01*
X146754390Y-87613687D01*
X146745232Y-87649443D01*
X146738254Y-87676657D01*
X146733585Y-87694822D01*
X146732012Y-87700910D01*
X146711252Y-87780920D01*
X146173466Y-87780920D01*
X146084717Y-87780897D01*
X146005645Y-87780828D01*
X145935768Y-87780704D01*
X145874604Y-87780522D01*
X145821668Y-87780274D01*
X145776480Y-87779956D01*
X145738556Y-87779562D01*
X145707413Y-87779086D01*
X145682570Y-87778522D01*
X145663543Y-87777864D01*
X145649850Y-87777108D01*
X145641008Y-87776246D01*
X145636535Y-87775274D01*
X145635741Y-87774570D01*
X145636935Y-87769265D01*
X145640458Y-87754398D01*
X145646236Y-87730278D01*
X145654192Y-87697214D01*
X145664253Y-87655516D01*
X145676342Y-87605493D01*
X145690386Y-87547454D01*
X145706308Y-87481707D01*
X145724034Y-87408564D01*
X145743489Y-87328331D01*
X145764598Y-87241320D01*
X145787285Y-87147839D01*
X145811476Y-87048197D01*
X145837095Y-86942703D01*
X145864067Y-86831667D01*
X145892318Y-86715399D01*
X145921772Y-86594206D01*
X145952354Y-86468399D01*
X145983990Y-86338286D01*
X146016603Y-86204177D01*
X146050119Y-86066382D01*
X146084463Y-85925209D01*
X146119560Y-85780967D01*
X146155335Y-85633966D01*
X146188561Y-85497460D01*
X146741319Y-83226700D01*
X147279429Y-83225414D01*
X147817540Y-83224129D01*
X148236518Y-84921253D01*
X148236518Y-84921253D01*
G37*
X148236518Y-84921253D02*
X148278429Y-85090946D01*
X148318258Y-85252062D01*
X148355987Y-85404527D01*
X148391597Y-85548272D01*
X148425071Y-85683223D01*
X148456391Y-85809310D01*
X148485539Y-85926460D01*
X148512497Y-86034602D01*
X148537247Y-86133664D01*
X148559771Y-86223575D01*
X148580052Y-86304263D01*
X148598070Y-86375656D01*
X148613809Y-86437682D01*
X148627249Y-86490270D01*
X148638375Y-86533348D01*
X148647166Y-86566844D01*
X148653606Y-86590687D01*
X148657676Y-86604805D01*
X148659358Y-86609127D01*
X148659374Y-86609099D01*
X148660853Y-86603505D01*
X148664634Y-86588397D01*
X148670628Y-86564140D01*
X148678747Y-86531094D01*
X148688903Y-86489621D01*
X148701008Y-86440085D01*
X148714974Y-86382847D01*
X148730713Y-86318270D01*
X148748136Y-86246716D01*
X148767156Y-86168547D01*
X148787684Y-86084125D01*
X148809633Y-85993813D01*
X148832914Y-85897973D01*
X148857440Y-85796966D01*
X148883122Y-85691156D01*
X148909872Y-85580905D01*
X148937602Y-85466574D01*
X148966224Y-85348527D01*
X148995650Y-85227124D01*
X149025792Y-85102730D01*
X149056561Y-84975705D01*
X149067378Y-84931040D01*
X149098369Y-84803077D01*
X149128767Y-84677566D01*
X149158486Y-84554872D01*
X149187437Y-84435361D01*
X149215531Y-84319396D01*
X149242680Y-84207344D01*
X149268795Y-84099569D01*
X149293788Y-83996436D01*
X149317570Y-83898311D01*
X149340053Y-83805557D01*
X149361149Y-83718542D01*
X149380768Y-83637628D01*
X149398822Y-83563182D01*
X149415223Y-83495569D01*
X149429882Y-83435153D01*
X149442711Y-83382300D01*
X149453622Y-83337374D01*
X149462525Y-83300741D01*
X149469332Y-83272766D01*
X149473955Y-83253814D01*
X149476306Y-83244249D01*
X149476569Y-83243210D01*
X149481631Y-83224160D01*
X150596945Y-83224160D01*
X150077335Y-85374269D01*
X150041947Y-85520703D01*
X150007034Y-85665167D01*
X149972680Y-85807319D01*
X149938967Y-85946817D01*
X149905978Y-86083317D01*
X149873795Y-86216478D01*
X149842502Y-86345957D01*
X149812182Y-86471412D01*
X149782916Y-86592499D01*
X149754788Y-86708877D01*
X149727881Y-86820203D01*
X149702278Y-86926135D01*
X149678060Y-87026330D01*
X149655312Y-87120445D01*
X149634115Y-87208138D01*
X149614553Y-87289067D01*
X149596708Y-87362888D01*
X149580663Y-87429261D01*
X149566501Y-87487841D01*
X149554305Y-87538287D01*
X149544157Y-87580256D01*
X149536141Y-87613405D01*
X149530338Y-87637393D01*
X149526833Y-87651876D01*
X149526645Y-87652650D01*
X149495565Y-87780920D01*
X147861197Y-87780920D01*
X147856644Y-87764410D01*
X147854967Y-87757996D01*
X147850876Y-87742192D01*
X147844487Y-87717444D01*
X147835915Y-87684201D01*
X147825276Y-87642912D01*
X147812685Y-87594026D01*
X147798258Y-87537990D01*
X147782109Y-87475254D01*
X147764355Y-87406266D01*
X147745111Y-87331474D01*
X147724493Y-87251328D01*
X147702615Y-87166274D01*
X147679593Y-87076763D01*
X147655542Y-86983242D01*
X147630579Y-86886161D01*
X147604818Y-86785967D01*
X147578375Y-86683108D01*
X147568256Y-86643749D01*
X147536678Y-86520915D01*
X147507527Y-86407552D01*
X147480704Y-86303288D01*
X147456109Y-86207754D01*
X147433643Y-86120577D01*
X147413208Y-86041388D01*
X147394703Y-85969816D01*
X147378030Y-85905490D01*
X147363089Y-85848039D01*
X147349782Y-85797093D01*
X147338008Y-85752281D01*
X147327669Y-85713233D01*
X147318665Y-85679577D01*
X147310897Y-85650944D01*
X147304267Y-85626962D01*
X147298674Y-85607260D01*
X147294020Y-85591468D01*
X147290204Y-85579216D01*
X147287129Y-85570132D01*
X147284695Y-85563846D01*
X147282802Y-85559988D01*
X147281351Y-85558186D01*
X147280243Y-85558070D01*
X147279380Y-85559269D01*
X147278660Y-85561413D01*
X147278581Y-85561709D01*
X147276767Y-85568740D01*
X147272561Y-85585145D01*
X147266083Y-85610451D01*
X147257454Y-85644188D01*
X147246795Y-85685883D01*
X147234226Y-85735065D01*
X147219866Y-85791263D01*
X147203837Y-85854004D01*
X147186260Y-85922819D01*
X147167254Y-85997235D01*
X147146939Y-86076781D01*
X147125437Y-86160985D01*
X147102868Y-86249376D01*
X147079352Y-86341483D01*
X147055010Y-86436833D01*
X147029962Y-86534956D01*
X147012756Y-86602360D01*
X146987067Y-86702996D01*
X146961872Y-86801686D01*
X146937300Y-86897921D01*
X146913481Y-86991196D01*
X146890544Y-87081001D01*
X146868620Y-87166830D01*
X146847838Y-87248176D01*
X146828328Y-87324531D01*
X146810219Y-87395388D01*
X146793641Y-87460239D01*
X146778724Y-87518577D01*
X146765597Y-87569896D01*
X146754390Y-87613687D01*
X146745232Y-87649443D01*
X146738254Y-87676657D01*
X146733585Y-87694822D01*
X146732012Y-87700910D01*
X146711252Y-87780920D01*
X146173466Y-87780920D01*
X146084717Y-87780897D01*
X146005645Y-87780828D01*
X145935768Y-87780704D01*
X145874604Y-87780522D01*
X145821668Y-87780274D01*
X145776480Y-87779956D01*
X145738556Y-87779562D01*
X145707413Y-87779086D01*
X145682570Y-87778522D01*
X145663543Y-87777864D01*
X145649850Y-87777108D01*
X145641008Y-87776246D01*
X145636535Y-87775274D01*
X145635741Y-87774570D01*
X145636935Y-87769265D01*
X145640458Y-87754398D01*
X145646236Y-87730278D01*
X145654192Y-87697214D01*
X145664253Y-87655516D01*
X145676342Y-87605493D01*
X145690386Y-87547454D01*
X145706308Y-87481707D01*
X145724034Y-87408564D01*
X145743489Y-87328331D01*
X145764598Y-87241320D01*
X145787285Y-87147839D01*
X145811476Y-87048197D01*
X145837095Y-86942703D01*
X145864067Y-86831667D01*
X145892318Y-86715399D01*
X145921772Y-86594206D01*
X145952354Y-86468399D01*
X145983990Y-86338286D01*
X146016603Y-86204177D01*
X146050119Y-86066382D01*
X146084463Y-85925209D01*
X146119560Y-85780967D01*
X146155335Y-85633966D01*
X146188561Y-85497460D01*
X146741319Y-83226700D01*
X147279429Y-83225414D01*
X147817540Y-83224129D01*
X148236518Y-84921253D01*
D13*
X200763143Y-95162666D02*
X200810762Y-95210285D01*
X200858381Y-95353142D01*
X200858381Y-95448380D01*
X200810762Y-95591238D01*
X200715524Y-95686476D01*
X200620286Y-95734095D01*
X200429810Y-95781714D01*
X200286952Y-95781714D01*
X200096476Y-95734095D01*
X200001238Y-95686476D01*
X199906000Y-95591238D01*
X199858381Y-95448380D01*
X199858381Y-95353142D01*
X199906000Y-95210285D01*
X199953619Y-95162666D01*
X200858381Y-94210285D02*
X200858381Y-94781714D01*
X200858381Y-94496000D02*
X199858381Y-94496000D01*
X200001238Y-94591238D01*
X200096476Y-94686476D01*
X200144095Y-94781714D01*
X202979334Y-86767143D02*
X202931715Y-86814762D01*
X202788858Y-86862381D01*
X202693620Y-86862381D01*
X202550762Y-86814762D01*
X202455524Y-86719524D01*
X202407905Y-86624286D01*
X202360286Y-86433810D01*
X202360286Y-86290952D01*
X202407905Y-86100476D01*
X202455524Y-86005238D01*
X202550762Y-85910000D01*
X202693620Y-85862381D01*
X202788858Y-85862381D01*
X202931715Y-85910000D01*
X202979334Y-85957619D01*
X203360286Y-85957619D02*
X203407905Y-85910000D01*
X203503143Y-85862381D01*
X203741239Y-85862381D01*
X203836477Y-85910000D01*
X203884096Y-85957619D01*
X203931715Y-86052857D01*
X203931715Y-86148095D01*
X203884096Y-86290952D01*
X203312667Y-86862381D01*
X203931715Y-86862381D01*
X193381334Y-109164381D02*
X193048000Y-108688190D01*
X192809905Y-109164381D02*
X192809905Y-108164381D01*
X193190858Y-108164381D01*
X193286096Y-108212000D01*
X193333715Y-108259619D01*
X193381334Y-108354857D01*
X193381334Y-108497714D01*
X193333715Y-108592952D01*
X193286096Y-108640571D01*
X193190858Y-108688190D01*
X192809905Y-108688190D01*
X194333715Y-109164381D02*
X193762286Y-109164381D01*
X194048000Y-109164381D02*
X194048000Y-108164381D01*
X193952762Y-108307238D01*
X193857524Y-108402476D01*
X193762286Y-108450095D01*
X193508334Y-105227381D02*
X193175000Y-104751190D01*
X192936905Y-105227381D02*
X192936905Y-104227381D01*
X193317858Y-104227381D01*
X193413096Y-104275000D01*
X193460715Y-104322619D01*
X193508334Y-104417857D01*
X193508334Y-104560714D01*
X193460715Y-104655952D01*
X193413096Y-104703571D01*
X193317858Y-104751190D01*
X192936905Y-104751190D01*
X193889286Y-104322619D02*
X193936905Y-104275000D01*
X194032143Y-104227381D01*
X194270239Y-104227381D01*
X194365477Y-104275000D01*
X194413096Y-104322619D01*
X194460715Y-104417857D01*
X194460715Y-104513095D01*
X194413096Y-104655952D01*
X193841667Y-105227381D01*
X194460715Y-105227381D01*
X193508334Y-101290381D02*
X193175000Y-100814190D01*
X192936905Y-101290381D02*
X192936905Y-100290381D01*
X193317858Y-100290381D01*
X193413096Y-100338000D01*
X193460715Y-100385619D01*
X193508334Y-100480857D01*
X193508334Y-100623714D01*
X193460715Y-100718952D01*
X193413096Y-100766571D01*
X193317858Y-100814190D01*
X192936905Y-100814190D01*
X193841667Y-100290381D02*
X194460715Y-100290381D01*
X194127381Y-100671333D01*
X194270239Y-100671333D01*
X194365477Y-100718952D01*
X194413096Y-100766571D01*
X194460715Y-100861810D01*
X194460715Y-101099905D01*
X194413096Y-101195143D01*
X194365477Y-101242762D01*
X194270239Y-101290381D01*
X193984524Y-101290381D01*
X193889286Y-101242762D01*
X193841667Y-101195143D01*
X177633334Y-93382381D02*
X177300000Y-92906190D01*
X177061905Y-93382381D02*
X177061905Y-92382381D01*
X177442858Y-92382381D01*
X177538096Y-92430000D01*
X177585715Y-92477619D01*
X177633334Y-92572857D01*
X177633334Y-92715714D01*
X177585715Y-92810952D01*
X177538096Y-92858571D01*
X177442858Y-92906190D01*
X177061905Y-92906190D01*
X178490477Y-92382381D02*
X178300000Y-92382381D01*
X178204762Y-92430000D01*
X178157143Y-92477619D01*
X178061905Y-92620476D01*
X178014286Y-92810952D01*
X178014286Y-93191905D01*
X178061905Y-93287143D01*
X178109524Y-93334762D01*
X178204762Y-93382381D01*
X178395239Y-93382381D01*
X178490477Y-93334762D01*
X178538096Y-93287143D01*
X178585715Y-93191905D01*
X178585715Y-92953810D01*
X178538096Y-92858571D01*
X178490477Y-92810952D01*
X178395239Y-92763333D01*
X178204762Y-92763333D01*
X178109524Y-92810952D01*
X178061905Y-92858571D01*
X178014286Y-92953810D01*
X176561905Y-89477619D02*
X176609524Y-89430000D01*
X176704762Y-89382381D01*
X176942858Y-89382381D01*
X177038096Y-89430000D01*
X177085715Y-89477619D01*
X177133334Y-89572857D01*
X177133334Y-89668095D01*
X177085715Y-89810952D01*
X176514286Y-90382381D01*
X177133334Y-90382381D01*
X177752381Y-89382381D02*
X177847620Y-89382381D01*
X177942858Y-89430000D01*
X177990477Y-89477619D01*
X178038096Y-89572857D01*
X178085715Y-89763333D01*
X178085715Y-90001429D01*
X178038096Y-90191905D01*
X177990477Y-90287143D01*
X177942858Y-90334762D01*
X177847620Y-90382381D01*
X177752381Y-90382381D01*
X177657143Y-90334762D01*
X177609524Y-90287143D01*
X177561905Y-90191905D01*
X177514286Y-90001429D01*
X177514286Y-89763333D01*
X177561905Y-89572857D01*
X177609524Y-89477619D01*
X177657143Y-89430000D01*
X177752381Y-89382381D01*
X178704762Y-89382381D02*
X178800001Y-89382381D01*
X178895239Y-89430000D01*
X178942858Y-89477619D01*
X178990477Y-89572857D01*
X179038096Y-89763333D01*
X179038096Y-90001429D01*
X178990477Y-90191905D01*
X178942858Y-90287143D01*
X178895239Y-90334762D01*
X178800001Y-90382381D01*
X178704762Y-90382381D01*
X178609524Y-90334762D01*
X178561905Y-90287143D01*
X178514286Y-90191905D01*
X178466667Y-90001429D01*
X178466667Y-89763333D01*
X178514286Y-89572857D01*
X178561905Y-89477619D01*
X178609524Y-89430000D01*
X178704762Y-89382381D01*
X170013334Y-93382381D02*
X169680000Y-92906190D01*
X169441905Y-93382381D02*
X169441905Y-92382381D01*
X169822858Y-92382381D01*
X169918096Y-92430000D01*
X169965715Y-92477619D01*
X170013334Y-92572857D01*
X170013334Y-92715714D01*
X169965715Y-92810952D01*
X169918096Y-92858571D01*
X169822858Y-92906190D01*
X169441905Y-92906190D01*
X170346667Y-92382381D02*
X171013334Y-92382381D01*
X170584762Y-93382381D01*
X170060953Y-90382381D02*
X169489524Y-90382381D01*
X169775238Y-90382381D02*
X169775238Y-89382381D01*
X169680000Y-89525238D01*
X169584762Y-89620476D01*
X169489524Y-89668095D01*
X170489524Y-90382381D02*
X170489524Y-89382381D01*
X170584762Y-90001429D02*
X170870477Y-90382381D01*
X170870477Y-89715714D02*
X170489524Y-90096667D01*
X162393334Y-93382381D02*
X162060000Y-92906190D01*
X161821905Y-93382381D02*
X161821905Y-92382381D01*
X162202858Y-92382381D01*
X162298096Y-92430000D01*
X162345715Y-92477619D01*
X162393334Y-92572857D01*
X162393334Y-92715714D01*
X162345715Y-92810952D01*
X162298096Y-92858571D01*
X162202858Y-92906190D01*
X161821905Y-92906190D01*
X162964762Y-92810952D02*
X162869524Y-92763333D01*
X162821905Y-92715714D01*
X162774286Y-92620476D01*
X162774286Y-92572857D01*
X162821905Y-92477619D01*
X162869524Y-92430000D01*
X162964762Y-92382381D01*
X163155239Y-92382381D01*
X163250477Y-92430000D01*
X163298096Y-92477619D01*
X163345715Y-92572857D01*
X163345715Y-92620476D01*
X163298096Y-92715714D01*
X163250477Y-92763333D01*
X163155239Y-92810952D01*
X162964762Y-92810952D01*
X162869524Y-92858571D01*
X162821905Y-92906190D01*
X162774286Y-93001429D01*
X162774286Y-93191905D01*
X162821905Y-93287143D01*
X162869524Y-93334762D01*
X162964762Y-93382381D01*
X163155239Y-93382381D01*
X163250477Y-93334762D01*
X163298096Y-93287143D01*
X163345715Y-93191905D01*
X163345715Y-93001429D01*
X163298096Y-92906190D01*
X163250477Y-92858571D01*
X163155239Y-92810952D01*
X162440953Y-90382381D02*
X161869524Y-90382381D01*
X162155238Y-90382381D02*
X162155238Y-89382381D01*
X162060000Y-89525238D01*
X161964762Y-89620476D01*
X161869524Y-89668095D01*
X162869524Y-90382381D02*
X162869524Y-89382381D01*
X162964762Y-90001429D02*
X163250477Y-90382381D01*
X163250477Y-89715714D02*
X162869524Y-90096667D01*
X154773334Y-93382381D02*
X154440000Y-92906190D01*
X154201905Y-93382381D02*
X154201905Y-92382381D01*
X154582858Y-92382381D01*
X154678096Y-92430000D01*
X154725715Y-92477619D01*
X154773334Y-92572857D01*
X154773334Y-92715714D01*
X154725715Y-92810952D01*
X154678096Y-92858571D01*
X154582858Y-92906190D01*
X154201905Y-92906190D01*
X155249524Y-93382381D02*
X155440000Y-93382381D01*
X155535239Y-93334762D01*
X155582858Y-93287143D01*
X155678096Y-93144286D01*
X155725715Y-92953810D01*
X155725715Y-92572857D01*
X155678096Y-92477619D01*
X155630477Y-92430000D01*
X155535239Y-92382381D01*
X155344762Y-92382381D01*
X155249524Y-92430000D01*
X155201905Y-92477619D01*
X155154286Y-92572857D01*
X155154286Y-92810952D01*
X155201905Y-92906190D01*
X155249524Y-92953810D01*
X155344762Y-93001429D01*
X155535239Y-93001429D01*
X155630477Y-92953810D01*
X155678096Y-92906190D01*
X155725715Y-92810952D01*
X154344762Y-90382381D02*
X153773333Y-90382381D01*
X154059047Y-90382381D02*
X154059047Y-89382381D01*
X153963809Y-89525238D01*
X153868571Y-89620476D01*
X153773333Y-89668095D01*
X154773333Y-90382381D02*
X154773333Y-89382381D01*
X154868571Y-90001429D02*
X155154286Y-90382381D01*
X155154286Y-89715714D02*
X154773333Y-90096667D01*
X155535238Y-89477619D02*
X155582857Y-89430000D01*
X155678095Y-89382381D01*
X155916191Y-89382381D01*
X156011429Y-89430000D01*
X156059048Y-89477619D01*
X156106667Y-89572857D01*
X156106667Y-89668095D01*
X156059048Y-89810952D01*
X155487619Y-90382381D01*
X156106667Y-90382381D01*
X146677143Y-93382381D02*
X146343809Y-92906190D01*
X146105714Y-93382381D02*
X146105714Y-92382381D01*
X146486667Y-92382381D01*
X146581905Y-92430000D01*
X146629524Y-92477619D01*
X146677143Y-92572857D01*
X146677143Y-92715714D01*
X146629524Y-92810952D01*
X146581905Y-92858571D01*
X146486667Y-92906190D01*
X146105714Y-92906190D01*
X147629524Y-93382381D02*
X147058095Y-93382381D01*
X147343809Y-93382381D02*
X147343809Y-92382381D01*
X147248571Y-92525238D01*
X147153333Y-92620476D01*
X147058095Y-92668095D01*
X148248571Y-92382381D02*
X148343810Y-92382381D01*
X148439048Y-92430000D01*
X148486667Y-92477619D01*
X148534286Y-92572857D01*
X148581905Y-92763333D01*
X148581905Y-93001429D01*
X148534286Y-93191905D01*
X148486667Y-93287143D01*
X148439048Y-93334762D01*
X148343810Y-93382381D01*
X148248571Y-93382381D01*
X148153333Y-93334762D01*
X148105714Y-93287143D01*
X148058095Y-93191905D01*
X148010476Y-93001429D01*
X148010476Y-92763333D01*
X148058095Y-92572857D01*
X148105714Y-92477619D01*
X148153333Y-92430000D01*
X148248571Y-92382381D01*
X146558096Y-89382381D02*
X146367619Y-89382381D01*
X146272381Y-89430000D01*
X146224762Y-89477619D01*
X146129524Y-89620476D01*
X146081905Y-89810952D01*
X146081905Y-90191905D01*
X146129524Y-90287143D01*
X146177143Y-90334762D01*
X146272381Y-90382381D01*
X146462858Y-90382381D01*
X146558096Y-90334762D01*
X146605715Y-90287143D01*
X146653334Y-90191905D01*
X146653334Y-89953810D01*
X146605715Y-89858571D01*
X146558096Y-89810952D01*
X146462858Y-89763333D01*
X146272381Y-89763333D01*
X146177143Y-89810952D01*
X146129524Y-89858571D01*
X146081905Y-89953810D01*
X147224762Y-89810952D02*
X147129524Y-89763333D01*
X147081905Y-89715714D01*
X147034286Y-89620476D01*
X147034286Y-89572857D01*
X147081905Y-89477619D01*
X147129524Y-89430000D01*
X147224762Y-89382381D01*
X147415239Y-89382381D01*
X147510477Y-89430000D01*
X147558096Y-89477619D01*
X147605715Y-89572857D01*
X147605715Y-89620476D01*
X147558096Y-89715714D01*
X147510477Y-89763333D01*
X147415239Y-89810952D01*
X147224762Y-89810952D01*
X147129524Y-89858571D01*
X147081905Y-89906190D01*
X147034286Y-90001429D01*
X147034286Y-90191905D01*
X147081905Y-90287143D01*
X147129524Y-90334762D01*
X147224762Y-90382381D01*
X147415239Y-90382381D01*
X147510477Y-90334762D01*
X147558096Y-90287143D01*
X147605715Y-90191905D01*
X147605715Y-90001429D01*
X147558096Y-89906190D01*
X147510477Y-89858571D01*
X147415239Y-89810952D01*
X148224762Y-89382381D02*
X148320001Y-89382381D01*
X148415239Y-89430000D01*
X148462858Y-89477619D01*
X148510477Y-89572857D01*
X148558096Y-89763333D01*
X148558096Y-90001429D01*
X148510477Y-90191905D01*
X148462858Y-90287143D01*
X148415239Y-90334762D01*
X148320001Y-90382381D01*
X148224762Y-90382381D01*
X148129524Y-90334762D01*
X148081905Y-90287143D01*
X148034286Y-90191905D01*
X147986667Y-90001429D01*
X147986667Y-89763333D01*
X148034286Y-89572857D01*
X148081905Y-89477619D01*
X148129524Y-89430000D01*
X148224762Y-89382381D01*
X139057143Y-93382381D02*
X138723809Y-92906190D01*
X138485714Y-93382381D02*
X138485714Y-92382381D01*
X138866667Y-92382381D01*
X138961905Y-92430000D01*
X139009524Y-92477619D01*
X139057143Y-92572857D01*
X139057143Y-92715714D01*
X139009524Y-92810952D01*
X138961905Y-92858571D01*
X138866667Y-92906190D01*
X138485714Y-92906190D01*
X140009524Y-93382381D02*
X139438095Y-93382381D01*
X139723809Y-93382381D02*
X139723809Y-92382381D01*
X139628571Y-92525238D01*
X139533333Y-92620476D01*
X139438095Y-92668095D01*
X140961905Y-93382381D02*
X140390476Y-93382381D01*
X140676190Y-93382381D02*
X140676190Y-92382381D01*
X140580952Y-92525238D01*
X140485714Y-92620476D01*
X140390476Y-92668095D01*
X139104762Y-90382381D02*
X138533333Y-90382381D01*
X138819047Y-90382381D02*
X138819047Y-89382381D01*
X138723809Y-89525238D01*
X138628571Y-89620476D01*
X138533333Y-89668095D01*
X139533333Y-90382381D02*
X139533333Y-89382381D01*
X139628571Y-90001429D02*
X139914286Y-90382381D01*
X139914286Y-89715714D02*
X139533333Y-90096667D01*
X140819048Y-89382381D02*
X140342857Y-89382381D01*
X140295238Y-89858571D01*
X140342857Y-89810952D01*
X140438095Y-89763333D01*
X140676191Y-89763333D01*
X140771429Y-89810952D01*
X140819048Y-89858571D01*
X140866667Y-89953810D01*
X140866667Y-90191905D01*
X140819048Y-90287143D01*
X140771429Y-90334762D01*
X140676191Y-90382381D01*
X140438095Y-90382381D01*
X140342857Y-90334762D01*
X140295238Y-90287143D01*
X131437143Y-93382381D02*
X131103809Y-92906190D01*
X130865714Y-93382381D02*
X130865714Y-92382381D01*
X131246667Y-92382381D01*
X131341905Y-92430000D01*
X131389524Y-92477619D01*
X131437143Y-92572857D01*
X131437143Y-92715714D01*
X131389524Y-92810952D01*
X131341905Y-92858571D01*
X131246667Y-92906190D01*
X130865714Y-92906190D01*
X132389524Y-93382381D02*
X131818095Y-93382381D01*
X132103809Y-93382381D02*
X132103809Y-92382381D01*
X132008571Y-92525238D01*
X131913333Y-92620476D01*
X131818095Y-92668095D01*
X132770476Y-92477619D02*
X132818095Y-92430000D01*
X132913333Y-92382381D01*
X133151429Y-92382381D01*
X133246667Y-92430000D01*
X133294286Y-92477619D01*
X133341905Y-92572857D01*
X133341905Y-92668095D01*
X133294286Y-92810952D01*
X132722857Y-93382381D01*
X133341905Y-93382381D01*
X131484762Y-90382381D02*
X130913333Y-90382381D01*
X131199047Y-90382381D02*
X131199047Y-89382381D01*
X131103809Y-89525238D01*
X131008571Y-89620476D01*
X130913333Y-89668095D01*
X131913333Y-90382381D02*
X131913333Y-89382381D01*
X132008571Y-90001429D02*
X132294286Y-90382381D01*
X132294286Y-89715714D02*
X131913333Y-90096667D01*
X133199048Y-89382381D02*
X132722857Y-89382381D01*
X132675238Y-89858571D01*
X132722857Y-89810952D01*
X132818095Y-89763333D01*
X133056191Y-89763333D01*
X133151429Y-89810952D01*
X133199048Y-89858571D01*
X133246667Y-89953810D01*
X133246667Y-90191905D01*
X133199048Y-90287143D01*
X133151429Y-90334762D01*
X133056191Y-90382381D01*
X132818095Y-90382381D01*
X132722857Y-90334762D01*
X132675238Y-90287143D01*
X206795762Y-102687381D02*
X206462428Y-102211190D01*
X206224333Y-102687381D02*
X206224333Y-101687381D01*
X206605286Y-101687381D01*
X206700524Y-101735000D01*
X206748143Y-101782619D01*
X206795762Y-101877857D01*
X206795762Y-102020714D01*
X206748143Y-102115952D01*
X206700524Y-102163571D01*
X206605286Y-102211190D01*
X206224333Y-102211190D01*
X207081476Y-101687381D02*
X207414809Y-102687381D01*
X207748143Y-101687381D01*
X208605286Y-102687381D02*
X208033857Y-102687381D01*
X208319571Y-102687381D02*
X208319571Y-101687381D01*
X208224333Y-101830238D01*
X208129095Y-101925476D01*
X208033857Y-101973095D01*
X206573524Y-112053714D02*
X206573524Y-112720381D01*
X206335428Y-111672762D02*
X206097333Y-112387048D01*
X206716381Y-112387048D01*
X207097333Y-112720381D02*
X207097333Y-111720381D01*
X207192571Y-112339429D02*
X207478286Y-112720381D01*
X207478286Y-112053714D02*
X207097333Y-112434667D01*
X207811619Y-111720381D02*
X208478286Y-111720381D01*
X208049714Y-112720381D01*
X209685095Y-88542762D02*
X209827952Y-88590381D01*
X210066048Y-88590381D01*
X210161286Y-88542762D01*
X210208905Y-88495143D01*
X210256524Y-88399905D01*
X210256524Y-88304667D01*
X210208905Y-88209429D01*
X210161286Y-88161810D01*
X210066048Y-88114190D01*
X209875571Y-88066571D01*
X209780333Y-88018952D01*
X209732714Y-87971333D01*
X209685095Y-87876095D01*
X209685095Y-87780857D01*
X209732714Y-87685619D01*
X209780333Y-87638000D01*
X209875571Y-87590381D01*
X210113667Y-87590381D01*
X210256524Y-87638000D01*
X210685095Y-88590381D02*
X210685095Y-87590381D01*
X211066048Y-87590381D01*
X211161286Y-87638000D01*
X211208905Y-87685619D01*
X211256524Y-87780857D01*
X211256524Y-87923714D01*
X211208905Y-88018952D01*
X211161286Y-88066571D01*
X211066048Y-88114190D01*
X210685095Y-88114190D01*
X212208905Y-88590381D02*
X211637476Y-88590381D01*
X211923190Y-88590381D02*
X211923190Y-87590381D01*
X211827952Y-87733238D01*
X211732714Y-87828476D01*
X211637476Y-87876095D01*
X207700952Y-101115762D02*
X207843809Y-101163381D01*
X208081905Y-101163381D01*
X208177143Y-101115762D01*
X208224762Y-101068143D01*
X208272381Y-100972905D01*
X208272381Y-100877667D01*
X208224762Y-100782429D01*
X208177143Y-100734810D01*
X208081905Y-100687190D01*
X207891428Y-100639571D01*
X207796190Y-100591952D01*
X207748571Y-100544333D01*
X207700952Y-100449095D01*
X207700952Y-100353857D01*
X207748571Y-100258619D01*
X207796190Y-100211000D01*
X207891428Y-100163381D01*
X208129524Y-100163381D01*
X208272381Y-100211000D01*
X208700952Y-101163381D02*
X208700952Y-100163381D01*
X209081905Y-100163381D01*
X209177143Y-100211000D01*
X209224762Y-100258619D01*
X209272381Y-100353857D01*
X209272381Y-100496714D01*
X209224762Y-100591952D01*
X209177143Y-100639571D01*
X209081905Y-100687190D01*
X208700952Y-100687190D01*
X209700952Y-100639571D02*
X210034286Y-100639571D01*
X210177143Y-101163381D02*
X209700952Y-101163381D01*
X209700952Y-100163381D01*
X210177143Y-100163381D01*
X210558095Y-100877667D02*
X211034286Y-100877667D01*
X210462857Y-101163381D02*
X210796190Y-100163381D01*
X211129524Y-101163381D01*
X211462857Y-101163381D02*
X211462857Y-100163381D01*
X212034286Y-101163381D02*
X211605714Y-100591952D01*
X212034286Y-100163381D02*
X211462857Y-100734810D01*
X212462857Y-100639571D02*
X212796191Y-100639571D01*
X212939048Y-101163381D02*
X212462857Y-101163381D01*
X212462857Y-100163381D01*
X212939048Y-100163381D01*
X213939048Y-101163381D02*
X213605714Y-100687190D01*
X213367619Y-101163381D02*
X213367619Y-100163381D01*
X213748572Y-100163381D01*
X213843810Y-100211000D01*
X213891429Y-100258619D01*
X213939048Y-100353857D01*
X213939048Y-100496714D01*
X213891429Y-100591952D01*
X213843810Y-100639571D01*
X213748572Y-100687190D01*
X213367619Y-100687190D01*
X210058095Y-86447381D02*
X210058095Y-87256905D01*
X210105714Y-87352143D01*
X210153333Y-87399762D01*
X210248571Y-87447381D01*
X210439048Y-87447381D01*
X210534286Y-87399762D01*
X210581905Y-87352143D01*
X210629524Y-87256905D01*
X210629524Y-86447381D01*
X211058095Y-86542619D02*
X211105714Y-86495000D01*
X211200952Y-86447381D01*
X211439048Y-86447381D01*
X211534286Y-86495000D01*
X211581905Y-86542619D01*
X211629524Y-86637857D01*
X211629524Y-86733095D01*
X211581905Y-86875952D01*
X211010476Y-87447381D01*
X211629524Y-87447381D01*
X192452381Y-94261905D02*
X193261905Y-94261905D01*
X193357143Y-94214286D01*
X193404762Y-94166667D01*
X193452381Y-94071429D01*
X193452381Y-93880952D01*
X193404762Y-93785714D01*
X193357143Y-93738095D01*
X193261905Y-93690476D01*
X192452381Y-93690476D01*
X193452381Y-92690476D02*
X193452381Y-93261905D01*
X193452381Y-92976191D02*
X192452381Y-92976191D01*
X192595238Y-93071429D01*
X192690476Y-93166667D01*
X192738095Y-93261905D01*
X194952381Y-96714285D02*
X194952381Y-97190476D01*
X193952381Y-97190476D01*
X194952381Y-96380952D02*
X193952381Y-96380952D01*
X194666667Y-96047618D01*
X193952381Y-95714285D01*
X194952381Y-95714285D01*
X194857143Y-94666666D02*
X194904762Y-94714285D01*
X194952381Y-94857142D01*
X194952381Y-94952380D01*
X194904762Y-95095238D01*
X194809524Y-95190476D01*
X194714286Y-95238095D01*
X194523810Y-95285714D01*
X194380952Y-95285714D01*
X194190476Y-95238095D01*
X194095238Y-95190476D01*
X194000000Y-95095238D01*
X193952381Y-94952380D01*
X193952381Y-94857142D01*
X194000000Y-94714285D01*
X194047619Y-94666666D01*
X193952381Y-93761904D02*
X193952381Y-94238095D01*
X194428571Y-94285714D01*
X194380952Y-94238095D01*
X194333333Y-94142857D01*
X194333333Y-93904761D01*
X194380952Y-93809523D01*
X194428571Y-93761904D01*
X194523810Y-93714285D01*
X194761905Y-93714285D01*
X194857143Y-93761904D01*
X194904762Y-93809523D01*
X194952381Y-93904761D01*
X194952381Y-94142857D01*
X194904762Y-94238095D01*
X194857143Y-94285714D01*
X193952381Y-92809523D02*
X193952381Y-93285714D01*
X194428571Y-93333333D01*
X194380952Y-93285714D01*
X194333333Y-93190476D01*
X194333333Y-92952380D01*
X194380952Y-92857142D01*
X194428571Y-92809523D01*
X194523810Y-92761904D01*
X194761905Y-92761904D01*
X194857143Y-92809523D01*
X194904762Y-92857142D01*
X194952381Y-92952380D01*
X194952381Y-93190476D01*
X194904762Y-93285714D01*
X194857143Y-93333333D01*
X193952381Y-91857142D02*
X193952381Y-92333333D01*
X194428571Y-92380952D01*
X194380952Y-92333333D01*
X194333333Y-92238095D01*
X194333333Y-91999999D01*
X194380952Y-91904761D01*
X194428571Y-91857142D01*
X194523810Y-91809523D01*
X194761905Y-91809523D01*
X194857143Y-91857142D01*
X194904762Y-91904761D01*
X194952381Y-91999999D01*
X194952381Y-92238095D01*
X194904762Y-92333333D01*
X194857143Y-92380952D01*
X194857143Y-90809523D02*
X194904762Y-90857142D01*
X194952381Y-90999999D01*
X194952381Y-91095237D01*
X194904762Y-91238095D01*
X194809524Y-91333333D01*
X194714286Y-91380952D01*
X194523810Y-91428571D01*
X194380952Y-91428571D01*
X194190476Y-91380952D01*
X194095238Y-91333333D01*
X194000000Y-91238095D01*
X193952381Y-91095237D01*
X193952381Y-90999999D01*
X194000000Y-90857142D01*
X194047619Y-90809523D01*
X194952381Y-90380952D02*
X193952381Y-90380952D01*
X194952381Y-89809523D01*
X193952381Y-89809523D01*
X151844761Y-114157381D02*
X151844761Y-113157381D01*
X151939999Y-113776429D02*
X152225714Y-114157381D01*
X152225714Y-113490714D02*
X151844761Y-113871667D01*
X153035238Y-114109762D02*
X152940000Y-114157381D01*
X152749523Y-114157381D01*
X152654285Y-114109762D01*
X152606666Y-114014524D01*
X152606666Y-113633571D01*
X152654285Y-113538333D01*
X152749523Y-113490714D01*
X152940000Y-113490714D01*
X153035238Y-113538333D01*
X153082857Y-113633571D01*
X153082857Y-113728810D01*
X152606666Y-113824048D01*
X153416190Y-113490714D02*
X153654285Y-114157381D01*
X153892381Y-113490714D02*
X153654285Y-114157381D01*
X153559047Y-114395476D01*
X153511428Y-114443095D01*
X153416190Y-114490714D01*
X154273333Y-114157381D02*
X154273333Y-113157381D01*
X154273333Y-113538333D02*
X154368571Y-113490714D01*
X154559048Y-113490714D01*
X154654286Y-113538333D01*
X154701905Y-113585952D01*
X154749524Y-113681190D01*
X154749524Y-113966905D01*
X154701905Y-114062143D01*
X154654286Y-114109762D01*
X154559048Y-114157381D01*
X154368571Y-114157381D01*
X154273333Y-114109762D01*
X155320952Y-114157381D02*
X155225714Y-114109762D01*
X155178095Y-114062143D01*
X155130476Y-113966905D01*
X155130476Y-113681190D01*
X155178095Y-113585952D01*
X155225714Y-113538333D01*
X155320952Y-113490714D01*
X155463810Y-113490714D01*
X155559048Y-113538333D01*
X155606667Y-113585952D01*
X155654286Y-113681190D01*
X155654286Y-113966905D01*
X155606667Y-114062143D01*
X155559048Y-114109762D01*
X155463810Y-114157381D01*
X155320952Y-114157381D01*
X156511429Y-114157381D02*
X156511429Y-113633571D01*
X156463810Y-113538333D01*
X156368572Y-113490714D01*
X156178095Y-113490714D01*
X156082857Y-113538333D01*
X156511429Y-114109762D02*
X156416191Y-114157381D01*
X156178095Y-114157381D01*
X156082857Y-114109762D01*
X156035238Y-114014524D01*
X156035238Y-113919286D01*
X156082857Y-113824048D01*
X156178095Y-113776429D01*
X156416191Y-113776429D01*
X156511429Y-113728810D01*
X156987619Y-114157381D02*
X156987619Y-113490714D01*
X156987619Y-113681190D02*
X157035238Y-113585952D01*
X157082857Y-113538333D01*
X157178095Y-113490714D01*
X157273334Y-113490714D01*
X158035239Y-114157381D02*
X158035239Y-113157381D01*
X158035239Y-114109762D02*
X157940001Y-114157381D01*
X157749524Y-114157381D01*
X157654286Y-114109762D01*
X157606667Y-114062143D01*
X157559048Y-113966905D01*
X157559048Y-113681190D01*
X157606667Y-113585952D01*
X157654286Y-113538333D01*
X157749524Y-113490714D01*
X157940001Y-113490714D01*
X158035239Y-113538333D01*
X181443334Y-112157143D02*
X181395715Y-112204762D01*
X181252858Y-112252381D01*
X181157620Y-112252381D01*
X181014762Y-112204762D01*
X180919524Y-112109524D01*
X180871905Y-112014286D01*
X180824286Y-111823810D01*
X180824286Y-111680952D01*
X180871905Y-111490476D01*
X180919524Y-111395238D01*
X181014762Y-111300000D01*
X181157620Y-111252381D01*
X181252858Y-111252381D01*
X181395715Y-111300000D01*
X181443334Y-111347619D01*
X181776667Y-111252381D02*
X182443334Y-111252381D01*
X182014762Y-112252381D01*
X173585239Y-111728571D02*
X173728096Y-111776190D01*
X173775715Y-111823810D01*
X173823334Y-111919048D01*
X173823334Y-112061905D01*
X173775715Y-112157143D01*
X173728096Y-112204762D01*
X173632858Y-112252381D01*
X173251905Y-112252381D01*
X173251905Y-111252381D01*
X173585239Y-111252381D01*
X173680477Y-111300000D01*
X173728096Y-111347619D01*
X173775715Y-111442857D01*
X173775715Y-111538095D01*
X173728096Y-111633333D01*
X173680477Y-111680952D01*
X173585239Y-111728571D01*
X173251905Y-111728571D01*
X174680477Y-111252381D02*
X174490000Y-111252381D01*
X174394762Y-111300000D01*
X174347143Y-111347619D01*
X174251905Y-111490476D01*
X174204286Y-111680952D01*
X174204286Y-112061905D01*
X174251905Y-112157143D01*
X174299524Y-112204762D01*
X174394762Y-112252381D01*
X174585239Y-112252381D01*
X174680477Y-112204762D01*
X174728096Y-112157143D01*
X174775715Y-112061905D01*
X174775715Y-111823810D01*
X174728096Y-111728571D01*
X174680477Y-111680952D01*
X174585239Y-111633333D01*
X174394762Y-111633333D01*
X174299524Y-111680952D01*
X174251905Y-111728571D01*
X174204286Y-111823810D01*
X165655714Y-111966667D02*
X166131905Y-111966667D01*
X165560476Y-112252381D02*
X165893809Y-111252381D01*
X166227143Y-112252381D01*
X166989048Y-111252381D02*
X166798571Y-111252381D01*
X166703333Y-111300000D01*
X166655714Y-111347619D01*
X166560476Y-111490476D01*
X166512857Y-111680952D01*
X166512857Y-112061905D01*
X166560476Y-112157143D01*
X166608095Y-112204762D01*
X166703333Y-112252381D01*
X166893810Y-112252381D01*
X166989048Y-112204762D01*
X167036667Y-112157143D01*
X167084286Y-112061905D01*
X167084286Y-111823810D01*
X167036667Y-111728571D01*
X166989048Y-111680952D01*
X166893810Y-111633333D01*
X166703333Y-111633333D01*
X166608095Y-111680952D01*
X166560476Y-111728571D01*
X166512857Y-111823810D01*
X158535715Y-111300000D02*
X158440477Y-111252381D01*
X158297620Y-111252381D01*
X158154762Y-111300000D01*
X158059524Y-111395238D01*
X158011905Y-111490476D01*
X157964286Y-111680952D01*
X157964286Y-111823810D01*
X158011905Y-112014286D01*
X158059524Y-112109524D01*
X158154762Y-112204762D01*
X158297620Y-112252381D01*
X158392858Y-112252381D01*
X158535715Y-112204762D01*
X158583334Y-112157143D01*
X158583334Y-111823810D01*
X158392858Y-111823810D01*
X159440477Y-111252381D02*
X159250000Y-111252381D01*
X159154762Y-111300000D01*
X159107143Y-111347619D01*
X159011905Y-111490476D01*
X158964286Y-111680952D01*
X158964286Y-112061905D01*
X159011905Y-112157143D01*
X159059524Y-112204762D01*
X159154762Y-112252381D01*
X159345239Y-112252381D01*
X159440477Y-112204762D01*
X159488096Y-112157143D01*
X159535715Y-112061905D01*
X159535715Y-111823810D01*
X159488096Y-111728571D01*
X159440477Y-111680952D01*
X159345239Y-111633333D01*
X159154762Y-111633333D01*
X159059524Y-111680952D01*
X159011905Y-111728571D01*
X158964286Y-111823810D01*
X150796667Y-111728571D02*
X150463333Y-111728571D01*
X150463333Y-112252381D02*
X150463333Y-111252381D01*
X150939524Y-111252381D01*
X151749048Y-111252381D02*
X151558571Y-111252381D01*
X151463333Y-111300000D01*
X151415714Y-111347619D01*
X151320476Y-111490476D01*
X151272857Y-111680952D01*
X151272857Y-112061905D01*
X151320476Y-112157143D01*
X151368095Y-112204762D01*
X151463333Y-112252381D01*
X151653810Y-112252381D01*
X151749048Y-112204762D01*
X151796667Y-112157143D01*
X151844286Y-112061905D01*
X151844286Y-111823810D01*
X151796667Y-111728571D01*
X151749048Y-111680952D01*
X151653810Y-111633333D01*
X151463333Y-111633333D01*
X151368095Y-111680952D01*
X151320476Y-111728571D01*
X151272857Y-111823810D01*
X142819524Y-111728571D02*
X143152858Y-111728571D01*
X143295715Y-112252381D02*
X142819524Y-112252381D01*
X142819524Y-111252381D01*
X143295715Y-111252381D01*
X144152858Y-111252381D02*
X143962381Y-111252381D01*
X143867143Y-111300000D01*
X143819524Y-111347619D01*
X143724286Y-111490476D01*
X143676667Y-111680952D01*
X143676667Y-112061905D01*
X143724286Y-112157143D01*
X143771905Y-112204762D01*
X143867143Y-112252381D01*
X144057620Y-112252381D01*
X144152858Y-112204762D01*
X144200477Y-112157143D01*
X144248096Y-112061905D01*
X144248096Y-111823810D01*
X144200477Y-111728571D01*
X144152858Y-111680952D01*
X144057620Y-111633333D01*
X143867143Y-111633333D01*
X143771905Y-111680952D01*
X143724286Y-111728571D01*
X143676667Y-111823810D01*
X135151905Y-112252381D02*
X135151905Y-111252381D01*
X135390000Y-111252381D01*
X135532858Y-111300000D01*
X135628096Y-111395238D01*
X135675715Y-111490476D01*
X135723334Y-111680952D01*
X135723334Y-111823810D01*
X135675715Y-112014286D01*
X135628096Y-112109524D01*
X135532858Y-112204762D01*
X135390000Y-112252381D01*
X135151905Y-112252381D01*
X136580477Y-111252381D02*
X136390000Y-111252381D01*
X136294762Y-111300000D01*
X136247143Y-111347619D01*
X136151905Y-111490476D01*
X136104286Y-111680952D01*
X136104286Y-112061905D01*
X136151905Y-112157143D01*
X136199524Y-112204762D01*
X136294762Y-112252381D01*
X136485239Y-112252381D01*
X136580477Y-112204762D01*
X136628096Y-112157143D01*
X136675715Y-112061905D01*
X136675715Y-111823810D01*
X136628096Y-111728571D01*
X136580477Y-111680952D01*
X136485239Y-111633333D01*
X136294762Y-111633333D01*
X136199524Y-111680952D01*
X136151905Y-111728571D01*
X136104286Y-111823810D01*
X128103334Y-112157143D02*
X128055715Y-112204762D01*
X127912858Y-112252381D01*
X127817620Y-112252381D01*
X127674762Y-112204762D01*
X127579524Y-112109524D01*
X127531905Y-112014286D01*
X127484286Y-111823810D01*
X127484286Y-111680952D01*
X127531905Y-111490476D01*
X127579524Y-111395238D01*
X127674762Y-111300000D01*
X127817620Y-111252381D01*
X127912858Y-111252381D01*
X128055715Y-111300000D01*
X128103334Y-111347619D01*
X128960477Y-111252381D02*
X128770000Y-111252381D01*
X128674762Y-111300000D01*
X128627143Y-111347619D01*
X128531905Y-111490476D01*
X128484286Y-111680952D01*
X128484286Y-112061905D01*
X128531905Y-112157143D01*
X128579524Y-112204762D01*
X128674762Y-112252381D01*
X128865239Y-112252381D01*
X128960477Y-112204762D01*
X129008096Y-112157143D01*
X129055715Y-112061905D01*
X129055715Y-111823810D01*
X129008096Y-111728571D01*
X128960477Y-111680952D01*
X128865239Y-111633333D01*
X128674762Y-111633333D01*
X128579524Y-111680952D01*
X128531905Y-111728571D01*
X128484286Y-111823810D01*
X183602334Y-90482381D02*
X183269000Y-90006190D01*
X183030905Y-90482381D02*
X183030905Y-89482381D01*
X183411858Y-89482381D01*
X183507096Y-89530000D01*
X183554715Y-89577619D01*
X183602334Y-89672857D01*
X183602334Y-89815714D01*
X183554715Y-89910952D01*
X183507096Y-89958571D01*
X183411858Y-90006190D01*
X183030905Y-90006190D01*
X184459477Y-89815714D02*
X184459477Y-90482381D01*
X184221381Y-89434762D02*
X183983286Y-90149048D01*
X184602334Y-90149048D01*
X183078524Y-92482381D02*
X182888047Y-92482381D01*
X182792809Y-92530000D01*
X182745190Y-92577619D01*
X182649952Y-92720476D01*
X182602333Y-92910952D01*
X182602333Y-93291905D01*
X182649952Y-93387143D01*
X182697571Y-93434762D01*
X182792809Y-93482381D01*
X182983286Y-93482381D01*
X183078524Y-93434762D01*
X183126143Y-93387143D01*
X183173762Y-93291905D01*
X183173762Y-93053810D01*
X183126143Y-92958571D01*
X183078524Y-92910952D01*
X182983286Y-92863333D01*
X182792809Y-92863333D01*
X182697571Y-92910952D01*
X182649952Y-92958571D01*
X182602333Y-93053810D01*
X183602333Y-93482381D02*
X183602333Y-92482381D01*
X183697571Y-93101429D02*
X183983286Y-93482381D01*
X183983286Y-92815714D02*
X183602333Y-93196667D01*
X184554714Y-92910952D02*
X184459476Y-92863333D01*
X184411857Y-92815714D01*
X184364238Y-92720476D01*
X184364238Y-92672857D01*
X184411857Y-92577619D01*
X184459476Y-92530000D01*
X184554714Y-92482381D01*
X184745191Y-92482381D01*
X184840429Y-92530000D01*
X184888048Y-92577619D01*
X184935667Y-92672857D01*
X184935667Y-92720476D01*
X184888048Y-92815714D01*
X184840429Y-92863333D01*
X184745191Y-92910952D01*
X184554714Y-92910952D01*
X184459476Y-92958571D01*
X184411857Y-93006190D01*
X184364238Y-93101429D01*
X184364238Y-93291905D01*
X184411857Y-93387143D01*
X184459476Y-93434762D01*
X184554714Y-93482381D01*
X184745191Y-93482381D01*
X184840429Y-93434762D01*
X184888048Y-93387143D01*
X184935667Y-93291905D01*
X184935667Y-93101429D01*
X184888048Y-93006190D01*
X184840429Y-92958571D01*
X184745191Y-92910952D01*
X183602334Y-85362381D02*
X183269000Y-84886190D01*
X183030905Y-85362381D02*
X183030905Y-84362381D01*
X183411858Y-84362381D01*
X183507096Y-84410000D01*
X183554715Y-84457619D01*
X183602334Y-84552857D01*
X183602334Y-84695714D01*
X183554715Y-84790952D01*
X183507096Y-84838571D01*
X183411858Y-84886190D01*
X183030905Y-84886190D01*
X184507096Y-84362381D02*
X184030905Y-84362381D01*
X183983286Y-84838571D01*
X184030905Y-84790952D01*
X184126143Y-84743333D01*
X184364239Y-84743333D01*
X184459477Y-84790952D01*
X184507096Y-84838571D01*
X184554715Y-84933810D01*
X184554715Y-85171905D01*
X184507096Y-85267143D01*
X184459477Y-85314762D01*
X184364239Y-85362381D01*
X184126143Y-85362381D01*
X184030905Y-85314762D01*
X183983286Y-85267143D01*
X183007096Y-87695714D02*
X183007096Y-88362381D01*
X182769000Y-87314762D02*
X182530905Y-88029048D01*
X183149953Y-88029048D01*
X183435667Y-87362381D02*
X184102334Y-87362381D01*
X183673762Y-88362381D01*
X184673762Y-87362381D02*
X184769001Y-87362381D01*
X184864239Y-87410000D01*
X184911858Y-87457619D01*
X184959477Y-87552857D01*
X185007096Y-87743333D01*
X185007096Y-87981429D01*
X184959477Y-88171905D01*
X184911858Y-88267143D01*
X184864239Y-88314762D01*
X184769001Y-88362381D01*
X184673762Y-88362381D01*
X184578524Y-88314762D01*
X184530905Y-88267143D01*
X184483286Y-88171905D01*
X184435667Y-87981429D01*
X184435667Y-87743333D01*
X184483286Y-87552857D01*
X184530905Y-87457619D01*
X184578524Y-87410000D01*
X184673762Y-87362381D01*
%LPC*%
D16*
X121701000Y-92052000D03*
X121701000Y-105052000D03*
D17*
X202057000Y-92456000D03*
X202057000Y-97536000D03*
X200533000Y-84455000D03*
X205613000Y-84455000D03*
D18*
X188468000Y-110490000D03*
D19*
X198628000Y-110490000D03*
D18*
X198628000Y-106553000D03*
D19*
X188468000Y-106553000D03*
D18*
X188468000Y-102616000D03*
D19*
X198628000Y-102616000D03*
D20*
X178900000Y-91480000D03*
X176700000Y-91480000D03*
X171280000Y-91480000D03*
X169080000Y-91480000D03*
X163660000Y-91480000D03*
X161460000Y-91480000D03*
X156040000Y-91480000D03*
X153840000Y-91480000D03*
X148420000Y-91480000D03*
X146220000Y-91480000D03*
X140800000Y-91480000D03*
X138600000Y-91480000D03*
X133180000Y-91480000D03*
X130980000Y-91480000D03*
D16*
X207264000Y-109728000D03*
X204724000Y-104648000D03*
X209804000Y-104648000D03*
D21*
X210947000Y-91821000D03*
X210947000Y-96901000D03*
D22*
X210820000Y-84455000D03*
D23*
X197612000Y-97409000D03*
D24*
X189992000Y-89789000D03*
X197612000Y-94869000D03*
X189992000Y-92329000D03*
X197612000Y-92329000D03*
X189992000Y-94869000D03*
X197612000Y-89789000D03*
X189992000Y-97409000D03*
D25*
X151130000Y-102275000D03*
X143510000Y-102275000D03*
X158750000Y-102275000D03*
X166370000Y-102275000D03*
X135890000Y-102275000D03*
X128270000Y-102275000D03*
X173990000Y-102275000D03*
X181610000Y-102275000D03*
D20*
X182669000Y-91480000D03*
X184869000Y-91480000D03*
X182669000Y-86360000D03*
X184869000Y-86360000D03*
D22*
X208750000Y-120750000D03*
X119250000Y-120750000D03*
X212250000Y-120750000D03*
X127250000Y-118250000D03*
X127250000Y-123250000D03*
X135250000Y-118250000D03*
X135250000Y-123250000D03*
M02*
