M48
;DRILL file {KiCad 4.0.2-stable} date 2016/06/28 0:11:07
;FORMAT={3:3/ absolute / metric / suppress trailing zeros}
FMAT,2
METRIC,LZ
T1C0.600
T2C0.800
T3C0.850
%
G90
G05
M71
T1
X117Y-129
X117Y-131
X117Y-133
T2
X133Y-08846
X133Y-091
X133Y-09354
X139Y-10173
X139Y-10427
X14292Y-085
X14292Y-091
X14292Y-097
X1465Y-077
X1495Y-077
X15308Y-085
X15308Y-091
X15308Y-097
X157Y-10173
X157Y-10427
X163Y-08846
X163Y-091
X163Y-09354
T3
X1335Y-121
X1535Y-121
T0
M30
