G04 #@! TF.FileFunction,Copper,L1,Top,Signal*
%FSLAX46Y46*%
G04 Gerber Fmt 4.6, Leading zero omitted, Abs format (unit mm)*
G04 Created by KiCad (PCBNEW 4.0.1-stable) date 2016/10/28 19:38:33*
%MOMM*%
G01*
G04 APERTURE LIST*
%ADD10C,0.100000*%
%ADD11C,2.500000*%
%ADD12O,2.200000X1.800000*%
%ADD13R,10.000000X25.000000*%
%ADD14C,1.600000*%
%ADD15C,1.800000*%
%ADD16R,1.800000X1.800000*%
%ADD17C,2.000000*%
%ADD18R,2.200000X2.200000*%
%ADD19C,0.500000*%
%ADD20C,1.000000*%
%ADD21C,0.800000*%
%ADD22C,0.254000*%
G04 APERTURE END LIST*
D10*
D11*
X182755000Y-107630000D03*
X182755000Y-94630000D03*
D12*
X198030000Y-88430000D03*
X198030000Y-90970000D03*
X198030000Y-85890000D03*
X198030000Y-83350000D03*
X190410000Y-83350000D03*
X190410000Y-85890000D03*
X190410000Y-88430000D03*
X190410000Y-90970000D03*
D13*
X118020000Y-98590000D03*
X105320000Y-98590000D03*
X130720000Y-98590000D03*
X143420000Y-98590000D03*
X92620000Y-98590000D03*
X79920000Y-98590000D03*
X156120000Y-98590000D03*
X168820000Y-98590000D03*
D14*
X205015000Y-85890000D03*
X205015000Y-90970000D03*
X205650000Y-82080000D03*
X210730000Y-82080000D03*
D15*
X197776000Y-112814000D03*
D16*
X207936000Y-112814000D03*
D15*
X205396000Y-105702000D03*
D16*
X195236000Y-105702000D03*
D15*
X192442000Y-98590000D03*
D16*
X202602000Y-98590000D03*
D15*
X165010000Y-81445000D03*
D16*
X175170000Y-81445000D03*
D15*
X175170000Y-77000000D03*
D16*
X185330000Y-77000000D03*
D15*
X162470000Y-77000000D03*
D16*
X152310000Y-77000000D03*
D15*
X149770000Y-81445000D03*
D16*
X139610000Y-81445000D03*
D15*
X137070000Y-77000000D03*
D16*
X126910000Y-77000000D03*
D15*
X124370000Y-81445000D03*
D16*
X114210000Y-81445000D03*
D15*
X111670000Y-77000000D03*
D16*
X101510000Y-77000000D03*
D15*
X98970000Y-81445000D03*
D16*
X88810000Y-81445000D03*
D15*
X86270000Y-77000000D03*
D16*
X76110000Y-77000000D03*
D11*
X209460000Y-100876000D03*
X214540000Y-98336000D03*
X214540000Y-103416000D03*
D17*
X214540000Y-85890000D03*
X214540000Y-90970000D03*
D18*
X218858000Y-112560000D03*
D19*
X214540000Y-90970000D02*
X205015000Y-90970000D01*
X198030000Y-90970000D02*
X214540000Y-90970000D01*
X195236000Y-105702000D02*
X184683000Y-105702000D01*
X184683000Y-105702000D02*
X182755000Y-107630000D01*
X198030000Y-90970000D02*
X198030000Y-102908000D01*
X198030000Y-102908000D02*
X195236000Y-105702000D01*
X190410000Y-90970000D02*
X186415000Y-90970000D01*
X186415000Y-90970000D02*
X182755000Y-94630000D01*
X198030000Y-83350000D02*
X195490000Y-83350000D01*
X193458000Y-90970000D02*
X190410000Y-90970000D01*
X193966000Y-90462000D02*
X193458000Y-90970000D01*
X193966000Y-84874000D02*
X193966000Y-90462000D01*
X195490000Y-83350000D02*
X193966000Y-84874000D01*
X205015000Y-85890000D02*
X203110000Y-85890000D01*
X200570000Y-88430000D02*
X198030000Y-88430000D01*
X203110000Y-85890000D02*
X200570000Y-88430000D01*
X205650000Y-82080000D02*
X205650000Y-82334000D01*
X205650000Y-82334000D02*
X211492000Y-88176000D01*
X218858000Y-89700000D02*
X218858000Y-112560000D01*
X217334000Y-88176000D02*
X218858000Y-89700000D01*
X211492000Y-88176000D02*
X217334000Y-88176000D01*
X205650000Y-82080000D02*
X203872000Y-82080000D01*
X200062000Y-85890000D02*
X198030000Y-85890000D01*
X203872000Y-82080000D02*
X200062000Y-85890000D01*
X210730000Y-82080000D02*
X214540000Y-85890000D01*
D20*
X114210000Y-81445000D02*
X114210000Y-94780000D01*
X114210000Y-94780000D02*
X118020000Y-98590000D01*
D21*
X111670000Y-77000000D02*
X111670000Y-78905000D01*
X111670000Y-78905000D02*
X114210000Y-81445000D01*
D20*
X105320000Y-98590000D02*
X105320000Y-87795000D01*
X105320000Y-87795000D02*
X98970000Y-81445000D01*
D21*
X98970000Y-81445000D02*
X101510000Y-78905000D01*
X101510000Y-78905000D02*
X101510000Y-77000000D01*
D20*
X101510000Y-94780000D02*
X105320000Y-98590000D01*
X124370000Y-81445000D02*
X128815000Y-85890000D01*
X128815000Y-85890000D02*
X128815000Y-96685000D01*
X128815000Y-96685000D02*
X130720000Y-98590000D01*
D21*
X126910000Y-77000000D02*
X126910000Y-78905000D01*
X126910000Y-78905000D02*
X124370000Y-81445000D01*
D20*
X126910000Y-94780000D02*
X130720000Y-98590000D01*
X139610000Y-81445000D02*
X139610000Y-94780000D01*
X139610000Y-94780000D02*
X143420000Y-98590000D01*
D21*
X137070000Y-77000000D02*
X137070000Y-78905000D01*
X137070000Y-78905000D02*
X139610000Y-81445000D01*
D20*
X139610000Y-94780000D02*
X143420000Y-98590000D01*
X88810000Y-81445000D02*
X88810000Y-94780000D01*
X88810000Y-94780000D02*
X92620000Y-98590000D01*
D21*
X86270000Y-77000000D02*
X86270000Y-78905000D01*
X86270000Y-78905000D02*
X88810000Y-81445000D01*
X76110000Y-77000000D02*
X76110000Y-94780000D01*
X76110000Y-94780000D02*
X79920000Y-98590000D01*
D20*
X76110000Y-94780000D02*
X79920000Y-98590000D01*
X149770000Y-81445000D02*
X154215000Y-85890000D01*
X154215000Y-85890000D02*
X154215000Y-96685000D01*
X154215000Y-96685000D02*
X156120000Y-98590000D01*
D21*
X152310000Y-77000000D02*
X152310000Y-78905000D01*
X152310000Y-78905000D02*
X149770000Y-81445000D01*
D20*
X152310000Y-94780000D02*
X156120000Y-98590000D01*
X165010000Y-81445000D02*
X165010000Y-94780000D01*
X165010000Y-94780000D02*
X168820000Y-98590000D01*
D21*
X162470000Y-77000000D02*
X162470000Y-78905000D01*
X162470000Y-78905000D02*
X165010000Y-81445000D01*
D20*
X165010000Y-94780000D02*
X168820000Y-98590000D01*
D19*
X214540000Y-103416000D02*
X214540000Y-111036000D01*
X212762000Y-112814000D02*
X207936000Y-112814000D01*
X214540000Y-111036000D02*
X212762000Y-112814000D01*
X214540000Y-98336000D02*
X214540000Y-99352000D01*
X214540000Y-99352000D02*
X208190000Y-105702000D01*
X208190000Y-105702000D02*
X205396000Y-105702000D01*
X190410000Y-83350000D02*
X180250000Y-83350000D01*
X179488000Y-98590000D02*
X192442000Y-98590000D01*
X178472000Y-97574000D02*
X179488000Y-98590000D01*
X178472000Y-85128000D02*
X178472000Y-97574000D01*
X180250000Y-83350000D02*
X178472000Y-85128000D01*
X202602000Y-98590000D02*
X207174000Y-98590000D01*
X207174000Y-98590000D02*
X209460000Y-100876000D01*
D21*
X175170000Y-77000000D02*
X175170000Y-81445000D01*
D22*
G36*
X221573000Y-118673000D02*
X72827000Y-118673000D01*
X72827000Y-113117991D01*
X196240735Y-113117991D01*
X196473932Y-113682371D01*
X196905357Y-114114551D01*
X197469330Y-114348733D01*
X198079991Y-114349265D01*
X198644371Y-114116068D01*
X199076551Y-113684643D01*
X199310733Y-113120670D01*
X199311265Y-112510009D01*
X199078068Y-111945629D01*
X199046495Y-111914000D01*
X206388560Y-111914000D01*
X206388560Y-113714000D01*
X206432838Y-113949317D01*
X206571910Y-114165441D01*
X206784110Y-114310431D01*
X207036000Y-114361440D01*
X208836000Y-114361440D01*
X209071317Y-114317162D01*
X209287441Y-114178090D01*
X209432431Y-113965890D01*
X209483440Y-113714000D01*
X209483440Y-113699000D01*
X212761995Y-113699000D01*
X212762000Y-113699001D01*
X213044484Y-113642810D01*
X213100675Y-113631633D01*
X213387790Y-113439790D01*
X215165787Y-111661792D01*
X215165790Y-111661790D01*
X215357633Y-111374675D01*
X215379139Y-111266560D01*
X215425001Y-111036000D01*
X215425000Y-111035995D01*
X215425000Y-105089898D01*
X215606372Y-105014957D01*
X216137093Y-104485161D01*
X216424672Y-103792595D01*
X216425326Y-103042695D01*
X216138957Y-102349628D01*
X215609161Y-101818907D01*
X214916595Y-101531328D01*
X214166695Y-101530674D01*
X213473628Y-101817043D01*
X212942907Y-102346839D01*
X212655328Y-103039405D01*
X212654674Y-103789305D01*
X212941043Y-104482372D01*
X213470839Y-105013093D01*
X213655000Y-105089563D01*
X213655000Y-110669421D01*
X212395420Y-111929000D01*
X209483440Y-111929000D01*
X209483440Y-111914000D01*
X209439162Y-111678683D01*
X209300090Y-111462559D01*
X209087890Y-111317569D01*
X208836000Y-111266560D01*
X207036000Y-111266560D01*
X206800683Y-111310838D01*
X206584559Y-111449910D01*
X206439569Y-111662110D01*
X206388560Y-111914000D01*
X199046495Y-111914000D01*
X198646643Y-111513449D01*
X198082670Y-111279267D01*
X197472009Y-111278735D01*
X196907629Y-111511932D01*
X196475449Y-111943357D01*
X196241267Y-112507330D01*
X196240735Y-113117991D01*
X72827000Y-113117991D01*
X72827000Y-86090000D01*
X74272560Y-86090000D01*
X74272560Y-111090000D01*
X74316838Y-111325317D01*
X74455910Y-111541441D01*
X74668110Y-111686431D01*
X74920000Y-111737440D01*
X84920000Y-111737440D01*
X85155317Y-111693162D01*
X85371441Y-111554090D01*
X85516431Y-111341890D01*
X85567440Y-111090000D01*
X85567440Y-86090000D01*
X85523162Y-85854683D01*
X85384090Y-85638559D01*
X85171890Y-85493569D01*
X84920000Y-85442560D01*
X77145000Y-85442560D01*
X77145000Y-78522038D01*
X77245317Y-78503162D01*
X77461441Y-78364090D01*
X77606431Y-78151890D01*
X77657440Y-77900000D01*
X77657440Y-77303991D01*
X84734735Y-77303991D01*
X84967932Y-77868371D01*
X85235000Y-78135906D01*
X85235000Y-78904995D01*
X85234999Y-78905000D01*
X85313785Y-79301077D01*
X85538144Y-79636856D01*
X87262560Y-81361271D01*
X87262560Y-82345000D01*
X87306838Y-82580317D01*
X87445910Y-82796441D01*
X87658110Y-82941431D01*
X87675000Y-82944851D01*
X87675000Y-85442560D01*
X87620000Y-85442560D01*
X87384683Y-85486838D01*
X87168559Y-85625910D01*
X87023569Y-85838110D01*
X86972560Y-86090000D01*
X86972560Y-111090000D01*
X87016838Y-111325317D01*
X87155910Y-111541441D01*
X87368110Y-111686431D01*
X87620000Y-111737440D01*
X97620000Y-111737440D01*
X97855317Y-111693162D01*
X98071441Y-111554090D01*
X98216431Y-111341890D01*
X98267440Y-111090000D01*
X98267440Y-86090000D01*
X98223162Y-85854683D01*
X98084090Y-85638559D01*
X97871890Y-85493569D01*
X97620000Y-85442560D01*
X89945000Y-85442560D01*
X89945000Y-82948222D01*
X89945317Y-82948162D01*
X90161441Y-82809090D01*
X90306431Y-82596890D01*
X90357440Y-82345000D01*
X90357440Y-81748991D01*
X97434735Y-81748991D01*
X97667932Y-82313371D01*
X98099357Y-82745551D01*
X98663330Y-82979733D01*
X98899807Y-82979939D01*
X101362428Y-85442560D01*
X100320000Y-85442560D01*
X100084683Y-85486838D01*
X99868559Y-85625910D01*
X99723569Y-85838110D01*
X99672560Y-86090000D01*
X99672560Y-111090000D01*
X99716838Y-111325317D01*
X99855910Y-111541441D01*
X100068110Y-111686431D01*
X100320000Y-111737440D01*
X110320000Y-111737440D01*
X110555317Y-111693162D01*
X110771441Y-111554090D01*
X110916431Y-111341890D01*
X110967440Y-111090000D01*
X110967440Y-86090000D01*
X110923162Y-85854683D01*
X110784090Y-85638559D01*
X110571890Y-85493569D01*
X110320000Y-85442560D01*
X104572692Y-85442560D01*
X100505061Y-81374929D01*
X100505062Y-81373649D01*
X102241853Y-79636858D01*
X102241856Y-79636856D01*
X102376349Y-79435571D01*
X102466215Y-79301078D01*
X102545000Y-78905000D01*
X102545000Y-78522038D01*
X102645317Y-78503162D01*
X102861441Y-78364090D01*
X103006431Y-78151890D01*
X103057440Y-77900000D01*
X103057440Y-77303991D01*
X110134735Y-77303991D01*
X110367932Y-77868371D01*
X110635000Y-78135906D01*
X110635000Y-78904995D01*
X110634999Y-78905000D01*
X110713785Y-79301077D01*
X110938144Y-79636856D01*
X112662560Y-81361271D01*
X112662560Y-82345000D01*
X112706838Y-82580317D01*
X112845910Y-82796441D01*
X113058110Y-82941431D01*
X113075000Y-82944851D01*
X113075000Y-85442560D01*
X113020000Y-85442560D01*
X112784683Y-85486838D01*
X112568559Y-85625910D01*
X112423569Y-85838110D01*
X112372560Y-86090000D01*
X112372560Y-111090000D01*
X112416838Y-111325317D01*
X112555910Y-111541441D01*
X112768110Y-111686431D01*
X113020000Y-111737440D01*
X123020000Y-111737440D01*
X123255317Y-111693162D01*
X123471441Y-111554090D01*
X123616431Y-111341890D01*
X123667440Y-111090000D01*
X123667440Y-86090000D01*
X123623162Y-85854683D01*
X123484090Y-85638559D01*
X123271890Y-85493569D01*
X123020000Y-85442560D01*
X115345000Y-85442560D01*
X115345000Y-82948222D01*
X115345317Y-82948162D01*
X115561441Y-82809090D01*
X115706431Y-82596890D01*
X115757440Y-82345000D01*
X115757440Y-81748991D01*
X122834735Y-81748991D01*
X123067932Y-82313371D01*
X123499357Y-82745551D01*
X124063330Y-82979733D01*
X124299807Y-82979939D01*
X126762428Y-85442560D01*
X125720000Y-85442560D01*
X125484683Y-85486838D01*
X125268559Y-85625910D01*
X125123569Y-85838110D01*
X125072560Y-86090000D01*
X125072560Y-111090000D01*
X125116838Y-111325317D01*
X125255910Y-111541441D01*
X125468110Y-111686431D01*
X125720000Y-111737440D01*
X135720000Y-111737440D01*
X135955317Y-111693162D01*
X136171441Y-111554090D01*
X136316431Y-111341890D01*
X136367440Y-111090000D01*
X136367440Y-86090000D01*
X136323162Y-85854683D01*
X136184090Y-85638559D01*
X135971890Y-85493569D01*
X135720000Y-85442560D01*
X129854854Y-85442560D01*
X129617566Y-85087434D01*
X125905061Y-81374929D01*
X125905062Y-81373649D01*
X127641853Y-79636858D01*
X127641856Y-79636856D01*
X127776349Y-79435571D01*
X127866215Y-79301078D01*
X127945000Y-78905000D01*
X127945000Y-78522038D01*
X128045317Y-78503162D01*
X128261441Y-78364090D01*
X128406431Y-78151890D01*
X128457440Y-77900000D01*
X128457440Y-77303991D01*
X135534735Y-77303991D01*
X135767932Y-77868371D01*
X136035000Y-78135906D01*
X136035000Y-78904995D01*
X136034999Y-78905000D01*
X136113785Y-79301077D01*
X136338144Y-79636856D01*
X138062560Y-81361271D01*
X138062560Y-82345000D01*
X138106838Y-82580317D01*
X138245910Y-82796441D01*
X138458110Y-82941431D01*
X138475000Y-82944851D01*
X138475000Y-85442560D01*
X138420000Y-85442560D01*
X138184683Y-85486838D01*
X137968559Y-85625910D01*
X137823569Y-85838110D01*
X137772560Y-86090000D01*
X137772560Y-111090000D01*
X137816838Y-111325317D01*
X137955910Y-111541441D01*
X138168110Y-111686431D01*
X138420000Y-111737440D01*
X148420000Y-111737440D01*
X148655317Y-111693162D01*
X148871441Y-111554090D01*
X149016431Y-111341890D01*
X149067440Y-111090000D01*
X149067440Y-86090000D01*
X149023162Y-85854683D01*
X148884090Y-85638559D01*
X148671890Y-85493569D01*
X148420000Y-85442560D01*
X140745000Y-85442560D01*
X140745000Y-82948222D01*
X140745317Y-82948162D01*
X140961441Y-82809090D01*
X141106431Y-82596890D01*
X141157440Y-82345000D01*
X141157440Y-81748991D01*
X148234735Y-81748991D01*
X148467932Y-82313371D01*
X148899357Y-82745551D01*
X149463330Y-82979733D01*
X149699807Y-82979939D01*
X152162428Y-85442560D01*
X151120000Y-85442560D01*
X150884683Y-85486838D01*
X150668559Y-85625910D01*
X150523569Y-85838110D01*
X150472560Y-86090000D01*
X150472560Y-111090000D01*
X150516838Y-111325317D01*
X150655910Y-111541441D01*
X150868110Y-111686431D01*
X151120000Y-111737440D01*
X161120000Y-111737440D01*
X161355317Y-111693162D01*
X161571441Y-111554090D01*
X161716431Y-111341890D01*
X161767440Y-111090000D01*
X161767440Y-86090000D01*
X161723162Y-85854683D01*
X161584090Y-85638559D01*
X161371890Y-85493569D01*
X161120000Y-85442560D01*
X155254854Y-85442560D01*
X155017566Y-85087434D01*
X151305061Y-81374929D01*
X151305062Y-81373649D01*
X153041853Y-79636858D01*
X153041856Y-79636856D01*
X153176349Y-79435571D01*
X153266215Y-79301078D01*
X153345000Y-78905000D01*
X153345000Y-78522038D01*
X153445317Y-78503162D01*
X153661441Y-78364090D01*
X153806431Y-78151890D01*
X153857440Y-77900000D01*
X153857440Y-77303991D01*
X160934735Y-77303991D01*
X161167932Y-77868371D01*
X161435000Y-78135906D01*
X161435000Y-78904995D01*
X161434999Y-78905000D01*
X161513785Y-79301077D01*
X161738144Y-79636856D01*
X163475062Y-81373773D01*
X163474735Y-81748991D01*
X163707932Y-82313371D01*
X163875000Y-82480731D01*
X163875000Y-85442560D01*
X163820000Y-85442560D01*
X163584683Y-85486838D01*
X163368559Y-85625910D01*
X163223569Y-85838110D01*
X163172560Y-86090000D01*
X163172560Y-111090000D01*
X163216838Y-111325317D01*
X163355910Y-111541441D01*
X163568110Y-111686431D01*
X163820000Y-111737440D01*
X173820000Y-111737440D01*
X174055317Y-111693162D01*
X174271441Y-111554090D01*
X174416431Y-111341890D01*
X174467440Y-111090000D01*
X174467440Y-108963320D01*
X181601285Y-108963320D01*
X181730533Y-109256123D01*
X182430806Y-109524388D01*
X183180435Y-109504250D01*
X183779467Y-109256123D01*
X183908715Y-108963320D01*
X182755000Y-107809605D01*
X181601285Y-108963320D01*
X174467440Y-108963320D01*
X174467440Y-107305806D01*
X180860612Y-107305806D01*
X180880750Y-108055435D01*
X181128877Y-108654467D01*
X181421680Y-108783715D01*
X182575395Y-107630000D01*
X182934605Y-107630000D01*
X184088320Y-108783715D01*
X184381123Y-108654467D01*
X184649388Y-107954194D01*
X184629250Y-107204565D01*
X184381123Y-106605533D01*
X184088320Y-106476285D01*
X182934605Y-107630000D01*
X182575395Y-107630000D01*
X181421680Y-106476285D01*
X181128877Y-106605533D01*
X180860612Y-107305806D01*
X174467440Y-107305806D01*
X174467440Y-106296680D01*
X181601285Y-106296680D01*
X182755000Y-107450395D01*
X183908715Y-106296680D01*
X183779467Y-106003877D01*
X183737370Y-105987750D01*
X193701000Y-105987750D01*
X193701000Y-106728310D01*
X193797673Y-106961699D01*
X193976302Y-107140327D01*
X194209691Y-107237000D01*
X194950250Y-107237000D01*
X195109000Y-107078250D01*
X195109000Y-105829000D01*
X195363000Y-105829000D01*
X195363000Y-107078250D01*
X195521750Y-107237000D01*
X196262309Y-107237000D01*
X196495698Y-107140327D01*
X196674327Y-106961699D01*
X196771000Y-106728310D01*
X196771000Y-105987750D01*
X196612250Y-105829000D01*
X195363000Y-105829000D01*
X195109000Y-105829000D01*
X193859750Y-105829000D01*
X193701000Y-105987750D01*
X183737370Y-105987750D01*
X183079194Y-105735612D01*
X182329565Y-105755750D01*
X181730533Y-106003877D01*
X181601285Y-106296680D01*
X174467440Y-106296680D01*
X174467440Y-104675690D01*
X193701000Y-104675690D01*
X193701000Y-105416250D01*
X193859750Y-105575000D01*
X195109000Y-105575000D01*
X195109000Y-104325750D01*
X195363000Y-104325750D01*
X195363000Y-105575000D01*
X196612250Y-105575000D01*
X196771000Y-105416250D01*
X196771000Y-104675690D01*
X196674327Y-104442301D01*
X196495698Y-104263673D01*
X196262309Y-104167000D01*
X195521750Y-104167000D01*
X195363000Y-104325750D01*
X195109000Y-104325750D01*
X194950250Y-104167000D01*
X194209691Y-104167000D01*
X193976302Y-104263673D01*
X193797673Y-104442301D01*
X193701000Y-104675690D01*
X174467440Y-104675690D01*
X174467440Y-86090000D01*
X174423162Y-85854683D01*
X174284090Y-85638559D01*
X174071890Y-85493569D01*
X173820000Y-85442560D01*
X166145000Y-85442560D01*
X166145000Y-85128000D01*
X177586999Y-85128000D01*
X177587000Y-85128005D01*
X177587000Y-97573995D01*
X177586999Y-97574000D01*
X177615913Y-97719357D01*
X177654367Y-97912675D01*
X177710928Y-97997325D01*
X177846210Y-98199790D01*
X178862208Y-99215787D01*
X178862210Y-99215790D01*
X179149325Y-99407633D01*
X179205516Y-99418810D01*
X179488000Y-99475001D01*
X179488005Y-99475000D01*
X191156532Y-99475000D01*
X191571357Y-99890551D01*
X192135330Y-100124733D01*
X192745991Y-100125265D01*
X193310371Y-99892068D01*
X193742551Y-99460643D01*
X193976733Y-98896670D01*
X193977265Y-98286009D01*
X193744068Y-97721629D01*
X193712495Y-97690000D01*
X201054560Y-97690000D01*
X201054560Y-99490000D01*
X201098838Y-99725317D01*
X201237910Y-99941441D01*
X201450110Y-100086431D01*
X201702000Y-100137440D01*
X203502000Y-100137440D01*
X203737317Y-100093162D01*
X203953441Y-99954090D01*
X204098431Y-99741890D01*
X204149440Y-99490000D01*
X204149440Y-99475000D01*
X206807420Y-99475000D01*
X207650586Y-100318165D01*
X207575328Y-100499405D01*
X207574674Y-101249305D01*
X207861043Y-101942372D01*
X208390839Y-102473093D01*
X209083405Y-102760672D01*
X209833305Y-102761326D01*
X209911336Y-102729084D01*
X207823420Y-104817000D01*
X206681468Y-104817000D01*
X206266643Y-104401449D01*
X205702670Y-104167267D01*
X205092009Y-104166735D01*
X204527629Y-104399932D01*
X204095449Y-104831357D01*
X203861267Y-105395330D01*
X203860735Y-106005991D01*
X204093932Y-106570371D01*
X204525357Y-107002551D01*
X205089330Y-107236733D01*
X205699991Y-107237265D01*
X206264371Y-107004068D01*
X206682169Y-106587000D01*
X208189995Y-106587000D01*
X208190000Y-106587001D01*
X208472484Y-106530810D01*
X208528675Y-106519633D01*
X208815790Y-106327790D01*
X214928554Y-100215025D01*
X215606372Y-99934957D01*
X216137093Y-99405161D01*
X216424672Y-98712595D01*
X216425326Y-97962695D01*
X216138957Y-97269628D01*
X215609161Y-96738907D01*
X214916595Y-96451328D01*
X214166695Y-96450674D01*
X213473628Y-96737043D01*
X212942907Y-97266839D01*
X212655328Y-97959405D01*
X212654674Y-98709305D01*
X212941043Y-99402372D01*
X213089416Y-99551004D01*
X211314029Y-101326392D01*
X211344672Y-101252595D01*
X211345326Y-100502695D01*
X211058957Y-99809628D01*
X210529161Y-99278907D01*
X209836595Y-98991328D01*
X209086695Y-98990674D01*
X208902402Y-99066822D01*
X207799790Y-97964210D01*
X207722660Y-97912674D01*
X207512675Y-97772367D01*
X207456484Y-97761190D01*
X207174000Y-97704999D01*
X207173995Y-97705000D01*
X204149440Y-97705000D01*
X204149440Y-97690000D01*
X204105162Y-97454683D01*
X203966090Y-97238559D01*
X203753890Y-97093569D01*
X203502000Y-97042560D01*
X201702000Y-97042560D01*
X201466683Y-97086838D01*
X201250559Y-97225910D01*
X201105569Y-97438110D01*
X201054560Y-97690000D01*
X193712495Y-97690000D01*
X193312643Y-97289449D01*
X192748670Y-97055267D01*
X192138009Y-97054735D01*
X191573629Y-97287932D01*
X191155831Y-97705000D01*
X179854579Y-97705000D01*
X179357000Y-97207420D01*
X179357000Y-85494580D01*
X180616579Y-84235000D01*
X188956691Y-84235000D01*
X189090600Y-84435409D01*
X189366860Y-84620000D01*
X189090600Y-84804591D01*
X188757854Y-85302581D01*
X188641009Y-85890000D01*
X188757854Y-86477419D01*
X189090600Y-86975409D01*
X189366860Y-87160000D01*
X189090600Y-87344591D01*
X188757854Y-87842581D01*
X188641009Y-88430000D01*
X188757854Y-89017419D01*
X189090600Y-89515409D01*
X189366860Y-89700000D01*
X189090600Y-89884591D01*
X188956691Y-90085000D01*
X186415005Y-90085000D01*
X186415000Y-90084999D01*
X186132516Y-90141190D01*
X186076325Y-90152367D01*
X185789210Y-90344210D01*
X185789208Y-90344213D01*
X183312835Y-92820585D01*
X183131595Y-92745328D01*
X182381695Y-92744674D01*
X181688628Y-93031043D01*
X181157907Y-93560839D01*
X180870328Y-94253405D01*
X180869674Y-95003305D01*
X181156043Y-95696372D01*
X181685839Y-96227093D01*
X182378405Y-96514672D01*
X183128305Y-96515326D01*
X183821372Y-96228957D01*
X184352093Y-95699161D01*
X184639672Y-95006595D01*
X184640326Y-94256695D01*
X184564178Y-94072402D01*
X186781579Y-91855000D01*
X188956691Y-91855000D01*
X189090600Y-92055409D01*
X189588590Y-92388155D01*
X190176009Y-92505000D01*
X190643991Y-92505000D01*
X191231410Y-92388155D01*
X191729400Y-92055409D01*
X191863309Y-91855000D01*
X193457995Y-91855000D01*
X193458000Y-91855001D01*
X193743858Y-91798139D01*
X193796675Y-91787633D01*
X194083790Y-91595790D01*
X194083791Y-91595789D01*
X194344839Y-91334740D01*
X196338964Y-91334740D01*
X196351525Y-91400025D01*
X196628631Y-91933079D01*
X197088634Y-92319513D01*
X197661503Y-92500496D01*
X197903000Y-92349262D01*
X197903000Y-91097000D01*
X198157000Y-91097000D01*
X198157000Y-92349262D01*
X198398497Y-92500496D01*
X198971366Y-92319513D01*
X199378199Y-91977745D01*
X204186861Y-91977745D01*
X204260995Y-92223864D01*
X204798223Y-92416965D01*
X205368454Y-92389778D01*
X205769005Y-92223864D01*
X205799527Y-92122532D01*
X213567073Y-92122532D01*
X213665736Y-92389387D01*
X214275461Y-92615908D01*
X214925460Y-92591856D01*
X215414264Y-92389387D01*
X215512927Y-92122532D01*
X214540000Y-91149605D01*
X213567073Y-92122532D01*
X205799527Y-92122532D01*
X205843139Y-91977745D01*
X205015000Y-91149605D01*
X204186861Y-91977745D01*
X199378199Y-91977745D01*
X199431369Y-91933079D01*
X199708475Y-91400025D01*
X199721036Y-91334740D01*
X199600378Y-91097000D01*
X198157000Y-91097000D01*
X197903000Y-91097000D01*
X196459622Y-91097000D01*
X196338964Y-91334740D01*
X194344839Y-91334740D01*
X194591787Y-91087792D01*
X194591790Y-91087790D01*
X194783633Y-90800675D01*
X194851000Y-90462000D01*
X194851000Y-85240580D01*
X195856579Y-84235000D01*
X196576691Y-84235000D01*
X196710600Y-84435409D01*
X196986860Y-84620000D01*
X196710600Y-84804591D01*
X196377854Y-85302581D01*
X196261009Y-85890000D01*
X196377854Y-86477419D01*
X196710600Y-86975409D01*
X196986860Y-87160000D01*
X196710600Y-87344591D01*
X196377854Y-87842581D01*
X196261009Y-88430000D01*
X196377854Y-89017419D01*
X196710600Y-89515409D01*
X196990828Y-89702651D01*
X196628631Y-90006921D01*
X196351525Y-90539975D01*
X196338964Y-90605260D01*
X196459622Y-90843000D01*
X197903000Y-90843000D01*
X197903000Y-90823000D01*
X198157000Y-90823000D01*
X198157000Y-90843000D01*
X199600378Y-90843000D01*
X199645941Y-90753223D01*
X203568035Y-90753223D01*
X203595222Y-91323454D01*
X203761136Y-91724005D01*
X204007255Y-91798139D01*
X204835395Y-90970000D01*
X205194605Y-90970000D01*
X206022745Y-91798139D01*
X206268864Y-91724005D01*
X206461965Y-91186777D01*
X206439018Y-90705461D01*
X212894092Y-90705461D01*
X212918144Y-91355460D01*
X213120613Y-91844264D01*
X213387468Y-91942927D01*
X214360395Y-90970000D01*
X214719605Y-90970000D01*
X215692532Y-91942927D01*
X215959387Y-91844264D01*
X216185908Y-91234539D01*
X216161856Y-90584540D01*
X215959387Y-90095736D01*
X215692532Y-89997073D01*
X214719605Y-90970000D01*
X214360395Y-90970000D01*
X213387468Y-89997073D01*
X213120613Y-90095736D01*
X212894092Y-90705461D01*
X206439018Y-90705461D01*
X206434778Y-90616546D01*
X206268864Y-90215995D01*
X206022745Y-90141861D01*
X205194605Y-90970000D01*
X204835395Y-90970000D01*
X204007255Y-90141861D01*
X203761136Y-90215995D01*
X203568035Y-90753223D01*
X199645941Y-90753223D01*
X199721036Y-90605260D01*
X199708475Y-90539975D01*
X199431369Y-90006921D01*
X199378200Y-89962255D01*
X204186861Y-89962255D01*
X205015000Y-90790395D01*
X205843139Y-89962255D01*
X205799528Y-89817468D01*
X213567073Y-89817468D01*
X214540000Y-90790395D01*
X215512927Y-89817468D01*
X215414264Y-89550613D01*
X214804539Y-89324092D01*
X214154540Y-89348144D01*
X213665736Y-89550613D01*
X213567073Y-89817468D01*
X205799528Y-89817468D01*
X205769005Y-89716136D01*
X205231777Y-89523035D01*
X204661546Y-89550222D01*
X204260995Y-89716136D01*
X204186861Y-89962255D01*
X199378200Y-89962255D01*
X199069172Y-89702651D01*
X199349400Y-89515409D01*
X199483309Y-89315000D01*
X200569995Y-89315000D01*
X200570000Y-89315001D01*
X200852484Y-89258810D01*
X200908675Y-89247633D01*
X201195790Y-89055790D01*
X203476579Y-86775000D01*
X203870829Y-86775000D01*
X204201077Y-87105824D01*
X204728309Y-87324750D01*
X205299187Y-87325248D01*
X205826800Y-87107243D01*
X206230824Y-86703923D01*
X206449750Y-86176691D01*
X206450248Y-85605813D01*
X206232243Y-85078200D01*
X205828923Y-84674176D01*
X205301691Y-84455250D01*
X204730813Y-84454752D01*
X204203200Y-84672757D01*
X203870377Y-85005000D01*
X203110000Y-85005000D01*
X202771325Y-85072367D01*
X202484210Y-85264210D01*
X202484208Y-85264213D01*
X200203420Y-87545000D01*
X199483309Y-87545000D01*
X199349400Y-87344591D01*
X199073140Y-87160000D01*
X199349400Y-86975409D01*
X199483309Y-86775000D01*
X200061995Y-86775000D01*
X200062000Y-86775001D01*
X200344484Y-86718810D01*
X200400675Y-86707633D01*
X200687790Y-86515790D01*
X204238579Y-82965000D01*
X204505829Y-82965000D01*
X204836077Y-83295824D01*
X205363309Y-83514750D01*
X205579359Y-83514938D01*
X210866208Y-88801787D01*
X210866210Y-88801790D01*
X211153325Y-88993633D01*
X211209516Y-89004810D01*
X211492000Y-89061001D01*
X211492005Y-89061000D01*
X216967420Y-89061000D01*
X217973000Y-90066579D01*
X217973000Y-110812560D01*
X217758000Y-110812560D01*
X217522683Y-110856838D01*
X217306559Y-110995910D01*
X217161569Y-111208110D01*
X217110560Y-111460000D01*
X217110560Y-113660000D01*
X217154838Y-113895317D01*
X217293910Y-114111441D01*
X217506110Y-114256431D01*
X217758000Y-114307440D01*
X219958000Y-114307440D01*
X220193317Y-114263162D01*
X220409441Y-114124090D01*
X220554431Y-113911890D01*
X220605440Y-113660000D01*
X220605440Y-111460000D01*
X220561162Y-111224683D01*
X220422090Y-111008559D01*
X220209890Y-110863569D01*
X219958000Y-110812560D01*
X219743000Y-110812560D01*
X219743000Y-89700000D01*
X219675633Y-89361325D01*
X219483790Y-89074210D01*
X219483787Y-89074208D01*
X217959790Y-87550210D01*
X217921635Y-87524716D01*
X217672675Y-87358367D01*
X217603419Y-87344591D01*
X217334000Y-87290999D01*
X217333995Y-87291000D01*
X215430804Y-87291000D01*
X215464943Y-87276894D01*
X215925278Y-86817363D01*
X216174716Y-86216648D01*
X216175284Y-85566205D01*
X215926894Y-84965057D01*
X215467363Y-84504722D01*
X214866648Y-84255284D01*
X214216205Y-84254716D01*
X214173812Y-84272233D01*
X212164840Y-82263260D01*
X212165248Y-81795813D01*
X211947243Y-81268200D01*
X211543923Y-80864176D01*
X211016691Y-80645250D01*
X210445813Y-80644752D01*
X209918200Y-80862757D01*
X209514176Y-81266077D01*
X209295250Y-81793309D01*
X209294752Y-82364187D01*
X209512757Y-82891800D01*
X209916077Y-83295824D01*
X210443309Y-83514750D01*
X210913580Y-83515160D01*
X212921858Y-85523437D01*
X212905284Y-85563352D01*
X212904716Y-86213795D01*
X213153106Y-86814943D01*
X213612637Y-87275278D01*
X213650500Y-87291000D01*
X211858579Y-87291000D01*
X207040599Y-82473019D01*
X207084750Y-82366691D01*
X207085248Y-81795813D01*
X206867243Y-81268200D01*
X206463923Y-80864176D01*
X205936691Y-80645250D01*
X205365813Y-80644752D01*
X204838200Y-80862757D01*
X204505377Y-81195000D01*
X203872005Y-81195000D01*
X203872000Y-81194999D01*
X203589516Y-81251190D01*
X203533325Y-81262367D01*
X203246210Y-81454210D01*
X203246208Y-81454213D01*
X199695420Y-85005000D01*
X199483309Y-85005000D01*
X199349400Y-84804591D01*
X199073140Y-84620000D01*
X199349400Y-84435409D01*
X199682146Y-83937419D01*
X199798991Y-83350000D01*
X199682146Y-82762581D01*
X199349400Y-82264591D01*
X198851410Y-81931845D01*
X198263991Y-81815000D01*
X197796009Y-81815000D01*
X197208590Y-81931845D01*
X196710600Y-82264591D01*
X196576691Y-82465000D01*
X195490000Y-82465000D01*
X195151325Y-82532367D01*
X194864210Y-82724210D01*
X194864208Y-82724213D01*
X193340210Y-84248210D01*
X193148367Y-84535325D01*
X193148367Y-84535326D01*
X193080999Y-84874000D01*
X193081000Y-84874005D01*
X193081000Y-90085000D01*
X191863309Y-90085000D01*
X191729400Y-89884591D01*
X191453140Y-89700000D01*
X191729400Y-89515409D01*
X192062146Y-89017419D01*
X192178991Y-88430000D01*
X192062146Y-87842581D01*
X191729400Y-87344591D01*
X191453140Y-87160000D01*
X191729400Y-86975409D01*
X192062146Y-86477419D01*
X192178991Y-85890000D01*
X192062146Y-85302581D01*
X191729400Y-84804591D01*
X191453140Y-84620000D01*
X191729400Y-84435409D01*
X192062146Y-83937419D01*
X192178991Y-83350000D01*
X192062146Y-82762581D01*
X191729400Y-82264591D01*
X191231410Y-81931845D01*
X190643991Y-81815000D01*
X190176009Y-81815000D01*
X189588590Y-81931845D01*
X189090600Y-82264591D01*
X188956691Y-82465000D01*
X180250005Y-82465000D01*
X180250000Y-82464999D01*
X179967516Y-82521190D01*
X179911325Y-82532367D01*
X179624210Y-82724210D01*
X179624208Y-82724213D01*
X177846210Y-84502210D01*
X177654367Y-84789325D01*
X177644009Y-84841397D01*
X177586999Y-85128000D01*
X166145000Y-85128000D01*
X166145000Y-82480905D01*
X166310551Y-82315643D01*
X166544733Y-81751670D01*
X166545265Y-81141009D01*
X166312068Y-80576629D01*
X166280495Y-80545000D01*
X173622560Y-80545000D01*
X173622560Y-82345000D01*
X173666838Y-82580317D01*
X173805910Y-82796441D01*
X174018110Y-82941431D01*
X174270000Y-82992440D01*
X176070000Y-82992440D01*
X176305317Y-82948162D01*
X176521441Y-82809090D01*
X176666431Y-82596890D01*
X176717440Y-82345000D01*
X176717440Y-80545000D01*
X176673162Y-80309683D01*
X176534090Y-80093559D01*
X176321890Y-79948569D01*
X176205000Y-79924898D01*
X176205000Y-78135730D01*
X176470551Y-77870643D01*
X176704733Y-77306670D01*
X176705265Y-76696009D01*
X176472068Y-76131629D01*
X176440495Y-76100000D01*
X183782560Y-76100000D01*
X183782560Y-77900000D01*
X183826838Y-78135317D01*
X183965910Y-78351441D01*
X184178110Y-78496431D01*
X184430000Y-78547440D01*
X186230000Y-78547440D01*
X186465317Y-78503162D01*
X186681441Y-78364090D01*
X186826431Y-78151890D01*
X186877440Y-77900000D01*
X186877440Y-76100000D01*
X186833162Y-75864683D01*
X186694090Y-75648559D01*
X186481890Y-75503569D01*
X186230000Y-75452560D01*
X184430000Y-75452560D01*
X184194683Y-75496838D01*
X183978559Y-75635910D01*
X183833569Y-75848110D01*
X183782560Y-76100000D01*
X176440495Y-76100000D01*
X176040643Y-75699449D01*
X175476670Y-75465267D01*
X174866009Y-75464735D01*
X174301629Y-75697932D01*
X173869449Y-76129357D01*
X173635267Y-76693330D01*
X173634735Y-77303991D01*
X173867932Y-77868371D01*
X174135000Y-78135906D01*
X174135000Y-79922962D01*
X174034683Y-79941838D01*
X173818559Y-80080910D01*
X173673569Y-80293110D01*
X173622560Y-80545000D01*
X166280495Y-80545000D01*
X165880643Y-80144449D01*
X165316670Y-79910267D01*
X164938649Y-79909938D01*
X163505000Y-78476288D01*
X163505000Y-78135730D01*
X163770551Y-77870643D01*
X164004733Y-77306670D01*
X164005265Y-76696009D01*
X163772068Y-76131629D01*
X163340643Y-75699449D01*
X162776670Y-75465267D01*
X162166009Y-75464735D01*
X161601629Y-75697932D01*
X161169449Y-76129357D01*
X160935267Y-76693330D01*
X160934735Y-77303991D01*
X153857440Y-77303991D01*
X153857440Y-76100000D01*
X153813162Y-75864683D01*
X153674090Y-75648559D01*
X153461890Y-75503569D01*
X153210000Y-75452560D01*
X151410000Y-75452560D01*
X151174683Y-75496838D01*
X150958559Y-75635910D01*
X150813569Y-75848110D01*
X150762560Y-76100000D01*
X150762560Y-77900000D01*
X150806838Y-78135317D01*
X150945910Y-78351441D01*
X151158110Y-78496431D01*
X151238565Y-78512724D01*
X149841226Y-79910062D01*
X149466009Y-79909735D01*
X148901629Y-80142932D01*
X148469449Y-80574357D01*
X148235267Y-81138330D01*
X148234735Y-81748991D01*
X141157440Y-81748991D01*
X141157440Y-80545000D01*
X141113162Y-80309683D01*
X140974090Y-80093559D01*
X140761890Y-79948569D01*
X140510000Y-79897560D01*
X139526271Y-79897560D01*
X138105000Y-78476288D01*
X138105000Y-78135730D01*
X138370551Y-77870643D01*
X138604733Y-77306670D01*
X138605265Y-76696009D01*
X138372068Y-76131629D01*
X137940643Y-75699449D01*
X137376670Y-75465267D01*
X136766009Y-75464735D01*
X136201629Y-75697932D01*
X135769449Y-76129357D01*
X135535267Y-76693330D01*
X135534735Y-77303991D01*
X128457440Y-77303991D01*
X128457440Y-76100000D01*
X128413162Y-75864683D01*
X128274090Y-75648559D01*
X128061890Y-75503569D01*
X127810000Y-75452560D01*
X126010000Y-75452560D01*
X125774683Y-75496838D01*
X125558559Y-75635910D01*
X125413569Y-75848110D01*
X125362560Y-76100000D01*
X125362560Y-77900000D01*
X125406838Y-78135317D01*
X125545910Y-78351441D01*
X125758110Y-78496431D01*
X125838565Y-78512724D01*
X124441226Y-79910062D01*
X124066009Y-79909735D01*
X123501629Y-80142932D01*
X123069449Y-80574357D01*
X122835267Y-81138330D01*
X122834735Y-81748991D01*
X115757440Y-81748991D01*
X115757440Y-80545000D01*
X115713162Y-80309683D01*
X115574090Y-80093559D01*
X115361890Y-79948569D01*
X115110000Y-79897560D01*
X114126271Y-79897560D01*
X112705000Y-78476288D01*
X112705000Y-78135730D01*
X112970551Y-77870643D01*
X113204733Y-77306670D01*
X113205265Y-76696009D01*
X112972068Y-76131629D01*
X112540643Y-75699449D01*
X111976670Y-75465267D01*
X111366009Y-75464735D01*
X110801629Y-75697932D01*
X110369449Y-76129357D01*
X110135267Y-76693330D01*
X110134735Y-77303991D01*
X103057440Y-77303991D01*
X103057440Y-76100000D01*
X103013162Y-75864683D01*
X102874090Y-75648559D01*
X102661890Y-75503569D01*
X102410000Y-75452560D01*
X100610000Y-75452560D01*
X100374683Y-75496838D01*
X100158559Y-75635910D01*
X100013569Y-75848110D01*
X99962560Y-76100000D01*
X99962560Y-77900000D01*
X100006838Y-78135317D01*
X100145910Y-78351441D01*
X100358110Y-78496431D01*
X100438565Y-78512724D01*
X99041226Y-79910062D01*
X98666009Y-79909735D01*
X98101629Y-80142932D01*
X97669449Y-80574357D01*
X97435267Y-81138330D01*
X97434735Y-81748991D01*
X90357440Y-81748991D01*
X90357440Y-80545000D01*
X90313162Y-80309683D01*
X90174090Y-80093559D01*
X89961890Y-79948569D01*
X89710000Y-79897560D01*
X88726271Y-79897560D01*
X87305000Y-78476288D01*
X87305000Y-78135730D01*
X87570551Y-77870643D01*
X87804733Y-77306670D01*
X87805265Y-76696009D01*
X87572068Y-76131629D01*
X87140643Y-75699449D01*
X86576670Y-75465267D01*
X85966009Y-75464735D01*
X85401629Y-75697932D01*
X84969449Y-76129357D01*
X84735267Y-76693330D01*
X84734735Y-77303991D01*
X77657440Y-77303991D01*
X77657440Y-76100000D01*
X77613162Y-75864683D01*
X77474090Y-75648559D01*
X77261890Y-75503569D01*
X77010000Y-75452560D01*
X75210000Y-75452560D01*
X74974683Y-75496838D01*
X74758559Y-75635910D01*
X74613569Y-75848110D01*
X74562560Y-76100000D01*
X74562560Y-77900000D01*
X74606838Y-78135317D01*
X74745910Y-78351441D01*
X74958110Y-78496431D01*
X75075000Y-78520102D01*
X75075000Y-85442560D01*
X74920000Y-85442560D01*
X74684683Y-85486838D01*
X74468559Y-85625910D01*
X74323569Y-85838110D01*
X74272560Y-86090000D01*
X72827000Y-86090000D01*
X72827000Y-74927000D01*
X221573000Y-74927000D01*
X221573000Y-118673000D01*
X221573000Y-118673000D01*
G37*
X221573000Y-118673000D02*
X72827000Y-118673000D01*
X72827000Y-113117991D01*
X196240735Y-113117991D01*
X196473932Y-113682371D01*
X196905357Y-114114551D01*
X197469330Y-114348733D01*
X198079991Y-114349265D01*
X198644371Y-114116068D01*
X199076551Y-113684643D01*
X199310733Y-113120670D01*
X199311265Y-112510009D01*
X199078068Y-111945629D01*
X199046495Y-111914000D01*
X206388560Y-111914000D01*
X206388560Y-113714000D01*
X206432838Y-113949317D01*
X206571910Y-114165441D01*
X206784110Y-114310431D01*
X207036000Y-114361440D01*
X208836000Y-114361440D01*
X209071317Y-114317162D01*
X209287441Y-114178090D01*
X209432431Y-113965890D01*
X209483440Y-113714000D01*
X209483440Y-113699000D01*
X212761995Y-113699000D01*
X212762000Y-113699001D01*
X213044484Y-113642810D01*
X213100675Y-113631633D01*
X213387790Y-113439790D01*
X215165787Y-111661792D01*
X215165790Y-111661790D01*
X215357633Y-111374675D01*
X215379139Y-111266560D01*
X215425001Y-111036000D01*
X215425000Y-111035995D01*
X215425000Y-105089898D01*
X215606372Y-105014957D01*
X216137093Y-104485161D01*
X216424672Y-103792595D01*
X216425326Y-103042695D01*
X216138957Y-102349628D01*
X215609161Y-101818907D01*
X214916595Y-101531328D01*
X214166695Y-101530674D01*
X213473628Y-101817043D01*
X212942907Y-102346839D01*
X212655328Y-103039405D01*
X212654674Y-103789305D01*
X212941043Y-104482372D01*
X213470839Y-105013093D01*
X213655000Y-105089563D01*
X213655000Y-110669421D01*
X212395420Y-111929000D01*
X209483440Y-111929000D01*
X209483440Y-111914000D01*
X209439162Y-111678683D01*
X209300090Y-111462559D01*
X209087890Y-111317569D01*
X208836000Y-111266560D01*
X207036000Y-111266560D01*
X206800683Y-111310838D01*
X206584559Y-111449910D01*
X206439569Y-111662110D01*
X206388560Y-111914000D01*
X199046495Y-111914000D01*
X198646643Y-111513449D01*
X198082670Y-111279267D01*
X197472009Y-111278735D01*
X196907629Y-111511932D01*
X196475449Y-111943357D01*
X196241267Y-112507330D01*
X196240735Y-113117991D01*
X72827000Y-113117991D01*
X72827000Y-86090000D01*
X74272560Y-86090000D01*
X74272560Y-111090000D01*
X74316838Y-111325317D01*
X74455910Y-111541441D01*
X74668110Y-111686431D01*
X74920000Y-111737440D01*
X84920000Y-111737440D01*
X85155317Y-111693162D01*
X85371441Y-111554090D01*
X85516431Y-111341890D01*
X85567440Y-111090000D01*
X85567440Y-86090000D01*
X85523162Y-85854683D01*
X85384090Y-85638559D01*
X85171890Y-85493569D01*
X84920000Y-85442560D01*
X77145000Y-85442560D01*
X77145000Y-78522038D01*
X77245317Y-78503162D01*
X77461441Y-78364090D01*
X77606431Y-78151890D01*
X77657440Y-77900000D01*
X77657440Y-77303991D01*
X84734735Y-77303991D01*
X84967932Y-77868371D01*
X85235000Y-78135906D01*
X85235000Y-78904995D01*
X85234999Y-78905000D01*
X85313785Y-79301077D01*
X85538144Y-79636856D01*
X87262560Y-81361271D01*
X87262560Y-82345000D01*
X87306838Y-82580317D01*
X87445910Y-82796441D01*
X87658110Y-82941431D01*
X87675000Y-82944851D01*
X87675000Y-85442560D01*
X87620000Y-85442560D01*
X87384683Y-85486838D01*
X87168559Y-85625910D01*
X87023569Y-85838110D01*
X86972560Y-86090000D01*
X86972560Y-111090000D01*
X87016838Y-111325317D01*
X87155910Y-111541441D01*
X87368110Y-111686431D01*
X87620000Y-111737440D01*
X97620000Y-111737440D01*
X97855317Y-111693162D01*
X98071441Y-111554090D01*
X98216431Y-111341890D01*
X98267440Y-111090000D01*
X98267440Y-86090000D01*
X98223162Y-85854683D01*
X98084090Y-85638559D01*
X97871890Y-85493569D01*
X97620000Y-85442560D01*
X89945000Y-85442560D01*
X89945000Y-82948222D01*
X89945317Y-82948162D01*
X90161441Y-82809090D01*
X90306431Y-82596890D01*
X90357440Y-82345000D01*
X90357440Y-81748991D01*
X97434735Y-81748991D01*
X97667932Y-82313371D01*
X98099357Y-82745551D01*
X98663330Y-82979733D01*
X98899807Y-82979939D01*
X101362428Y-85442560D01*
X100320000Y-85442560D01*
X100084683Y-85486838D01*
X99868559Y-85625910D01*
X99723569Y-85838110D01*
X99672560Y-86090000D01*
X99672560Y-111090000D01*
X99716838Y-111325317D01*
X99855910Y-111541441D01*
X100068110Y-111686431D01*
X100320000Y-111737440D01*
X110320000Y-111737440D01*
X110555317Y-111693162D01*
X110771441Y-111554090D01*
X110916431Y-111341890D01*
X110967440Y-111090000D01*
X110967440Y-86090000D01*
X110923162Y-85854683D01*
X110784090Y-85638559D01*
X110571890Y-85493569D01*
X110320000Y-85442560D01*
X104572692Y-85442560D01*
X100505061Y-81374929D01*
X100505062Y-81373649D01*
X102241853Y-79636858D01*
X102241856Y-79636856D01*
X102376349Y-79435571D01*
X102466215Y-79301078D01*
X102545000Y-78905000D01*
X102545000Y-78522038D01*
X102645317Y-78503162D01*
X102861441Y-78364090D01*
X103006431Y-78151890D01*
X103057440Y-77900000D01*
X103057440Y-77303991D01*
X110134735Y-77303991D01*
X110367932Y-77868371D01*
X110635000Y-78135906D01*
X110635000Y-78904995D01*
X110634999Y-78905000D01*
X110713785Y-79301077D01*
X110938144Y-79636856D01*
X112662560Y-81361271D01*
X112662560Y-82345000D01*
X112706838Y-82580317D01*
X112845910Y-82796441D01*
X113058110Y-82941431D01*
X113075000Y-82944851D01*
X113075000Y-85442560D01*
X113020000Y-85442560D01*
X112784683Y-85486838D01*
X112568559Y-85625910D01*
X112423569Y-85838110D01*
X112372560Y-86090000D01*
X112372560Y-111090000D01*
X112416838Y-111325317D01*
X112555910Y-111541441D01*
X112768110Y-111686431D01*
X113020000Y-111737440D01*
X123020000Y-111737440D01*
X123255317Y-111693162D01*
X123471441Y-111554090D01*
X123616431Y-111341890D01*
X123667440Y-111090000D01*
X123667440Y-86090000D01*
X123623162Y-85854683D01*
X123484090Y-85638559D01*
X123271890Y-85493569D01*
X123020000Y-85442560D01*
X115345000Y-85442560D01*
X115345000Y-82948222D01*
X115345317Y-82948162D01*
X115561441Y-82809090D01*
X115706431Y-82596890D01*
X115757440Y-82345000D01*
X115757440Y-81748991D01*
X122834735Y-81748991D01*
X123067932Y-82313371D01*
X123499357Y-82745551D01*
X124063330Y-82979733D01*
X124299807Y-82979939D01*
X126762428Y-85442560D01*
X125720000Y-85442560D01*
X125484683Y-85486838D01*
X125268559Y-85625910D01*
X125123569Y-85838110D01*
X125072560Y-86090000D01*
X125072560Y-111090000D01*
X125116838Y-111325317D01*
X125255910Y-111541441D01*
X125468110Y-111686431D01*
X125720000Y-111737440D01*
X135720000Y-111737440D01*
X135955317Y-111693162D01*
X136171441Y-111554090D01*
X136316431Y-111341890D01*
X136367440Y-111090000D01*
X136367440Y-86090000D01*
X136323162Y-85854683D01*
X136184090Y-85638559D01*
X135971890Y-85493569D01*
X135720000Y-85442560D01*
X129854854Y-85442560D01*
X129617566Y-85087434D01*
X125905061Y-81374929D01*
X125905062Y-81373649D01*
X127641853Y-79636858D01*
X127641856Y-79636856D01*
X127776349Y-79435571D01*
X127866215Y-79301078D01*
X127945000Y-78905000D01*
X127945000Y-78522038D01*
X128045317Y-78503162D01*
X128261441Y-78364090D01*
X128406431Y-78151890D01*
X128457440Y-77900000D01*
X128457440Y-77303991D01*
X135534735Y-77303991D01*
X135767932Y-77868371D01*
X136035000Y-78135906D01*
X136035000Y-78904995D01*
X136034999Y-78905000D01*
X136113785Y-79301077D01*
X136338144Y-79636856D01*
X138062560Y-81361271D01*
X138062560Y-82345000D01*
X138106838Y-82580317D01*
X138245910Y-82796441D01*
X138458110Y-82941431D01*
X138475000Y-82944851D01*
X138475000Y-85442560D01*
X138420000Y-85442560D01*
X138184683Y-85486838D01*
X137968559Y-85625910D01*
X137823569Y-85838110D01*
X137772560Y-86090000D01*
X137772560Y-111090000D01*
X137816838Y-111325317D01*
X137955910Y-111541441D01*
X138168110Y-111686431D01*
X138420000Y-111737440D01*
X148420000Y-111737440D01*
X148655317Y-111693162D01*
X148871441Y-111554090D01*
X149016431Y-111341890D01*
X149067440Y-111090000D01*
X149067440Y-86090000D01*
X149023162Y-85854683D01*
X148884090Y-85638559D01*
X148671890Y-85493569D01*
X148420000Y-85442560D01*
X140745000Y-85442560D01*
X140745000Y-82948222D01*
X140745317Y-82948162D01*
X140961441Y-82809090D01*
X141106431Y-82596890D01*
X141157440Y-82345000D01*
X141157440Y-81748991D01*
X148234735Y-81748991D01*
X148467932Y-82313371D01*
X148899357Y-82745551D01*
X149463330Y-82979733D01*
X149699807Y-82979939D01*
X152162428Y-85442560D01*
X151120000Y-85442560D01*
X150884683Y-85486838D01*
X150668559Y-85625910D01*
X150523569Y-85838110D01*
X150472560Y-86090000D01*
X150472560Y-111090000D01*
X150516838Y-111325317D01*
X150655910Y-111541441D01*
X150868110Y-111686431D01*
X151120000Y-111737440D01*
X161120000Y-111737440D01*
X161355317Y-111693162D01*
X161571441Y-111554090D01*
X161716431Y-111341890D01*
X161767440Y-111090000D01*
X161767440Y-86090000D01*
X161723162Y-85854683D01*
X161584090Y-85638559D01*
X161371890Y-85493569D01*
X161120000Y-85442560D01*
X155254854Y-85442560D01*
X155017566Y-85087434D01*
X151305061Y-81374929D01*
X151305062Y-81373649D01*
X153041853Y-79636858D01*
X153041856Y-79636856D01*
X153176349Y-79435571D01*
X153266215Y-79301078D01*
X153345000Y-78905000D01*
X153345000Y-78522038D01*
X153445317Y-78503162D01*
X153661441Y-78364090D01*
X153806431Y-78151890D01*
X153857440Y-77900000D01*
X153857440Y-77303991D01*
X160934735Y-77303991D01*
X161167932Y-77868371D01*
X161435000Y-78135906D01*
X161435000Y-78904995D01*
X161434999Y-78905000D01*
X161513785Y-79301077D01*
X161738144Y-79636856D01*
X163475062Y-81373773D01*
X163474735Y-81748991D01*
X163707932Y-82313371D01*
X163875000Y-82480731D01*
X163875000Y-85442560D01*
X163820000Y-85442560D01*
X163584683Y-85486838D01*
X163368559Y-85625910D01*
X163223569Y-85838110D01*
X163172560Y-86090000D01*
X163172560Y-111090000D01*
X163216838Y-111325317D01*
X163355910Y-111541441D01*
X163568110Y-111686431D01*
X163820000Y-111737440D01*
X173820000Y-111737440D01*
X174055317Y-111693162D01*
X174271441Y-111554090D01*
X174416431Y-111341890D01*
X174467440Y-111090000D01*
X174467440Y-108963320D01*
X181601285Y-108963320D01*
X181730533Y-109256123D01*
X182430806Y-109524388D01*
X183180435Y-109504250D01*
X183779467Y-109256123D01*
X183908715Y-108963320D01*
X182755000Y-107809605D01*
X181601285Y-108963320D01*
X174467440Y-108963320D01*
X174467440Y-107305806D01*
X180860612Y-107305806D01*
X180880750Y-108055435D01*
X181128877Y-108654467D01*
X181421680Y-108783715D01*
X182575395Y-107630000D01*
X182934605Y-107630000D01*
X184088320Y-108783715D01*
X184381123Y-108654467D01*
X184649388Y-107954194D01*
X184629250Y-107204565D01*
X184381123Y-106605533D01*
X184088320Y-106476285D01*
X182934605Y-107630000D01*
X182575395Y-107630000D01*
X181421680Y-106476285D01*
X181128877Y-106605533D01*
X180860612Y-107305806D01*
X174467440Y-107305806D01*
X174467440Y-106296680D01*
X181601285Y-106296680D01*
X182755000Y-107450395D01*
X183908715Y-106296680D01*
X183779467Y-106003877D01*
X183737370Y-105987750D01*
X193701000Y-105987750D01*
X193701000Y-106728310D01*
X193797673Y-106961699D01*
X193976302Y-107140327D01*
X194209691Y-107237000D01*
X194950250Y-107237000D01*
X195109000Y-107078250D01*
X195109000Y-105829000D01*
X195363000Y-105829000D01*
X195363000Y-107078250D01*
X195521750Y-107237000D01*
X196262309Y-107237000D01*
X196495698Y-107140327D01*
X196674327Y-106961699D01*
X196771000Y-106728310D01*
X196771000Y-105987750D01*
X196612250Y-105829000D01*
X195363000Y-105829000D01*
X195109000Y-105829000D01*
X193859750Y-105829000D01*
X193701000Y-105987750D01*
X183737370Y-105987750D01*
X183079194Y-105735612D01*
X182329565Y-105755750D01*
X181730533Y-106003877D01*
X181601285Y-106296680D01*
X174467440Y-106296680D01*
X174467440Y-104675690D01*
X193701000Y-104675690D01*
X193701000Y-105416250D01*
X193859750Y-105575000D01*
X195109000Y-105575000D01*
X195109000Y-104325750D01*
X195363000Y-104325750D01*
X195363000Y-105575000D01*
X196612250Y-105575000D01*
X196771000Y-105416250D01*
X196771000Y-104675690D01*
X196674327Y-104442301D01*
X196495698Y-104263673D01*
X196262309Y-104167000D01*
X195521750Y-104167000D01*
X195363000Y-104325750D01*
X195109000Y-104325750D01*
X194950250Y-104167000D01*
X194209691Y-104167000D01*
X193976302Y-104263673D01*
X193797673Y-104442301D01*
X193701000Y-104675690D01*
X174467440Y-104675690D01*
X174467440Y-86090000D01*
X174423162Y-85854683D01*
X174284090Y-85638559D01*
X174071890Y-85493569D01*
X173820000Y-85442560D01*
X166145000Y-85442560D01*
X166145000Y-85128000D01*
X177586999Y-85128000D01*
X177587000Y-85128005D01*
X177587000Y-97573995D01*
X177586999Y-97574000D01*
X177615913Y-97719357D01*
X177654367Y-97912675D01*
X177710928Y-97997325D01*
X177846210Y-98199790D01*
X178862208Y-99215787D01*
X178862210Y-99215790D01*
X179149325Y-99407633D01*
X179205516Y-99418810D01*
X179488000Y-99475001D01*
X179488005Y-99475000D01*
X191156532Y-99475000D01*
X191571357Y-99890551D01*
X192135330Y-100124733D01*
X192745991Y-100125265D01*
X193310371Y-99892068D01*
X193742551Y-99460643D01*
X193976733Y-98896670D01*
X193977265Y-98286009D01*
X193744068Y-97721629D01*
X193712495Y-97690000D01*
X201054560Y-97690000D01*
X201054560Y-99490000D01*
X201098838Y-99725317D01*
X201237910Y-99941441D01*
X201450110Y-100086431D01*
X201702000Y-100137440D01*
X203502000Y-100137440D01*
X203737317Y-100093162D01*
X203953441Y-99954090D01*
X204098431Y-99741890D01*
X204149440Y-99490000D01*
X204149440Y-99475000D01*
X206807420Y-99475000D01*
X207650586Y-100318165D01*
X207575328Y-100499405D01*
X207574674Y-101249305D01*
X207861043Y-101942372D01*
X208390839Y-102473093D01*
X209083405Y-102760672D01*
X209833305Y-102761326D01*
X209911336Y-102729084D01*
X207823420Y-104817000D01*
X206681468Y-104817000D01*
X206266643Y-104401449D01*
X205702670Y-104167267D01*
X205092009Y-104166735D01*
X204527629Y-104399932D01*
X204095449Y-104831357D01*
X203861267Y-105395330D01*
X203860735Y-106005991D01*
X204093932Y-106570371D01*
X204525357Y-107002551D01*
X205089330Y-107236733D01*
X205699991Y-107237265D01*
X206264371Y-107004068D01*
X206682169Y-106587000D01*
X208189995Y-106587000D01*
X208190000Y-106587001D01*
X208472484Y-106530810D01*
X208528675Y-106519633D01*
X208815790Y-106327790D01*
X214928554Y-100215025D01*
X215606372Y-99934957D01*
X216137093Y-99405161D01*
X216424672Y-98712595D01*
X216425326Y-97962695D01*
X216138957Y-97269628D01*
X215609161Y-96738907D01*
X214916595Y-96451328D01*
X214166695Y-96450674D01*
X213473628Y-96737043D01*
X212942907Y-97266839D01*
X212655328Y-97959405D01*
X212654674Y-98709305D01*
X212941043Y-99402372D01*
X213089416Y-99551004D01*
X211314029Y-101326392D01*
X211344672Y-101252595D01*
X211345326Y-100502695D01*
X211058957Y-99809628D01*
X210529161Y-99278907D01*
X209836595Y-98991328D01*
X209086695Y-98990674D01*
X208902402Y-99066822D01*
X207799790Y-97964210D01*
X207722660Y-97912674D01*
X207512675Y-97772367D01*
X207456484Y-97761190D01*
X207174000Y-97704999D01*
X207173995Y-97705000D01*
X204149440Y-97705000D01*
X204149440Y-97690000D01*
X204105162Y-97454683D01*
X203966090Y-97238559D01*
X203753890Y-97093569D01*
X203502000Y-97042560D01*
X201702000Y-97042560D01*
X201466683Y-97086838D01*
X201250559Y-97225910D01*
X201105569Y-97438110D01*
X201054560Y-97690000D01*
X193712495Y-97690000D01*
X193312643Y-97289449D01*
X192748670Y-97055267D01*
X192138009Y-97054735D01*
X191573629Y-97287932D01*
X191155831Y-97705000D01*
X179854579Y-97705000D01*
X179357000Y-97207420D01*
X179357000Y-85494580D01*
X180616579Y-84235000D01*
X188956691Y-84235000D01*
X189090600Y-84435409D01*
X189366860Y-84620000D01*
X189090600Y-84804591D01*
X188757854Y-85302581D01*
X188641009Y-85890000D01*
X188757854Y-86477419D01*
X189090600Y-86975409D01*
X189366860Y-87160000D01*
X189090600Y-87344591D01*
X188757854Y-87842581D01*
X188641009Y-88430000D01*
X188757854Y-89017419D01*
X189090600Y-89515409D01*
X189366860Y-89700000D01*
X189090600Y-89884591D01*
X188956691Y-90085000D01*
X186415005Y-90085000D01*
X186415000Y-90084999D01*
X186132516Y-90141190D01*
X186076325Y-90152367D01*
X185789210Y-90344210D01*
X185789208Y-90344213D01*
X183312835Y-92820585D01*
X183131595Y-92745328D01*
X182381695Y-92744674D01*
X181688628Y-93031043D01*
X181157907Y-93560839D01*
X180870328Y-94253405D01*
X180869674Y-95003305D01*
X181156043Y-95696372D01*
X181685839Y-96227093D01*
X182378405Y-96514672D01*
X183128305Y-96515326D01*
X183821372Y-96228957D01*
X184352093Y-95699161D01*
X184639672Y-95006595D01*
X184640326Y-94256695D01*
X184564178Y-94072402D01*
X186781579Y-91855000D01*
X188956691Y-91855000D01*
X189090600Y-92055409D01*
X189588590Y-92388155D01*
X190176009Y-92505000D01*
X190643991Y-92505000D01*
X191231410Y-92388155D01*
X191729400Y-92055409D01*
X191863309Y-91855000D01*
X193457995Y-91855000D01*
X193458000Y-91855001D01*
X193743858Y-91798139D01*
X193796675Y-91787633D01*
X194083790Y-91595790D01*
X194083791Y-91595789D01*
X194344839Y-91334740D01*
X196338964Y-91334740D01*
X196351525Y-91400025D01*
X196628631Y-91933079D01*
X197088634Y-92319513D01*
X197661503Y-92500496D01*
X197903000Y-92349262D01*
X197903000Y-91097000D01*
X198157000Y-91097000D01*
X198157000Y-92349262D01*
X198398497Y-92500496D01*
X198971366Y-92319513D01*
X199378199Y-91977745D01*
X204186861Y-91977745D01*
X204260995Y-92223864D01*
X204798223Y-92416965D01*
X205368454Y-92389778D01*
X205769005Y-92223864D01*
X205799527Y-92122532D01*
X213567073Y-92122532D01*
X213665736Y-92389387D01*
X214275461Y-92615908D01*
X214925460Y-92591856D01*
X215414264Y-92389387D01*
X215512927Y-92122532D01*
X214540000Y-91149605D01*
X213567073Y-92122532D01*
X205799527Y-92122532D01*
X205843139Y-91977745D01*
X205015000Y-91149605D01*
X204186861Y-91977745D01*
X199378199Y-91977745D01*
X199431369Y-91933079D01*
X199708475Y-91400025D01*
X199721036Y-91334740D01*
X199600378Y-91097000D01*
X198157000Y-91097000D01*
X197903000Y-91097000D01*
X196459622Y-91097000D01*
X196338964Y-91334740D01*
X194344839Y-91334740D01*
X194591787Y-91087792D01*
X194591790Y-91087790D01*
X194783633Y-90800675D01*
X194851000Y-90462000D01*
X194851000Y-85240580D01*
X195856579Y-84235000D01*
X196576691Y-84235000D01*
X196710600Y-84435409D01*
X196986860Y-84620000D01*
X196710600Y-84804591D01*
X196377854Y-85302581D01*
X196261009Y-85890000D01*
X196377854Y-86477419D01*
X196710600Y-86975409D01*
X196986860Y-87160000D01*
X196710600Y-87344591D01*
X196377854Y-87842581D01*
X196261009Y-88430000D01*
X196377854Y-89017419D01*
X196710600Y-89515409D01*
X196990828Y-89702651D01*
X196628631Y-90006921D01*
X196351525Y-90539975D01*
X196338964Y-90605260D01*
X196459622Y-90843000D01*
X197903000Y-90843000D01*
X197903000Y-90823000D01*
X198157000Y-90823000D01*
X198157000Y-90843000D01*
X199600378Y-90843000D01*
X199645941Y-90753223D01*
X203568035Y-90753223D01*
X203595222Y-91323454D01*
X203761136Y-91724005D01*
X204007255Y-91798139D01*
X204835395Y-90970000D01*
X205194605Y-90970000D01*
X206022745Y-91798139D01*
X206268864Y-91724005D01*
X206461965Y-91186777D01*
X206439018Y-90705461D01*
X212894092Y-90705461D01*
X212918144Y-91355460D01*
X213120613Y-91844264D01*
X213387468Y-91942927D01*
X214360395Y-90970000D01*
X214719605Y-90970000D01*
X215692532Y-91942927D01*
X215959387Y-91844264D01*
X216185908Y-91234539D01*
X216161856Y-90584540D01*
X215959387Y-90095736D01*
X215692532Y-89997073D01*
X214719605Y-90970000D01*
X214360395Y-90970000D01*
X213387468Y-89997073D01*
X213120613Y-90095736D01*
X212894092Y-90705461D01*
X206439018Y-90705461D01*
X206434778Y-90616546D01*
X206268864Y-90215995D01*
X206022745Y-90141861D01*
X205194605Y-90970000D01*
X204835395Y-90970000D01*
X204007255Y-90141861D01*
X203761136Y-90215995D01*
X203568035Y-90753223D01*
X199645941Y-90753223D01*
X199721036Y-90605260D01*
X199708475Y-90539975D01*
X199431369Y-90006921D01*
X199378200Y-89962255D01*
X204186861Y-89962255D01*
X205015000Y-90790395D01*
X205843139Y-89962255D01*
X205799528Y-89817468D01*
X213567073Y-89817468D01*
X214540000Y-90790395D01*
X215512927Y-89817468D01*
X215414264Y-89550613D01*
X214804539Y-89324092D01*
X214154540Y-89348144D01*
X213665736Y-89550613D01*
X213567073Y-89817468D01*
X205799528Y-89817468D01*
X205769005Y-89716136D01*
X205231777Y-89523035D01*
X204661546Y-89550222D01*
X204260995Y-89716136D01*
X204186861Y-89962255D01*
X199378200Y-89962255D01*
X199069172Y-89702651D01*
X199349400Y-89515409D01*
X199483309Y-89315000D01*
X200569995Y-89315000D01*
X200570000Y-89315001D01*
X200852484Y-89258810D01*
X200908675Y-89247633D01*
X201195790Y-89055790D01*
X203476579Y-86775000D01*
X203870829Y-86775000D01*
X204201077Y-87105824D01*
X204728309Y-87324750D01*
X205299187Y-87325248D01*
X205826800Y-87107243D01*
X206230824Y-86703923D01*
X206449750Y-86176691D01*
X206450248Y-85605813D01*
X206232243Y-85078200D01*
X205828923Y-84674176D01*
X205301691Y-84455250D01*
X204730813Y-84454752D01*
X204203200Y-84672757D01*
X203870377Y-85005000D01*
X203110000Y-85005000D01*
X202771325Y-85072367D01*
X202484210Y-85264210D01*
X202484208Y-85264213D01*
X200203420Y-87545000D01*
X199483309Y-87545000D01*
X199349400Y-87344591D01*
X199073140Y-87160000D01*
X199349400Y-86975409D01*
X199483309Y-86775000D01*
X200061995Y-86775000D01*
X200062000Y-86775001D01*
X200344484Y-86718810D01*
X200400675Y-86707633D01*
X200687790Y-86515790D01*
X204238579Y-82965000D01*
X204505829Y-82965000D01*
X204836077Y-83295824D01*
X205363309Y-83514750D01*
X205579359Y-83514938D01*
X210866208Y-88801787D01*
X210866210Y-88801790D01*
X211153325Y-88993633D01*
X211209516Y-89004810D01*
X211492000Y-89061001D01*
X211492005Y-89061000D01*
X216967420Y-89061000D01*
X217973000Y-90066579D01*
X217973000Y-110812560D01*
X217758000Y-110812560D01*
X217522683Y-110856838D01*
X217306559Y-110995910D01*
X217161569Y-111208110D01*
X217110560Y-111460000D01*
X217110560Y-113660000D01*
X217154838Y-113895317D01*
X217293910Y-114111441D01*
X217506110Y-114256431D01*
X217758000Y-114307440D01*
X219958000Y-114307440D01*
X220193317Y-114263162D01*
X220409441Y-114124090D01*
X220554431Y-113911890D01*
X220605440Y-113660000D01*
X220605440Y-111460000D01*
X220561162Y-111224683D01*
X220422090Y-111008559D01*
X220209890Y-110863569D01*
X219958000Y-110812560D01*
X219743000Y-110812560D01*
X219743000Y-89700000D01*
X219675633Y-89361325D01*
X219483790Y-89074210D01*
X219483787Y-89074208D01*
X217959790Y-87550210D01*
X217921635Y-87524716D01*
X217672675Y-87358367D01*
X217603419Y-87344591D01*
X217334000Y-87290999D01*
X217333995Y-87291000D01*
X215430804Y-87291000D01*
X215464943Y-87276894D01*
X215925278Y-86817363D01*
X216174716Y-86216648D01*
X216175284Y-85566205D01*
X215926894Y-84965057D01*
X215467363Y-84504722D01*
X214866648Y-84255284D01*
X214216205Y-84254716D01*
X214173812Y-84272233D01*
X212164840Y-82263260D01*
X212165248Y-81795813D01*
X211947243Y-81268200D01*
X211543923Y-80864176D01*
X211016691Y-80645250D01*
X210445813Y-80644752D01*
X209918200Y-80862757D01*
X209514176Y-81266077D01*
X209295250Y-81793309D01*
X209294752Y-82364187D01*
X209512757Y-82891800D01*
X209916077Y-83295824D01*
X210443309Y-83514750D01*
X210913580Y-83515160D01*
X212921858Y-85523437D01*
X212905284Y-85563352D01*
X212904716Y-86213795D01*
X213153106Y-86814943D01*
X213612637Y-87275278D01*
X213650500Y-87291000D01*
X211858579Y-87291000D01*
X207040599Y-82473019D01*
X207084750Y-82366691D01*
X207085248Y-81795813D01*
X206867243Y-81268200D01*
X206463923Y-80864176D01*
X205936691Y-80645250D01*
X205365813Y-80644752D01*
X204838200Y-80862757D01*
X204505377Y-81195000D01*
X203872005Y-81195000D01*
X203872000Y-81194999D01*
X203589516Y-81251190D01*
X203533325Y-81262367D01*
X203246210Y-81454210D01*
X203246208Y-81454213D01*
X199695420Y-85005000D01*
X199483309Y-85005000D01*
X199349400Y-84804591D01*
X199073140Y-84620000D01*
X199349400Y-84435409D01*
X199682146Y-83937419D01*
X199798991Y-83350000D01*
X199682146Y-82762581D01*
X199349400Y-82264591D01*
X198851410Y-81931845D01*
X198263991Y-81815000D01*
X197796009Y-81815000D01*
X197208590Y-81931845D01*
X196710600Y-82264591D01*
X196576691Y-82465000D01*
X195490000Y-82465000D01*
X195151325Y-82532367D01*
X194864210Y-82724210D01*
X194864208Y-82724213D01*
X193340210Y-84248210D01*
X193148367Y-84535325D01*
X193148367Y-84535326D01*
X193080999Y-84874000D01*
X193081000Y-84874005D01*
X193081000Y-90085000D01*
X191863309Y-90085000D01*
X191729400Y-89884591D01*
X191453140Y-89700000D01*
X191729400Y-89515409D01*
X192062146Y-89017419D01*
X192178991Y-88430000D01*
X192062146Y-87842581D01*
X191729400Y-87344591D01*
X191453140Y-87160000D01*
X191729400Y-86975409D01*
X192062146Y-86477419D01*
X192178991Y-85890000D01*
X192062146Y-85302581D01*
X191729400Y-84804591D01*
X191453140Y-84620000D01*
X191729400Y-84435409D01*
X192062146Y-83937419D01*
X192178991Y-83350000D01*
X192062146Y-82762581D01*
X191729400Y-82264591D01*
X191231410Y-81931845D01*
X190643991Y-81815000D01*
X190176009Y-81815000D01*
X189588590Y-81931845D01*
X189090600Y-82264591D01*
X188956691Y-82465000D01*
X180250005Y-82465000D01*
X180250000Y-82464999D01*
X179967516Y-82521190D01*
X179911325Y-82532367D01*
X179624210Y-82724210D01*
X179624208Y-82724213D01*
X177846210Y-84502210D01*
X177654367Y-84789325D01*
X177644009Y-84841397D01*
X177586999Y-85128000D01*
X166145000Y-85128000D01*
X166145000Y-82480905D01*
X166310551Y-82315643D01*
X166544733Y-81751670D01*
X166545265Y-81141009D01*
X166312068Y-80576629D01*
X166280495Y-80545000D01*
X173622560Y-80545000D01*
X173622560Y-82345000D01*
X173666838Y-82580317D01*
X173805910Y-82796441D01*
X174018110Y-82941431D01*
X174270000Y-82992440D01*
X176070000Y-82992440D01*
X176305317Y-82948162D01*
X176521441Y-82809090D01*
X176666431Y-82596890D01*
X176717440Y-82345000D01*
X176717440Y-80545000D01*
X176673162Y-80309683D01*
X176534090Y-80093559D01*
X176321890Y-79948569D01*
X176205000Y-79924898D01*
X176205000Y-78135730D01*
X176470551Y-77870643D01*
X176704733Y-77306670D01*
X176705265Y-76696009D01*
X176472068Y-76131629D01*
X176440495Y-76100000D01*
X183782560Y-76100000D01*
X183782560Y-77900000D01*
X183826838Y-78135317D01*
X183965910Y-78351441D01*
X184178110Y-78496431D01*
X184430000Y-78547440D01*
X186230000Y-78547440D01*
X186465317Y-78503162D01*
X186681441Y-78364090D01*
X186826431Y-78151890D01*
X186877440Y-77900000D01*
X186877440Y-76100000D01*
X186833162Y-75864683D01*
X186694090Y-75648559D01*
X186481890Y-75503569D01*
X186230000Y-75452560D01*
X184430000Y-75452560D01*
X184194683Y-75496838D01*
X183978559Y-75635910D01*
X183833569Y-75848110D01*
X183782560Y-76100000D01*
X176440495Y-76100000D01*
X176040643Y-75699449D01*
X175476670Y-75465267D01*
X174866009Y-75464735D01*
X174301629Y-75697932D01*
X173869449Y-76129357D01*
X173635267Y-76693330D01*
X173634735Y-77303991D01*
X173867932Y-77868371D01*
X174135000Y-78135906D01*
X174135000Y-79922962D01*
X174034683Y-79941838D01*
X173818559Y-80080910D01*
X173673569Y-80293110D01*
X173622560Y-80545000D01*
X166280495Y-80545000D01*
X165880643Y-80144449D01*
X165316670Y-79910267D01*
X164938649Y-79909938D01*
X163505000Y-78476288D01*
X163505000Y-78135730D01*
X163770551Y-77870643D01*
X164004733Y-77306670D01*
X164005265Y-76696009D01*
X163772068Y-76131629D01*
X163340643Y-75699449D01*
X162776670Y-75465267D01*
X162166009Y-75464735D01*
X161601629Y-75697932D01*
X161169449Y-76129357D01*
X160935267Y-76693330D01*
X160934735Y-77303991D01*
X153857440Y-77303991D01*
X153857440Y-76100000D01*
X153813162Y-75864683D01*
X153674090Y-75648559D01*
X153461890Y-75503569D01*
X153210000Y-75452560D01*
X151410000Y-75452560D01*
X151174683Y-75496838D01*
X150958559Y-75635910D01*
X150813569Y-75848110D01*
X150762560Y-76100000D01*
X150762560Y-77900000D01*
X150806838Y-78135317D01*
X150945910Y-78351441D01*
X151158110Y-78496431D01*
X151238565Y-78512724D01*
X149841226Y-79910062D01*
X149466009Y-79909735D01*
X148901629Y-80142932D01*
X148469449Y-80574357D01*
X148235267Y-81138330D01*
X148234735Y-81748991D01*
X141157440Y-81748991D01*
X141157440Y-80545000D01*
X141113162Y-80309683D01*
X140974090Y-80093559D01*
X140761890Y-79948569D01*
X140510000Y-79897560D01*
X139526271Y-79897560D01*
X138105000Y-78476288D01*
X138105000Y-78135730D01*
X138370551Y-77870643D01*
X138604733Y-77306670D01*
X138605265Y-76696009D01*
X138372068Y-76131629D01*
X137940643Y-75699449D01*
X137376670Y-75465267D01*
X136766009Y-75464735D01*
X136201629Y-75697932D01*
X135769449Y-76129357D01*
X135535267Y-76693330D01*
X135534735Y-77303991D01*
X128457440Y-77303991D01*
X128457440Y-76100000D01*
X128413162Y-75864683D01*
X128274090Y-75648559D01*
X128061890Y-75503569D01*
X127810000Y-75452560D01*
X126010000Y-75452560D01*
X125774683Y-75496838D01*
X125558559Y-75635910D01*
X125413569Y-75848110D01*
X125362560Y-76100000D01*
X125362560Y-77900000D01*
X125406838Y-78135317D01*
X125545910Y-78351441D01*
X125758110Y-78496431D01*
X125838565Y-78512724D01*
X124441226Y-79910062D01*
X124066009Y-79909735D01*
X123501629Y-80142932D01*
X123069449Y-80574357D01*
X122835267Y-81138330D01*
X122834735Y-81748991D01*
X115757440Y-81748991D01*
X115757440Y-80545000D01*
X115713162Y-80309683D01*
X115574090Y-80093559D01*
X115361890Y-79948569D01*
X115110000Y-79897560D01*
X114126271Y-79897560D01*
X112705000Y-78476288D01*
X112705000Y-78135730D01*
X112970551Y-77870643D01*
X113204733Y-77306670D01*
X113205265Y-76696009D01*
X112972068Y-76131629D01*
X112540643Y-75699449D01*
X111976670Y-75465267D01*
X111366009Y-75464735D01*
X110801629Y-75697932D01*
X110369449Y-76129357D01*
X110135267Y-76693330D01*
X110134735Y-77303991D01*
X103057440Y-77303991D01*
X103057440Y-76100000D01*
X103013162Y-75864683D01*
X102874090Y-75648559D01*
X102661890Y-75503569D01*
X102410000Y-75452560D01*
X100610000Y-75452560D01*
X100374683Y-75496838D01*
X100158559Y-75635910D01*
X100013569Y-75848110D01*
X99962560Y-76100000D01*
X99962560Y-77900000D01*
X100006838Y-78135317D01*
X100145910Y-78351441D01*
X100358110Y-78496431D01*
X100438565Y-78512724D01*
X99041226Y-79910062D01*
X98666009Y-79909735D01*
X98101629Y-80142932D01*
X97669449Y-80574357D01*
X97435267Y-81138330D01*
X97434735Y-81748991D01*
X90357440Y-81748991D01*
X90357440Y-80545000D01*
X90313162Y-80309683D01*
X90174090Y-80093559D01*
X89961890Y-79948569D01*
X89710000Y-79897560D01*
X88726271Y-79897560D01*
X87305000Y-78476288D01*
X87305000Y-78135730D01*
X87570551Y-77870643D01*
X87804733Y-77306670D01*
X87805265Y-76696009D01*
X87572068Y-76131629D01*
X87140643Y-75699449D01*
X86576670Y-75465267D01*
X85966009Y-75464735D01*
X85401629Y-75697932D01*
X84969449Y-76129357D01*
X84735267Y-76693330D01*
X84734735Y-77303991D01*
X77657440Y-77303991D01*
X77657440Y-76100000D01*
X77613162Y-75864683D01*
X77474090Y-75648559D01*
X77261890Y-75503569D01*
X77010000Y-75452560D01*
X75210000Y-75452560D01*
X74974683Y-75496838D01*
X74758559Y-75635910D01*
X74613569Y-75848110D01*
X74562560Y-76100000D01*
X74562560Y-77900000D01*
X74606838Y-78135317D01*
X74745910Y-78351441D01*
X74958110Y-78496431D01*
X75075000Y-78520102D01*
X75075000Y-85442560D01*
X74920000Y-85442560D01*
X74684683Y-85486838D01*
X74468559Y-85625910D01*
X74323569Y-85838110D01*
X74272560Y-86090000D01*
X72827000Y-86090000D01*
X72827000Y-74927000D01*
X221573000Y-74927000D01*
X221573000Y-118673000D01*
M02*
