G04 #@! TF.FileFunction,Legend,Top*
%FSLAX46Y46*%
G04 Gerber Fmt 4.6, Leading zero omitted, Abs format (unit mm)*
G04 Created by KiCad (PCBNEW 4.0.1-stable) date 2016/10/28 19:38:33*
%MOMM*%
G01*
G04 APERTURE LIST*
%ADD10C,0.100000*%
%ADD11C,0.150000*%
G04 APERTURE END LIST*
D10*
D11*
X195490000Y-93510000D02*
X194220000Y-92240000D01*
X194220000Y-92240000D02*
X192950000Y-93510000D01*
X192950000Y-93510000D02*
X187870000Y-93510000D01*
X187870000Y-93510000D02*
X187870000Y-80810000D01*
X187870000Y-80810000D02*
X200570000Y-80810000D01*
X200570000Y-80810000D02*
X200570000Y-93510000D01*
X200570000Y-93510000D02*
X195490000Y-93510000D01*
X162470000Y-84620000D02*
X162470000Y-112560000D01*
X149770000Y-84620000D02*
X149770000Y-112560000D01*
X137070000Y-84620000D02*
X137070000Y-112560000D01*
X124370000Y-84620000D02*
X124370000Y-112560000D01*
X111670000Y-84620000D02*
X111670000Y-112560000D01*
X98970000Y-84620000D02*
X98970000Y-112560000D01*
X86270000Y-84620000D02*
X86270000Y-112560000D01*
X73570000Y-84620000D02*
X73570000Y-112560000D01*
X73570000Y-112560000D02*
X175170000Y-112560000D01*
X175170000Y-112560000D02*
X175170000Y-84620000D01*
X175170000Y-84620000D02*
X73570000Y-84620000D01*
X205856000Y-112814000D02*
X206356000Y-112814000D01*
X199856000Y-112814000D02*
X199356000Y-112814000D01*
X205856000Y-113814000D02*
X199856000Y-113814000D01*
X199856000Y-113814000D02*
X199856000Y-111814000D01*
X205856000Y-111814000D02*
X205856000Y-113814000D01*
X199856000Y-111814000D02*
X205856000Y-111814000D01*
X197316000Y-105702000D02*
X196816000Y-105702000D01*
X203316000Y-105702000D02*
X203816000Y-105702000D01*
X197316000Y-104702000D02*
X203316000Y-104702000D01*
X203316000Y-104702000D02*
X203316000Y-106702000D01*
X197316000Y-106702000D02*
X197316000Y-104702000D01*
X203316000Y-106702000D02*
X197316000Y-106702000D01*
X200522000Y-98590000D02*
X201022000Y-98590000D01*
X194522000Y-98590000D02*
X194022000Y-98590000D01*
X200522000Y-99590000D02*
X194522000Y-99590000D01*
X194522000Y-99590000D02*
X194522000Y-97590000D01*
X200522000Y-97590000D02*
X200522000Y-99590000D01*
X194522000Y-97590000D02*
X200522000Y-97590000D01*
X173090000Y-81445000D02*
X173590000Y-81445000D01*
X167090000Y-81445000D02*
X166590000Y-81445000D01*
X173090000Y-82445000D02*
X167090000Y-82445000D01*
X167090000Y-82445000D02*
X167090000Y-80445000D01*
X173090000Y-80445000D02*
X173090000Y-82445000D01*
X167090000Y-80445000D02*
X173090000Y-80445000D01*
X183250000Y-77000000D02*
X183750000Y-77000000D01*
X177250000Y-77000000D02*
X176750000Y-77000000D01*
X183250000Y-78000000D02*
X177250000Y-78000000D01*
X177250000Y-78000000D02*
X177250000Y-76000000D01*
X183250000Y-76000000D02*
X183250000Y-78000000D01*
X177250000Y-76000000D02*
X183250000Y-76000000D01*
X154390000Y-77000000D02*
X153890000Y-77000000D01*
X160390000Y-77000000D02*
X160890000Y-77000000D01*
X154390000Y-76000000D02*
X160390000Y-76000000D01*
X160390000Y-76000000D02*
X160390000Y-78000000D01*
X154390000Y-78000000D02*
X154390000Y-76000000D01*
X160390000Y-78000000D02*
X154390000Y-78000000D01*
X141690000Y-81445000D02*
X141190000Y-81445000D01*
X147690000Y-81445000D02*
X148190000Y-81445000D01*
X141690000Y-80445000D02*
X147690000Y-80445000D01*
X147690000Y-80445000D02*
X147690000Y-82445000D01*
X141690000Y-82445000D02*
X141690000Y-80445000D01*
X147690000Y-82445000D02*
X141690000Y-82445000D01*
X128990000Y-77000000D02*
X128490000Y-77000000D01*
X134990000Y-77000000D02*
X135490000Y-77000000D01*
X128990000Y-76000000D02*
X134990000Y-76000000D01*
X134990000Y-76000000D02*
X134990000Y-78000000D01*
X128990000Y-78000000D02*
X128990000Y-76000000D01*
X134990000Y-78000000D02*
X128990000Y-78000000D01*
X116290000Y-81445000D02*
X115790000Y-81445000D01*
X122290000Y-81445000D02*
X122790000Y-81445000D01*
X116290000Y-80445000D02*
X122290000Y-80445000D01*
X122290000Y-80445000D02*
X122290000Y-82445000D01*
X116290000Y-82445000D02*
X116290000Y-80445000D01*
X122290000Y-82445000D02*
X116290000Y-82445000D01*
X103590000Y-77000000D02*
X103090000Y-77000000D01*
X109590000Y-77000000D02*
X110090000Y-77000000D01*
X103590000Y-76000000D02*
X109590000Y-76000000D01*
X109590000Y-76000000D02*
X109590000Y-78000000D01*
X103590000Y-78000000D02*
X103590000Y-76000000D01*
X109590000Y-78000000D02*
X103590000Y-78000000D01*
X90890000Y-81445000D02*
X90390000Y-81445000D01*
X96890000Y-81445000D02*
X97390000Y-81445000D01*
X90890000Y-80445000D02*
X96890000Y-80445000D01*
X96890000Y-80445000D02*
X96890000Y-82445000D01*
X90890000Y-82445000D02*
X90890000Y-80445000D01*
X96890000Y-82445000D02*
X90890000Y-82445000D01*
X78190000Y-77000000D02*
X77690000Y-77000000D01*
X84190000Y-77000000D02*
X84690000Y-77000000D01*
X78190000Y-76000000D02*
X84190000Y-76000000D01*
X84190000Y-76000000D02*
X84190000Y-78000000D01*
X78190000Y-78000000D02*
X78190000Y-76000000D01*
X84190000Y-78000000D02*
X78190000Y-78000000D01*
X216064000Y-104940000D02*
X216064000Y-96812000D01*
X216064000Y-96812000D02*
X212000000Y-96812000D01*
X212000000Y-96812000D02*
X207936000Y-98844000D01*
X207936000Y-98844000D02*
X207936000Y-102908000D01*
X207936000Y-102908000D02*
X212000000Y-104940000D01*
X212000000Y-104940000D02*
X216064000Y-104940000D01*
X219928154Y-88430000D02*
G75*
G03X219928154Y-88430000I-5388154J0D01*
G01*
X193672381Y-87921905D02*
X194481905Y-87921905D01*
X194577143Y-87874286D01*
X194624762Y-87826667D01*
X194672381Y-87731429D01*
X194672381Y-87540952D01*
X194624762Y-87445714D01*
X194577143Y-87398095D01*
X194481905Y-87350476D01*
X193672381Y-87350476D01*
X194672381Y-86350476D02*
X194672381Y-86921905D01*
X194672381Y-86636191D02*
X193672381Y-86636191D01*
X193815238Y-86731429D01*
X193910476Y-86826667D01*
X193958095Y-86921905D01*
X186504762Y-92120952D02*
X186409524Y-92073333D01*
X186361905Y-92025714D01*
X186314286Y-91930476D01*
X186314286Y-91882857D01*
X186361905Y-91787619D01*
X186409524Y-91740000D01*
X186504762Y-91692381D01*
X186695239Y-91692381D01*
X186790477Y-91740000D01*
X186838096Y-91787619D01*
X186885715Y-91882857D01*
X186885715Y-91930476D01*
X186838096Y-92025714D01*
X186790477Y-92073333D01*
X186695239Y-92120952D01*
X186504762Y-92120952D01*
X186409524Y-92168571D01*
X186361905Y-92216190D01*
X186314286Y-92311429D01*
X186314286Y-92501905D01*
X186361905Y-92597143D01*
X186409524Y-92644762D01*
X186504762Y-92692381D01*
X186695239Y-92692381D01*
X186790477Y-92644762D01*
X186838096Y-92597143D01*
X186885715Y-92501905D01*
X186885715Y-92311429D01*
X186838096Y-92216190D01*
X186790477Y-92168571D01*
X186695239Y-92120952D01*
X186838096Y-81532381D02*
X186361905Y-81532381D01*
X186314286Y-82008571D01*
X186361905Y-81960952D01*
X186457143Y-81913333D01*
X186695239Y-81913333D01*
X186790477Y-81960952D01*
X186838096Y-82008571D01*
X186885715Y-82103810D01*
X186885715Y-82341905D01*
X186838096Y-82437143D01*
X186790477Y-82484762D01*
X186695239Y-82532381D01*
X186457143Y-82532381D01*
X186361905Y-82484762D01*
X186314286Y-82437143D01*
X202030477Y-81865714D02*
X202030477Y-82532381D01*
X201792381Y-81484762D02*
X201554286Y-82199048D01*
X202173334Y-82199048D01*
X202125715Y-92692381D02*
X201554286Y-92692381D01*
X201840000Y-92692381D02*
X201840000Y-91692381D01*
X201744762Y-91835238D01*
X201649524Y-91930476D01*
X201554286Y-91978095D01*
X121274761Y-117457381D02*
X121274761Y-116457381D01*
X121369999Y-117076429D02*
X121655714Y-117457381D01*
X121655714Y-116790714D02*
X121274761Y-117171667D01*
X122465238Y-117409762D02*
X122370000Y-117457381D01*
X122179523Y-117457381D01*
X122084285Y-117409762D01*
X122036666Y-117314524D01*
X122036666Y-116933571D01*
X122084285Y-116838333D01*
X122179523Y-116790714D01*
X122370000Y-116790714D01*
X122465238Y-116838333D01*
X122512857Y-116933571D01*
X122512857Y-117028810D01*
X122036666Y-117124048D01*
X122846190Y-116790714D02*
X123084285Y-117457381D01*
X123322381Y-116790714D02*
X123084285Y-117457381D01*
X122989047Y-117695476D01*
X122941428Y-117743095D01*
X122846190Y-117790714D01*
X123703333Y-117457381D02*
X123703333Y-116457381D01*
X123703333Y-116838333D02*
X123798571Y-116790714D01*
X123989048Y-116790714D01*
X124084286Y-116838333D01*
X124131905Y-116885952D01*
X124179524Y-116981190D01*
X124179524Y-117266905D01*
X124131905Y-117362143D01*
X124084286Y-117409762D01*
X123989048Y-117457381D01*
X123798571Y-117457381D01*
X123703333Y-117409762D01*
X124750952Y-117457381D02*
X124655714Y-117409762D01*
X124608095Y-117362143D01*
X124560476Y-117266905D01*
X124560476Y-116981190D01*
X124608095Y-116885952D01*
X124655714Y-116838333D01*
X124750952Y-116790714D01*
X124893810Y-116790714D01*
X124989048Y-116838333D01*
X125036667Y-116885952D01*
X125084286Y-116981190D01*
X125084286Y-117266905D01*
X125036667Y-117362143D01*
X124989048Y-117409762D01*
X124893810Y-117457381D01*
X124750952Y-117457381D01*
X125941429Y-117457381D02*
X125941429Y-116933571D01*
X125893810Y-116838333D01*
X125798572Y-116790714D01*
X125608095Y-116790714D01*
X125512857Y-116838333D01*
X125941429Y-117409762D02*
X125846191Y-117457381D01*
X125608095Y-117457381D01*
X125512857Y-117409762D01*
X125465238Y-117314524D01*
X125465238Y-117219286D01*
X125512857Y-117124048D01*
X125608095Y-117076429D01*
X125846191Y-117076429D01*
X125941429Y-117028810D01*
X126417619Y-117457381D02*
X126417619Y-116790714D01*
X126417619Y-116981190D02*
X126465238Y-116885952D01*
X126512857Y-116838333D01*
X126608095Y-116790714D01*
X126703334Y-116790714D01*
X127465239Y-117457381D02*
X127465239Y-116457381D01*
X127465239Y-117409762D02*
X127370001Y-117457381D01*
X127179524Y-117457381D01*
X127084286Y-117409762D01*
X127036667Y-117362143D01*
X126989048Y-117266905D01*
X126989048Y-116981190D01*
X127036667Y-116885952D01*
X127084286Y-116838333D01*
X127179524Y-116790714D01*
X127370001Y-116790714D01*
X127465239Y-116838333D01*
X168653334Y-115457143D02*
X168605715Y-115504762D01*
X168462858Y-115552381D01*
X168367620Y-115552381D01*
X168224762Y-115504762D01*
X168129524Y-115409524D01*
X168081905Y-115314286D01*
X168034286Y-115123810D01*
X168034286Y-114980952D01*
X168081905Y-114790476D01*
X168129524Y-114695238D01*
X168224762Y-114600000D01*
X168367620Y-114552381D01*
X168462858Y-114552381D01*
X168605715Y-114600000D01*
X168653334Y-114647619D01*
X168986667Y-114552381D02*
X169653334Y-114552381D01*
X169224762Y-115552381D01*
X155715239Y-115028571D02*
X155858096Y-115076190D01*
X155905715Y-115123810D01*
X155953334Y-115219048D01*
X155953334Y-115361905D01*
X155905715Y-115457143D01*
X155858096Y-115504762D01*
X155762858Y-115552381D01*
X155381905Y-115552381D01*
X155381905Y-114552381D01*
X155715239Y-114552381D01*
X155810477Y-114600000D01*
X155858096Y-114647619D01*
X155905715Y-114742857D01*
X155905715Y-114838095D01*
X155858096Y-114933333D01*
X155810477Y-114980952D01*
X155715239Y-115028571D01*
X155381905Y-115028571D01*
X156810477Y-114552381D02*
X156620000Y-114552381D01*
X156524762Y-114600000D01*
X156477143Y-114647619D01*
X156381905Y-114790476D01*
X156334286Y-114980952D01*
X156334286Y-115361905D01*
X156381905Y-115457143D01*
X156429524Y-115504762D01*
X156524762Y-115552381D01*
X156715239Y-115552381D01*
X156810477Y-115504762D01*
X156858096Y-115457143D01*
X156905715Y-115361905D01*
X156905715Y-115123810D01*
X156858096Y-115028571D01*
X156810477Y-114980952D01*
X156715239Y-114933333D01*
X156524762Y-114933333D01*
X156429524Y-114980952D01*
X156381905Y-115028571D01*
X156334286Y-115123810D01*
X142705714Y-115266667D02*
X143181905Y-115266667D01*
X142610476Y-115552381D02*
X142943809Y-114552381D01*
X143277143Y-115552381D01*
X144039048Y-114552381D02*
X143848571Y-114552381D01*
X143753333Y-114600000D01*
X143705714Y-114647619D01*
X143610476Y-114790476D01*
X143562857Y-114980952D01*
X143562857Y-115361905D01*
X143610476Y-115457143D01*
X143658095Y-115504762D01*
X143753333Y-115552381D01*
X143943810Y-115552381D01*
X144039048Y-115504762D01*
X144086667Y-115457143D01*
X144134286Y-115361905D01*
X144134286Y-115123810D01*
X144086667Y-115028571D01*
X144039048Y-114980952D01*
X143943810Y-114933333D01*
X143753333Y-114933333D01*
X143658095Y-114980952D01*
X143610476Y-115028571D01*
X143562857Y-115123810D01*
X130505715Y-114600000D02*
X130410477Y-114552381D01*
X130267620Y-114552381D01*
X130124762Y-114600000D01*
X130029524Y-114695238D01*
X129981905Y-114790476D01*
X129934286Y-114980952D01*
X129934286Y-115123810D01*
X129981905Y-115314286D01*
X130029524Y-115409524D01*
X130124762Y-115504762D01*
X130267620Y-115552381D01*
X130362858Y-115552381D01*
X130505715Y-115504762D01*
X130553334Y-115457143D01*
X130553334Y-115123810D01*
X130362858Y-115123810D01*
X131410477Y-114552381D02*
X131220000Y-114552381D01*
X131124762Y-114600000D01*
X131077143Y-114647619D01*
X130981905Y-114790476D01*
X130934286Y-114980952D01*
X130934286Y-115361905D01*
X130981905Y-115457143D01*
X131029524Y-115504762D01*
X131124762Y-115552381D01*
X131315239Y-115552381D01*
X131410477Y-115504762D01*
X131458096Y-115457143D01*
X131505715Y-115361905D01*
X131505715Y-115123810D01*
X131458096Y-115028571D01*
X131410477Y-114980952D01*
X131315239Y-114933333D01*
X131124762Y-114933333D01*
X131029524Y-114980952D01*
X130981905Y-115028571D01*
X130934286Y-115123810D01*
X117686667Y-115028571D02*
X117353333Y-115028571D01*
X117353333Y-115552381D02*
X117353333Y-114552381D01*
X117829524Y-114552381D01*
X118639048Y-114552381D02*
X118448571Y-114552381D01*
X118353333Y-114600000D01*
X118305714Y-114647619D01*
X118210476Y-114790476D01*
X118162857Y-114980952D01*
X118162857Y-115361905D01*
X118210476Y-115457143D01*
X118258095Y-115504762D01*
X118353333Y-115552381D01*
X118543810Y-115552381D01*
X118639048Y-115504762D01*
X118686667Y-115457143D01*
X118734286Y-115361905D01*
X118734286Y-115123810D01*
X118686667Y-115028571D01*
X118639048Y-114980952D01*
X118543810Y-114933333D01*
X118353333Y-114933333D01*
X118258095Y-114980952D01*
X118210476Y-115028571D01*
X118162857Y-115123810D01*
X105899524Y-115028571D02*
X106232858Y-115028571D01*
X106375715Y-115552381D02*
X105899524Y-115552381D01*
X105899524Y-114552381D01*
X106375715Y-114552381D01*
X107232858Y-114552381D02*
X107042381Y-114552381D01*
X106947143Y-114600000D01*
X106899524Y-114647619D01*
X106804286Y-114790476D01*
X106756667Y-114980952D01*
X106756667Y-115361905D01*
X106804286Y-115457143D01*
X106851905Y-115504762D01*
X106947143Y-115552381D01*
X107137620Y-115552381D01*
X107232858Y-115504762D01*
X107280477Y-115457143D01*
X107328096Y-115361905D01*
X107328096Y-115123810D01*
X107280477Y-115028571D01*
X107232858Y-114980952D01*
X107137620Y-114933333D01*
X106947143Y-114933333D01*
X106851905Y-114980952D01*
X106804286Y-115028571D01*
X106756667Y-115123810D01*
X91881905Y-115552381D02*
X91881905Y-114552381D01*
X92120000Y-114552381D01*
X92262858Y-114600000D01*
X92358096Y-114695238D01*
X92405715Y-114790476D01*
X92453334Y-114980952D01*
X92453334Y-115123810D01*
X92405715Y-115314286D01*
X92358096Y-115409524D01*
X92262858Y-115504762D01*
X92120000Y-115552381D01*
X91881905Y-115552381D01*
X93310477Y-114552381D02*
X93120000Y-114552381D01*
X93024762Y-114600000D01*
X92977143Y-114647619D01*
X92881905Y-114790476D01*
X92834286Y-114980952D01*
X92834286Y-115361905D01*
X92881905Y-115457143D01*
X92929524Y-115504762D01*
X93024762Y-115552381D01*
X93215239Y-115552381D01*
X93310477Y-115504762D01*
X93358096Y-115457143D01*
X93405715Y-115361905D01*
X93405715Y-115123810D01*
X93358096Y-115028571D01*
X93310477Y-114980952D01*
X93215239Y-114933333D01*
X93024762Y-114933333D01*
X92929524Y-114980952D01*
X92881905Y-115028571D01*
X92834286Y-115123810D01*
X79753334Y-115457143D02*
X79705715Y-115504762D01*
X79562858Y-115552381D01*
X79467620Y-115552381D01*
X79324762Y-115504762D01*
X79229524Y-115409524D01*
X79181905Y-115314286D01*
X79134286Y-115123810D01*
X79134286Y-114980952D01*
X79181905Y-114790476D01*
X79229524Y-114695238D01*
X79324762Y-114600000D01*
X79467620Y-114552381D01*
X79562858Y-114552381D01*
X79705715Y-114600000D01*
X79753334Y-114647619D01*
X80610477Y-114552381D02*
X80420000Y-114552381D01*
X80324762Y-114600000D01*
X80277143Y-114647619D01*
X80181905Y-114790476D01*
X80134286Y-114980952D01*
X80134286Y-115361905D01*
X80181905Y-115457143D01*
X80229524Y-115504762D01*
X80324762Y-115552381D01*
X80515239Y-115552381D01*
X80610477Y-115504762D01*
X80658096Y-115457143D01*
X80705715Y-115361905D01*
X80705715Y-115123810D01*
X80658096Y-115028571D01*
X80610477Y-114980952D01*
X80515239Y-114933333D01*
X80324762Y-114933333D01*
X80229524Y-114980952D01*
X80181905Y-115028571D01*
X80134286Y-115123810D01*
X205372143Y-88596666D02*
X205419762Y-88644285D01*
X205467381Y-88787142D01*
X205467381Y-88882380D01*
X205419762Y-89025238D01*
X205324524Y-89120476D01*
X205229286Y-89168095D01*
X205038810Y-89215714D01*
X204895952Y-89215714D01*
X204705476Y-89168095D01*
X204610238Y-89120476D01*
X204515000Y-89025238D01*
X204467381Y-88882380D01*
X204467381Y-88787142D01*
X204515000Y-88644285D01*
X204562619Y-88596666D01*
X205467381Y-87644285D02*
X205467381Y-88215714D01*
X205467381Y-87930000D02*
X204467381Y-87930000D01*
X204610238Y-88025238D01*
X204705476Y-88120476D01*
X204753095Y-88215714D01*
X206885714Y-89061904D02*
X207552381Y-89061904D01*
X206504762Y-89300000D02*
X207219048Y-89538095D01*
X207219048Y-88919047D01*
X206552381Y-88633333D02*
X206552381Y-87966666D01*
X207552381Y-88395238D01*
X206552381Y-87680952D02*
X206552381Y-87061904D01*
X206933333Y-87395238D01*
X206933333Y-87252380D01*
X206980952Y-87157142D01*
X207028571Y-87109523D01*
X207123810Y-87061904D01*
X207361905Y-87061904D01*
X207457143Y-87109523D01*
X207504762Y-87157142D01*
X207552381Y-87252380D01*
X207552381Y-87538095D01*
X207504762Y-87633333D01*
X207457143Y-87680952D01*
X208033334Y-82357143D02*
X207985715Y-82404762D01*
X207842858Y-82452381D01*
X207747620Y-82452381D01*
X207604762Y-82404762D01*
X207509524Y-82309524D01*
X207461905Y-82214286D01*
X207414286Y-82023810D01*
X207414286Y-81880952D01*
X207461905Y-81690476D01*
X207509524Y-81595238D01*
X207604762Y-81500000D01*
X207747620Y-81452381D01*
X207842858Y-81452381D01*
X207985715Y-81500000D01*
X208033334Y-81547619D01*
X208414286Y-81547619D02*
X208461905Y-81500000D01*
X208557143Y-81452381D01*
X208795239Y-81452381D01*
X208890477Y-81500000D01*
X208938096Y-81547619D01*
X208985715Y-81642857D01*
X208985715Y-81738095D01*
X208938096Y-81880952D01*
X208366667Y-82452381D01*
X208985715Y-82452381D01*
X207633334Y-80452381D02*
X207061905Y-80452381D01*
X207347619Y-80452381D02*
X207347619Y-79452381D01*
X207252381Y-79595238D01*
X207157143Y-79690476D01*
X207061905Y-79738095D01*
X208252381Y-79452381D02*
X208347620Y-79452381D01*
X208442858Y-79500000D01*
X208490477Y-79547619D01*
X208538096Y-79642857D01*
X208585715Y-79833333D01*
X208585715Y-80071429D01*
X208538096Y-80261905D01*
X208490477Y-80357143D01*
X208442858Y-80404762D01*
X208347620Y-80452381D01*
X208252381Y-80452381D01*
X208157143Y-80404762D01*
X208109524Y-80357143D01*
X208061905Y-80261905D01*
X208014286Y-80071429D01*
X208014286Y-79833333D01*
X208061905Y-79642857D01*
X208109524Y-79547619D01*
X208157143Y-79500000D01*
X208252381Y-79452381D01*
X209442858Y-79785714D02*
X209442858Y-80452381D01*
X209204762Y-79404762D02*
X208966667Y-80119048D01*
X209585715Y-80119048D01*
X202833334Y-115252381D02*
X202500000Y-114776190D01*
X202261905Y-115252381D02*
X202261905Y-114252381D01*
X202642858Y-114252381D01*
X202738096Y-114300000D01*
X202785715Y-114347619D01*
X202833334Y-114442857D01*
X202833334Y-114585714D01*
X202785715Y-114680952D01*
X202738096Y-114728571D01*
X202642858Y-114776190D01*
X202261905Y-114776190D01*
X203785715Y-115252381D02*
X203214286Y-115252381D01*
X203500000Y-115252381D02*
X203500000Y-114252381D01*
X203404762Y-114395238D01*
X203309524Y-114490476D01*
X203214286Y-114538095D01*
X202880953Y-113352381D02*
X202309524Y-113352381D01*
X202595238Y-113352381D02*
X202595238Y-112352381D01*
X202500000Y-112495238D01*
X202404762Y-112590476D01*
X202309524Y-112638095D01*
X203309524Y-113352381D02*
X203309524Y-112352381D01*
X203404762Y-112971429D02*
X203690477Y-113352381D01*
X203690477Y-112685714D02*
X203309524Y-113066667D01*
X200233334Y-108252381D02*
X199900000Y-107776190D01*
X199661905Y-108252381D02*
X199661905Y-107252381D01*
X200042858Y-107252381D01*
X200138096Y-107300000D01*
X200185715Y-107347619D01*
X200233334Y-107442857D01*
X200233334Y-107585714D01*
X200185715Y-107680952D01*
X200138096Y-107728571D01*
X200042858Y-107776190D01*
X199661905Y-107776190D01*
X200614286Y-107347619D02*
X200661905Y-107300000D01*
X200757143Y-107252381D01*
X200995239Y-107252381D01*
X201090477Y-107300000D01*
X201138096Y-107347619D01*
X201185715Y-107442857D01*
X201185715Y-107538095D01*
X201138096Y-107680952D01*
X200566667Y-108252381D01*
X201185715Y-108252381D01*
X199185714Y-105252381D02*
X199804762Y-105252381D01*
X199471428Y-105633333D01*
X199614286Y-105633333D01*
X199709524Y-105680952D01*
X199757143Y-105728571D01*
X199804762Y-105823810D01*
X199804762Y-106061905D01*
X199757143Y-106157143D01*
X199709524Y-106204762D01*
X199614286Y-106252381D01*
X199328571Y-106252381D01*
X199233333Y-106204762D01*
X199185714Y-106157143D01*
X200233333Y-106252381D02*
X200233333Y-105252381D01*
X200328571Y-105871429D02*
X200614286Y-106252381D01*
X200614286Y-105585714D02*
X200233333Y-105966667D01*
X200947619Y-105252381D02*
X201566667Y-105252381D01*
X201233333Y-105633333D01*
X201376191Y-105633333D01*
X201471429Y-105680952D01*
X201519048Y-105728571D01*
X201566667Y-105823810D01*
X201566667Y-106061905D01*
X201519048Y-106157143D01*
X201471429Y-106204762D01*
X201376191Y-106252381D01*
X201090476Y-106252381D01*
X200995238Y-106204762D01*
X200947619Y-106157143D01*
X197133334Y-101052381D02*
X196800000Y-100576190D01*
X196561905Y-101052381D02*
X196561905Y-100052381D01*
X196942858Y-100052381D01*
X197038096Y-100100000D01*
X197085715Y-100147619D01*
X197133334Y-100242857D01*
X197133334Y-100385714D01*
X197085715Y-100480952D01*
X197038096Y-100528571D01*
X196942858Y-100576190D01*
X196561905Y-100576190D01*
X197466667Y-100052381D02*
X198085715Y-100052381D01*
X197752381Y-100433333D01*
X197895239Y-100433333D01*
X197990477Y-100480952D01*
X198038096Y-100528571D01*
X198085715Y-100623810D01*
X198085715Y-100861905D01*
X198038096Y-100957143D01*
X197990477Y-101004762D01*
X197895239Y-101052381D01*
X197609524Y-101052381D01*
X197514286Y-101004762D01*
X197466667Y-100957143D01*
X196704524Y-98375714D02*
X196704524Y-99042381D01*
X196466428Y-97994762D02*
X196228333Y-98709048D01*
X196847381Y-98709048D01*
X197228333Y-99042381D02*
X197228333Y-98042381D01*
X197323571Y-98661429D02*
X197609286Y-99042381D01*
X197609286Y-98375714D02*
X197228333Y-98756667D01*
X197942619Y-98042381D02*
X198609286Y-98042381D01*
X198180714Y-99042381D01*
X169923334Y-79992381D02*
X169590000Y-79516190D01*
X169351905Y-79992381D02*
X169351905Y-78992381D01*
X169732858Y-78992381D01*
X169828096Y-79040000D01*
X169875715Y-79087619D01*
X169923334Y-79182857D01*
X169923334Y-79325714D01*
X169875715Y-79420952D01*
X169828096Y-79468571D01*
X169732858Y-79516190D01*
X169351905Y-79516190D01*
X170780477Y-79325714D02*
X170780477Y-79992381D01*
X170542381Y-78944762D02*
X170304286Y-79659048D01*
X170923334Y-79659048D01*
X169399524Y-80897381D02*
X169209047Y-80897381D01*
X169113809Y-80945000D01*
X169066190Y-80992619D01*
X168970952Y-81135476D01*
X168923333Y-81325952D01*
X168923333Y-81706905D01*
X168970952Y-81802143D01*
X169018571Y-81849762D01*
X169113809Y-81897381D01*
X169304286Y-81897381D01*
X169399524Y-81849762D01*
X169447143Y-81802143D01*
X169494762Y-81706905D01*
X169494762Y-81468810D01*
X169447143Y-81373571D01*
X169399524Y-81325952D01*
X169304286Y-81278333D01*
X169113809Y-81278333D01*
X169018571Y-81325952D01*
X168970952Y-81373571D01*
X168923333Y-81468810D01*
X169923333Y-81897381D02*
X169923333Y-80897381D01*
X170018571Y-81516429D02*
X170304286Y-81897381D01*
X170304286Y-81230714D02*
X169923333Y-81611667D01*
X170875714Y-81325952D02*
X170780476Y-81278333D01*
X170732857Y-81230714D01*
X170685238Y-81135476D01*
X170685238Y-81087857D01*
X170732857Y-80992619D01*
X170780476Y-80945000D01*
X170875714Y-80897381D01*
X171066191Y-80897381D01*
X171161429Y-80945000D01*
X171209048Y-80992619D01*
X171256667Y-81087857D01*
X171256667Y-81135476D01*
X171209048Y-81230714D01*
X171161429Y-81278333D01*
X171066191Y-81325952D01*
X170875714Y-81325952D01*
X170780476Y-81373571D01*
X170732857Y-81421190D01*
X170685238Y-81516429D01*
X170685238Y-81706905D01*
X170732857Y-81802143D01*
X170780476Y-81849762D01*
X170875714Y-81897381D01*
X171066191Y-81897381D01*
X171161429Y-81849762D01*
X171209048Y-81802143D01*
X171256667Y-81706905D01*
X171256667Y-81516429D01*
X171209048Y-81421190D01*
X171161429Y-81373571D01*
X171066191Y-81325952D01*
X180083334Y-79357381D02*
X179750000Y-78881190D01*
X179511905Y-79357381D02*
X179511905Y-78357381D01*
X179892858Y-78357381D01*
X179988096Y-78405000D01*
X180035715Y-78452619D01*
X180083334Y-78547857D01*
X180083334Y-78690714D01*
X180035715Y-78785952D01*
X179988096Y-78833571D01*
X179892858Y-78881190D01*
X179511905Y-78881190D01*
X180988096Y-78357381D02*
X180511905Y-78357381D01*
X180464286Y-78833571D01*
X180511905Y-78785952D01*
X180607143Y-78738333D01*
X180845239Y-78738333D01*
X180940477Y-78785952D01*
X180988096Y-78833571D01*
X181035715Y-78928810D01*
X181035715Y-79166905D01*
X180988096Y-79262143D01*
X180940477Y-79309762D01*
X180845239Y-79357381D01*
X180607143Y-79357381D01*
X180511905Y-79309762D01*
X180464286Y-79262143D01*
X179488096Y-76785714D02*
X179488096Y-77452381D01*
X179250000Y-76404762D02*
X179011905Y-77119048D01*
X179630953Y-77119048D01*
X179916667Y-76452381D02*
X180583334Y-76452381D01*
X180154762Y-77452381D01*
X181154762Y-76452381D02*
X181250001Y-76452381D01*
X181345239Y-76500000D01*
X181392858Y-76547619D01*
X181440477Y-76642857D01*
X181488096Y-76833333D01*
X181488096Y-77071429D01*
X181440477Y-77261905D01*
X181392858Y-77357143D01*
X181345239Y-77404762D01*
X181250001Y-77452381D01*
X181154762Y-77452381D01*
X181059524Y-77404762D01*
X181011905Y-77357143D01*
X180964286Y-77261905D01*
X180916667Y-77071429D01*
X180916667Y-76833333D01*
X180964286Y-76642857D01*
X181011905Y-76547619D01*
X181059524Y-76500000D01*
X181154762Y-76452381D01*
X157223334Y-79357381D02*
X156890000Y-78881190D01*
X156651905Y-79357381D02*
X156651905Y-78357381D01*
X157032858Y-78357381D01*
X157128096Y-78405000D01*
X157175715Y-78452619D01*
X157223334Y-78547857D01*
X157223334Y-78690714D01*
X157175715Y-78785952D01*
X157128096Y-78833571D01*
X157032858Y-78881190D01*
X156651905Y-78881190D01*
X158080477Y-78357381D02*
X157890000Y-78357381D01*
X157794762Y-78405000D01*
X157747143Y-78452619D01*
X157651905Y-78595476D01*
X157604286Y-78785952D01*
X157604286Y-79166905D01*
X157651905Y-79262143D01*
X157699524Y-79309762D01*
X157794762Y-79357381D01*
X157985239Y-79357381D01*
X158080477Y-79309762D01*
X158128096Y-79262143D01*
X158175715Y-79166905D01*
X158175715Y-78928810D01*
X158128096Y-78833571D01*
X158080477Y-78785952D01*
X157985239Y-78738333D01*
X157794762Y-78738333D01*
X157699524Y-78785952D01*
X157651905Y-78833571D01*
X157604286Y-78928810D01*
X156151905Y-76547619D02*
X156199524Y-76500000D01*
X156294762Y-76452381D01*
X156532858Y-76452381D01*
X156628096Y-76500000D01*
X156675715Y-76547619D01*
X156723334Y-76642857D01*
X156723334Y-76738095D01*
X156675715Y-76880952D01*
X156104286Y-77452381D01*
X156723334Y-77452381D01*
X157342381Y-76452381D02*
X157437620Y-76452381D01*
X157532858Y-76500000D01*
X157580477Y-76547619D01*
X157628096Y-76642857D01*
X157675715Y-76833333D01*
X157675715Y-77071429D01*
X157628096Y-77261905D01*
X157580477Y-77357143D01*
X157532858Y-77404762D01*
X157437620Y-77452381D01*
X157342381Y-77452381D01*
X157247143Y-77404762D01*
X157199524Y-77357143D01*
X157151905Y-77261905D01*
X157104286Y-77071429D01*
X157104286Y-76833333D01*
X157151905Y-76642857D01*
X157199524Y-76547619D01*
X157247143Y-76500000D01*
X157342381Y-76452381D01*
X158294762Y-76452381D02*
X158390001Y-76452381D01*
X158485239Y-76500000D01*
X158532858Y-76547619D01*
X158580477Y-76642857D01*
X158628096Y-76833333D01*
X158628096Y-77071429D01*
X158580477Y-77261905D01*
X158532858Y-77357143D01*
X158485239Y-77404762D01*
X158390001Y-77452381D01*
X158294762Y-77452381D01*
X158199524Y-77404762D01*
X158151905Y-77357143D01*
X158104286Y-77261905D01*
X158056667Y-77071429D01*
X158056667Y-76833333D01*
X158104286Y-76642857D01*
X158151905Y-76547619D01*
X158199524Y-76500000D01*
X158294762Y-76452381D01*
X144523334Y-79897381D02*
X144190000Y-79421190D01*
X143951905Y-79897381D02*
X143951905Y-78897381D01*
X144332858Y-78897381D01*
X144428096Y-78945000D01*
X144475715Y-78992619D01*
X144523334Y-79087857D01*
X144523334Y-79230714D01*
X144475715Y-79325952D01*
X144428096Y-79373571D01*
X144332858Y-79421190D01*
X143951905Y-79421190D01*
X144856667Y-78897381D02*
X145523334Y-78897381D01*
X145094762Y-79897381D01*
X144570953Y-81897381D02*
X143999524Y-81897381D01*
X144285238Y-81897381D02*
X144285238Y-80897381D01*
X144190000Y-81040238D01*
X144094762Y-81135476D01*
X143999524Y-81183095D01*
X144999524Y-81897381D02*
X144999524Y-80897381D01*
X145094762Y-81516429D02*
X145380477Y-81897381D01*
X145380477Y-81230714D02*
X144999524Y-81611667D01*
X131823334Y-79357381D02*
X131490000Y-78881190D01*
X131251905Y-79357381D02*
X131251905Y-78357381D01*
X131632858Y-78357381D01*
X131728096Y-78405000D01*
X131775715Y-78452619D01*
X131823334Y-78547857D01*
X131823334Y-78690714D01*
X131775715Y-78785952D01*
X131728096Y-78833571D01*
X131632858Y-78881190D01*
X131251905Y-78881190D01*
X132394762Y-78785952D02*
X132299524Y-78738333D01*
X132251905Y-78690714D01*
X132204286Y-78595476D01*
X132204286Y-78547857D01*
X132251905Y-78452619D01*
X132299524Y-78405000D01*
X132394762Y-78357381D01*
X132585239Y-78357381D01*
X132680477Y-78405000D01*
X132728096Y-78452619D01*
X132775715Y-78547857D01*
X132775715Y-78595476D01*
X132728096Y-78690714D01*
X132680477Y-78738333D01*
X132585239Y-78785952D01*
X132394762Y-78785952D01*
X132299524Y-78833571D01*
X132251905Y-78881190D01*
X132204286Y-78976429D01*
X132204286Y-79166905D01*
X132251905Y-79262143D01*
X132299524Y-79309762D01*
X132394762Y-79357381D01*
X132585239Y-79357381D01*
X132680477Y-79309762D01*
X132728096Y-79262143D01*
X132775715Y-79166905D01*
X132775715Y-78976429D01*
X132728096Y-78881190D01*
X132680477Y-78833571D01*
X132585239Y-78785952D01*
X131870953Y-77452381D02*
X131299524Y-77452381D01*
X131585238Y-77452381D02*
X131585238Y-76452381D01*
X131490000Y-76595238D01*
X131394762Y-76690476D01*
X131299524Y-76738095D01*
X132299524Y-77452381D02*
X132299524Y-76452381D01*
X132394762Y-77071429D02*
X132680477Y-77452381D01*
X132680477Y-76785714D02*
X132299524Y-77166667D01*
X119123334Y-79897381D02*
X118790000Y-79421190D01*
X118551905Y-79897381D02*
X118551905Y-78897381D01*
X118932858Y-78897381D01*
X119028096Y-78945000D01*
X119075715Y-78992619D01*
X119123334Y-79087857D01*
X119123334Y-79230714D01*
X119075715Y-79325952D01*
X119028096Y-79373571D01*
X118932858Y-79421190D01*
X118551905Y-79421190D01*
X119599524Y-79897381D02*
X119790000Y-79897381D01*
X119885239Y-79849762D01*
X119932858Y-79802143D01*
X120028096Y-79659286D01*
X120075715Y-79468810D01*
X120075715Y-79087857D01*
X120028096Y-78992619D01*
X119980477Y-78945000D01*
X119885239Y-78897381D01*
X119694762Y-78897381D01*
X119599524Y-78945000D01*
X119551905Y-78992619D01*
X119504286Y-79087857D01*
X119504286Y-79325952D01*
X119551905Y-79421190D01*
X119599524Y-79468810D01*
X119694762Y-79516429D01*
X119885239Y-79516429D01*
X119980477Y-79468810D01*
X120028096Y-79421190D01*
X120075715Y-79325952D01*
X118694762Y-81897381D02*
X118123333Y-81897381D01*
X118409047Y-81897381D02*
X118409047Y-80897381D01*
X118313809Y-81040238D01*
X118218571Y-81135476D01*
X118123333Y-81183095D01*
X119123333Y-81897381D02*
X119123333Y-80897381D01*
X119218571Y-81516429D02*
X119504286Y-81897381D01*
X119504286Y-81230714D02*
X119123333Y-81611667D01*
X119885238Y-80992619D02*
X119932857Y-80945000D01*
X120028095Y-80897381D01*
X120266191Y-80897381D01*
X120361429Y-80945000D01*
X120409048Y-80992619D01*
X120456667Y-81087857D01*
X120456667Y-81183095D01*
X120409048Y-81325952D01*
X119837619Y-81897381D01*
X120456667Y-81897381D01*
X105947143Y-79357381D02*
X105613809Y-78881190D01*
X105375714Y-79357381D02*
X105375714Y-78357381D01*
X105756667Y-78357381D01*
X105851905Y-78405000D01*
X105899524Y-78452619D01*
X105947143Y-78547857D01*
X105947143Y-78690714D01*
X105899524Y-78785952D01*
X105851905Y-78833571D01*
X105756667Y-78881190D01*
X105375714Y-78881190D01*
X106899524Y-79357381D02*
X106328095Y-79357381D01*
X106613809Y-79357381D02*
X106613809Y-78357381D01*
X106518571Y-78500238D01*
X106423333Y-78595476D01*
X106328095Y-78643095D01*
X107518571Y-78357381D02*
X107613810Y-78357381D01*
X107709048Y-78405000D01*
X107756667Y-78452619D01*
X107804286Y-78547857D01*
X107851905Y-78738333D01*
X107851905Y-78976429D01*
X107804286Y-79166905D01*
X107756667Y-79262143D01*
X107709048Y-79309762D01*
X107613810Y-79357381D01*
X107518571Y-79357381D01*
X107423333Y-79309762D01*
X107375714Y-79262143D01*
X107328095Y-79166905D01*
X107280476Y-78976429D01*
X107280476Y-78738333D01*
X107328095Y-78547857D01*
X107375714Y-78452619D01*
X107423333Y-78405000D01*
X107518571Y-78357381D01*
X105828096Y-76452381D02*
X105637619Y-76452381D01*
X105542381Y-76500000D01*
X105494762Y-76547619D01*
X105399524Y-76690476D01*
X105351905Y-76880952D01*
X105351905Y-77261905D01*
X105399524Y-77357143D01*
X105447143Y-77404762D01*
X105542381Y-77452381D01*
X105732858Y-77452381D01*
X105828096Y-77404762D01*
X105875715Y-77357143D01*
X105923334Y-77261905D01*
X105923334Y-77023810D01*
X105875715Y-76928571D01*
X105828096Y-76880952D01*
X105732858Y-76833333D01*
X105542381Y-76833333D01*
X105447143Y-76880952D01*
X105399524Y-76928571D01*
X105351905Y-77023810D01*
X106494762Y-76880952D02*
X106399524Y-76833333D01*
X106351905Y-76785714D01*
X106304286Y-76690476D01*
X106304286Y-76642857D01*
X106351905Y-76547619D01*
X106399524Y-76500000D01*
X106494762Y-76452381D01*
X106685239Y-76452381D01*
X106780477Y-76500000D01*
X106828096Y-76547619D01*
X106875715Y-76642857D01*
X106875715Y-76690476D01*
X106828096Y-76785714D01*
X106780477Y-76833333D01*
X106685239Y-76880952D01*
X106494762Y-76880952D01*
X106399524Y-76928571D01*
X106351905Y-76976190D01*
X106304286Y-77071429D01*
X106304286Y-77261905D01*
X106351905Y-77357143D01*
X106399524Y-77404762D01*
X106494762Y-77452381D01*
X106685239Y-77452381D01*
X106780477Y-77404762D01*
X106828096Y-77357143D01*
X106875715Y-77261905D01*
X106875715Y-77071429D01*
X106828096Y-76976190D01*
X106780477Y-76928571D01*
X106685239Y-76880952D01*
X107494762Y-76452381D02*
X107590001Y-76452381D01*
X107685239Y-76500000D01*
X107732858Y-76547619D01*
X107780477Y-76642857D01*
X107828096Y-76833333D01*
X107828096Y-77071429D01*
X107780477Y-77261905D01*
X107732858Y-77357143D01*
X107685239Y-77404762D01*
X107590001Y-77452381D01*
X107494762Y-77452381D01*
X107399524Y-77404762D01*
X107351905Y-77357143D01*
X107304286Y-77261905D01*
X107256667Y-77071429D01*
X107256667Y-76833333D01*
X107304286Y-76642857D01*
X107351905Y-76547619D01*
X107399524Y-76500000D01*
X107494762Y-76452381D01*
X93247143Y-79897381D02*
X92913809Y-79421190D01*
X92675714Y-79897381D02*
X92675714Y-78897381D01*
X93056667Y-78897381D01*
X93151905Y-78945000D01*
X93199524Y-78992619D01*
X93247143Y-79087857D01*
X93247143Y-79230714D01*
X93199524Y-79325952D01*
X93151905Y-79373571D01*
X93056667Y-79421190D01*
X92675714Y-79421190D01*
X94199524Y-79897381D02*
X93628095Y-79897381D01*
X93913809Y-79897381D02*
X93913809Y-78897381D01*
X93818571Y-79040238D01*
X93723333Y-79135476D01*
X93628095Y-79183095D01*
X95151905Y-79897381D02*
X94580476Y-79897381D01*
X94866190Y-79897381D02*
X94866190Y-78897381D01*
X94770952Y-79040238D01*
X94675714Y-79135476D01*
X94580476Y-79183095D01*
X93294762Y-81897381D02*
X92723333Y-81897381D01*
X93009047Y-81897381D02*
X93009047Y-80897381D01*
X92913809Y-81040238D01*
X92818571Y-81135476D01*
X92723333Y-81183095D01*
X93723333Y-81897381D02*
X93723333Y-80897381D01*
X93818571Y-81516429D02*
X94104286Y-81897381D01*
X94104286Y-81230714D02*
X93723333Y-81611667D01*
X95009048Y-80897381D02*
X94532857Y-80897381D01*
X94485238Y-81373571D01*
X94532857Y-81325952D01*
X94628095Y-81278333D01*
X94866191Y-81278333D01*
X94961429Y-81325952D01*
X95009048Y-81373571D01*
X95056667Y-81468810D01*
X95056667Y-81706905D01*
X95009048Y-81802143D01*
X94961429Y-81849762D01*
X94866191Y-81897381D01*
X94628095Y-81897381D01*
X94532857Y-81849762D01*
X94485238Y-81802143D01*
X80547143Y-79357381D02*
X80213809Y-78881190D01*
X79975714Y-79357381D02*
X79975714Y-78357381D01*
X80356667Y-78357381D01*
X80451905Y-78405000D01*
X80499524Y-78452619D01*
X80547143Y-78547857D01*
X80547143Y-78690714D01*
X80499524Y-78785952D01*
X80451905Y-78833571D01*
X80356667Y-78881190D01*
X79975714Y-78881190D01*
X81499524Y-79357381D02*
X80928095Y-79357381D01*
X81213809Y-79357381D02*
X81213809Y-78357381D01*
X81118571Y-78500238D01*
X81023333Y-78595476D01*
X80928095Y-78643095D01*
X81880476Y-78452619D02*
X81928095Y-78405000D01*
X82023333Y-78357381D01*
X82261429Y-78357381D01*
X82356667Y-78405000D01*
X82404286Y-78452619D01*
X82451905Y-78547857D01*
X82451905Y-78643095D01*
X82404286Y-78785952D01*
X81832857Y-79357381D01*
X82451905Y-79357381D01*
X80594762Y-77452381D02*
X80023333Y-77452381D01*
X80309047Y-77452381D02*
X80309047Y-76452381D01*
X80213809Y-76595238D01*
X80118571Y-76690476D01*
X80023333Y-76738095D01*
X81023333Y-77452381D02*
X81023333Y-76452381D01*
X81118571Y-77071429D02*
X81404286Y-77452381D01*
X81404286Y-76785714D02*
X81023333Y-77166667D01*
X82309048Y-76452381D02*
X81832857Y-76452381D01*
X81785238Y-76928571D01*
X81832857Y-76880952D01*
X81928095Y-76833333D01*
X82166191Y-76833333D01*
X82261429Y-76880952D01*
X82309048Y-76928571D01*
X82356667Y-77023810D01*
X82356667Y-77261905D01*
X82309048Y-77357143D01*
X82261429Y-77404762D01*
X82166191Y-77452381D01*
X81928095Y-77452381D01*
X81832857Y-77404762D01*
X81785238Y-77357143D01*
X217532381Y-101725238D02*
X217056190Y-102058572D01*
X217532381Y-102296667D02*
X216532381Y-102296667D01*
X216532381Y-101915714D01*
X216580000Y-101820476D01*
X216627619Y-101772857D01*
X216722857Y-101725238D01*
X216865714Y-101725238D01*
X216960952Y-101772857D01*
X217008571Y-101820476D01*
X217056190Y-101915714D01*
X217056190Y-102296667D01*
X216532381Y-101439524D02*
X217532381Y-101106191D01*
X216532381Y-100772857D01*
X217532381Y-99915714D02*
X217532381Y-100487143D01*
X217532381Y-100201429D02*
X216532381Y-100201429D01*
X216675238Y-100296667D01*
X216770476Y-100391905D01*
X216818095Y-100487143D01*
X213278095Y-82484762D02*
X213420952Y-82532381D01*
X213659048Y-82532381D01*
X213754286Y-82484762D01*
X213801905Y-82437143D01*
X213849524Y-82341905D01*
X213849524Y-82246667D01*
X213801905Y-82151429D01*
X213754286Y-82103810D01*
X213659048Y-82056190D01*
X213468571Y-82008571D01*
X213373333Y-81960952D01*
X213325714Y-81913333D01*
X213278095Y-81818095D01*
X213278095Y-81722857D01*
X213325714Y-81627619D01*
X213373333Y-81580000D01*
X213468571Y-81532381D01*
X213706667Y-81532381D01*
X213849524Y-81580000D01*
X214278095Y-82532381D02*
X214278095Y-81532381D01*
X214659048Y-81532381D01*
X214754286Y-81580000D01*
X214801905Y-81627619D01*
X214849524Y-81722857D01*
X214849524Y-81865714D01*
X214801905Y-81960952D01*
X214754286Y-82008571D01*
X214659048Y-82056190D01*
X214278095Y-82056190D01*
X215801905Y-82532381D02*
X215230476Y-82532381D01*
X215516190Y-82532381D02*
X215516190Y-81532381D01*
X215420952Y-81675238D01*
X215325714Y-81770476D01*
X215230476Y-81818095D01*
X221294762Y-91549048D02*
X221342381Y-91406191D01*
X221342381Y-91168095D01*
X221294762Y-91072857D01*
X221247143Y-91025238D01*
X221151905Y-90977619D01*
X221056667Y-90977619D01*
X220961429Y-91025238D01*
X220913810Y-91072857D01*
X220866190Y-91168095D01*
X220818571Y-91358572D01*
X220770952Y-91453810D01*
X220723333Y-91501429D01*
X220628095Y-91549048D01*
X220532857Y-91549048D01*
X220437619Y-91501429D01*
X220390000Y-91453810D01*
X220342381Y-91358572D01*
X220342381Y-91120476D01*
X220390000Y-90977619D01*
X221342381Y-90549048D02*
X220342381Y-90549048D01*
X220342381Y-90168095D01*
X220390000Y-90072857D01*
X220437619Y-90025238D01*
X220532857Y-89977619D01*
X220675714Y-89977619D01*
X220770952Y-90025238D01*
X220818571Y-90072857D01*
X220866190Y-90168095D01*
X220866190Y-90549048D01*
X220818571Y-89549048D02*
X220818571Y-89215714D01*
X221342381Y-89072857D02*
X221342381Y-89549048D01*
X220342381Y-89549048D01*
X220342381Y-89072857D01*
X221056667Y-88691905D02*
X221056667Y-88215714D01*
X221342381Y-88787143D02*
X220342381Y-88453810D01*
X221342381Y-88120476D01*
X221342381Y-87787143D02*
X220342381Y-87787143D01*
X221342381Y-87215714D02*
X220770952Y-87644286D01*
X220342381Y-87215714D02*
X220913810Y-87787143D01*
X220818571Y-86787143D02*
X220818571Y-86453809D01*
X221342381Y-86310952D02*
X221342381Y-86787143D01*
X220342381Y-86787143D01*
X220342381Y-86310952D01*
X221342381Y-85310952D02*
X220866190Y-85644286D01*
X221342381Y-85882381D02*
X220342381Y-85882381D01*
X220342381Y-85501428D01*
X220390000Y-85406190D01*
X220437619Y-85358571D01*
X220532857Y-85310952D01*
X220675714Y-85310952D01*
X220770952Y-85358571D01*
X220818571Y-85406190D01*
X220866190Y-85501428D01*
X220866190Y-85882381D01*
X216404762Y-116285715D02*
X216452381Y-116142858D01*
X216452381Y-115904762D01*
X216404762Y-115809524D01*
X216357143Y-115761905D01*
X216261905Y-115714286D01*
X216166667Y-115714286D01*
X216071429Y-115761905D01*
X216023810Y-115809524D01*
X215976190Y-115904762D01*
X215928571Y-116095239D01*
X215880952Y-116190477D01*
X215833333Y-116238096D01*
X215738095Y-116285715D01*
X215642857Y-116285715D01*
X215547619Y-116238096D01*
X215500000Y-116190477D01*
X215452381Y-116095239D01*
X215452381Y-115857143D01*
X215500000Y-115714286D01*
X215785714Y-115428572D02*
X215785714Y-115047620D01*
X215452381Y-115285715D02*
X216309524Y-115285715D01*
X216404762Y-115238096D01*
X216452381Y-115142858D01*
X216452381Y-115047620D01*
X215785714Y-114809524D02*
X216452381Y-114571429D01*
X215785714Y-114333333D02*
X216452381Y-114571429D01*
X216690476Y-114666667D01*
X216738095Y-114714286D01*
X216785714Y-114809524D01*
X216452381Y-113809524D02*
X216404762Y-113904762D01*
X216309524Y-113952381D01*
X215452381Y-113952381D01*
X215785714Y-112999999D02*
X216452381Y-112999999D01*
X215785714Y-113428571D02*
X216309524Y-113428571D01*
X216404762Y-113380952D01*
X216452381Y-113285714D01*
X216452381Y-113142856D01*
X216404762Y-113047618D01*
X216357143Y-112999999D01*
X216404762Y-112571428D02*
X216452381Y-112476190D01*
X216452381Y-112285714D01*
X216404762Y-112190475D01*
X216309524Y-112142856D01*
X216261905Y-112142856D01*
X216166667Y-112190475D01*
X216119048Y-112285714D01*
X216119048Y-112428571D01*
X216071429Y-112523809D01*
X215976190Y-112571428D01*
X215928571Y-112571428D01*
X215833333Y-112523809D01*
X215785714Y-112428571D01*
X215785714Y-112285714D01*
X215833333Y-112190475D01*
X215785714Y-110952380D02*
X216785714Y-110952380D01*
X215833333Y-110952380D02*
X215785714Y-110857142D01*
X215785714Y-110666665D01*
X215833333Y-110571427D01*
X215880952Y-110523808D01*
X215976190Y-110476189D01*
X216261905Y-110476189D01*
X216357143Y-110523808D01*
X216404762Y-110571427D01*
X216452381Y-110666665D01*
X216452381Y-110857142D01*
X216404762Y-110952380D01*
X216404762Y-109666665D02*
X216452381Y-109761903D01*
X216452381Y-109952380D01*
X216404762Y-110047618D01*
X216309524Y-110095237D01*
X215928571Y-110095237D01*
X215833333Y-110047618D01*
X215785714Y-109952380D01*
X215785714Y-109761903D01*
X215833333Y-109666665D01*
X215928571Y-109619046D01*
X216023810Y-109619046D01*
X216119048Y-110095237D01*
X215785714Y-109190475D02*
X216452381Y-109190475D01*
X215880952Y-109190475D02*
X215833333Y-109142856D01*
X215785714Y-109047618D01*
X215785714Y-108904760D01*
X215833333Y-108809522D01*
X215928571Y-108761903D01*
X216452381Y-108761903D01*
M02*
