G04 #@! TF.FileFunction,Soldermask,Top*
%FSLAX46Y46*%
G04 Gerber Fmt 4.6, Leading zero omitted, Abs format (unit mm)*
G04 Created by KiCad (PCBNEW 4.0.1-stable) date 2016/10/28 19:38:33*
%MOMM*%
G01*
G04 APERTURE LIST*
%ADD10C,0.100000*%
%ADD11C,2.500000*%
%ADD12O,2.200000X1.800000*%
%ADD13R,10.000000X25.000000*%
%ADD14C,1.600000*%
%ADD15C,1.800000*%
%ADD16R,1.800000X1.800000*%
%ADD17C,2.000000*%
%ADD18R,2.200000X2.200000*%
G04 APERTURE END LIST*
D10*
D11*
X182755000Y-107630000D03*
X182755000Y-94630000D03*
D12*
X198030000Y-88430000D03*
X198030000Y-90970000D03*
X198030000Y-85890000D03*
X198030000Y-83350000D03*
X190410000Y-83350000D03*
X190410000Y-85890000D03*
X190410000Y-88430000D03*
X190410000Y-90970000D03*
D13*
X118020000Y-98590000D03*
X105320000Y-98590000D03*
X130720000Y-98590000D03*
X143420000Y-98590000D03*
X92620000Y-98590000D03*
X79920000Y-98590000D03*
X156120000Y-98590000D03*
X168820000Y-98590000D03*
D14*
X205015000Y-85890000D03*
X205015000Y-90970000D03*
X205650000Y-82080000D03*
X210730000Y-82080000D03*
D15*
X197776000Y-112814000D03*
D16*
X207936000Y-112814000D03*
D15*
X205396000Y-105702000D03*
D16*
X195236000Y-105702000D03*
D15*
X192442000Y-98590000D03*
D16*
X202602000Y-98590000D03*
D15*
X165010000Y-81445000D03*
D16*
X175170000Y-81445000D03*
D15*
X175170000Y-77000000D03*
D16*
X185330000Y-77000000D03*
D15*
X162470000Y-77000000D03*
D16*
X152310000Y-77000000D03*
D15*
X149770000Y-81445000D03*
D16*
X139610000Y-81445000D03*
D15*
X137070000Y-77000000D03*
D16*
X126910000Y-77000000D03*
D15*
X124370000Y-81445000D03*
D16*
X114210000Y-81445000D03*
D15*
X111670000Y-77000000D03*
D16*
X101510000Y-77000000D03*
D15*
X98970000Y-81445000D03*
D16*
X88810000Y-81445000D03*
D15*
X86270000Y-77000000D03*
D16*
X76110000Y-77000000D03*
D11*
X209460000Y-100876000D03*
X214540000Y-98336000D03*
X214540000Y-103416000D03*
D17*
X214540000Y-85890000D03*
X214540000Y-90970000D03*
D18*
X218858000Y-112560000D03*
M02*
