M48
;DRILL file {KiCad 4.0.1-stable} date 2016/10/28 19:29:14
;FORMAT={-:-/ absolute / metric / decimal}
FMAT,2
METRIC,TZ
T1C0.800
T2C1.000
%
G90
G05
M71
T1
X76.11Y-77.
X86.27Y-77.
X88.81Y-81.445
X98.97Y-81.445
X101.51Y-77.
X111.67Y-77.
X114.21Y-81.445
X124.37Y-81.445
X126.91Y-77.
X137.07Y-77.
X139.61Y-81.445
X149.77Y-81.445
X152.31Y-77.
X162.47Y-77.
X165.01Y-81.445
X175.17Y-77.
X175.17Y-81.445
X185.33Y-77.
X190.41Y-83.35
X190.41Y-85.89
X190.41Y-88.43
X190.41Y-90.97
X192.442Y-98.59
X195.236Y-105.702
X197.776Y-112.814
X198.03Y-83.35
X198.03Y-85.89
X198.03Y-88.43
X198.03Y-90.97
X202.602Y-98.59
X205.015Y-85.89
X205.015Y-90.97
X205.396Y-105.702
X205.65Y-82.08
X207.936Y-112.814
X210.73Y-82.08
X214.54Y-85.89
X214.54Y-90.97
X218.858Y-112.56
T2
X182.755Y-94.63
X182.755Y-107.63
X209.46Y-100.876
X214.54Y-98.336
X214.54Y-103.416
T0
M30
