G04 #@! TF.FileFunction,Legend,Bot*
%FSLAX46Y46*%
G04 Gerber Fmt 4.6, Leading zero omitted, Abs format (unit mm)*
G04 Created by KiCad (PCBNEW 4.0.1-stable) date 2016/10/28 19:38:33*
%MOMM*%
G01*
G04 APERTURE LIST*
%ADD10C,0.100000*%
%ADD11C,0.500000*%
%ADD12C,0.700000*%
%ADD13C,0.150000*%
G04 APERTURE END LIST*
D10*
D11*
X119785714Y-98357143D02*
X119785714Y-95357143D01*
X119071429Y-95357143D01*
X118642857Y-95500000D01*
X118357143Y-95785714D01*
X118214286Y-96071429D01*
X118071429Y-96642857D01*
X118071429Y-97071429D01*
X118214286Y-97642857D01*
X118357143Y-97928571D01*
X118642857Y-98214286D01*
X119071429Y-98357143D01*
X119785714Y-98357143D01*
X115642857Y-98214286D02*
X115928571Y-98357143D01*
X116500000Y-98357143D01*
X116785714Y-98214286D01*
X116928571Y-97928571D01*
X116928571Y-96785714D01*
X116785714Y-96500000D01*
X116500000Y-96357143D01*
X115928571Y-96357143D01*
X115642857Y-96500000D01*
X115500000Y-96785714D01*
X115500000Y-97071429D01*
X116928571Y-97357143D01*
X114214285Y-96357143D02*
X114214285Y-98357143D01*
X114214285Y-96642857D02*
X114071428Y-96500000D01*
X113785714Y-96357143D01*
X113357142Y-96357143D01*
X113071428Y-96500000D01*
X112928571Y-96785714D01*
X112928571Y-98357143D01*
X111499999Y-98357143D02*
X111499999Y-95357143D01*
X111214285Y-97214286D02*
X110357142Y-98357143D01*
X110357142Y-96357143D02*
X111499999Y-97500000D01*
X107928571Y-98214286D02*
X108214285Y-98357143D01*
X108785714Y-98357143D01*
X109071428Y-98214286D01*
X109214285Y-97928571D01*
X109214285Y-96785714D01*
X109071428Y-96500000D01*
X108785714Y-96357143D01*
X108214285Y-96357143D01*
X107928571Y-96500000D01*
X107785714Y-96785714D01*
X107785714Y-97071429D01*
X109214285Y-97357143D01*
X106499999Y-96357143D02*
X106499999Y-98357143D01*
X106499999Y-96642857D02*
X106357142Y-96500000D01*
X106071428Y-96357143D01*
X105642856Y-96357143D01*
X105357142Y-96500000D01*
X105214285Y-96785714D01*
X105214285Y-98357143D01*
D12*
X120042858Y-91223810D02*
X119566668Y-91461905D01*
X118614287Y-91461905D01*
X118138096Y-91223810D01*
X117900001Y-90747619D01*
X117900001Y-90509524D01*
X118138096Y-90033333D01*
X118614287Y-89795238D01*
X119328572Y-89795238D01*
X119804763Y-89557143D01*
X120042858Y-89080952D01*
X120042858Y-88842857D01*
X119804763Y-88366667D01*
X119328572Y-88128571D01*
X118614287Y-88128571D01*
X118138096Y-88366667D01*
X116471430Y-88128571D02*
X114566668Y-88128571D01*
X115757144Y-86461905D02*
X115757144Y-90747619D01*
X115519049Y-91223810D01*
X115042858Y-91461905D01*
X114566668Y-91461905D01*
X113376191Y-88128571D02*
X112185715Y-91461905D01*
X110995239Y-88128571D02*
X112185715Y-91461905D01*
X112661906Y-92652381D01*
X112900001Y-92890476D01*
X113376191Y-93128571D01*
X108376191Y-91461905D02*
X108852382Y-91223810D01*
X109090477Y-90747619D01*
X109090477Y-86461905D01*
X104328572Y-88128571D02*
X104328572Y-91461905D01*
X106471429Y-88128571D02*
X106471429Y-90747619D01*
X106233334Y-91223810D01*
X105757143Y-91461905D01*
X105042857Y-91461905D01*
X104566667Y-91223810D01*
X104328572Y-90985714D01*
X102185714Y-91223810D02*
X101709524Y-91461905D01*
X100757143Y-91461905D01*
X100280952Y-91223810D01*
X100042857Y-90747619D01*
X100042857Y-90509524D01*
X100280952Y-90033333D01*
X100757143Y-89795238D01*
X101471428Y-89795238D01*
X101947619Y-89557143D01*
X102185714Y-89080952D01*
X102185714Y-88842857D01*
X101947619Y-88366667D01*
X101471428Y-88128571D01*
X100757143Y-88128571D01*
X100280952Y-88366667D01*
X94090476Y-88128571D02*
X94090476Y-93128571D01*
X94090476Y-88366667D02*
X93614285Y-88128571D01*
X92661904Y-88128571D01*
X92185714Y-88366667D01*
X91947619Y-88604762D01*
X91709523Y-89080952D01*
X91709523Y-90509524D01*
X91947619Y-90985714D01*
X92185714Y-91223810D01*
X92661904Y-91461905D01*
X93614285Y-91461905D01*
X94090476Y-91223810D01*
X89566666Y-91461905D02*
X89566666Y-88128571D01*
X89566666Y-86461905D02*
X89804761Y-86700000D01*
X89566666Y-86938095D01*
X89328571Y-86700000D01*
X89566666Y-86461905D01*
X89566666Y-86938095D01*
X85042857Y-91461905D02*
X85042857Y-88842857D01*
X85280952Y-88366667D01*
X85757142Y-88128571D01*
X86709523Y-88128571D01*
X87185714Y-88366667D01*
X85042857Y-91223810D02*
X85519047Y-91461905D01*
X86709523Y-91461905D01*
X87185714Y-91223810D01*
X87423809Y-90747619D01*
X87423809Y-90271429D01*
X87185714Y-89795238D01*
X86709523Y-89557143D01*
X85519047Y-89557143D01*
X85042857Y-89319048D01*
X82661904Y-88128571D02*
X82661904Y-91461905D01*
X82661904Y-88604762D02*
X82423809Y-88366667D01*
X81947618Y-88128571D01*
X81233332Y-88128571D01*
X80757142Y-88366667D01*
X80519047Y-88842857D01*
X80519047Y-91461905D01*
X77423808Y-91461905D02*
X77899999Y-91223810D01*
X78138094Y-90985714D01*
X78376189Y-90509524D01*
X78376189Y-89080952D01*
X78138094Y-88604762D01*
X77899999Y-88366667D01*
X77423808Y-88128571D01*
X76709522Y-88128571D01*
X76233332Y-88366667D01*
X75995237Y-88604762D01*
X75757141Y-89080952D01*
X75757141Y-90509524D01*
X75995237Y-90985714D01*
X76233332Y-91223810D01*
X76709522Y-91461905D01*
X77423808Y-91461905D01*
D13*
X186755000Y-101130000D02*
X186755000Y-118130000D01*
X186755000Y-118130000D02*
X126755000Y-118130000D01*
X126755000Y-118130000D02*
X126755000Y-84130000D01*
X126755000Y-84130000D02*
X186755000Y-84130000D01*
X186755000Y-84130000D02*
X186755000Y-101130000D01*
X180376320Y-94630000D02*
G75*
G03X180376320Y-94630000I-2121320J0D01*
G01*
X180491068Y-107630000D02*
G75*
G03X180491068Y-107630000I-2236068J0D01*
G01*
X178255000Y-96130000D02*
X178255000Y-93130000D01*
X176755000Y-94630000D02*
X179755000Y-94630000D01*
X176755000Y-107630000D02*
X179755000Y-107630000D01*
X183755000Y-101130000D02*
G75*
G03X183755000Y-101130000I-1000000J0D01*
G01*
X158025000Y-101130000D02*
G75*
G03X158025000Y-101130000I-1270000J0D01*
G01*
X157540714Y-95978571D02*
X157397857Y-96026190D01*
X157350238Y-96073810D01*
X157302619Y-96169048D01*
X157302619Y-96311905D01*
X157350238Y-96407143D01*
X157397857Y-96454762D01*
X157493095Y-96502381D01*
X157874048Y-96502381D01*
X157874048Y-95502381D01*
X157540714Y-95502381D01*
X157445476Y-95550000D01*
X157397857Y-95597619D01*
X157350238Y-95692857D01*
X157350238Y-95788095D01*
X157397857Y-95883333D01*
X157445476Y-95930952D01*
X157540714Y-95978571D01*
X157874048Y-95978571D01*
X157016905Y-95502381D02*
X156445476Y-95502381D01*
X156731191Y-96502381D02*
X156731191Y-95502381D01*
X155588333Y-96502381D02*
X156159762Y-96502381D01*
X155874048Y-96502381D02*
X155874048Y-95502381D01*
X155969286Y-95645238D01*
X156064524Y-95740476D01*
X156159762Y-95788095D01*
M02*
